%TF.GenerationSoftware,KiCad,Pcbnew,9.0.7*%
%TF.CreationDate,2026-03-17T19:39:46-05:00*%
%TF.ProjectId,fieldbox,6669656c-6462-46f7-982e-6b696361645f,rev?*%
%TF.SameCoordinates,Original*%
%TF.FileFunction,Soldermask,Bot*%
%TF.FilePolarity,Negative*%
%FSLAX46Y46*%
G04 Gerber Fmt 4.6, Leading zero omitted, Abs format (unit mm)*
G04 Created by KiCad (PCBNEW 9.0.7) date 2026-03-17 19:39:46*
%MOMM*%
%LPD*%
G01*
G04 APERTURE LIST*
G04 Aperture macros list*
%AMRoundRect*
0 Rectangle with rounded corners*
0 $1 Rounding radius*
0 $2 $3 $4 $5 $6 $7 $8 $9 X,Y pos of 4 corners*
0 Add a 4 corners polygon primitive as box body*
4,1,4,$2,$3,$4,$5,$6,$7,$8,$9,$2,$3,0*
0 Add four circle primitives for the rounded corners*
1,1,$1+$1,$2,$3*
1,1,$1+$1,$4,$5*
1,1,$1+$1,$6,$7*
1,1,$1+$1,$8,$9*
0 Add four rect primitives between the rounded corners*
20,1,$1+$1,$2,$3,$4,$5,0*
20,1,$1+$1,$4,$5,$6,$7,0*
20,1,$1+$1,$6,$7,$8,$9,0*
20,1,$1+$1,$8,$9,$2,$3,0*%
G04 Aperture macros list end*
%ADD10R,1.700000X1.700000*%
%ADD11C,1.700000*%
%ADD12RoundRect,0.250000X-0.550000X0.550000X-0.550000X-0.550000X0.550000X-0.550000X0.550000X0.550000X0*%
%ADD13C,1.600000*%
%ADD14RoundRect,0.250000X-0.550000X-0.550000X0.550000X-0.550000X0.550000X0.550000X-0.550000X0.550000X0*%
%ADD15R,1.600000X1.600000*%
%ADD16RoundRect,0.250000X0.600000X-0.600000X0.600000X0.600000X-0.600000X0.600000X-0.600000X-0.600000X0*%
%ADD17C,0.250000*%
G04 APERTURE END LIST*
D10*
%TO.C,J2*%
X223934707Y-125653706D03*
D11*
X223934707Y-128193706D03*
X223934707Y-130733706D03*
X223934707Y-133273706D03*
X223934707Y-135813706D03*
X223934707Y-138353706D03*
%TD*%
D10*
%TO.C,J1*%
X223934707Y-80010449D03*
D11*
X223934707Y-82550449D03*
X223934707Y-85090449D03*
X223934707Y-87630449D03*
X223934707Y-90170449D03*
X223934707Y-92710449D03*
%TD*%
D10*
%TO.C,J5*%
X223934707Y-145908233D03*
D11*
X223934707Y-148448233D03*
X223934707Y-150988233D03*
X223934707Y-153528233D03*
%TD*%
D10*
%TO.C,J3*%
X187315285Y-60248473D03*
D11*
X187315285Y-62788473D03*
X187315285Y-65328473D03*
X187315285Y-67868473D03*
X187315285Y-70408473D03*
X187315285Y-72948473D03*
X187315285Y-75488473D03*
X187315285Y-78028473D03*
X187315285Y-80568473D03*
X187315285Y-83108473D03*
X187315285Y-85648473D03*
%TD*%
D12*
%TO.C,U19*%
X196141849Y-74519598D03*
D13*
X193601849Y-74519598D03*
X191061849Y-74519598D03*
X191061849Y-82139598D03*
X193601849Y-82139598D03*
X196141849Y-82139598D03*
%TD*%
D12*
%TO.C,U22*%
X204283009Y-74498449D03*
D13*
X201743009Y-74498449D03*
X199203009Y-74498449D03*
X199203009Y-82118449D03*
X201743009Y-82118449D03*
X204283009Y-82118449D03*
%TD*%
D14*
%TO.C,cmod_a1*%
X186931257Y-146729504D03*
D13*
X186931257Y-144189504D03*
X186931257Y-141649504D03*
X186931257Y-139109504D03*
X186931257Y-136569504D03*
X186931257Y-134029504D03*
X186931257Y-131489504D03*
X186931257Y-128949504D03*
X186931257Y-126409504D03*
X186931257Y-123869504D03*
X186931257Y-121329504D03*
X186931257Y-118789504D03*
X186931257Y-116249504D03*
X186931257Y-113709504D03*
X186931257Y-111169504D03*
X186931257Y-108629504D03*
X186931257Y-106089504D03*
X186931257Y-103549504D03*
X186931257Y-101009504D03*
X186931257Y-98469504D03*
X186931257Y-95929504D03*
X186931257Y-93389504D03*
X186931257Y-90849504D03*
X186931257Y-88309504D03*
D15*
X202171257Y-88309504D03*
D13*
X202171257Y-90849504D03*
X202171257Y-93389504D03*
X202171257Y-95929504D03*
X202171257Y-98469504D03*
X202171257Y-101009504D03*
X202171257Y-103549504D03*
X202171257Y-106089504D03*
X202171257Y-108629504D03*
X202171257Y-111169504D03*
X202171257Y-113709504D03*
X202171257Y-116249504D03*
X202171257Y-118789504D03*
X202171257Y-121329504D03*
X202171257Y-123869504D03*
X202171257Y-126409504D03*
X202171257Y-128949504D03*
X202171257Y-131489504D03*
X202171257Y-134029504D03*
X202171257Y-136569504D03*
X202171257Y-139109504D03*
X202171257Y-141649504D03*
X202171257Y-144189504D03*
X202171257Y-146729504D03*
%TD*%
D16*
%TO.C,J4*%
X201379497Y-53217513D03*
D11*
X201379497Y-50677513D03*
X198839497Y-53217513D03*
X198839497Y-50677513D03*
X196299497Y-53217513D03*
X196299497Y-50677513D03*
X193759497Y-53217513D03*
X193759497Y-50677513D03*
X191219497Y-53217513D03*
X191219497Y-50677513D03*
%TD*%
D17*
%TO.C,b_up2*%
X191443379Y-123519530D02*
X191443379Y-120979530D01*
X197443379Y-119249530D02*
X191443379Y-119249530D01*
X197443379Y-123519530D02*
X197443379Y-120979530D01*
X197443379Y-125249530D02*
X191443379Y-125249530D01*
X192923379Y-124219530D02*
G75*
G02*
X191783379Y-124219530I-570000J0D01*
G01*
X191783379Y-124219530D02*
G75*
G02*
X192923379Y-124219530I570000J0D01*
G01*
X192983379Y-120219530D02*
G75*
G02*
X191843379Y-120219530I-570000J0D01*
G01*
X191843379Y-120219530D02*
G75*
G02*
X192983379Y-120219530I570000J0D01*
G01*
X196153379Y-122249530D02*
G75*
G02*
X192733379Y-122249530I-1710000J0D01*
G01*
X192733379Y-122249530D02*
G75*
G02*
X196153379Y-122249530I1710000J0D01*
G01*
X196983379Y-120159530D02*
G75*
G02*
X195843379Y-120159530I-570000J0D01*
G01*
X195843379Y-120159530D02*
G75*
G02*
X196983379Y-120159530I570000J0D01*
G01*
X197043379Y-124279530D02*
G75*
G02*
X195903379Y-124279530I-570000J0D01*
G01*
X195903379Y-124279530D02*
G75*
G02*
X197043379Y-124279530I570000J0D01*
G01*
%TO.C,b_up1*%
X194114865Y-97082750D02*
X194114865Y-91082750D01*
X195844865Y-91082750D02*
X198384865Y-91082750D01*
X195844865Y-97082750D02*
X198384865Y-97082750D01*
X200114865Y-97082750D02*
X200114865Y-91082750D01*
X195654865Y-96112750D02*
G75*
G02*
X194514865Y-96112750I-570000J0D01*
G01*
X194514865Y-96112750D02*
G75*
G02*
X195654865Y-96112750I570000J0D01*
G01*
X195714865Y-91992750D02*
G75*
G02*
X194574865Y-91992750I-570000J0D01*
G01*
X194574865Y-91992750D02*
G75*
G02*
X195714865Y-91992750I570000J0D01*
G01*
X198824865Y-94082750D02*
G75*
G02*
X195404865Y-94082750I-1710000J0D01*
G01*
X195404865Y-94082750D02*
G75*
G02*
X198824865Y-94082750I1710000J0D01*
G01*
X199714865Y-92052750D02*
G75*
G02*
X198574865Y-92052750I-570000J0D01*
G01*
X198574865Y-92052750D02*
G75*
G02*
X199714865Y-92052750I570000J0D01*
G01*
X199774865Y-96052750D02*
G75*
G02*
X198634865Y-96052750I-570000J0D01*
G01*
X198634865Y-96052750D02*
G75*
G02*
X199774865Y-96052750I570000J0D01*
G01*
%TD*%
M02*
