%TF.GenerationSoftware,KiCad,Pcbnew,9.0.7*%
%TF.CreationDate,2026-03-17T19:39:46-05:00*%
%TF.ProjectId,fieldbox,6669656c-6462-46f7-982e-6b696361645f,rev?*%
%TF.SameCoordinates,Original*%
%TF.FileFunction,Legend,Bot*%
%TF.FilePolarity,Positive*%
%FSLAX46Y46*%
G04 Gerber Fmt 4.6, Leading zero omitted, Abs format (unit mm)*
G04 Created by KiCad (PCBNEW 9.0.7) date 2026-03-17 19:39:46*
%MOMM*%
%LPD*%
G01*
G04 APERTURE LIST*
%ADD10C,0.100000*%
%ADD11C,0.150000*%
%ADD12C,0.120000*%
%ADD13C,0.250000*%
G04 APERTURE END LIST*
D10*
X198869352Y-88804465D02*
X198774114Y-88852084D01*
X198774114Y-88852084D02*
X198631257Y-88852084D01*
X198631257Y-88852084D02*
X198488400Y-88804465D01*
X198488400Y-88804465D02*
X198393162Y-88709227D01*
X198393162Y-88709227D02*
X198345543Y-88613989D01*
X198345543Y-88613989D02*
X198297924Y-88423513D01*
X198297924Y-88423513D02*
X198297924Y-88280656D01*
X198297924Y-88280656D02*
X198345543Y-88090180D01*
X198345543Y-88090180D02*
X198393162Y-87994942D01*
X198393162Y-87994942D02*
X198488400Y-87899704D01*
X198488400Y-87899704D02*
X198631257Y-87852084D01*
X198631257Y-87852084D02*
X198726495Y-87852084D01*
X198726495Y-87852084D02*
X198869352Y-87899704D01*
X198869352Y-87899704D02*
X198916971Y-87947323D01*
X198916971Y-87947323D02*
X198916971Y-88280656D01*
X198916971Y-88280656D02*
X198726495Y-88280656D01*
X199345543Y-87852084D02*
X199345543Y-88852084D01*
X199345543Y-88852084D02*
X199916971Y-87852084D01*
X199916971Y-87852084D02*
X199916971Y-88852084D01*
X200393162Y-87852084D02*
X200393162Y-88852084D01*
X200393162Y-88852084D02*
X200631257Y-88852084D01*
X200631257Y-88852084D02*
X200774114Y-88804465D01*
X200774114Y-88804465D02*
X200869352Y-88709227D01*
X200869352Y-88709227D02*
X200916971Y-88613989D01*
X200916971Y-88613989D02*
X200964590Y-88423513D01*
X200964590Y-88423513D02*
X200964590Y-88280656D01*
X200964590Y-88280656D02*
X200916971Y-88090180D01*
X200916971Y-88090180D02*
X200869352Y-87994942D01*
X200869352Y-87994942D02*
X200774114Y-87899704D01*
X200774114Y-87899704D02*
X200631257Y-87852084D01*
X200631257Y-87852084D02*
X200393162Y-87852084D01*
X188614114Y-88852084D02*
X188947447Y-87852084D01*
X188947447Y-87852084D02*
X189280780Y-88852084D01*
X189614114Y-88852084D02*
X189614114Y-88042561D01*
X189614114Y-88042561D02*
X189661733Y-87947323D01*
X189661733Y-87947323D02*
X189709352Y-87899704D01*
X189709352Y-87899704D02*
X189804590Y-87852084D01*
X189804590Y-87852084D02*
X189995066Y-87852084D01*
X189995066Y-87852084D02*
X190090304Y-87899704D01*
X190090304Y-87899704D02*
X190137923Y-87947323D01*
X190137923Y-87947323D02*
X190185542Y-88042561D01*
X190185542Y-88042561D02*
X190185542Y-88852084D01*
D11*
X206934316Y-51614179D02*
X207648601Y-51614179D01*
X207648601Y-51614179D02*
X207791458Y-51566560D01*
X207791458Y-51566560D02*
X207886697Y-51471322D01*
X207886697Y-51471322D02*
X207934316Y-51328465D01*
X207934316Y-51328465D02*
X207934316Y-51233227D01*
X207267649Y-52518941D02*
X207934316Y-52518941D01*
X206886697Y-52280846D02*
X207600982Y-52042751D01*
X207600982Y-52042751D02*
X207600982Y-52661798D01*
%TO.C,cmod_a1*%
D10*
X185661257Y-156889504D02*
X203441257Y-156889504D01*
X203441257Y-85769504D01*
X185661257Y-85769504D01*
X185661257Y-156889504D01*
D12*
%TO.C,J4*%
X186009497Y-47387513D02*
X186009497Y-56507513D01*
X186009497Y-56507513D02*
X206589497Y-56507513D01*
X187309497Y-48697513D02*
X187309497Y-55197513D01*
X187309497Y-55197513D02*
X194249497Y-55197513D01*
X194249497Y-55197513D02*
X194249497Y-56507513D01*
X198349497Y-55197513D02*
X205289497Y-55197513D01*
X198349497Y-56507513D02*
X198349497Y-55197513D01*
X200879497Y-57897513D02*
X201379497Y-56897513D01*
X201379497Y-56897513D02*
X201879497Y-57897513D01*
X201879497Y-57897513D02*
X200879497Y-57897513D01*
X205289497Y-48697513D02*
X187309497Y-48697513D01*
X205289497Y-55197513D02*
X205289497Y-48697513D01*
X206589497Y-47387513D02*
X186009497Y-47387513D01*
X206589497Y-56507513D02*
X206589497Y-47387513D01*
%TD*%
D13*
%TO.C,b_up2*%
X191443379Y-123519530D02*
X191443379Y-120979530D01*
X197443379Y-119249530D02*
X191443379Y-119249530D01*
X197443379Y-123519530D02*
X197443379Y-120979530D01*
X197443379Y-125249530D02*
X191443379Y-125249530D01*
X192923379Y-124219530D02*
G75*
G02*
X191783379Y-124219530I-570000J0D01*
G01*
X191783379Y-124219530D02*
G75*
G02*
X192923379Y-124219530I570000J0D01*
G01*
X192983379Y-120219530D02*
G75*
G02*
X191843379Y-120219530I-570000J0D01*
G01*
X191843379Y-120219530D02*
G75*
G02*
X192983379Y-120219530I570000J0D01*
G01*
X196153379Y-122249530D02*
G75*
G02*
X192733379Y-122249530I-1710000J0D01*
G01*
X192733379Y-122249530D02*
G75*
G02*
X196153379Y-122249530I1710000J0D01*
G01*
X196983379Y-120159530D02*
G75*
G02*
X195843379Y-120159530I-570000J0D01*
G01*
X195843379Y-120159530D02*
G75*
G02*
X196983379Y-120159530I570000J0D01*
G01*
X197043379Y-124279530D02*
G75*
G02*
X195903379Y-124279530I-570000J0D01*
G01*
X195903379Y-124279530D02*
G75*
G02*
X197043379Y-124279530I570000J0D01*
G01*
%TO.C,b_up1*%
X194114865Y-97082750D02*
X194114865Y-91082750D01*
X195844865Y-91082750D02*
X198384865Y-91082750D01*
X195844865Y-97082750D02*
X198384865Y-97082750D01*
X200114865Y-97082750D02*
X200114865Y-91082750D01*
X195654865Y-96112750D02*
G75*
G02*
X194514865Y-96112750I-570000J0D01*
G01*
X194514865Y-96112750D02*
G75*
G02*
X195654865Y-96112750I570000J0D01*
G01*
X195714865Y-91992750D02*
G75*
G02*
X194574865Y-91992750I-570000J0D01*
G01*
X194574865Y-91992750D02*
G75*
G02*
X195714865Y-91992750I570000J0D01*
G01*
X198824865Y-94082750D02*
G75*
G02*
X195404865Y-94082750I-1710000J0D01*
G01*
X195404865Y-94082750D02*
G75*
G02*
X198824865Y-94082750I1710000J0D01*
G01*
X199714865Y-92052750D02*
G75*
G02*
X198574865Y-92052750I-570000J0D01*
G01*
X198574865Y-92052750D02*
G75*
G02*
X199714865Y-92052750I570000J0D01*
G01*
X199774865Y-96052750D02*
G75*
G02*
X198634865Y-96052750I-570000J0D01*
G01*
X198634865Y-96052750D02*
G75*
G02*
X199774865Y-96052750I570000J0D01*
G01*
%TD*%
M02*
