%TF.GenerationSoftware,KiCad,Pcbnew,9.0.7*%
%TF.CreationDate,2026-03-17T19:39:46-05:00*%
%TF.ProjectId,fieldbox,6669656c-6462-46f7-982e-6b696361645f,rev?*%
%TF.SameCoordinates,Original*%
%TF.FileFunction,Soldermask,Top*%
%TF.FilePolarity,Negative*%
%FSLAX46Y46*%
G04 Gerber Fmt 4.6, Leading zero omitted, Abs format (unit mm)*
G04 Created by KiCad (PCBNEW 9.0.7) date 2026-03-17 19:39:46*
%MOMM*%
%LPD*%
G01*
G04 APERTURE LIST*
G04 Aperture macros list*
%AMRoundRect*
0 Rectangle with rounded corners*
0 $1 Rounding radius*
0 $2 $3 $4 $5 $6 $7 $8 $9 X,Y pos of 4 corners*
0 Add a 4 corners polygon primitive as box body*
4,1,4,$2,$3,$4,$5,$6,$7,$8,$9,$2,$3,0*
0 Add four circle primitives for the rounded corners*
1,1,$1+$1,$2,$3*
1,1,$1+$1,$4,$5*
1,1,$1+$1,$6,$7*
1,1,$1+$1,$8,$9*
0 Add four rect primitives between the rounded corners*
20,1,$1+$1,$2,$3,$4,$5,0*
20,1,$1+$1,$4,$5,$6,$7,0*
20,1,$1+$1,$6,$7,$8,$9,0*
20,1,$1+$1,$8,$9,$2,$3,0*%
%AMFreePoly0*
4,1,6,1.000000,0.000000,0.500000,-0.750000,-0.500000,-0.750000,-0.500000,0.750000,0.500000,0.750000,1.000000,0.000000,1.000000,0.000000,$1*%
G04 Aperture macros list end*
%ADD10RoundRect,0.200000X-0.275000X0.200000X-0.275000X-0.200000X0.275000X-0.200000X0.275000X0.200000X0*%
%ADD11RoundRect,0.250000X0.650000X-1.000000X0.650000X1.000000X-0.650000X1.000000X-0.650000X-1.000000X0*%
%ADD12RoundRect,0.100000X-0.637500X-0.100000X0.637500X-0.100000X0.637500X0.100000X-0.637500X0.100000X0*%
%ADD13RoundRect,0.150000X-0.650000X-0.150000X0.650000X-0.150000X0.650000X0.150000X-0.650000X0.150000X0*%
%ADD14R,2.400000X3.200000*%
%ADD15RoundRect,0.225000X-0.250000X0.225000X-0.250000X-0.225000X0.250000X-0.225000X0.250000X0.225000X0*%
%ADD16RoundRect,0.125000X-0.125000X0.125000X-0.125000X-0.125000X0.125000X-0.125000X0.125000X0.125000X0*%
%ADD17RoundRect,0.200000X0.200000X0.275000X-0.200000X0.275000X-0.200000X-0.275000X0.200000X-0.275000X0*%
%ADD18RoundRect,0.225000X0.335876X0.017678X0.017678X0.335876X-0.335876X-0.017678X-0.017678X-0.335876X0*%
%ADD19RoundRect,0.250000X-0.457500X-0.445000X0.457500X-0.445000X0.457500X0.445000X-0.457500X0.445000X0*%
%ADD20R,1.700000X1.700000*%
%ADD21C,1.700000*%
%ADD22RoundRect,0.125000X0.125000X-0.125000X0.125000X0.125000X-0.125000X0.125000X-0.125000X-0.125000X0*%
%ADD23RoundRect,0.200000X-0.200000X-0.275000X0.200000X-0.275000X0.200000X0.275000X-0.200000X0.275000X0*%
%ADD24RoundRect,0.125000X-0.125000X-0.125000X0.125000X-0.125000X0.125000X0.125000X-0.125000X0.125000X0*%
%ADD25RoundRect,0.162500X0.162500X-0.650000X0.162500X0.650000X-0.162500X0.650000X-0.162500X-0.650000X0*%
%ADD26RoundRect,0.225000X0.225000X0.250000X-0.225000X0.250000X-0.225000X-0.250000X0.225000X-0.250000X0*%
%ADD27RoundRect,0.218750X0.256250X-0.218750X0.256250X0.218750X-0.256250X0.218750X-0.256250X-0.218750X0*%
%ADD28O,2.050000X0.590000*%
%ADD29RoundRect,0.225000X-0.225000X-0.250000X0.225000X-0.250000X0.225000X0.250000X-0.225000X0.250000X0*%
%ADD30RoundRect,0.100000X0.637500X0.100000X-0.637500X0.100000X-0.637500X-0.100000X0.637500X-0.100000X0*%
%ADD31RoundRect,0.150000X0.150000X-0.512500X0.150000X0.512500X-0.150000X0.512500X-0.150000X-0.512500X0*%
%ADD32R,2.000000X2.000000*%
%ADD33RoundRect,0.225000X0.250000X-0.225000X0.250000X0.225000X-0.250000X0.225000X-0.250000X-0.225000X0*%
%ADD34RoundRect,0.200000X0.335876X0.053033X0.053033X0.335876X-0.335876X-0.053033X-0.053033X-0.335876X0*%
%ADD35RoundRect,0.200000X0.275000X-0.200000X0.275000X0.200000X-0.275000X0.200000X-0.275000X-0.200000X0*%
%ADD36FreePoly0,0.000000*%
%ADD37FreePoly0,180.000000*%
%ADD38RoundRect,0.250000X-0.650000X1.000000X-0.650000X-1.000000X0.650000X-1.000000X0.650000X1.000000X0*%
%ADD39RoundRect,0.218750X0.218750X0.256250X-0.218750X0.256250X-0.218750X-0.256250X0.218750X-0.256250X0*%
%ADD40RoundRect,0.250000X0.420000X0.945000X-0.420000X0.945000X-0.420000X-0.945000X0.420000X-0.945000X0*%
%ADD41FreePoly0,270.000000*%
%ADD42FreePoly0,90.000000*%
%ADD43R,1.100000X1.000000*%
%ADD44RoundRect,0.100000X-0.675000X-0.100000X0.675000X-0.100000X0.675000X0.100000X-0.675000X0.100000X0*%
%ADD45R,3.000000X3.000000*%
%ADD46R,0.300000X0.800000*%
%ADD47R,2.100000X1.300000*%
%ADD48RoundRect,0.250000X-0.300000X-1.600000X0.300000X-1.600000X0.300000X1.600000X-0.300000X1.600000X0*%
%ADD49C,0.320000*%
%ADD50RoundRect,0.150000X-0.512500X-0.150000X0.512500X-0.150000X0.512500X0.150000X-0.512500X0.150000X0*%
%ADD51RoundRect,0.250000X-0.550000X0.550000X-0.550000X-0.550000X0.550000X-0.550000X0.550000X0.550000X0*%
%ADD52C,1.600000*%
%ADD53RoundRect,0.100000X-0.562500X-0.100000X0.562500X-0.100000X0.562500X0.100000X-0.562500X0.100000X0*%
%ADD54RoundRect,0.250000X1.000000X0.650000X-1.000000X0.650000X-1.000000X-0.650000X1.000000X-0.650000X0*%
%ADD55RoundRect,0.100000X-0.225000X-0.100000X0.225000X-0.100000X0.225000X0.100000X-0.225000X0.100000X0*%
%ADD56R,1.800000X1.200000*%
%ADD57RoundRect,0.100000X0.100000X-0.712500X0.100000X0.712500X-0.100000X0.712500X-0.100000X-0.712500X0*%
%ADD58RoundRect,0.100000X-0.100000X0.712500X-0.100000X-0.712500X0.100000X-0.712500X0.100000X0.712500X0*%
%ADD59RoundRect,0.050000X-0.387500X-0.050000X0.387500X-0.050000X0.387500X0.050000X-0.387500X0.050000X0*%
%ADD60RoundRect,0.050000X-0.050000X-0.387500X0.050000X-0.387500X0.050000X0.387500X-0.050000X0.387500X0*%
%ADD61R,3.200000X3.200000*%
%ADD62RoundRect,0.218750X-0.218750X-0.256250X0.218750X-0.256250X0.218750X0.256250X-0.218750X0.256250X0*%
%ADD63R,1.200000X1.800000*%
%ADD64RoundRect,0.125000X0.125000X0.125000X-0.125000X0.125000X-0.125000X-0.125000X0.125000X-0.125000X0*%
%ADD65C,2.000000*%
%ADD66RoundRect,0.250000X-0.420000X-0.945000X0.420000X-0.945000X0.420000X0.945000X-0.420000X0.945000X0*%
%ADD67RoundRect,0.050000X0.050000X-0.375000X0.050000X0.375000X-0.050000X0.375000X-0.050000X-0.375000X0*%
%ADD68RoundRect,0.050000X0.275000X-0.050000X0.275000X0.050000X-0.275000X0.050000X-0.275000X-0.050000X0*%
%ADD69RoundRect,0.250000X-0.550000X-0.550000X0.550000X-0.550000X0.550000X0.550000X-0.550000X0.550000X0*%
%ADD70R,1.600000X1.600000*%
%ADD71RoundRect,0.250000X0.600000X-0.600000X0.600000X0.600000X-0.600000X0.600000X-0.600000X-0.600000X0*%
%ADD72C,0.250000*%
G04 APERTURE END LIST*
%TO.C,JP2*%
G36*
X189718009Y-84030449D02*
G01*
X194718009Y-84030449D01*
X194718009Y-85530449D01*
X189718009Y-85530449D01*
X189718009Y-84030449D01*
G37*
%TO.C,JP3*%
G36*
X204435236Y-58416866D02*
G01*
X202935236Y-58416866D01*
X202935236Y-63416866D01*
X204435236Y-63416866D01*
X204435236Y-58416866D01*
G37*
%TO.C,JP1*%
G36*
X223115286Y-51276686D02*
G01*
X221615286Y-51276686D01*
X221615286Y-56276686D01*
X223115286Y-56276686D01*
X223115286Y-51276686D01*
G37*
%TD*%
D10*
%TO.C,R35*%
X212511493Y-143794564D03*
X212511493Y-145444564D03*
%TD*%
D11*
%TO.C,D1*%
X204608688Y-54609498D03*
X204608688Y-50609498D03*
%TD*%
D12*
%TO.C,U2*%
X210883509Y-138400449D03*
X210883509Y-139050449D03*
X210883509Y-139700449D03*
X210883509Y-140350449D03*
X210883509Y-141000449D03*
X210883509Y-141650449D03*
X210883509Y-142300449D03*
X216608509Y-142300449D03*
X216608509Y-141650449D03*
X216608509Y-141000449D03*
X216608509Y-140350449D03*
X216608509Y-139700449D03*
X216608509Y-139050449D03*
X216608509Y-138400449D03*
%TD*%
D13*
%TO.C,U4*%
X209690458Y-50250501D03*
X209690458Y-51520501D03*
X209690458Y-52790501D03*
X209690458Y-54060501D03*
X214990458Y-54060501D03*
X214990458Y-52790501D03*
X214990458Y-51520501D03*
X214990458Y-50250501D03*
D14*
X212340458Y-52155501D03*
%TD*%
D15*
%TO.C,C51*%
X200383886Y-102468995D03*
X200383886Y-104018995D03*
%TD*%
D16*
%TO.C,D3*%
X197679009Y-61836449D03*
X197679009Y-64036449D03*
%TD*%
D15*
%TO.C,C66*%
X206315783Y-134325449D03*
X206315783Y-135875449D03*
%TD*%
D17*
%TO.C,R46*%
X220586493Y-142369564D03*
X218936493Y-142369564D03*
%TD*%
D10*
%TO.C,R20*%
X200657787Y-115461350D03*
X200657787Y-117111350D03*
%TD*%
D18*
%TO.C,C43*%
X189716550Y-108019072D03*
X188620534Y-106923056D03*
%TD*%
D19*
%TO.C,C6*%
X216703509Y-106760449D03*
X219408509Y-106760449D03*
%TD*%
D15*
%TO.C,C64*%
X206301991Y-131319839D03*
X206301991Y-132869839D03*
%TD*%
D20*
%TO.C,J2*%
X223934707Y-125653706D03*
D21*
X223934707Y-128193706D03*
X223934707Y-130733706D03*
X223934707Y-133273706D03*
X223934707Y-135813706D03*
X223934707Y-138353706D03*
%TD*%
D22*
%TO.C,D4*%
X201330009Y-60650449D03*
X201330009Y-58450449D03*
%TD*%
D23*
%TO.C,R21*%
X196187925Y-90302648D03*
X197837925Y-90302648D03*
%TD*%
D24*
%TO.C,D23*%
X214133509Y-155000449D03*
X216333509Y-155000449D03*
%TD*%
D15*
%TO.C,C45*%
X200654619Y-105495614D03*
X200654619Y-107045614D03*
%TD*%
D25*
%TO.C,U16*%
X189010954Y-99185147D03*
X190280954Y-99185147D03*
X191550954Y-99185147D03*
X192820954Y-99185147D03*
X192820954Y-92010147D03*
X191550954Y-92010147D03*
X190280954Y-92010147D03*
X189010954Y-92010147D03*
%TD*%
D26*
%TO.C,C55*%
X206646009Y-104150449D03*
X205096009Y-104150449D03*
%TD*%
D23*
%TO.C,R23*%
X207446096Y-85139976D03*
X209096096Y-85139976D03*
%TD*%
D27*
%TO.C,D6*%
X194296537Y-67227894D03*
X194296537Y-65652894D03*
%TD*%
D28*
%TO.C,U28*%
X215703951Y-66107719D03*
X215703951Y-67387719D03*
X215703951Y-68647719D03*
X215703951Y-69917719D03*
X220843951Y-69917719D03*
X220843951Y-68647719D03*
X220843951Y-67387719D03*
X220843951Y-66107719D03*
%TD*%
D29*
%TO.C,R57*%
X207383509Y-154300449D03*
X208933509Y-154300449D03*
%TD*%
D15*
%TO.C,C26*%
X188397988Y-88386247D03*
X188397988Y-89936247D03*
%TD*%
D30*
%TO.C,U20*%
X214089038Y-104200309D03*
X214089038Y-103550309D03*
X214089038Y-102900309D03*
X214089038Y-102250309D03*
X214089038Y-101600309D03*
X214089038Y-100950309D03*
X214089038Y-100300309D03*
X214089038Y-99650309D03*
X214089038Y-99000309D03*
X214089038Y-98350309D03*
X208364038Y-98350309D03*
X208364038Y-99000309D03*
X208364038Y-99650309D03*
X208364038Y-100300309D03*
X208364038Y-100950309D03*
X208364038Y-101600309D03*
X208364038Y-102250309D03*
X208364038Y-102900309D03*
X208364038Y-103550309D03*
X208364038Y-104200309D03*
%TD*%
D31*
%TO.C,U13*%
X205766494Y-64360431D03*
X206716494Y-64360431D03*
X207666494Y-64360431D03*
X207666494Y-62085431D03*
X205766494Y-62085431D03*
%TD*%
D32*
%TO.C,TP2*%
X196880310Y-117361007D03*
%TD*%
D24*
%TO.C,D22*%
X210917509Y-155000449D03*
X213117509Y-155000449D03*
%TD*%
D10*
%TO.C,R7*%
X218728695Y-50096080D03*
X218728695Y-51746080D03*
%TD*%
D26*
%TO.C,C54*%
X217994780Y-104056957D03*
X216444780Y-104056957D03*
%TD*%
D27*
%TO.C,D9*%
X200657787Y-114111350D03*
X200657787Y-112536350D03*
%TD*%
D17*
%TO.C,R54*%
X220202596Y-93013976D03*
X218552596Y-93013976D03*
%TD*%
D29*
%TO.C,C47*%
X196057787Y-113148850D03*
X197607787Y-113148850D03*
%TD*%
D10*
%TO.C,R83*%
X217861481Y-128215449D03*
X217861481Y-129865449D03*
%TD*%
D33*
%TO.C,C17*%
X224476009Y-53551449D03*
X224476009Y-52001449D03*
%TD*%
D23*
%TO.C,R16*%
X193369009Y-126450449D03*
X195019009Y-126450449D03*
%TD*%
D15*
%TO.C,C23*%
X201639509Y-66400857D03*
X201639509Y-67950857D03*
%TD*%
%TO.C,C21*%
X207738084Y-53244542D03*
X207738084Y-54794542D03*
%TD*%
D12*
%TO.C,U3*%
X205621009Y-107519156D03*
X205621009Y-108169156D03*
X205621009Y-108819156D03*
X205621009Y-109469156D03*
X205621009Y-110119156D03*
X205621009Y-110769156D03*
X205621009Y-111419156D03*
X205621009Y-112069156D03*
X205621009Y-112719156D03*
X205621009Y-113369156D03*
X205621009Y-114019156D03*
X205621009Y-114669156D03*
X205621009Y-115319156D03*
X205621009Y-115969156D03*
X211346009Y-115969156D03*
X211346009Y-115319156D03*
X211346009Y-114669156D03*
X211346009Y-114019156D03*
X211346009Y-113369156D03*
X211346009Y-112719156D03*
X211346009Y-112069156D03*
X211346009Y-111419156D03*
X211346009Y-110769156D03*
X211346009Y-110119156D03*
X211346009Y-109469156D03*
X211346009Y-108819156D03*
X211346009Y-108169156D03*
X211346009Y-107519156D03*
%TD*%
D34*
%TO.C,R59*%
X190671157Y-103902036D03*
X189504431Y-102735310D03*
%TD*%
D26*
%TO.C,C56*%
X217994780Y-102556957D03*
X216444780Y-102556957D03*
%TD*%
D29*
%TO.C,C16*%
X206548788Y-48178292D03*
X208098788Y-48178292D03*
%TD*%
D10*
%TO.C,R6*%
X220274723Y-50134262D03*
X220274723Y-51784262D03*
%TD*%
D17*
%TO.C,R2*%
X220041596Y-75980976D03*
X218391596Y-75980976D03*
%TD*%
%TO.C,R81*%
X220516009Y-136270449D03*
X218866009Y-136270449D03*
%TD*%
D35*
%TO.C,R43*%
X217011493Y-145444564D03*
X217011493Y-143794564D03*
%TD*%
D24*
%TO.C,D20*%
X210925509Y-147500449D03*
X213125509Y-147500449D03*
%TD*%
D35*
%TO.C,R11*%
X205680009Y-60459449D03*
X205680009Y-58809449D03*
%TD*%
D36*
%TO.C,JP2*%
X190218009Y-84780449D03*
D37*
X194218009Y-84780449D03*
%TD*%
D23*
%TO.C,R82*%
X223187938Y-122959603D03*
X224837938Y-122959603D03*
%TD*%
D27*
%TO.C,FB3*%
X190789009Y-63723949D03*
X190789009Y-62148949D03*
%TD*%
D38*
%TO.C,D2*%
X187836297Y-51288533D03*
X187836297Y-55288533D03*
%TD*%
D24*
%TO.C,D21*%
X214141509Y-147500449D03*
X216341509Y-147500449D03*
%TD*%
D17*
%TO.C,R84*%
X221476481Y-128340449D03*
X219826481Y-128340449D03*
%TD*%
D32*
%TO.C,TP4*%
X209953634Y-67366312D03*
%TD*%
D33*
%TO.C,C39*%
X200477705Y-101063679D03*
X200477705Y-99513679D03*
%TD*%
D19*
%TO.C,C65*%
X213472798Y-128152835D03*
X216177798Y-128152835D03*
%TD*%
D39*
%TO.C,D8*%
X191933509Y-126450449D03*
X190358509Y-126450449D03*
%TD*%
D12*
%TO.C,U23*%
X210771009Y-149300449D03*
X210771009Y-149950449D03*
X210771009Y-150600449D03*
X210771009Y-151250449D03*
X210771009Y-151900449D03*
X210771009Y-152550449D03*
X210771009Y-153200449D03*
X216496009Y-153200449D03*
X216496009Y-152550449D03*
X216496009Y-151900449D03*
X216496009Y-151250449D03*
X216496009Y-150600449D03*
X216496009Y-149950449D03*
X216496009Y-149300449D03*
%TD*%
D40*
%TO.C,C19*%
X193830102Y-56052646D03*
X190750102Y-56052646D03*
%TD*%
D10*
%TO.C,R79*%
X221073227Y-125084137D03*
X221073227Y-126734137D03*
%TD*%
D15*
%TO.C,C14*%
X203161583Y-66390360D03*
X203161581Y-67940360D03*
%TD*%
D20*
%TO.C,J1*%
X223934707Y-80010449D03*
D21*
X223934707Y-82550449D03*
X223934707Y-85090449D03*
X223934707Y-87630449D03*
X223934707Y-90170449D03*
X223934707Y-92710449D03*
%TD*%
D41*
%TO.C,JP3*%
X203685236Y-58916866D03*
D42*
X203685236Y-62916866D03*
%TD*%
D43*
%TO.C,U27*%
X192849258Y-113776548D03*
X194749258Y-113776548D03*
X194749258Y-112276548D03*
X192849258Y-112276548D03*
%TD*%
D35*
%TO.C,R80*%
X217481009Y-136375449D03*
X217481009Y-134725449D03*
%TD*%
D23*
%TO.C,R60*%
X207333509Y-149800449D03*
X208983509Y-149800449D03*
%TD*%
%TO.C,R15*%
X211621009Y-126350449D03*
X213271009Y-126350449D03*
%TD*%
D18*
%TO.C,C46*%
X190233192Y-105517681D03*
X189137176Y-104421665D03*
%TD*%
D26*
%TO.C,C30*%
X213727313Y-68621543D03*
X212177313Y-68621543D03*
%TD*%
D19*
%TO.C,C8*%
X217496009Y-116230449D03*
X220201009Y-116230449D03*
%TD*%
D17*
%TO.C,R66*%
X208983509Y-148300449D03*
X207333509Y-148300449D03*
%TD*%
D23*
%TO.C,R4*%
X208971009Y-143510449D03*
X210621009Y-143510449D03*
%TD*%
D24*
%TO.C,D16*%
X214522596Y-89240976D03*
X216722596Y-89240976D03*
%TD*%
D20*
%TO.C,J5*%
X223934707Y-145908233D03*
D21*
X223934707Y-148448233D03*
X223934707Y-150988233D03*
X223934707Y-153528233D03*
%TD*%
D19*
%TO.C,C2*%
X212060792Y-105866959D03*
X214765792Y-105866959D03*
%TD*%
D24*
%TO.C,D13*%
X214516096Y-87298976D03*
X216716096Y-87298976D03*
%TD*%
D17*
%TO.C,R12*%
X219967009Y-63063449D03*
X218317009Y-63063449D03*
%TD*%
D44*
%TO.C,U25*%
X208126009Y-129840449D03*
X208126009Y-130490449D03*
X208126009Y-131140449D03*
X208126009Y-131790449D03*
X208126009Y-132440449D03*
X208126009Y-133090449D03*
X208126009Y-133740449D03*
X208126009Y-134390449D03*
X213876009Y-134390449D03*
X213876009Y-133740449D03*
X213876009Y-133090449D03*
X213876009Y-132440449D03*
X213876009Y-131790449D03*
X213876009Y-131140449D03*
X213876009Y-130490449D03*
X213876009Y-129840449D03*
D45*
X211001009Y-132115449D03*
%TD*%
D17*
%TO.C,R52*%
X220202596Y-96061976D03*
X218552596Y-96061976D03*
%TD*%
D23*
%TO.C,R58*%
X218936493Y-139369564D03*
X220586493Y-139369564D03*
%TD*%
D20*
%TO.C,J3*%
X187315285Y-60248473D03*
D21*
X187315285Y-62788473D03*
X187315285Y-65328473D03*
X187315285Y-67868473D03*
X187315285Y-70408473D03*
X187315285Y-72948473D03*
X187315285Y-75488473D03*
X187315285Y-78028473D03*
X187315285Y-80568473D03*
X187315285Y-83108473D03*
X187315285Y-85648473D03*
%TD*%
D23*
%TO.C,R26*%
X207445096Y-82091976D03*
X209095096Y-82091976D03*
%TD*%
D46*
%TO.C,U11*%
X218142009Y-61519449D03*
X218642009Y-61519449D03*
X219142009Y-61519449D03*
X219642009Y-61519449D03*
X220142009Y-61519449D03*
X220142009Y-59019449D03*
X219642009Y-59019449D03*
X219142009Y-59019449D03*
X218642009Y-59019449D03*
X218142009Y-59019449D03*
D47*
X219142009Y-60269449D03*
%TD*%
D29*
%TO.C,C33*%
X215351395Y-71519660D03*
X216901395Y-71519660D03*
%TD*%
D40*
%TO.C,C13*%
X201831076Y-56052646D03*
X198751076Y-56052646D03*
%TD*%
D23*
%TO.C,R45*%
X207376596Y-93013976D03*
X209026596Y-93013976D03*
%TD*%
D15*
%TO.C,C44*%
X200357787Y-108998850D03*
X200357787Y-110548850D03*
%TD*%
D26*
%TO.C,C7*%
X217031009Y-114410449D03*
X215481009Y-114410449D03*
%TD*%
D12*
%TO.C,U18*%
X210927096Y-81538976D03*
X210927096Y-82188976D03*
X210927096Y-82838976D03*
X210927096Y-83488976D03*
X210927096Y-84138976D03*
X210927096Y-84788976D03*
X210927096Y-85438976D03*
X216652096Y-85438976D03*
X216652096Y-84788976D03*
X216652096Y-84138976D03*
X216652096Y-83488976D03*
X216652096Y-82838976D03*
X216652096Y-82188976D03*
X216652096Y-81538976D03*
%TD*%
D15*
%TO.C,C53*%
X198308722Y-121494631D03*
X198308722Y-123044631D03*
%TD*%
%TO.C,C31*%
X216856009Y-58986449D03*
X216856009Y-60536449D03*
%TD*%
D48*
%TO.C,L1*%
X217157211Y-54685812D03*
X220157211Y-54685812D03*
%TD*%
D19*
%TO.C,C63*%
X213071009Y-135950449D03*
X215776009Y-135950449D03*
%TD*%
D10*
%TO.C,R17*%
X195744741Y-99845347D03*
X195744741Y-101495347D03*
%TD*%
D15*
%TO.C,C34*%
X221428009Y-59100449D03*
X221428009Y-60650449D03*
%TD*%
D33*
%TO.C,C27*%
X197787129Y-67204126D03*
X197787129Y-65654126D03*
%TD*%
D19*
%TO.C,C5*%
X215783509Y-108970449D03*
X218488509Y-108970449D03*
%TD*%
D23*
%TO.C,R55*%
X218552596Y-89928976D03*
X220202596Y-89928976D03*
%TD*%
D26*
%TO.C,R73*%
X219908509Y-149800449D03*
X218358509Y-149800449D03*
%TD*%
D23*
%TO.C,R40*%
X207376596Y-94537976D03*
X209026596Y-94537976D03*
%TD*%
D15*
%TO.C,C62*%
X210198759Y-127045464D03*
X210198759Y-128595464D03*
%TD*%
D24*
%TO.C,D15*%
X211292596Y-89240976D03*
X213492596Y-89240976D03*
%TD*%
D26*
%TO.C,C28*%
X213775084Y-67092866D03*
X212225084Y-67092866D03*
%TD*%
D33*
%TO.C,C61*%
X199246009Y-136550449D03*
X199246009Y-135000449D03*
%TD*%
%TO.C,C38*%
X198796191Y-101470566D03*
X198796191Y-99920566D03*
%TD*%
D32*
%TO.C,TP1*%
X193780175Y-117361007D03*
%TD*%
D49*
%TO.C,APS6408L-30Cx1*%
X193446009Y-137050449D03*
X194446009Y-137050449D03*
X195446009Y-137050449D03*
X196446009Y-137050449D03*
X192446009Y-138050449D03*
X193446009Y-138050449D03*
X194446009Y-138050449D03*
X195446009Y-138050449D03*
X196446009Y-138050449D03*
X192446009Y-139050449D03*
X193446009Y-139050449D03*
X194446009Y-139050449D03*
X195446009Y-139050449D03*
X196446009Y-139050449D03*
X192446009Y-140050449D03*
X193446009Y-140050449D03*
X194446009Y-140050449D03*
X195446009Y-140050449D03*
X196446009Y-140050449D03*
X192446009Y-141050449D03*
X193446009Y-141050449D03*
X194446009Y-141050449D03*
X195446009Y-141050449D03*
X196446009Y-141050449D03*
%TD*%
D50*
%TO.C,U15*%
X192138308Y-86776375D03*
X192138308Y-87726375D03*
X192138308Y-88676375D03*
X194413308Y-88676375D03*
X194413308Y-86776375D03*
%TD*%
D51*
%TO.C,U19*%
X196141849Y-74519598D03*
D52*
X193601849Y-74519598D03*
X191061849Y-74519598D03*
X191061849Y-82139598D03*
X193601849Y-82139598D03*
X196141849Y-82139598D03*
%TD*%
D29*
%TO.C,C22*%
X209311822Y-55609135D03*
X210861822Y-55609135D03*
%TD*%
D15*
%TO.C,C11*%
X217047020Y-50186192D03*
X217047020Y-51736192D03*
%TD*%
D17*
%TO.C,R1*%
X220041596Y-77504976D03*
X218391596Y-77504976D03*
%TD*%
D19*
%TO.C,C3*%
X215757509Y-112607390D03*
X218462509Y-112607390D03*
%TD*%
D17*
%TO.C,R31*%
X220144096Y-85393976D03*
X218494096Y-85393976D03*
%TD*%
D23*
%TO.C,R37*%
X218494096Y-80821976D03*
X220144096Y-80821976D03*
%TD*%
D50*
%TO.C,U9*%
X214316009Y-62113449D03*
X214316009Y-63063449D03*
X214316009Y-64013449D03*
X216591009Y-64013449D03*
X216591009Y-62113449D03*
%TD*%
D53*
%TO.C,U10*%
X204024557Y-94549255D03*
X204024557Y-95199255D03*
X204024557Y-95849255D03*
X205799557Y-95849255D03*
X205799557Y-94549255D03*
%TD*%
D24*
%TO.C,D10*%
X211275096Y-79551976D03*
X213475096Y-79551976D03*
%TD*%
D17*
%TO.C,R30*%
X209096096Y-80567976D03*
X207446096Y-80567976D03*
%TD*%
%TO.C,R49*%
X220586493Y-143869564D03*
X218936493Y-143869564D03*
%TD*%
D54*
%TO.C,D5*%
X195456009Y-59507449D03*
X191456009Y-59507449D03*
%TD*%
D17*
%TO.C,R32*%
X220144096Y-86917976D03*
X218494096Y-86917976D03*
%TD*%
D55*
%TO.C,U7*%
X197713009Y-59111449D03*
X197713009Y-59761449D03*
X197713009Y-60411449D03*
X199613009Y-60411449D03*
X199613009Y-59761449D03*
X199613009Y-59111449D03*
%TD*%
D23*
%TO.C,R24*%
X207446096Y-86663976D03*
X209096096Y-86663976D03*
%TD*%
D26*
%TO.C,C12*%
X205120595Y-56965203D03*
X203570595Y-56965203D03*
%TD*%
D32*
%TO.C,TP6*%
X214565914Y-59547600D03*
%TD*%
D26*
%TO.C,C20*%
X189037718Y-57609705D03*
X187487718Y-57609705D03*
%TD*%
D23*
%TO.C,JP4*%
X212281083Y-117236829D03*
X213931083Y-117236829D03*
%TD*%
D39*
%TO.C,D7*%
X220273303Y-71522334D03*
X218698303Y-71522334D03*
%TD*%
D26*
%TO.C,C37*%
X213727313Y-65580113D03*
X212177313Y-65580113D03*
%TD*%
D24*
%TO.C,D19*%
X214551596Y-96733976D03*
X216751596Y-96733976D03*
%TD*%
D17*
%TO.C,R33*%
X220144096Y-82345976D03*
X218494096Y-82345976D03*
%TD*%
D29*
%TO.C,C32*%
X218367009Y-64587449D03*
X219917009Y-64587449D03*
%TD*%
D12*
%TO.C,U21*%
X210927096Y-91063976D03*
X210927096Y-91713976D03*
X210927096Y-92363976D03*
X210927096Y-93013976D03*
X210927096Y-93663976D03*
X210927096Y-94313976D03*
X210927096Y-94963976D03*
X216652096Y-94963976D03*
X216652096Y-94313976D03*
X216652096Y-93663976D03*
X216652096Y-93013976D03*
X216652096Y-92363976D03*
X216652096Y-91713976D03*
X216652096Y-91063976D03*
%TD*%
D26*
%TO.C,R74*%
X219908509Y-148300449D03*
X218358509Y-148300449D03*
%TD*%
D10*
%TO.C,R85*%
X216318956Y-129875360D03*
X216318956Y-131525360D03*
%TD*%
D40*
%TO.C,C15*%
X212046009Y-59507449D03*
X208966009Y-59507449D03*
%TD*%
D56*
%TO.C,b_up2*%
X198443379Y-124499530D03*
X190443379Y-124499530D03*
X198443379Y-119999530D03*
X190443379Y-119999530D03*
%TD*%
D33*
%TO.C,C40*%
X189897823Y-89918832D03*
X189897823Y-88368832D03*
%TD*%
D19*
%TO.C,C10*%
X210211294Y-48367499D03*
X212916294Y-48367499D03*
%TD*%
D10*
%TO.C,R18*%
X197313539Y-99845347D03*
X197313539Y-101495347D03*
%TD*%
D26*
%TO.C,R76*%
X219908509Y-151300449D03*
X218358509Y-151300449D03*
%TD*%
%TO.C,C57*%
X206646009Y-105650449D03*
X205096009Y-105650449D03*
%TD*%
D51*
%TO.C,U22*%
X204283009Y-74498449D03*
D52*
X201743009Y-74498449D03*
X199203009Y-74498449D03*
X199203009Y-82118449D03*
X201743009Y-82118449D03*
X204283009Y-82118449D03*
%TD*%
D29*
%TO.C,R56*%
X207383509Y-152800449D03*
X208933509Y-152800449D03*
%TD*%
D10*
%TO.C,R10*%
X195820281Y-65615260D03*
X195820281Y-67265260D03*
%TD*%
D53*
%TO.C,U26*%
X192671009Y-132040449D03*
X192671009Y-132690449D03*
X192671009Y-133340449D03*
X194446009Y-133340449D03*
X194446009Y-132040449D03*
%TD*%
D23*
%TO.C,R28*%
X207446096Y-83615976D03*
X209096096Y-83615976D03*
%TD*%
D57*
%TO.C,U24*%
X219276009Y-134377949D03*
X219926009Y-134377949D03*
X220576009Y-134377949D03*
X221226009Y-134377949D03*
X221226009Y-130152949D03*
X220576009Y-130152949D03*
X219926009Y-130152949D03*
X219276009Y-130152949D03*
%TD*%
D17*
%TO.C,R13*%
X220325989Y-73071337D03*
X218675989Y-73071337D03*
%TD*%
D10*
%TO.C,R64*%
X215511493Y-143794564D03*
X215511493Y-145444564D03*
%TD*%
D17*
%TO.C,R36*%
X220144096Y-83869976D03*
X218494096Y-83869976D03*
%TD*%
D23*
%TO.C,R41*%
X207376596Y-96061976D03*
X209026596Y-96061976D03*
%TD*%
D40*
%TO.C,C36*%
X212490700Y-62870795D03*
X209410700Y-62870795D03*
%TD*%
D41*
%TO.C,JP1*%
X222365286Y-51776686D03*
D42*
X222365286Y-55776686D03*
%TD*%
D23*
%TO.C,R65*%
X218936493Y-137869564D03*
X220586493Y-137869564D03*
%TD*%
D40*
%TO.C,C29*%
X212996750Y-71218004D03*
X209916750Y-71218004D03*
%TD*%
D58*
%TO.C,U14*%
X213003509Y-119112949D03*
X212368509Y-119112949D03*
X211733509Y-119112949D03*
X211098509Y-119112949D03*
X210463509Y-119112949D03*
X209828509Y-119112949D03*
X209193509Y-119112949D03*
X208558509Y-119112949D03*
X207923509Y-119112949D03*
X207288509Y-119112949D03*
X207288509Y-124387949D03*
X207923509Y-124387949D03*
X208558509Y-124387949D03*
X209193509Y-124387949D03*
X209828509Y-124387949D03*
X210463509Y-124387949D03*
X211098509Y-124387949D03*
X211733509Y-124387949D03*
X212368509Y-124387949D03*
X213003509Y-124387949D03*
%TD*%
D17*
%TO.C,R77*%
X217743224Y-132922959D03*
X216093224Y-132922959D03*
%TD*%
D29*
%TO.C,C4*%
X215521009Y-110790449D03*
X217071009Y-110790449D03*
%TD*%
D23*
%TO.C,R25*%
X207660596Y-77504976D03*
X209310596Y-77504976D03*
%TD*%
%TO.C,R44*%
X207375596Y-91489976D03*
X209025596Y-91489976D03*
%TD*%
%TO.C,R27*%
X207660596Y-75980976D03*
X209310596Y-75980976D03*
%TD*%
D19*
%TO.C,C58*%
X216664087Y-100739542D03*
X219369087Y-100739542D03*
%TD*%
D24*
%TO.C,D18*%
X211335596Y-96733976D03*
X213535596Y-96733976D03*
%TD*%
D26*
%TO.C,C1*%
X210401509Y-105902156D03*
X208851509Y-105902156D03*
%TD*%
D17*
%TO.C,R38*%
X199901009Y-72715449D03*
X198251009Y-72715449D03*
%TD*%
D10*
%TO.C,R22*%
X190707193Y-121379202D03*
X190707193Y-123029202D03*
%TD*%
D15*
%TO.C,C18*%
X224476009Y-55062449D03*
X224476009Y-56612449D03*
%TD*%
D17*
%TO.C,R9*%
X201085009Y-61890574D03*
X199435009Y-61890574D03*
%TD*%
D59*
%TO.C,U17*%
X191970287Y-104973850D03*
X191970287Y-105373850D03*
X191970287Y-105773850D03*
X191970287Y-106173850D03*
X191970287Y-106573850D03*
X191970287Y-106973850D03*
X191970287Y-107373850D03*
X191970287Y-107773850D03*
X191970287Y-108173850D03*
X191970287Y-108573850D03*
X191970287Y-108973850D03*
X191970287Y-109373850D03*
X191970287Y-109773850D03*
X191970287Y-110173850D03*
D60*
X192807787Y-111011350D03*
X193207787Y-111011350D03*
X193607787Y-111011350D03*
X194007787Y-111011350D03*
X194407787Y-111011350D03*
X194807787Y-111011350D03*
X195207787Y-111011350D03*
X195607787Y-111011350D03*
X196007787Y-111011350D03*
X196407787Y-111011350D03*
X196807787Y-111011350D03*
X197207787Y-111011350D03*
X197607787Y-111011350D03*
X198007787Y-111011350D03*
D59*
X198845287Y-110173850D03*
X198845287Y-109773850D03*
X198845287Y-109373850D03*
X198845287Y-108973850D03*
X198845287Y-108573850D03*
X198845287Y-108173850D03*
X198845287Y-107773850D03*
X198845287Y-107373850D03*
X198845287Y-106973850D03*
X198845287Y-106573850D03*
X198845287Y-106173850D03*
X198845287Y-105773850D03*
X198845287Y-105373850D03*
X198845287Y-104973850D03*
D60*
X198007787Y-104136350D03*
X197607787Y-104136350D03*
X197207787Y-104136350D03*
X196807787Y-104136350D03*
X196407787Y-104136350D03*
X196007787Y-104136350D03*
X195607787Y-104136350D03*
X195207787Y-104136350D03*
X194807787Y-104136350D03*
X194407787Y-104136350D03*
X194007787Y-104136350D03*
X193607787Y-104136350D03*
X193207787Y-104136350D03*
X192807787Y-104136350D03*
D61*
X195407787Y-107573850D03*
%TD*%
D35*
%TO.C,R5*%
X207809813Y-51733526D03*
X207809813Y-50083526D03*
%TD*%
D24*
%TO.C,D12*%
X211298096Y-87298976D03*
X213498096Y-87298976D03*
%TD*%
D17*
%TO.C,R48*%
X209025596Y-89965976D03*
X207375596Y-89965976D03*
%TD*%
D23*
%TO.C,R47*%
X199267009Y-71191449D03*
X200917009Y-71191449D03*
%TD*%
D10*
%TO.C,R3*%
X209126009Y-140445449D03*
X209126009Y-142095449D03*
%TD*%
D62*
%TO.C,FB1*%
X202984190Y-48274616D03*
X204559190Y-48274616D03*
%TD*%
D23*
%TO.C,R78*%
X218308509Y-154300449D03*
X219958509Y-154300449D03*
%TD*%
D63*
%TO.C,b_up1*%
X194864865Y-98082750D03*
X194864865Y-90082750D03*
X199364865Y-98082750D03*
X199364865Y-90082750D03*
%TD*%
D24*
%TO.C,D11*%
X214493096Y-79551976D03*
X216693096Y-79551976D03*
%TD*%
D17*
%TO.C,R29*%
X209310596Y-74456976D03*
X207660596Y-74456976D03*
%TD*%
D40*
%TO.C,C24*%
X195790009Y-62936449D03*
X192710009Y-62936449D03*
%TD*%
D17*
%TO.C,R51*%
X220202596Y-94537976D03*
X218552596Y-94537976D03*
%TD*%
D23*
%TO.C,R61*%
X207333509Y-151300449D03*
X208983509Y-151300449D03*
%TD*%
D26*
%TO.C,C60*%
X200771009Y-138050449D03*
X199221009Y-138050449D03*
%TD*%
D17*
%TO.C,R42*%
X220586493Y-145369564D03*
X218936493Y-145369564D03*
%TD*%
%TO.C,R50*%
X220586493Y-140869564D03*
X218936493Y-140869564D03*
%TD*%
%TO.C,R53*%
X220202596Y-91489976D03*
X218552596Y-91489976D03*
%TD*%
D64*
%TO.C,D17*%
X204367009Y-72461449D03*
X202167009Y-72461449D03*
%TD*%
D50*
%TO.C,U5*%
X190202815Y-65430297D03*
X190202815Y-66380297D03*
X190202815Y-67330297D03*
X192477815Y-67330297D03*
X192477815Y-65430297D03*
%TD*%
D19*
%TO.C,C9*%
X214883193Y-48376090D03*
X217588193Y-48376090D03*
%TD*%
D35*
%TO.C,R14*%
X221428009Y-63748449D03*
X221428009Y-62098449D03*
%TD*%
D17*
%TO.C,R39*%
X200917009Y-84018449D03*
X199267009Y-84018449D03*
%TD*%
D65*
%TO.C,TP3*%
X205246009Y-69550449D03*
%TD*%
D64*
%TO.C,D14*%
X195833134Y-72508469D03*
X193633134Y-72508469D03*
%TD*%
D66*
%TO.C,C25*%
X190371938Y-69843336D03*
X193451938Y-69843336D03*
%TD*%
D12*
%TO.C,U1*%
X210957096Y-73821976D03*
X210957096Y-74471976D03*
X210957096Y-75121976D03*
X210957096Y-75771976D03*
X210957096Y-76421976D03*
X210957096Y-77071976D03*
X210957096Y-77721976D03*
X216682096Y-77721976D03*
X216682096Y-77071976D03*
X216682096Y-76421976D03*
X216682096Y-75771976D03*
X216682096Y-75121976D03*
X216682096Y-74471976D03*
X216682096Y-73821976D03*
%TD*%
D39*
%TO.C,FB2*%
X190228492Y-48988710D03*
X188653492Y-48988710D03*
%TD*%
D50*
%TO.C,U8*%
X195389713Y-68910856D03*
X195389713Y-69860856D03*
X195389713Y-70810856D03*
X197664713Y-70810856D03*
X197664713Y-68910856D03*
%TD*%
D23*
%TO.C,R8*%
X202349557Y-64701625D03*
X203999557Y-64701625D03*
%TD*%
D33*
%TO.C,C50*%
X194236552Y-101448747D03*
X194236552Y-99898747D03*
%TD*%
D67*
%TO.C,U6*%
X199860009Y-64931449D03*
X200260009Y-64931449D03*
D68*
X200885009Y-64806449D03*
X200885009Y-64406449D03*
X200885009Y-64006449D03*
X200885009Y-63606449D03*
D67*
X200260009Y-63481449D03*
X199860009Y-63481449D03*
D68*
X199235009Y-63606449D03*
X199235009Y-64006449D03*
X199235009Y-64406449D03*
X199235009Y-64806449D03*
%TD*%
D26*
%TO.C,C41*%
X194512649Y-115100724D03*
X192962649Y-115100724D03*
%TD*%
D17*
%TO.C,R75*%
X219958509Y-152800449D03*
X218308509Y-152800449D03*
%TD*%
D33*
%TO.C,C35*%
X207253145Y-60429952D03*
X207253145Y-58879952D03*
%TD*%
D10*
%TO.C,R34*%
X214011493Y-143794564D03*
X214011493Y-145444564D03*
%TD*%
D69*
%TO.C,cmod_a1*%
X186931257Y-146729504D03*
D52*
X186931257Y-144189504D03*
X186931257Y-141649504D03*
X186931257Y-139109504D03*
X186931257Y-136569504D03*
X186931257Y-134029504D03*
X186931257Y-131489504D03*
X186931257Y-128949504D03*
X186931257Y-126409504D03*
X186931257Y-123869504D03*
X186931257Y-121329504D03*
X186931257Y-118789504D03*
X186931257Y-116249504D03*
X186931257Y-113709504D03*
X186931257Y-111169504D03*
X186931257Y-108629504D03*
X186931257Y-106089504D03*
X186931257Y-103549504D03*
X186931257Y-101009504D03*
X186931257Y-98469504D03*
X186931257Y-95929504D03*
X186931257Y-93389504D03*
X186931257Y-90849504D03*
X186931257Y-88309504D03*
D70*
X202171257Y-88309504D03*
D52*
X202171257Y-90849504D03*
X202171257Y-93389504D03*
X202171257Y-95929504D03*
X202171257Y-98469504D03*
X202171257Y-101009504D03*
X202171257Y-103549504D03*
X202171257Y-106089504D03*
X202171257Y-108629504D03*
X202171257Y-111169504D03*
X202171257Y-113709504D03*
X202171257Y-116249504D03*
X202171257Y-118789504D03*
X202171257Y-121329504D03*
X202171257Y-123869504D03*
X202171257Y-126409504D03*
X202171257Y-128949504D03*
X202171257Y-131489504D03*
X202171257Y-134029504D03*
X202171257Y-136569504D03*
X202171257Y-139109504D03*
X202171257Y-141649504D03*
X202171257Y-144189504D03*
X202171257Y-146729504D03*
%TD*%
D71*
%TO.C,J4*%
X201379497Y-53217513D03*
D21*
X201379497Y-50677513D03*
X198839497Y-53217513D03*
X198839497Y-50677513D03*
X196299497Y-53217513D03*
X196299497Y-50677513D03*
X193759497Y-53217513D03*
X193759497Y-50677513D03*
X191219497Y-53217513D03*
X191219497Y-50677513D03*
%TD*%
D72*
%TO.C,b_up2*%
X191443379Y-123519530D02*
X191443379Y-120979530D01*
X197443379Y-119249530D02*
X191443379Y-119249530D01*
X197443379Y-123519530D02*
X197443379Y-120979530D01*
X197443379Y-125249530D02*
X191443379Y-125249530D01*
X192923379Y-124219530D02*
G75*
G02*
X191783379Y-124219530I-570000J0D01*
G01*
X191783379Y-124219530D02*
G75*
G02*
X192923379Y-124219530I570000J0D01*
G01*
X192983379Y-120219530D02*
G75*
G02*
X191843379Y-120219530I-570000J0D01*
G01*
X191843379Y-120219530D02*
G75*
G02*
X192983379Y-120219530I570000J0D01*
G01*
X196153379Y-122249530D02*
G75*
G02*
X192733379Y-122249530I-1710000J0D01*
G01*
X192733379Y-122249530D02*
G75*
G02*
X196153379Y-122249530I1710000J0D01*
G01*
X196983379Y-120159530D02*
G75*
G02*
X195843379Y-120159530I-570000J0D01*
G01*
X195843379Y-120159530D02*
G75*
G02*
X196983379Y-120159530I570000J0D01*
G01*
X197043379Y-124279530D02*
G75*
G02*
X195903379Y-124279530I-570000J0D01*
G01*
X195903379Y-124279530D02*
G75*
G02*
X197043379Y-124279530I570000J0D01*
G01*
%TO.C,b_up1*%
X194114865Y-97082750D02*
X194114865Y-91082750D01*
X195844865Y-91082750D02*
X198384865Y-91082750D01*
X195844865Y-97082750D02*
X198384865Y-97082750D01*
X200114865Y-97082750D02*
X200114865Y-91082750D01*
X195654865Y-96112750D02*
G75*
G02*
X194514865Y-96112750I-570000J0D01*
G01*
X194514865Y-96112750D02*
G75*
G02*
X195654865Y-96112750I570000J0D01*
G01*
X195714865Y-91992750D02*
G75*
G02*
X194574865Y-91992750I-570000J0D01*
G01*
X194574865Y-91992750D02*
G75*
G02*
X195714865Y-91992750I570000J0D01*
G01*
X198824865Y-94082750D02*
G75*
G02*
X195404865Y-94082750I-1710000J0D01*
G01*
X195404865Y-94082750D02*
G75*
G02*
X198824865Y-94082750I1710000J0D01*
G01*
X199714865Y-92052750D02*
G75*
G02*
X198574865Y-92052750I-570000J0D01*
G01*
X198574865Y-92052750D02*
G75*
G02*
X199714865Y-92052750I570000J0D01*
G01*
X199774865Y-96052750D02*
G75*
G02*
X198634865Y-96052750I-570000J0D01*
G01*
X198634865Y-96052750D02*
G75*
G02*
X199774865Y-96052750I570000J0D01*
G01*
%TD*%
M02*
