%TF.GenerationSoftware,KiCad,Pcbnew,9.0.7*%
%TF.CreationDate,2026-03-17T19:39:46-05:00*%
%TF.ProjectId,fieldbox,6669656c-6462-46f7-982e-6b696361645f,rev?*%
%TF.SameCoordinates,Original*%
%TF.FileFunction,Copper,L1,Top*%
%TF.FilePolarity,Positive*%
%FSLAX46Y46*%
G04 Gerber Fmt 4.6, Leading zero omitted, Abs format (unit mm)*
G04 Created by KiCad (PCBNEW 9.0.7) date 2026-03-17 19:39:46*
%MOMM*%
%LPD*%
G01*
G04 APERTURE LIST*
G04 Aperture macros list*
%AMRoundRect*
0 Rectangle with rounded corners*
0 $1 Rounding radius*
0 $2 $3 $4 $5 $6 $7 $8 $9 X,Y pos of 4 corners*
0 Add a 4 corners polygon primitive as box body*
4,1,4,$2,$3,$4,$5,$6,$7,$8,$9,$2,$3,0*
0 Add four circle primitives for the rounded corners*
1,1,$1+$1,$2,$3*
1,1,$1+$1,$4,$5*
1,1,$1+$1,$6,$7*
1,1,$1+$1,$8,$9*
0 Add four rect primitives between the rounded corners*
20,1,$1+$1,$2,$3,$4,$5,0*
20,1,$1+$1,$4,$5,$6,$7,0*
20,1,$1+$1,$6,$7,$8,$9,0*
20,1,$1+$1,$8,$9,$2,$3,0*%
%AMFreePoly0*
4,1,6,1.000000,0.000000,0.500000,-0.750000,-0.500000,-0.750000,-0.500000,0.750000,0.500000,0.750000,1.000000,0.000000,1.000000,0.000000,$1*%
%AMFreePoly1*
4,1,7,0.700000,0.000000,1.200000,-0.750000,-1.200000,-0.750000,-0.700000,0.000000,-1.200000,0.750000,1.200000,0.750000,0.700000,0.000000,0.700000,0.000000,$1*%
G04 Aperture macros list end*
%TA.AperFunction,SMDPad,CuDef*%
%ADD10RoundRect,0.200000X-0.275000X0.200000X-0.275000X-0.200000X0.275000X-0.200000X0.275000X0.200000X0*%
%TD*%
%TA.AperFunction,SMDPad,CuDef*%
%ADD11RoundRect,0.250000X0.650000X-1.000000X0.650000X1.000000X-0.650000X1.000000X-0.650000X-1.000000X0*%
%TD*%
%TA.AperFunction,SMDPad,CuDef*%
%ADD12RoundRect,0.100000X-0.637500X-0.100000X0.637500X-0.100000X0.637500X0.100000X-0.637500X0.100000X0*%
%TD*%
%TA.AperFunction,SMDPad,CuDef*%
%ADD13RoundRect,0.150000X-0.650000X-0.150000X0.650000X-0.150000X0.650000X0.150000X-0.650000X0.150000X0*%
%TD*%
%TA.AperFunction,HeatsinkPad*%
%ADD14R,2.400000X3.200000*%
%TD*%
%TA.AperFunction,SMDPad,CuDef*%
%ADD15RoundRect,0.225000X-0.250000X0.225000X-0.250000X-0.225000X0.250000X-0.225000X0.250000X0.225000X0*%
%TD*%
%TA.AperFunction,SMDPad,CuDef*%
%ADD16RoundRect,0.125000X-0.125000X0.125000X-0.125000X-0.125000X0.125000X-0.125000X0.125000X0.125000X0*%
%TD*%
%TA.AperFunction,SMDPad,CuDef*%
%ADD17RoundRect,0.200000X0.200000X0.275000X-0.200000X0.275000X-0.200000X-0.275000X0.200000X-0.275000X0*%
%TD*%
%TA.AperFunction,SMDPad,CuDef*%
%ADD18RoundRect,0.225000X0.335876X0.017678X0.017678X0.335876X-0.335876X-0.017678X-0.017678X-0.335876X0*%
%TD*%
%TA.AperFunction,SMDPad,CuDef*%
%ADD19RoundRect,0.250000X-0.457500X-0.445000X0.457500X-0.445000X0.457500X0.445000X-0.457500X0.445000X0*%
%TD*%
%TA.AperFunction,ComponentPad*%
%ADD20R,1.700000X1.700000*%
%TD*%
%TA.AperFunction,ComponentPad*%
%ADD21C,1.700000*%
%TD*%
%TA.AperFunction,SMDPad,CuDef*%
%ADD22RoundRect,0.125000X0.125000X-0.125000X0.125000X0.125000X-0.125000X0.125000X-0.125000X-0.125000X0*%
%TD*%
%TA.AperFunction,SMDPad,CuDef*%
%ADD23RoundRect,0.200000X-0.200000X-0.275000X0.200000X-0.275000X0.200000X0.275000X-0.200000X0.275000X0*%
%TD*%
%TA.AperFunction,SMDPad,CuDef*%
%ADD24RoundRect,0.125000X-0.125000X-0.125000X0.125000X-0.125000X0.125000X0.125000X-0.125000X0.125000X0*%
%TD*%
%TA.AperFunction,SMDPad,CuDef*%
%ADD25RoundRect,0.162500X0.162500X-0.650000X0.162500X0.650000X-0.162500X0.650000X-0.162500X-0.650000X0*%
%TD*%
%TA.AperFunction,SMDPad,CuDef*%
%ADD26RoundRect,0.225000X0.225000X0.250000X-0.225000X0.250000X-0.225000X-0.250000X0.225000X-0.250000X0*%
%TD*%
%TA.AperFunction,SMDPad,CuDef*%
%ADD27RoundRect,0.218750X0.256250X-0.218750X0.256250X0.218750X-0.256250X0.218750X-0.256250X-0.218750X0*%
%TD*%
%TA.AperFunction,SMDPad,CuDef*%
%ADD28O,2.050000X0.590000*%
%TD*%
%TA.AperFunction,SMDPad,CuDef*%
%ADD29RoundRect,0.225000X-0.225000X-0.250000X0.225000X-0.250000X0.225000X0.250000X-0.225000X0.250000X0*%
%TD*%
%TA.AperFunction,SMDPad,CuDef*%
%ADD30RoundRect,0.100000X0.637500X0.100000X-0.637500X0.100000X-0.637500X-0.100000X0.637500X-0.100000X0*%
%TD*%
%TA.AperFunction,SMDPad,CuDef*%
%ADD31RoundRect,0.150000X0.150000X-0.512500X0.150000X0.512500X-0.150000X0.512500X-0.150000X-0.512500X0*%
%TD*%
%TA.AperFunction,SMDPad,CuDef*%
%ADD32R,2.000000X2.000000*%
%TD*%
%TA.AperFunction,SMDPad,CuDef*%
%ADD33RoundRect,0.225000X0.250000X-0.225000X0.250000X0.225000X-0.250000X0.225000X-0.250000X-0.225000X0*%
%TD*%
%TA.AperFunction,SMDPad,CuDef*%
%ADD34RoundRect,0.200000X0.335876X0.053033X0.053033X0.335876X-0.335876X-0.053033X-0.053033X-0.335876X0*%
%TD*%
%TA.AperFunction,SMDPad,CuDef*%
%ADD35RoundRect,0.200000X0.275000X-0.200000X0.275000X0.200000X-0.275000X0.200000X-0.275000X-0.200000X0*%
%TD*%
%TA.AperFunction,SMDPad,CuDef*%
%ADD36FreePoly0,0.000000*%
%TD*%
%TA.AperFunction,SMDPad,CuDef*%
%ADD37FreePoly1,0.000000*%
%TD*%
%TA.AperFunction,SMDPad,CuDef*%
%ADD38FreePoly0,180.000000*%
%TD*%
%TA.AperFunction,SMDPad,CuDef*%
%ADD39RoundRect,0.250000X-0.650000X1.000000X-0.650000X-1.000000X0.650000X-1.000000X0.650000X1.000000X0*%
%TD*%
%TA.AperFunction,SMDPad,CuDef*%
%ADD40RoundRect,0.218750X0.218750X0.256250X-0.218750X0.256250X-0.218750X-0.256250X0.218750X-0.256250X0*%
%TD*%
%TA.AperFunction,SMDPad,CuDef*%
%ADD41RoundRect,0.250000X0.420000X0.945000X-0.420000X0.945000X-0.420000X-0.945000X0.420000X-0.945000X0*%
%TD*%
%TA.AperFunction,SMDPad,CuDef*%
%ADD42FreePoly0,270.000000*%
%TD*%
%TA.AperFunction,SMDPad,CuDef*%
%ADD43FreePoly1,270.000000*%
%TD*%
%TA.AperFunction,SMDPad,CuDef*%
%ADD44FreePoly0,90.000000*%
%TD*%
%TA.AperFunction,SMDPad,CuDef*%
%ADD45R,1.100000X1.000000*%
%TD*%
%TA.AperFunction,SMDPad,CuDef*%
%ADD46RoundRect,0.100000X-0.675000X-0.100000X0.675000X-0.100000X0.675000X0.100000X-0.675000X0.100000X0*%
%TD*%
%TA.AperFunction,HeatsinkPad*%
%ADD47R,3.000000X3.000000*%
%TD*%
%TA.AperFunction,SMDPad,CuDef*%
%ADD48R,0.300000X0.800000*%
%TD*%
%TA.AperFunction,SMDPad,CuDef*%
%ADD49R,2.100000X1.300000*%
%TD*%
%TA.AperFunction,SMDPad,CuDef*%
%ADD50RoundRect,0.250000X-0.300000X-1.600000X0.300000X-1.600000X0.300000X1.600000X-0.300000X1.600000X0*%
%TD*%
%TA.AperFunction,BGAPad,CuDef*%
%ADD51C,0.320000*%
%TD*%
%TA.AperFunction,SMDPad,CuDef*%
%ADD52RoundRect,0.150000X-0.512500X-0.150000X0.512500X-0.150000X0.512500X0.150000X-0.512500X0.150000X0*%
%TD*%
%TA.AperFunction,ComponentPad*%
%ADD53RoundRect,0.250000X-0.550000X0.550000X-0.550000X-0.550000X0.550000X-0.550000X0.550000X0.550000X0*%
%TD*%
%TA.AperFunction,ComponentPad*%
%ADD54C,1.600000*%
%TD*%
%TA.AperFunction,SMDPad,CuDef*%
%ADD55RoundRect,0.100000X-0.562500X-0.100000X0.562500X-0.100000X0.562500X0.100000X-0.562500X0.100000X0*%
%TD*%
%TA.AperFunction,SMDPad,CuDef*%
%ADD56RoundRect,0.250000X1.000000X0.650000X-1.000000X0.650000X-1.000000X-0.650000X1.000000X-0.650000X0*%
%TD*%
%TA.AperFunction,SMDPad,CuDef*%
%ADD57RoundRect,0.100000X-0.225000X-0.100000X0.225000X-0.100000X0.225000X0.100000X-0.225000X0.100000X0*%
%TD*%
%TA.AperFunction,SMDPad,CuDef*%
%ADD58R,1.800000X1.200000*%
%TD*%
%TA.AperFunction,SMDPad,CuDef*%
%ADD59RoundRect,0.100000X0.100000X-0.712500X0.100000X0.712500X-0.100000X0.712500X-0.100000X-0.712500X0*%
%TD*%
%TA.AperFunction,SMDPad,CuDef*%
%ADD60RoundRect,0.100000X-0.100000X0.712500X-0.100000X-0.712500X0.100000X-0.712500X0.100000X0.712500X0*%
%TD*%
%TA.AperFunction,SMDPad,CuDef*%
%ADD61RoundRect,0.050000X-0.387500X-0.050000X0.387500X-0.050000X0.387500X0.050000X-0.387500X0.050000X0*%
%TD*%
%TA.AperFunction,SMDPad,CuDef*%
%ADD62RoundRect,0.050000X-0.050000X-0.387500X0.050000X-0.387500X0.050000X0.387500X-0.050000X0.387500X0*%
%TD*%
%TA.AperFunction,HeatsinkPad*%
%ADD63R,3.200000X3.200000*%
%TD*%
%TA.AperFunction,SMDPad,CuDef*%
%ADD64RoundRect,0.218750X-0.218750X-0.256250X0.218750X-0.256250X0.218750X0.256250X-0.218750X0.256250X0*%
%TD*%
%TA.AperFunction,SMDPad,CuDef*%
%ADD65R,1.200000X1.800000*%
%TD*%
%TA.AperFunction,SMDPad,CuDef*%
%ADD66RoundRect,0.125000X0.125000X0.125000X-0.125000X0.125000X-0.125000X-0.125000X0.125000X-0.125000X0*%
%TD*%
%TA.AperFunction,SMDPad,CuDef*%
%ADD67C,2.000000*%
%TD*%
%TA.AperFunction,SMDPad,CuDef*%
%ADD68RoundRect,0.250000X-0.420000X-0.945000X0.420000X-0.945000X0.420000X0.945000X-0.420000X0.945000X0*%
%TD*%
%TA.AperFunction,SMDPad,CuDef*%
%ADD69RoundRect,0.050000X0.050000X-0.375000X0.050000X0.375000X-0.050000X0.375000X-0.050000X-0.375000X0*%
%TD*%
%TA.AperFunction,SMDPad,CuDef*%
%ADD70RoundRect,0.050000X0.275000X-0.050000X0.275000X0.050000X-0.275000X0.050000X-0.275000X-0.050000X0*%
%TD*%
%TA.AperFunction,ComponentPad*%
%ADD71RoundRect,0.250000X-0.550000X-0.550000X0.550000X-0.550000X0.550000X0.550000X-0.550000X0.550000X0*%
%TD*%
%TA.AperFunction,ComponentPad*%
%ADD72R,1.600000X1.600000*%
%TD*%
%TA.AperFunction,ComponentPad*%
%ADD73RoundRect,0.250000X0.600000X-0.600000X0.600000X0.600000X-0.600000X0.600000X-0.600000X-0.600000X0*%
%TD*%
%TA.AperFunction,ViaPad*%
%ADD74C,0.600000*%
%TD*%
%TA.AperFunction,Conductor*%
%ADD75C,0.200000*%
%TD*%
%TA.AperFunction,Conductor*%
%ADD76C,0.500000*%
%TD*%
%TA.AperFunction,Conductor*%
%ADD77C,0.250000*%
%TD*%
%TA.AperFunction,Conductor*%
%ADD78C,0.762000*%
%TD*%
%TA.AperFunction,Conductor*%
%ADD79C,0.127000*%
%TD*%
%ADD80C,0.250000*%
G04 APERTURE END LIST*
D10*
%TO.P,R35,1*%
%TO.N,Net-(U2C--)*%
X212511493Y-143794564D03*
%TO.P,R35,2*%
%TO.N,GND*%
X212511493Y-145444564D03*
%TD*%
D11*
%TO.P,D1,1,K*%
%TO.N,+12V*%
X204608688Y-54609498D03*
%TO.P,D1,2,A*%
%TO.N,Net-(D1-A)*%
X204608688Y-50609498D03*
%TD*%
D12*
%TO.P,U2,1*%
%TO.N,Net-(U2A--)*%
X210883509Y-138400449D03*
%TO.P,U2,2,-*%
X210883509Y-139050449D03*
%TO.P,U2,3,+*%
%TO.N,Net-(U2A-+)*%
X210883509Y-139700449D03*
%TO.P,U2,4,V+*%
%TO.N,+12V*%
X210883509Y-140350449D03*
%TO.P,U2,5,+*%
%TO.N,GND*%
X210883509Y-141000449D03*
%TO.P,U2,6,-*%
%TO.N,Net-(U2B--)*%
X210883509Y-141650449D03*
%TO.P,U2,7*%
%TO.N,/audio inputs/-CODEC_V_{COM}*%
X210883509Y-142300449D03*
%TO.P,U2,8*%
%TO.N,Net-(R34-Pad2)*%
X216608509Y-142300449D03*
%TO.P,U2,9,-*%
%TO.N,Net-(U2C--)*%
X216608509Y-141650449D03*
%TO.P,U2,10,+*%
%TO.N,Net-(U2C-+)*%
X216608509Y-141000449D03*
%TO.P,U2,11,V-*%
%TO.N,-12V*%
X216608509Y-140350449D03*
%TO.P,U2,12,+*%
%TO.N,Net-(U2D-+)*%
X216608509Y-139700449D03*
%TO.P,U2,13,-*%
%TO.N,Net-(U2D--)*%
X216608509Y-139050449D03*
%TO.P,U2,14*%
%TO.N,Net-(R58-Pad2)*%
X216608509Y-138400449D03*
%TD*%
D13*
%TO.P,U4,1,EN*%
%TO.N,+12V*%
X209690458Y-50250501D03*
%TO.P,U4,2,FB*%
%TO.N,Net-(U4-FB)*%
X209690458Y-51520501D03*
%TO.P,U4,3,VREG*%
%TO.N,Net-(U4-VREG)*%
X209690458Y-52790501D03*
%TO.P,U4,4,SS*%
%TO.N,Net-(U4-SS)*%
X209690458Y-54060501D03*
%TO.P,U4,5,GND*%
%TO.N,GND*%
X214990458Y-54060501D03*
%TO.P,U4,6,SW*%
%TO.N,Net-(U4-SW)*%
X214990458Y-52790501D03*
%TO.P,U4,7,BOOT*%
%TO.N,Net-(U4-BOOT)*%
X214990458Y-51520501D03*
%TO.P,U4,8,V_{IN}*%
%TO.N,+12V*%
X214990458Y-50250501D03*
D14*
%TO.P,U4,9,EP*%
%TO.N,GND*%
X212340458Y-52155501D03*
%TD*%
D15*
%TO.P,C51,1*%
%TO.N,+3V3*%
X200383886Y-102468995D03*
%TO.P,C51,2*%
%TO.N,GND*%
X200383886Y-104018995D03*
%TD*%
D16*
%TO.P,D3,1,K*%
%TO.N,Net-(D3-K)*%
X197679009Y-61836449D03*
%TO.P,D3,2,A*%
%TO.N,/power/USB_VBUS_protected*%
X197679009Y-64036449D03*
%TD*%
D15*
%TO.P,C66,1*%
%TO.N,/audio outputs/HEADPHONE_AMP_HEATSINK*%
X206315783Y-134325449D03*
%TO.P,C66,2*%
%TO.N,GND*%
X206315783Y-135875449D03*
%TD*%
D17*
%TO.P,R46,1*%
%TO.N,/audio inputs/-CODEC_V_{COM}*%
X220586493Y-142369564D03*
%TO.P,R46,2*%
%TO.N,Net-(U2D-+)*%
X218936493Y-142369564D03*
%TD*%
D10*
%TO.P,R20,1*%
%TO.N,Net-(D9-K)*%
X200657787Y-115461350D03*
%TO.P,R20,2*%
%TO.N,GND*%
X200657787Y-117111350D03*
%TD*%
D18*
%TO.P,C43,1*%
%TO.N,+3V3*%
X189716550Y-108019072D03*
%TO.P,C43,2*%
%TO.N,GND*%
X188620534Y-106923056D03*
%TD*%
D19*
%TO.P,C6,1*%
%TO.N,Net-(U3-V_{IN}R)*%
X216703509Y-106760449D03*
%TO.P,C6,2*%
%TO.N,/audio inputs/V_{OUT}R*%
X219408509Y-106760449D03*
%TD*%
D15*
%TO.P,C64,1*%
%TO.N,Net-(U25-C1P)*%
X206301991Y-131319839D03*
%TO.P,C64,2*%
%TO.N,Net-(U25-C1N)*%
X206301991Y-132869839D03*
%TD*%
D20*
%TO.P,J2,1,Pin_1*%
%TO.N,/VOL_KNOB_L_FIXED*%
X223934707Y-125653706D03*
D21*
%TO.P,J2,2,Pin_2*%
%TO.N,/VOL_KNOB_R_FIXED*%
X223934707Y-128193706D03*
%TO.P,J2,3,Pin_3*%
%TO.N,/VOL_KNOB_L_VAR*%
X223934707Y-130733706D03*
%TO.P,J2,4,Pin_4*%
%TO.N,/HEADPHONE_TIP*%
X223934707Y-133273706D03*
%TO.P,J2,5,Pin_5*%
%TO.N,/HEADPHONE_RING*%
X223934707Y-135813706D03*
%TO.P,J2,6,Pin_6*%
%TO.N,/VOL_KNOB_R_VAR*%
X223934707Y-138353706D03*
%TD*%
D22*
%TO.P,D4,1,K*%
%TO.N,Net-(D3-K)*%
X201330009Y-60650449D03*
%TO.P,D4,2,A*%
%TO.N,/power/5.3V*%
X201330009Y-58450449D03*
%TD*%
D23*
%TO.P,R21,1*%
%TO.N,Net-(R21-Pad1)*%
X196187925Y-90302648D03*
%TO.P,R21,2*%
%TO.N,GND*%
X197837925Y-90302648D03*
%TD*%
D24*
%TO.P,D23,1,K*%
%TO.N,Net-(D22-A)*%
X214133509Y-155000449D03*
%TO.P,D23,2,A*%
%TO.N,/-5V_CUTOFF*%
X216333509Y-155000449D03*
%TD*%
D15*
%TO.P,C45,1*%
%TO.N,+3V3*%
X200654619Y-105495614D03*
%TO.P,C45,2*%
%TO.N,GND*%
X200654619Y-107045614D03*
%TD*%
D25*
%TO.P,U16,1,~{CS}*%
%TO.N,/mcu/~{USB_BOOT}*%
X189010954Y-99185147D03*
%TO.P,U16,2,DO/IO_{1}*%
%TO.N,Net-(U16-DO{slash}IO_{1})*%
X190280954Y-99185147D03*
%TO.P,U16,3,~{WP}/IO_{2}*%
%TO.N,Net-(U16-~{WP}{slash}IO_{2})*%
X191550954Y-99185147D03*
%TO.P,U16,4,GND*%
%TO.N,GND*%
X192820954Y-99185147D03*
%TO.P,U16,5,DI/IO_{0}*%
%TO.N,Net-(U16-DI{slash}IO_{0})*%
X192820954Y-92010147D03*
%TO.P,U16,6,CLK*%
%TO.N,Net-(U16-CLK)*%
X191550954Y-92010147D03*
%TO.P,U16,7,~{HOLD}/~{RESET}/IO_{3}*%
%TO.N,Net-(U16-~{HOLD}{slash}~{RESET}{slash}IO_{3})*%
X190280954Y-92010147D03*
%TO.P,U16,8,VCC*%
%TO.N,+3V3*%
X189010954Y-92010147D03*
%TD*%
D26*
%TO.P,C55,1*%
%TO.N,+3V3*%
X206646009Y-104150449D03*
%TO.P,C55,2*%
%TO.N,GND*%
X205096009Y-104150449D03*
%TD*%
D23*
%TO.P,R23,1*%
%TO.N,/CV inputs/CV_REF*%
X207446096Y-85139976D03*
%TO.P,R23,2*%
%TO.N,Net-(U18B-+)*%
X209096096Y-85139976D03*
%TD*%
D27*
%TO.P,D6,1,K*%
%TO.N,Net-(D6-K)*%
X194296537Y-67227894D03*
%TO.P,D6,2,A*%
%TO.N,Net-(D6-A)*%
X194296537Y-65652894D03*
%TD*%
D28*
%TO.P,U28,1,EN*%
%TO.N,+5V*%
X215703951Y-66107719D03*
%TO.P,U28,2,IN*%
X215703951Y-67387719D03*
%TO.P,U28,3,OUT*%
%TO.N,+3V3*%
X215703951Y-68647719D03*
%TO.P,U28,4,BYP*%
%TO.N,Net-(U28-BYP)*%
X215703951Y-69917719D03*
%TO.P,U28,5,GND*%
%TO.N,GND*%
X220843951Y-69917719D03*
%TO.P,U28,6,GND*%
X220843951Y-68647719D03*
%TO.P,U28,7,GND*%
X220843951Y-67387719D03*
%TO.P,U28,8,GND*%
X220843951Y-66107719D03*
%TD*%
D29*
%TO.P,R57,1*%
%TO.N,Net-(U23B--)*%
X207383509Y-154300449D03*
%TO.P,R57,2*%
%TO.N,/audio inputs/V_{OUT}R*%
X208933509Y-154300449D03*
%TD*%
D15*
%TO.P,C26,1*%
%TO.N,Net-(JP2-A)*%
X188397988Y-88386247D03*
%TO.P,C26,2*%
%TO.N,GND*%
X188397988Y-89936247D03*
%TD*%
D30*
%TO.P,U20,1,AV_{DD}*%
%TO.N,+3V3*%
X214089038Y-104200309D03*
%TO.P,U20,2,A_{GND}*%
%TO.N,GND*%
X214089038Y-103550309D03*
%TO.P,U20,3,REFIN-*%
X214089038Y-102900309D03*
%TO.P,U20,4,RFIN+/OUT*%
%TO.N,+3V3*%
X214089038Y-102250309D03*
%TO.P,U20,5,CH0*%
%TO.N,/CV inputs/SCALED_CV_1*%
X214089038Y-101600309D03*
%TO.P,U20,6,CH1*%
%TO.N,/CV inputs/SCALED_CV_2*%
X214089038Y-100950309D03*
%TO.P,U20,7,CH2*%
%TO.N,/CV inputs/SCALED_CV_3*%
X214089038Y-100300309D03*
%TO.P,U20,8,CH3*%
%TO.N,/CV inputs/SCALED_CV_4*%
X214089038Y-99650309D03*
%TO.P,U20,9*%
%TO.N,N/C*%
X214089038Y-99000309D03*
%TO.P,U20,10*%
X214089038Y-98350309D03*
%TO.P,U20,11*%
X208364038Y-98350309D03*
%TO.P,U20,12*%
X208364038Y-99000309D03*
%TO.P,U20,13,~{CS}*%
%TO.N,/CV inputs/~{SS}*%
X208364038Y-99650309D03*
%TO.P,U20,14,SCK*%
%TO.N,/CV inputs/adc.SCLK*%
X208364038Y-100300309D03*
%TO.P,U20,15,SDI*%
%TO.N,/CV inputs/adc.MOSI*%
X208364038Y-100950309D03*
%TO.P,U20,16,SDO*%
%TO.N,/CV inputs/adc.MISO*%
X208364038Y-101600309D03*
%TO.P,U20,17,~{IRQ}/MDAT*%
%TO.N,/CV inputs/adc.~{IRQ}*%
X208364038Y-102250309D03*
%TO.P,U20,18,MCLK*%
%TO.N,/CV inputs/CV_ADC_MCLK*%
X208364038Y-102900309D03*
%TO.P,U20,19,D_{GND}*%
%TO.N,GND*%
X208364038Y-103550309D03*
%TO.P,U20,20,DV_{DD}*%
%TO.N,+3V3*%
X208364038Y-104200309D03*
%TD*%
D31*
%TO.P,U13,1,OUT*%
%TO.N,+5V*%
X205766494Y-64360431D03*
%TO.P,U13,2,GND*%
%TO.N,GND*%
X206716494Y-64360431D03*
%TO.P,U13,3,~{FLG}*%
%TO.N,unconnected-(U13-~{FLG}-Pad3)*%
X207666494Y-64360431D03*
%TO.P,U13,4,~{EN}*%
%TO.N,/power/EURO_PWR_EN*%
X207666494Y-62085431D03*
%TO.P,U13,5,IN*%
%TO.N,/power/USB_VBUS_protected*%
X205766494Y-62085431D03*
%TD*%
D32*
%TO.P,TP2,1,1*%
%TO.N,/mcu/SWD*%
X196880310Y-117361007D03*
%TD*%
D24*
%TO.P,D22,1,K*%
%TO.N,+5V*%
X210917509Y-155000449D03*
%TO.P,D22,2,A*%
%TO.N,Net-(D22-A)*%
X213117509Y-155000449D03*
%TD*%
D10*
%TO.P,R7,1*%
%TO.N,Net-(U4-FB)*%
X218728695Y-50096080D03*
%TO.P,R7,2*%
%TO.N,Net-(JP1-A)*%
X218728695Y-51746080D03*
%TD*%
D26*
%TO.P,C54,1*%
%TO.N,GND*%
X217994780Y-104056957D03*
%TO.P,C54,2*%
%TO.N,+3V3*%
X216444780Y-104056957D03*
%TD*%
D27*
%TO.P,D9,1,K*%
%TO.N,Net-(D9-K)*%
X200657787Y-114111350D03*
%TO.P,D9,2,A*%
%TO.N,Net-(D9-A)*%
X200657787Y-112536350D03*
%TD*%
D17*
%TO.P,R54,1*%
%TO.N,Net-(R54-Pad1)*%
X220202596Y-93013976D03*
%TO.P,R54,2*%
%TO.N,Net-(U21C-+)*%
X218552596Y-93013976D03*
%TD*%
D29*
%TO.P,C47,1*%
%TO.N,+3V3*%
X196057787Y-113148850D03*
%TO.P,C47,2*%
%TO.N,GND*%
X197607787Y-113148850D03*
%TD*%
D10*
%TO.P,R83,1*%
%TO.N,Net-(R83-Pad1)*%
X217861481Y-128215449D03*
%TO.P,R83,2*%
%TO.N,Net-(C65-Pad2)*%
X217861481Y-129865449D03*
%TD*%
D33*
%TO.P,C17,1*%
%TO.N,/power/5.3V*%
X224476009Y-53551449D03*
%TO.P,C17,2*%
%TO.N,GND*%
X224476009Y-52001449D03*
%TD*%
D23*
%TO.P,R16,1*%
%TO.N,Net-(D8-K)*%
X193369009Y-126450449D03*
%TO.P,R16,2*%
%TO.N,GND*%
X195019009Y-126450449D03*
%TD*%
D15*
%TO.P,C23,1*%
%TO.N,/power/USB_VBUS_protected*%
X201639509Y-66400857D03*
%TO.P,C23,2*%
%TO.N,GND*%
X201639509Y-67950857D03*
%TD*%
%TO.P,C21,1*%
%TO.N,Net-(U4-VREG)*%
X207738084Y-53244542D03*
%TO.P,C21,2*%
%TO.N,GND*%
X207738084Y-54794542D03*
%TD*%
D12*
%TO.P,U3,1,MC/SCL/FMT*%
%TO.N,/FPGA/CODEC_CTRL.SCLK*%
X205621009Y-107519156D03*
%TO.P,U3,2,MD/SDA/DEMP*%
%TO.N,/FPGA/CODEC_CTRL.MOSI*%
X205621009Y-108169156D03*
%TO.P,U3,3,DOUT*%
%TO.N,/FPGA/CODEC_ADC.ADC_OUT*%
X205621009Y-108819156D03*
%TO.P,U3,4,LRCK1*%
%TO.N,/FPGA/CODEC_ADC.LR_CLK*%
X205621009Y-109469156D03*
%TO.P,U3,5,BCK1*%
%TO.N,/FPGA/CODEC_ADC.BIT_CLK*%
X205621009Y-110119156D03*
%TO.P,U3,6,SCKI1*%
%TO.N,/FPGA/CODEC_ADC.SYS_CLK*%
X205621009Y-110769156D03*
%TO.P,U3,7,V_{DD}*%
%TO.N,+3V3*%
X205621009Y-111419156D03*
%TO.P,U3,8,DGND*%
%TO.N,GND*%
X205621009Y-112069156D03*
%TO.P,U3,9,SCKI2*%
%TO.N,/FPGA/CODEC_DAC.SYS_CLK*%
X205621009Y-112719156D03*
%TO.P,U3,10,BCK2*%
%TO.N,/FPGA/CODEC_DAC.BIT_CLK*%
X205621009Y-113369156D03*
%TO.P,U3,11,LRCK2*%
%TO.N,/FPGA/CODEC_DAC.LR_CLK*%
X205621009Y-114019156D03*
%TO.P,U3,12,DIN*%
%TO.N,/FPGA/CODEC_DAC.DAC_IN*%
X205621009Y-114669156D03*
%TO.P,U3,13,ZEROR*%
%TO.N,unconnected-(U3-ZEROR-Pad13)*%
X205621009Y-115319156D03*
%TO.P,U3,14,ZEROL*%
%TO.N,unconnected-(U3-ZEROL-Pad14)*%
X205621009Y-115969156D03*
%TO.P,U3,15,~{RST}*%
%TO.N,/FPGA/CODEC_CTRL.~{RESET}*%
X211346009Y-115969156D03*
%TO.P,U3,16,SGND*%
%TO.N,GND*%
X211346009Y-115319156D03*
%TO.P,U3,17,V_{OUT}R-*%
%TO.N,unconnected-(U3-V_{OUT}R--Pad17)*%
X211346009Y-114669156D03*
%TO.P,U3,18,V_{OUT}R+*%
%TO.N,/audio outputs/V_{IN}R*%
X211346009Y-114019156D03*
%TO.P,U3,19,V_{OUT}L-*%
%TO.N,unconnected-(U3-V_{OUT}L--Pad19)*%
X211346009Y-113369156D03*
%TO.P,U3,20,V_{OUT}L+*%
%TO.N,/audio outputs/V_{IN}L*%
X211346009Y-112719156D03*
%TO.P,U3,21,V_{COM}*%
%TO.N,Net-(U2A-+)*%
X211346009Y-112069156D03*
%TO.P,U3,22,AGND2*%
%TO.N,GND*%
X211346009Y-111419156D03*
%TO.P,U3,23,AGND1*%
X211346009Y-110769156D03*
%TO.P,U3,24,V_{CC}*%
%TO.N,+5V*%
X211346009Y-110119156D03*
%TO.P,U3,25,V_{IN}L*%
%TO.N,Net-(U3-V_{IN}L)*%
X211346009Y-109469156D03*
%TO.P,U3,26,V_{IN}R*%
%TO.N,Net-(U3-V_{IN}R)*%
X211346009Y-108819156D03*
%TO.P,U3,27,~{MS}/AD/IFMD*%
%TO.N,/FPGA/CODEC_CTRL.~{SS}*%
X211346009Y-108169156D03*
%TO.P,U3,28,MODE*%
%TO.N,+3V3*%
X211346009Y-107519156D03*
%TD*%
D34*
%TO.P,R59,1*%
%TO.N,+3V3*%
X190671157Y-103902036D03*
%TO.P,R59,2*%
%TO.N,/mcu/~{USB_BOOT}*%
X189504431Y-102735310D03*
%TD*%
D26*
%TO.P,C56,1*%
%TO.N,GND*%
X217994780Y-102556957D03*
%TO.P,C56,2*%
%TO.N,+3V3*%
X216444780Y-102556957D03*
%TD*%
D29*
%TO.P,C16,1*%
%TO.N,+12V*%
X206548788Y-48178292D03*
%TO.P,C16,2*%
%TO.N,GND*%
X208098788Y-48178292D03*
%TD*%
D10*
%TO.P,R6,1*%
%TO.N,Net-(U4-FB)*%
X220274723Y-50134262D03*
%TO.P,R6,2*%
%TO.N,Net-(JP1-A)*%
X220274723Y-51784262D03*
%TD*%
D17*
%TO.P,R2,1*%
%TO.N,+5V*%
X220041596Y-75980976D03*
%TO.P,R2,2*%
%TO.N,Net-(U1C--)*%
X218391596Y-75980976D03*
%TD*%
%TO.P,R81,1*%
%TO.N,Net-(U24A--)*%
X220516009Y-136270449D03*
%TO.P,R81,2*%
%TO.N,Net-(R80-Pad1)*%
X218866009Y-136270449D03*
%TD*%
D35*
%TO.P,R43,1*%
%TO.N,/audio outputs/V_{IN}L*%
X217011493Y-145444564D03*
%TO.P,R43,2*%
%TO.N,Net-(U2C-+)*%
X217011493Y-143794564D03*
%TD*%
D24*
%TO.P,D20,1,K*%
%TO.N,+5V*%
X210925509Y-147500449D03*
%TO.P,D20,2,A*%
%TO.N,Net-(D20-A)*%
X213125509Y-147500449D03*
%TD*%
D35*
%TO.P,R11,1*%
%TO.N,GND*%
X205680009Y-60459449D03*
%TO.P,R11,2*%
%TO.N,/power/5.3V*%
X205680009Y-58809449D03*
%TD*%
D36*
%TO.P,JP2,1,A*%
%TO.N,Net-(JP2-A)*%
X190218009Y-84780449D03*
D37*
%TO.P,JP2,2,C*%
%TO.N,unconnected-(JP2-C-Pad2)*%
X192218009Y-84780449D03*
D38*
%TO.P,JP2,3,B*%
%TO.N,/FPGA/FPGA_VDD*%
X194218009Y-84780449D03*
%TD*%
D23*
%TO.P,R82,1*%
%TO.N,/audio outputs/V_{IN}L*%
X223187938Y-122959603D03*
%TO.P,R82,2*%
%TO.N,/VOL_KNOB_L_FIXED*%
X224837938Y-122959603D03*
%TD*%
D27*
%TO.P,FB3,1*%
%TO.N,/USB_VBUS*%
X190789009Y-63723949D03*
%TO.P,FB3,2*%
%TO.N,Net-(D5-A)*%
X190789009Y-62148949D03*
%TD*%
D39*
%TO.P,D2,1,K*%
%TO.N,Net-(D2-K)*%
X187836297Y-51288533D03*
%TO.P,D2,2,A*%
%TO.N,-12V*%
X187836297Y-55288533D03*
%TD*%
D24*
%TO.P,D21,1,K*%
%TO.N,Net-(D20-A)*%
X214141509Y-147500449D03*
%TO.P,D21,2,A*%
%TO.N,/-5V_CUTOFF*%
X216341509Y-147500449D03*
%TD*%
D17*
%TO.P,R84,1*%
%TO.N,Net-(U24B--)*%
X221476481Y-128340449D03*
%TO.P,R84,2*%
%TO.N,Net-(R83-Pad1)*%
X219826481Y-128340449D03*
%TD*%
D32*
%TO.P,TP4,1,1*%
%TO.N,+3V3*%
X209953634Y-67366312D03*
%TD*%
D33*
%TO.P,C39,1*%
%TO.N,+3V3*%
X200477705Y-101063679D03*
%TO.P,C39,2*%
%TO.N,GND*%
X200477705Y-99513679D03*
%TD*%
D19*
%TO.P,C65,1*%
%TO.N,Net-(U25-INL-)*%
X213472798Y-128152835D03*
%TO.P,C65,2*%
%TO.N,Net-(C65-Pad2)*%
X216177798Y-128152835D03*
%TD*%
D40*
%TO.P,D8,1,K*%
%TO.N,Net-(D8-K)*%
X191933509Y-126450449D03*
%TO.P,D8,2,A*%
%TO.N,Net-(D8-A)*%
X190358509Y-126450449D03*
%TD*%
D12*
%TO.P,U23,1*%
%TO.N,Net-(R61-Pad1)*%
X210771009Y-149300449D03*
%TO.P,U23,2,-*%
%TO.N,Net-(U23A--)*%
X210771009Y-149950449D03*
%TO.P,U23,3,+*%
%TO.N,Net-(D20-A)*%
X210771009Y-150600449D03*
%TO.P,U23,4,V+*%
%TO.N,+12V*%
X210771009Y-151250449D03*
%TO.P,U23,5,+*%
%TO.N,GND*%
X210771009Y-151900449D03*
%TO.P,U23,6,-*%
%TO.N,Net-(U23B--)*%
X210771009Y-152550449D03*
%TO.P,U23,7*%
%TO.N,/audio inputs/V_{OUT}R*%
X210771009Y-153200449D03*
%TO.P,U23,8*%
%TO.N,Net-(R76-Pad1)*%
X216496009Y-153200449D03*
%TO.P,U23,9,-*%
%TO.N,Net-(U23C--)*%
X216496009Y-152550449D03*
%TO.P,U23,10,+*%
%TO.N,Net-(D22-A)*%
X216496009Y-151900449D03*
%TO.P,U23,11,V-*%
%TO.N,-12V*%
X216496009Y-151250449D03*
%TO.P,U23,12,+*%
%TO.N,GND*%
X216496009Y-150600449D03*
%TO.P,U23,13,-*%
%TO.N,Net-(U23D--)*%
X216496009Y-149950449D03*
%TO.P,U23,14*%
%TO.N,/audio inputs/V_{OUT}L*%
X216496009Y-149300449D03*
%TD*%
D41*
%TO.P,C19,1*%
%TO.N,GND*%
X193830102Y-56052646D03*
%TO.P,C19,2*%
%TO.N,-12V*%
X190750102Y-56052646D03*
%TD*%
D10*
%TO.P,R79,1*%
%TO.N,/audio outputs/V_{IN}R*%
X221073227Y-125084137D03*
%TO.P,R79,2*%
%TO.N,/VOL_KNOB_R_FIXED*%
X221073227Y-126734137D03*
%TD*%
D15*
%TO.P,C14,1*%
%TO.N,Net-(D3-K)*%
X203161583Y-66390360D03*
%TO.P,C14,2*%
%TO.N,GND*%
X203161581Y-67940360D03*
%TD*%
D20*
%TO.P,J1,1,Pin_1*%
%TO.N,+5V*%
X223934707Y-80010449D03*
D21*
%TO.P,J1,2,Pin_2*%
%TO.N,/EURORACK_CV_IN_2*%
X223934707Y-82550449D03*
%TO.P,J1,3,Pin_3*%
%TO.N,/EURORACK_CV_IN_1*%
X223934707Y-85090449D03*
%TO.P,J1,4,Pin_4*%
%TO.N,/EURORACK_CV_IN_3*%
X223934707Y-87630449D03*
%TO.P,J1,5,Pin_5*%
%TO.N,/EURORACK_CV_IN_4*%
X223934707Y-90170449D03*
%TO.P,J1,6,Pin_6*%
%TO.N,+5V*%
X223934707Y-92710449D03*
%TD*%
D42*
%TO.P,JP3,1,A*%
%TO.N,Net-(JP3-A)*%
X203685236Y-58916866D03*
D43*
%TO.P,JP3,2,C*%
%TO.N,unconnected-(JP3-C-Pad2)*%
X203685236Y-60916866D03*
D44*
%TO.P,JP3,3,B*%
%TO.N,/power/EURO_PWR_EN*%
X203685236Y-62916866D03*
%TD*%
D45*
%TO.P,U27,1,TRI_STATE*%
%TO.N,unconnected-(U27-TRI_STATE-Pad1)*%
X192849258Y-113776548D03*
%TO.P,U27,2,GND*%
%TO.N,GND*%
X194749258Y-113776548D03*
%TO.P,U27,3,OUT*%
%TO.N,Net-(U17-XOUT)*%
X194749258Y-112276548D03*
%TO.P,U27,4,VDD*%
%TO.N,+3V3*%
X192849258Y-112276548D03*
%TD*%
D35*
%TO.P,R80,1*%
%TO.N,Net-(R80-Pad1)*%
X217481009Y-136375449D03*
%TO.P,R80,2*%
%TO.N,Net-(C63-Pad2)*%
X217481009Y-134725449D03*
%TD*%
D23*
%TO.P,R60,1*%
%TO.N,/EURORACK_AUDIO_IN_R*%
X207333509Y-149800449D03*
%TO.P,R60,2*%
%TO.N,Net-(D20-A)*%
X208983509Y-149800449D03*
%TD*%
%TO.P,R15,1*%
%TO.N,/CV inputs/FPGA_SHTDWN*%
X211621009Y-126350449D03*
%TO.P,R15,2*%
%TO.N,+3V3*%
X213271009Y-126350449D03*
%TD*%
D18*
%TO.P,C46,1*%
%TO.N,+3V3*%
X190233192Y-105517681D03*
%TO.P,C46,2*%
%TO.N,GND*%
X189137176Y-104421665D03*
%TD*%
D26*
%TO.P,C30,1*%
%TO.N,+3V3*%
X213727313Y-68621543D03*
%TO.P,C30,2*%
%TO.N,GND*%
X212177313Y-68621543D03*
%TD*%
D19*
%TO.P,C8,1*%
%TO.N,Net-(U2A-+)*%
X217496009Y-116230449D03*
%TO.P,C8,2*%
%TO.N,GND*%
X220201009Y-116230449D03*
%TD*%
D17*
%TO.P,R66,1*%
%TO.N,Net-(U23A--)*%
X208983509Y-148300449D03*
%TO.P,R66,2*%
%TO.N,Net-(R61-Pad1)*%
X207333509Y-148300449D03*
%TD*%
D23*
%TO.P,R4,1*%
%TO.N,Net-(U2B--)*%
X208971009Y-143510449D03*
%TO.P,R4,2*%
%TO.N,/audio inputs/-CODEC_V_{COM}*%
X210621009Y-143510449D03*
%TD*%
D24*
%TO.P,D16,1,K*%
%TO.N,Net-(D15-A)*%
X214522596Y-89240976D03*
%TO.P,D16,2,A*%
%TO.N,/-5V_CUTOFF*%
X216722596Y-89240976D03*
%TD*%
D20*
%TO.P,J5,1,Pin_1*%
%TO.N,/EURORACK_AUDIO_OUT_R*%
X223934707Y-145908233D03*
D21*
%TO.P,J5,2,Pin_2*%
%TO.N,/EURORACK_AUDIO_OUT_L*%
X223934707Y-148448233D03*
%TO.P,J5,3,Pin_3*%
%TO.N,/EURORACK_AUDIO_IN_R*%
X223934707Y-150988233D03*
%TO.P,J5,4,Pin_4*%
%TO.N,/EURORACK_AUDIO_IN_L*%
X223934707Y-153528233D03*
%TD*%
D19*
%TO.P,C2,1*%
%TO.N,+3V3*%
X212060792Y-105866959D03*
%TO.P,C2,2*%
%TO.N,GND*%
X214765792Y-105866959D03*
%TD*%
D24*
%TO.P,D13,1,K*%
%TO.N,Net-(D12-A)*%
X214516096Y-87298976D03*
%TO.P,D13,2,A*%
%TO.N,/-5V_CUTOFF*%
X216716096Y-87298976D03*
%TD*%
D17*
%TO.P,R12,1*%
%TO.N,Net-(U11-FB)*%
X219967009Y-63063449D03*
%TO.P,R12,2*%
%TO.N,Net-(U9-IN)*%
X218317009Y-63063449D03*
%TD*%
D46*
%TO.P,U25,1,INL+*%
%TO.N,unconnected-(U25-INL+-Pad1)*%
X208126009Y-129840449D03*
%TO.P,U25,2,~{SHDN}*%
%TO.N,+5V*%
X208126009Y-130490449D03*
%TO.P,U25,3,PVDD*%
X208126009Y-131140449D03*
%TO.P,U25,4,C1P*%
%TO.N,Net-(U25-C1P)*%
X208126009Y-131790449D03*
%TO.P,U25,5,PGND*%
%TO.N,GND*%
X208126009Y-132440449D03*
%TO.P,U25,6,C1N*%
%TO.N,Net-(U25-C1N)*%
X208126009Y-133090449D03*
%TO.P,U25,7,PVSS*%
%TO.N,/audio outputs/HEADPHONE_AMP_HEATSINK*%
X208126009Y-133740449D03*
%TO.P,U25,8,SGND*%
%TO.N,GND*%
X208126009Y-134390449D03*
%TO.P,U25,9,INR+*%
%TO.N,unconnected-(U25-INR+-Pad9)*%
X213876009Y-134390449D03*
%TO.P,U25,10,INR-*%
%TO.N,Net-(U25-INR-)*%
X213876009Y-133740449D03*
%TO.P,U25,11,SVDD*%
%TO.N,+5V*%
X213876009Y-133090449D03*
%TO.P,U25,12,OUTR*%
%TO.N,/HEADPHONE_RING*%
X213876009Y-132440449D03*
%TO.P,U25,13,SVSS*%
%TO.N,/audio outputs/HEADPHONE_AMP_HEATSINK*%
X213876009Y-131790449D03*
%TO.P,U25,14,OUTL*%
%TO.N,/HEADPHONE_TIP*%
X213876009Y-131140449D03*
%TO.P,U25,15,SVDD*%
%TO.N,+5V*%
X213876009Y-130490449D03*
%TO.P,U25,16,INL-*%
%TO.N,Net-(U25-INL-)*%
X213876009Y-129840449D03*
D47*
%TO.P,U25,17,EP*%
%TO.N,/audio outputs/HEADPHONE_AMP_HEATSINK*%
X211001009Y-132115449D03*
%TD*%
D17*
%TO.P,R52,1*%
%TO.N,Net-(U21C-+)*%
X220202596Y-96061976D03*
%TO.P,R52,2*%
%TO.N,/CV inputs/SCALED_CV_4*%
X218552596Y-96061976D03*
%TD*%
D23*
%TO.P,R58,1*%
%TO.N,Net-(U2D--)*%
X218936493Y-139369564D03*
%TO.P,R58,2*%
%TO.N,Net-(R58-Pad2)*%
X220586493Y-139369564D03*
%TD*%
D20*
%TO.P,J3,1,Pin_1*%
%TO.N,/USB_VBUS*%
X187315285Y-60248473D03*
D21*
%TO.P,J3,2,Pin_2*%
%TO.N,/USB_CC1*%
X187315285Y-62788473D03*
%TO.P,J3,3,Pin_3*%
%TO.N,/USB_CC2*%
X187315285Y-65328473D03*
%TO.P,J3,4,Pin_4*%
%TO.N,GND*%
X187315285Y-67868473D03*
%TO.P,J3,5,Pin_5*%
%TO.N,/MIDI_IN_S*%
X187315285Y-70408473D03*
%TO.P,J3,6,Pin_6*%
%TO.N,/MIDI_IN_R*%
X187315285Y-72948473D03*
%TO.P,J3,7,Pin_7*%
%TO.N,GND*%
X187315285Y-75488473D03*
%TO.P,J3,8,Pin_8*%
%TO.N,/USB_D-*%
X187315285Y-78028473D03*
%TO.P,J3,9,Pin_9*%
%TO.N,GND*%
X187315285Y-80568473D03*
%TO.P,J3,10,Pin_10*%
%TO.N,/USB_D+*%
X187315285Y-83108473D03*
%TO.P,J3,11,Pin_11*%
%TO.N,GND*%
X187315285Y-85648473D03*
%TD*%
D23*
%TO.P,R26,1*%
%TO.N,/EURORACK_CV_IN_1*%
X207445096Y-82091976D03*
%TO.P,R26,2*%
%TO.N,Net-(D10-A)*%
X209095096Y-82091976D03*
%TD*%
D48*
%TO.P,U11,1,OUT*%
%TO.N,Net-(U9-IN)*%
X218142009Y-61519449D03*
%TO.P,U11,2,OUT*%
X218642009Y-61519449D03*
%TO.P,U11,3,FB*%
%TO.N,Net-(U11-FB)*%
X219142009Y-61519449D03*
%TO.P,U11,4,GND*%
%TO.N,GND*%
X219642009Y-61519449D03*
%TO.P,U11,5,PG*%
X220142009Y-61519449D03*
%TO.P,U11,6,SS_CTRL*%
%TO.N,/power/5.3V*%
X220142009Y-59019449D03*
%TO.P,U11,7,EN*%
X219642009Y-59019449D03*
%TO.P,U11,8,NR/SS*%
%TO.N,Net-(U11-NR{slash}SS)*%
X219142009Y-59019449D03*
%TO.P,U11,9,IN*%
%TO.N,/power/5.3V*%
X218642009Y-59019449D03*
%TO.P,U11,10,IN*%
X218142009Y-59019449D03*
D49*
%TO.P,U11,11,GND*%
%TO.N,GND*%
X219142009Y-60269449D03*
%TD*%
D29*
%TO.P,C33,1*%
%TO.N,Net-(U28-BYP)*%
X215351395Y-71519660D03*
%TO.P,C33,2*%
%TO.N,GND*%
X216901395Y-71519660D03*
%TD*%
D41*
%TO.P,C13,1*%
%TO.N,+12V*%
X201831076Y-56052646D03*
%TO.P,C13,2*%
%TO.N,GND*%
X198751076Y-56052646D03*
%TD*%
D23*
%TO.P,R45,1*%
%TO.N,Net-(R45-Pad1)*%
X207376596Y-93013976D03*
%TO.P,R45,2*%
%TO.N,Net-(U21B-+)*%
X209026596Y-93013976D03*
%TD*%
D15*
%TO.P,C44,1*%
%TO.N,+3V3*%
X200357787Y-108998850D03*
%TO.P,C44,2*%
%TO.N,GND*%
X200357787Y-110548850D03*
%TD*%
D26*
%TO.P,C7,1*%
%TO.N,GND*%
X217031009Y-114410449D03*
%TO.P,C7,2*%
%TO.N,Net-(U2A-+)*%
X215481009Y-114410449D03*
%TD*%
D12*
%TO.P,U18,1*%
%TO.N,Net-(R28-Pad1)*%
X210927096Y-81538976D03*
%TO.P,U18,2,-*%
%TO.N,Net-(U18A--)*%
X210927096Y-82188976D03*
%TO.P,U18,3,+*%
%TO.N,Net-(D10-A)*%
X210927096Y-82838976D03*
%TO.P,U18,4,V+*%
%TO.N,+12V*%
X210927096Y-83488976D03*
%TO.P,U18,5,+*%
%TO.N,Net-(U18B-+)*%
X210927096Y-84138976D03*
%TO.P,U18,6,-*%
%TO.N,GND*%
X210927096Y-84788976D03*
%TO.P,U18,7*%
%TO.N,/CV inputs/SCALED_CV_1*%
X210927096Y-85438976D03*
%TO.P,U18,8*%
%TO.N,/CV inputs/SCALED_CV_2*%
X216652096Y-85438976D03*
%TO.P,U18,9,-*%
%TO.N,GND*%
X216652096Y-84788976D03*
%TO.P,U18,10,+*%
%TO.N,Net-(U18C-+)*%
X216652096Y-84138976D03*
%TO.P,U18,11,V-*%
%TO.N,-12V*%
X216652096Y-83488976D03*
%TO.P,U18,12,+*%
%TO.N,Net-(D12-A)*%
X216652096Y-82838976D03*
%TO.P,U18,13,-*%
%TO.N,Net-(U18D--)*%
X216652096Y-82188976D03*
%TO.P,U18,14*%
%TO.N,Net-(R36-Pad1)*%
X216652096Y-81538976D03*
%TD*%
D15*
%TO.P,C53,1*%
%TO.N,/mcu/RUN_BUTTON*%
X198308722Y-121494631D03*
%TO.P,C53,2*%
%TO.N,GND*%
X198308722Y-123044631D03*
%TD*%
%TO.P,C31,1*%
%TO.N,/power/5.3V*%
X216856009Y-58986449D03*
%TO.P,C31,2*%
%TO.N,GND*%
X216856009Y-60536449D03*
%TD*%
D50*
%TO.P,L1,1,1*%
%TO.N,Net-(U4-SW)*%
X217157211Y-54685812D03*
%TO.P,L1,2,2*%
%TO.N,Net-(JP1-A)*%
X220157211Y-54685812D03*
%TD*%
D19*
%TO.P,C63,1*%
%TO.N,Net-(U25-INR-)*%
X213071009Y-135950449D03*
%TO.P,C63,2*%
%TO.N,Net-(C63-Pad2)*%
X215776009Y-135950449D03*
%TD*%
D10*
%TO.P,R17,1*%
%TO.N,/USB_D+*%
X195744741Y-99845347D03*
%TO.P,R17,2*%
%TO.N,Net-(U17-USB_DP)*%
X195744741Y-101495347D03*
%TD*%
D15*
%TO.P,C34,1*%
%TO.N,Net-(U11-NR{slash}SS)*%
X221428009Y-59100449D03*
%TO.P,C34,2*%
%TO.N,GND*%
X221428009Y-60650449D03*
%TD*%
D33*
%TO.P,C27,1*%
%TO.N,/power/5.3V*%
X197787129Y-67204126D03*
%TO.P,C27,2*%
%TO.N,GND*%
X197787129Y-65654126D03*
%TD*%
D19*
%TO.P,C5,1*%
%TO.N,Net-(U3-V_{IN}L)*%
X215783509Y-108970449D03*
%TO.P,C5,2*%
%TO.N,/audio inputs/V_{OUT}L*%
X218488509Y-108970449D03*
%TD*%
D23*
%TO.P,R55,1*%
%TO.N,Net-(U21D--)*%
X218552596Y-89928976D03*
%TO.P,R55,2*%
%TO.N,Net-(R54-Pad1)*%
X220202596Y-89928976D03*
%TD*%
D26*
%TO.P,R73,1*%
%TO.N,/audio inputs/-CODEC_V_{COM}*%
X219908509Y-149800449D03*
%TO.P,R73,2*%
%TO.N,Net-(U23D--)*%
X218358509Y-149800449D03*
%TD*%
D23*
%TO.P,R40,1*%
%TO.N,/CV inputs/CV_REF*%
X207376596Y-94537976D03*
%TO.P,R40,2*%
%TO.N,Net-(U21B-+)*%
X209026596Y-94537976D03*
%TD*%
D15*
%TO.P,C62,1*%
%TO.N,GND*%
X210198759Y-127045464D03*
%TO.P,C62,2*%
%TO.N,+5V*%
X210198759Y-128595464D03*
%TD*%
D24*
%TO.P,D15,1,K*%
%TO.N,+5V*%
X211292596Y-89240976D03*
%TO.P,D15,2,A*%
%TO.N,Net-(D15-A)*%
X213492596Y-89240976D03*
%TD*%
D26*
%TO.P,C28,1*%
%TO.N,+5V*%
X213775084Y-67092866D03*
%TO.P,C28,2*%
%TO.N,GND*%
X212225084Y-67092866D03*
%TD*%
D33*
%TO.P,C61,1*%
%TO.N,+3V3*%
X199246009Y-136550449D03*
%TO.P,C61,2*%
%TO.N,GND*%
X199246009Y-135000449D03*
%TD*%
%TO.P,C38,1*%
%TO.N,Net-(U17-VREG_VOUT)*%
X198796191Y-101470566D03*
%TO.P,C38,2*%
%TO.N,GND*%
X198796191Y-99920566D03*
%TD*%
D32*
%TO.P,TP1,1,1*%
%TO.N,/mcu/SWCLK*%
X193780175Y-117361007D03*
%TD*%
D51*
%TO.P,APS6408L-30Cx1,A2*%
%TO.N,N/C*%
X193446009Y-137050449D03*
%TO.P,APS6408L-30Cx1,A3,~{CE}*%
%TO.N,/psram/~{CE}_{gated}*%
X194446009Y-137050449D03*
%TO.P,APS6408L-30Cx1,A4,~{RST}*%
%TO.N,/FPGA/PSRAM_~{RST}*%
X195446009Y-137050449D03*
%TO.P,APS6408L-30Cx1,A5*%
%TO.N,N/C*%
X196446009Y-137050449D03*
%TO.P,APS6408L-30Cx1,B1*%
X192446009Y-138050449D03*
%TO.P,APS6408L-30Cx1,B2,CLK*%
%TO.N,/FPGA/PSRAM_CLK*%
X193446009Y-138050449D03*
%TO.P,APS6408L-30Cx1,B3,V_{SS}*%
%TO.N,GND*%
X194446009Y-138050449D03*
%TO.P,APS6408L-30Cx1,B4,V_{DD}*%
%TO.N,+3V3*%
X195446009Y-138050449D03*
%TO.P,APS6408L-30Cx1,B5*%
%TO.N,N/C*%
X196446009Y-138050449D03*
%TO.P,APS6408L-30Cx1,C1,V_{SSQ}*%
%TO.N,GND*%
X192446009Y-139050449D03*
%TO.P,APS6408L-30Cx1,C2*%
%TO.N,N/C*%
X193446009Y-139050449D03*
%TO.P,APS6408L-30Cx1,C3,DQS/DM*%
%TO.N,/FPGA/PSRAM_DQS{slash}DM*%
X194446009Y-139050449D03*
%TO.P,APS6408L-30Cx1,C4,ADQ2*%
%TO.N,/FPGA/PSRAM_AD2*%
X195446009Y-139050449D03*
%TO.P,APS6408L-30Cx1,C5*%
%TO.N,N/C*%
X196446009Y-139050449D03*
%TO.P,APS6408L-30Cx1,D1,V_{DDQ}*%
%TO.N,+3V3*%
X192446009Y-140050449D03*
%TO.P,APS6408L-30Cx1,D2,ADQ1*%
%TO.N,/FPGA/PSRAM_AD1*%
X193446009Y-140050449D03*
%TO.P,APS6408L-30Cx1,D3,ADQ0*%
%TO.N,/FPGA/PSRAM_AD0*%
X194446009Y-140050449D03*
%TO.P,APS6408L-30Cx1,D4,ADQ3*%
%TO.N,/FPGA/PSRAM_AD3*%
X195446009Y-140050449D03*
%TO.P,APS6408L-30Cx1,D5,ADQ4*%
%TO.N,/FPGA/PSRAM_AD4*%
X196446009Y-140050449D03*
%TO.P,APS6408L-30Cx1,E1,ADQ7*%
%TO.N,/FPGA/PSRAM_AD7*%
X192446009Y-141050449D03*
%TO.P,APS6408L-30Cx1,E2,ADQ6*%
%TO.N,/FPGA/PSRAM_AD6*%
X193446009Y-141050449D03*
%TO.P,APS6408L-30Cx1,E3,ADQ5*%
%TO.N,/FPGA/PSRAM_AD5*%
X194446009Y-141050449D03*
%TO.P,APS6408L-30Cx1,E4,V_{DDQ}*%
%TO.N,+3V3*%
X195446009Y-141050449D03*
%TO.P,APS6408L-30Cx1,E5,VSSQ*%
%TO.N,GND*%
X196446009Y-141050449D03*
%TD*%
D52*
%TO.P,U15,1,OUT*%
%TO.N,Net-(U15-OUT)*%
X192138308Y-86776375D03*
%TO.P,U15,2,GND*%
%TO.N,GND*%
X192138308Y-87726375D03*
%TO.P,U15,3,~{FLG}*%
%TO.N,unconnected-(U15-~{FLG}-Pad3)*%
X192138308Y-88676375D03*
%TO.P,U15,4,~{EN}*%
%TO.N,/CV inputs/FPGA_SHTDWN*%
X194413308Y-88676375D03*
%TO.P,U15,5,IN*%
%TO.N,/FPGA/FPGA_VDD*%
X194413308Y-86776375D03*
%TD*%
D53*
%TO.P,U19,1*%
%TO.N,Net-(D14-K)*%
X196141849Y-74519598D03*
D54*
%TO.P,U19,2*%
%TO.N,/MIDI_IN_S*%
X193601849Y-74519598D03*
%TO.P,U19,3*%
%TO.N,unconnected-(U19-Pad3)*%
X191061849Y-74519598D03*
%TO.P,U19,4*%
%TO.N,/FPGA/MIDI_IN*%
X191061849Y-82139598D03*
%TO.P,U19,5*%
%TO.N,GND*%
X193601849Y-82139598D03*
%TO.P,U19,6*%
%TO.N,+3V3*%
X196141849Y-82139598D03*
%TD*%
D29*
%TO.P,C22,1*%
%TO.N,Net-(U4-SS)*%
X209311822Y-55609135D03*
%TO.P,C22,2*%
%TO.N,GND*%
X210861822Y-55609135D03*
%TD*%
D15*
%TO.P,C11,1*%
%TO.N,Net-(U4-FB)*%
X217047020Y-50186192D03*
%TO.P,C11,2*%
%TO.N,Net-(U4-BOOT)*%
X217047020Y-51736192D03*
%TD*%
D17*
%TO.P,R1,1*%
%TO.N,Net-(U1C--)*%
X220041596Y-77504976D03*
%TO.P,R1,2*%
%TO.N,/-5V_CUTOFF*%
X218391596Y-77504976D03*
%TD*%
D19*
%TO.P,C3,1*%
%TO.N,+5V*%
X215757509Y-112607390D03*
%TO.P,C3,2*%
%TO.N,GND*%
X218462509Y-112607390D03*
%TD*%
D17*
%TO.P,R31,1*%
%TO.N,/CV inputs/CV_REF*%
X220144096Y-85393976D03*
%TO.P,R31,2*%
%TO.N,Net-(U18C-+)*%
X218494096Y-85393976D03*
%TD*%
D23*
%TO.P,R37,1*%
%TO.N,Net-(U18D--)*%
X218494096Y-80821976D03*
%TO.P,R37,2*%
%TO.N,Net-(R36-Pad1)*%
X220144096Y-80821976D03*
%TD*%
D52*
%TO.P,U9,1,OUT*%
%TO.N,+5V*%
X214316009Y-62113449D03*
%TO.P,U9,2,GND*%
%TO.N,GND*%
X214316009Y-63063449D03*
%TO.P,U9,3,~{FLG}*%
%TO.N,unconnected-(U9-~{FLG}-Pad3)*%
X214316009Y-64013449D03*
%TO.P,U9,4,EN*%
%TO.N,/power/EURO_PWR_EN*%
X216591009Y-64013449D03*
%TO.P,U9,5,IN*%
%TO.N,Net-(U9-IN)*%
X216591009Y-62113449D03*
%TD*%
D55*
%TO.P,U10,1*%
%TO.N,/CV inputs/FPGA_SHTDWN*%
X204024557Y-94549255D03*
%TO.P,U10,2*%
%TO.N,/CV inputs/adc.~{SS}*%
X204024557Y-95199255D03*
%TO.P,U10,3,GND*%
%TO.N,GND*%
X204024557Y-95849255D03*
%TO.P,U10,4*%
%TO.N,/CV inputs/~{SS}*%
X205799557Y-95849255D03*
%TO.P,U10,5,VCC*%
%TO.N,+3V3*%
X205799557Y-94549255D03*
%TD*%
D24*
%TO.P,D10,1,K*%
%TO.N,+5V*%
X211275096Y-79551976D03*
%TO.P,D10,2,A*%
%TO.N,Net-(D10-A)*%
X213475096Y-79551976D03*
%TD*%
D17*
%TO.P,R30,1*%
%TO.N,Net-(U18A--)*%
X209096096Y-80567976D03*
%TO.P,R30,2*%
%TO.N,Net-(R28-Pad1)*%
X207446096Y-80567976D03*
%TD*%
%TO.P,R49,1*%
%TO.N,/audio outputs/V_{IN}R*%
X220586493Y-143869564D03*
%TO.P,R49,2*%
%TO.N,Net-(U2D-+)*%
X218936493Y-143869564D03*
%TD*%
D56*
%TO.P,D5,1,K*%
%TO.N,/power/USB_VBUS_protected*%
X195456009Y-59507449D03*
%TO.P,D5,2,A*%
%TO.N,Net-(D5-A)*%
X191456009Y-59507449D03*
%TD*%
D17*
%TO.P,R32,1*%
%TO.N,Net-(U18C-+)*%
X220144096Y-86917976D03*
%TO.P,R32,2*%
%TO.N,/CV inputs/SCALED_CV_2*%
X218494096Y-86917976D03*
%TD*%
D57*
%TO.P,U7,1*%
%TO.N,/power/CC_OUT1*%
X197713009Y-59111449D03*
%TO.P,U7,2,GND*%
%TO.N,GND*%
X197713009Y-59761449D03*
%TO.P,U7,3*%
%TO.N,Net-(U6-SCL{slash}OUT2)*%
X197713009Y-60411449D03*
%TO.P,U7,4*%
%TO.N,Net-(JP3-A)*%
X199613009Y-60411449D03*
%TO.P,U7,5,V_{CC}*%
%TO.N,Net-(D3-K)*%
X199613009Y-59761449D03*
%TO.P,U7,6*%
%TO.N,/power/5.3V*%
X199613009Y-59111449D03*
%TD*%
D23*
%TO.P,R24,1*%
%TO.N,Net-(U18B-+)*%
X207446096Y-86663976D03*
%TO.P,R24,2*%
%TO.N,/CV inputs/SCALED_CV_1*%
X209096096Y-86663976D03*
%TD*%
D26*
%TO.P,C12,1*%
%TO.N,GND*%
X205120595Y-56965203D03*
%TO.P,C12,2*%
%TO.N,+12V*%
X203570595Y-56965203D03*
%TD*%
D32*
%TO.P,TP6,1,1*%
%TO.N,+5V*%
X214565914Y-59547600D03*
%TD*%
D26*
%TO.P,C20,1*%
%TO.N,-12V*%
X189037718Y-57609705D03*
%TO.P,C20,2*%
%TO.N,GND*%
X187487718Y-57609705D03*
%TD*%
D23*
%TO.P,JP4,1,A*%
%TO.N,/CV inputs/SCALED_CV_1*%
X212281083Y-117236829D03*
%TO.P,JP4,2,B*%
%TO.N,/CV inputs/RAW_SCALED_CV_1*%
X213931083Y-117236829D03*
%TD*%
D40*
%TO.P,D7,1,K*%
%TO.N,Net-(D7-K)*%
X220273303Y-71522334D03*
%TO.P,D7,2,A*%
%TO.N,+3V3*%
X218698303Y-71522334D03*
%TD*%
D26*
%TO.P,C37,1*%
%TO.N,+5V*%
X213727313Y-65580113D03*
%TO.P,C37,2*%
%TO.N,GND*%
X212177313Y-65580113D03*
%TD*%
D24*
%TO.P,D19,1,K*%
%TO.N,Net-(D18-A)*%
X214551596Y-96733976D03*
%TO.P,D19,2,A*%
%TO.N,/-5V_CUTOFF*%
X216751596Y-96733976D03*
%TD*%
D17*
%TO.P,R33,1*%
%TO.N,/EURORACK_CV_IN_2*%
X220144096Y-82345976D03*
%TO.P,R33,2*%
%TO.N,Net-(D12-A)*%
X218494096Y-82345976D03*
%TD*%
D29*
%TO.P,C32,1*%
%TO.N,Net-(U9-IN)*%
X218367009Y-64587449D03*
%TO.P,C32,2*%
%TO.N,Net-(U11-FB)*%
X219917009Y-64587449D03*
%TD*%
D12*
%TO.P,U21,1*%
%TO.N,Net-(R45-Pad1)*%
X210927096Y-91063976D03*
%TO.P,U21,2,-*%
%TO.N,Net-(U21A--)*%
X210927096Y-91713976D03*
%TO.P,U21,3,+*%
%TO.N,Net-(D15-A)*%
X210927096Y-92363976D03*
%TO.P,U21,4,V+*%
%TO.N,+12V*%
X210927096Y-93013976D03*
%TO.P,U21,5,+*%
%TO.N,Net-(U21B-+)*%
X210927096Y-93663976D03*
%TO.P,U21,6,-*%
%TO.N,GND*%
X210927096Y-94313976D03*
%TO.P,U21,7*%
%TO.N,/CV inputs/SCALED_CV_3*%
X210927096Y-94963976D03*
%TO.P,U21,8*%
%TO.N,/CV inputs/SCALED_CV_4*%
X216652096Y-94963976D03*
%TO.P,U21,9,-*%
%TO.N,GND*%
X216652096Y-94313976D03*
%TO.P,U21,10,+*%
%TO.N,Net-(U21C-+)*%
X216652096Y-93663976D03*
%TO.P,U21,11,V-*%
%TO.N,-12V*%
X216652096Y-93013976D03*
%TO.P,U21,12,+*%
%TO.N,Net-(D18-A)*%
X216652096Y-92363976D03*
%TO.P,U21,13,-*%
%TO.N,Net-(U21D--)*%
X216652096Y-91713976D03*
%TO.P,U21,14*%
%TO.N,Net-(R54-Pad1)*%
X216652096Y-91063976D03*
%TD*%
D26*
%TO.P,R74,1*%
%TO.N,Net-(U23D--)*%
X219908509Y-148300449D03*
%TO.P,R74,2*%
%TO.N,/audio inputs/V_{OUT}L*%
X218358509Y-148300449D03*
%TD*%
D10*
%TO.P,R85,1*%
%TO.N,Net-(U25-INL-)*%
X216318956Y-129875360D03*
%TO.P,R85,2*%
%TO.N,/HEADPHONE_TIP*%
X216318956Y-131525360D03*
%TD*%
D41*
%TO.P,C15,1*%
%TO.N,+5V*%
X212046009Y-59507449D03*
%TO.P,C15,2*%
%TO.N,GND*%
X208966009Y-59507449D03*
%TD*%
D58*
%TO.P,b_up2,1,1*%
%TO.N,/mcu/RUN_BUTTON*%
X198443379Y-124499530D03*
%TO.P,b_up2,2,2*%
%TO.N,Net-(R22-Pad1)*%
X190443379Y-124499530D03*
%TO.P,b_up2,3,3*%
%TO.N,/mcu/RUN_BUTTON*%
X198443379Y-119999530D03*
%TO.P,b_up2,4,4*%
%TO.N,Net-(R22-Pad1)*%
X190443379Y-119999530D03*
%TD*%
D33*
%TO.P,C40,1*%
%TO.N,+3V3*%
X189897823Y-89918832D03*
%TO.P,C40,2*%
%TO.N,GND*%
X189897823Y-88368832D03*
%TD*%
D19*
%TO.P,C10,1*%
%TO.N,+12V*%
X210211294Y-48367499D03*
%TO.P,C10,2*%
%TO.N,GND*%
X212916294Y-48367499D03*
%TD*%
D10*
%TO.P,R18,1*%
%TO.N,/USB_D-*%
X197313539Y-99845347D03*
%TO.P,R18,2*%
%TO.N,Net-(U17-USB_DM)*%
X197313539Y-101495347D03*
%TD*%
D26*
%TO.P,R76,1*%
%TO.N,Net-(R76-Pad1)*%
X219908509Y-151300449D03*
%TO.P,R76,2*%
%TO.N,Net-(U23D--)*%
X218358509Y-151300449D03*
%TD*%
%TO.P,C57,1*%
%TO.N,+3V3*%
X206646009Y-105650449D03*
%TO.P,C57,2*%
%TO.N,GND*%
X205096009Y-105650449D03*
%TD*%
D53*
%TO.P,U22,1*%
%TO.N,Net-(D17-K)*%
X204283009Y-74498449D03*
D54*
%TO.P,U22,2*%
%TO.N,/MIDI_IN_R*%
X201743009Y-74498449D03*
%TO.P,U22,3*%
%TO.N,unconnected-(U22-Pad3)*%
X199203009Y-74498449D03*
%TO.P,U22,4*%
%TO.N,/FPGA/MIDI_IN*%
X199203009Y-82118449D03*
%TO.P,U22,5*%
%TO.N,GND*%
X201743009Y-82118449D03*
%TO.P,U22,6*%
%TO.N,+3V3*%
X204283009Y-82118449D03*
%TD*%
D29*
%TO.P,R56,1*%
%TO.N,/audio inputs/-CODEC_V_{COM}*%
X207383509Y-152800449D03*
%TO.P,R56,2*%
%TO.N,Net-(U23B--)*%
X208933509Y-152800449D03*
%TD*%
D10*
%TO.P,R10,1*%
%TO.N,Net-(D6-A)*%
X195820281Y-65615260D03*
%TO.P,R10,2*%
%TO.N,+3V3*%
X195820281Y-67265260D03*
%TD*%
D55*
%TO.P,U26,1*%
%TO.N,/CV inputs/FPGA_SHTDWN*%
X192671009Y-132040449D03*
%TO.P,U26,2*%
%TO.N,/FPGA/PSRAM_~{CE}*%
X192671009Y-132690449D03*
%TO.P,U26,3,GND*%
%TO.N,GND*%
X192671009Y-133340449D03*
%TO.P,U26,4*%
%TO.N,/psram/~{CE}_{gated}*%
X194446009Y-133340449D03*
%TO.P,U26,5,VCC*%
%TO.N,+3V3*%
X194446009Y-132040449D03*
%TD*%
D23*
%TO.P,R28,1*%
%TO.N,Net-(R28-Pad1)*%
X207446096Y-83615976D03*
%TO.P,R28,2*%
%TO.N,Net-(U18B-+)*%
X209096096Y-83615976D03*
%TD*%
D59*
%TO.P,U24,1*%
%TO.N,Net-(R80-Pad1)*%
X219276009Y-134377949D03*
%TO.P,U24,2,-*%
%TO.N,Net-(U24A--)*%
X219926009Y-134377949D03*
%TO.P,U24,3,+*%
%TO.N,/VOL_KNOB_R_VAR*%
X220576009Y-134377949D03*
%TO.P,U24,4,V_{SS}*%
%TO.N,GND*%
X221226009Y-134377949D03*
%TO.P,U24,5,+*%
%TO.N,/VOL_KNOB_L_VAR*%
X221226009Y-130152949D03*
%TO.P,U24,6,-*%
%TO.N,Net-(U24B--)*%
X220576009Y-130152949D03*
%TO.P,U24,7*%
%TO.N,Net-(R83-Pad1)*%
X219926009Y-130152949D03*
%TO.P,U24,8,V_{DD}*%
%TO.N,+5V*%
X219276009Y-130152949D03*
%TD*%
D17*
%TO.P,R13,1*%
%TO.N,Net-(D7-K)*%
X220325989Y-73071337D03*
%TO.P,R13,2*%
%TO.N,GND*%
X218675989Y-73071337D03*
%TD*%
D10*
%TO.P,R64,1*%
%TO.N,Net-(R34-Pad2)*%
X215511493Y-143794564D03*
%TO.P,R64,2*%
%TO.N,/EURORACK_AUDIO_OUT_L*%
X215511493Y-145444564D03*
%TD*%
D17*
%TO.P,R36,1*%
%TO.N,Net-(R36-Pad1)*%
X220144096Y-83869976D03*
%TO.P,R36,2*%
%TO.N,Net-(U18C-+)*%
X218494096Y-83869976D03*
%TD*%
D23*
%TO.P,R41,1*%
%TO.N,Net-(U21B-+)*%
X207376596Y-96061976D03*
%TO.P,R41,2*%
%TO.N,/CV inputs/SCALED_CV_3*%
X209026596Y-96061976D03*
%TD*%
D41*
%TO.P,C36,1*%
%TO.N,+5V*%
X212490700Y-62870795D03*
%TO.P,C36,2*%
%TO.N,GND*%
X209410700Y-62870795D03*
%TD*%
D42*
%TO.P,JP1,1,A*%
%TO.N,Net-(JP1-A)*%
X222365286Y-51776686D03*
D43*
%TO.P,JP1,2,C*%
%TO.N,unconnected-(JP1-C-Pad2)*%
X222365286Y-53776686D03*
D44*
%TO.P,JP1,3,B*%
%TO.N,/power/5.3V*%
X222365286Y-55776686D03*
%TD*%
D23*
%TO.P,R65,1*%
%TO.N,Net-(R58-Pad2)*%
X218936493Y-137869564D03*
%TO.P,R65,2*%
%TO.N,/EURORACK_AUDIO_OUT_R*%
X220586493Y-137869564D03*
%TD*%
D41*
%TO.P,C29,1*%
%TO.N,+3V3*%
X212996750Y-71218004D03*
%TO.P,C29,2*%
%TO.N,GND*%
X209916750Y-71218004D03*
%TD*%
D60*
%TO.P,U14,1*%
%TO.N,N/C*%
X213003509Y-119112949D03*
%TO.P,U14,2,A_{0}*%
%TO.N,/CV inputs/RAW_SCALED_CV_1*%
X212368509Y-119112949D03*
%TO.P,U14,3,A_{1}*%
%TO.N,GND*%
X211733509Y-119112949D03*
%TO.P,U14,4,A_{2}*%
X211098509Y-119112949D03*
%TO.P,U14,5,A_{3}*%
%TO.N,/FPGA/CODEC_ADC.ADC_OUT*%
X210463509Y-119112949D03*
%TO.P,U14,6,A_{4}*%
%TO.N,/FPGA/CODEC_ADC.LR_CLK*%
X209828509Y-119112949D03*
%TO.P,U14,7,A_{5}*%
%TO.N,/FPGA/CODEC_ADC.BIT_CLK*%
X209193509Y-119112949D03*
%TO.P,U14,8,A_{6}*%
%TO.N,/FPGA/CODEC_DAC.BIT_CLK*%
X208558509Y-119112949D03*
%TO.P,U14,9,A_{7}*%
%TO.N,/FPGA/CODEC_DAC.LR_CLK*%
X207923509Y-119112949D03*
%TO.P,U14,10,GND*%
%TO.N,GND*%
X207288509Y-119112949D03*
%TO.P,U14,11,D_{7}*%
%TO.N,/FPGA/BLKD_CODEC_DAC_LR_CLK*%
X207288509Y-124387949D03*
%TO.P,U14,12,D_{6}*%
%TO.N,Net-(U14-D_{6})*%
X207923509Y-124387949D03*
%TO.P,U14,13,D_{5}*%
%TO.N,Net-(U14-D_{5})*%
X208558509Y-124387949D03*
%TO.P,U14,14,D_{4}*%
%TO.N,Net-(U14-D_{4})*%
X209193509Y-124387949D03*
%TO.P,U14,15,D_{3}*%
%TO.N,Net-(U14-D_{3})*%
X209828509Y-124387949D03*
%TO.P,U14,16,D_{2}*%
%TO.N,GND*%
X210463509Y-124387949D03*
%TO.P,U14,17,D_{1}*%
X211098509Y-124387949D03*
%TO.P,U14,18,D_{0}*%
%TO.N,/FPGA/BLKD_ADC_IN_1*%
X211733509Y-124387949D03*
%TO.P,U14,19,~{OE}*%
%TO.N,/CV inputs/FPGA_SHTDWN*%
X212368509Y-124387949D03*
%TO.P,U14,20,V_{CC}*%
%TO.N,+3V3*%
X213003509Y-124387949D03*
%TD*%
D17*
%TO.P,R77,1*%
%TO.N,Net-(U25-INR-)*%
X217743224Y-132922959D03*
%TO.P,R77,2*%
%TO.N,/HEADPHONE_RING*%
X216093224Y-132922959D03*
%TD*%
D29*
%TO.P,C4,1*%
%TO.N,+5V*%
X215521009Y-110790449D03*
%TO.P,C4,2*%
%TO.N,GND*%
X217071009Y-110790449D03*
%TD*%
D23*
%TO.P,R25,1*%
%TO.N,Net-(U1B--)*%
X207660596Y-77504976D03*
%TO.P,R25,2*%
%TO.N,/CV inputs/CV_REF*%
X209310596Y-77504976D03*
%TD*%
%TO.P,R44,1*%
%TO.N,/EURORACK_CV_IN_3*%
X207375596Y-91489976D03*
%TO.P,R44,2*%
%TO.N,Net-(D15-A)*%
X209025596Y-91489976D03*
%TD*%
%TO.P,R27,1*%
%TO.N,+3V3*%
X207660596Y-75980976D03*
%TO.P,R27,2*%
%TO.N,Net-(U1B--)*%
X209310596Y-75980976D03*
%TD*%
D19*
%TO.P,C58,1*%
%TO.N,+3V3*%
X216664087Y-100739542D03*
%TO.P,C58,2*%
%TO.N,GND*%
X219369087Y-100739542D03*
%TD*%
D24*
%TO.P,D18,1,K*%
%TO.N,+5V*%
X211335596Y-96733976D03*
%TO.P,D18,2,A*%
%TO.N,Net-(D18-A)*%
X213535596Y-96733976D03*
%TD*%
D26*
%TO.P,C1,1*%
%TO.N,+3V3*%
X210401509Y-105902156D03*
%TO.P,C1,2*%
%TO.N,GND*%
X208851509Y-105902156D03*
%TD*%
D17*
%TO.P,R38,1*%
%TO.N,/MIDI_IN_R*%
X199901009Y-72715449D03*
%TO.P,R38,2*%
%TO.N,Net-(D14-K)*%
X198251009Y-72715449D03*
%TD*%
D10*
%TO.P,R22,1*%
%TO.N,Net-(R22-Pad1)*%
X190707193Y-121379202D03*
%TO.P,R22,2*%
%TO.N,GND*%
X190707193Y-123029202D03*
%TD*%
D15*
%TO.P,C18,1*%
%TO.N,/power/5.3V*%
X224476009Y-55062449D03*
%TO.P,C18,2*%
%TO.N,GND*%
X224476009Y-56612449D03*
%TD*%
D17*
%TO.P,R9,1*%
%TO.N,Net-(D3-K)*%
X201085009Y-61890574D03*
%TO.P,R9,2*%
%TO.N,Net-(U6-SCL{slash}OUT2)*%
X199435009Y-61890574D03*
%TD*%
D61*
%TO.P,U17,1,IOVDD*%
%TO.N,+3V3*%
X191970287Y-104973850D03*
%TO.P,U17,2,GPIO0*%
%TO.N,unconnected-(U17-GPIO0-Pad2)*%
X191970287Y-105373850D03*
%TO.P,U17,3,GPIO1*%
%TO.N,unconnected-(U17-GPIO1-Pad3)*%
X191970287Y-105773850D03*
%TO.P,U17,4,GPIO2*%
%TO.N,unconnected-(U17-GPIO2-Pad4)*%
X191970287Y-106173850D03*
%TO.P,U17,5,GPIO3*%
%TO.N,unconnected-(U17-GPIO3-Pad5)*%
X191970287Y-106573850D03*
%TO.P,U17,6,GPIO4*%
%TO.N,unconnected-(U17-GPIO4-Pad6)*%
X191970287Y-106973850D03*
%TO.P,U17,7,GPIO5*%
%TO.N,unconnected-(U17-GPIO5-Pad7)*%
X191970287Y-107373850D03*
%TO.P,U17,8,GPIO6*%
%TO.N,/FPGA/SPI_MASTER.MISO*%
X191970287Y-107773850D03*
%TO.P,U17,9,GPIO7*%
%TO.N,/FPGA/SPI_MASTER.~{CS}*%
X191970287Y-108173850D03*
%TO.P,U17,10,IOVDD*%
%TO.N,+3V3*%
X191970287Y-108573850D03*
%TO.P,U17,11,GPIO8*%
%TO.N,/FPGA/SPI_MASTER.SCLK*%
X191970287Y-108973850D03*
%TO.P,U17,12,GPIO9*%
%TO.N,/FPGA/SPI_MASTER.MOSI*%
X191970287Y-109373850D03*
%TO.P,U17,13,GPIO10*%
%TO.N,/FPGA/SPI_MASTER.~{WP}*%
X191970287Y-109773850D03*
%TO.P,U17,14,GPIO11*%
%TO.N,/FPGA/SPI_MASTER.~{HLD}*%
X191970287Y-110173850D03*
D62*
%TO.P,U17,15,GPIO12*%
%TO.N,unconnected-(U17-GPIO12-Pad15)*%
X192807787Y-111011350D03*
%TO.P,U17,16,GPIO13*%
%TO.N,unconnected-(U17-GPIO13-Pad16)*%
X193207787Y-111011350D03*
%TO.P,U17,17,GPIO14*%
%TO.N,unconnected-(U17-GPIO14-Pad17)*%
X193607787Y-111011350D03*
%TO.P,U17,18,GPIO15*%
%TO.N,unconnected-(U17-GPIO15-Pad18)*%
X194007787Y-111011350D03*
%TO.P,U17,19,TESTEN*%
%TO.N,GND*%
X194407787Y-111011350D03*
%TO.P,U17,20,XIN*%
%TO.N,unconnected-(U17-XIN-Pad20)*%
X194807787Y-111011350D03*
%TO.P,U17,21,XOUT*%
%TO.N,Net-(U17-XOUT)*%
X195207787Y-111011350D03*
%TO.P,U17,22,IOVDD*%
%TO.N,+3V3*%
X195607787Y-111011350D03*
%TO.P,U17,23,DVDD*%
%TO.N,Net-(U17-VREG_VOUT)*%
X196007787Y-111011350D03*
%TO.P,U17,24,SWCLK*%
%TO.N,/mcu/SWCLK*%
X196407787Y-111011350D03*
%TO.P,U17,25,SWD*%
%TO.N,/mcu/SWD*%
X196807787Y-111011350D03*
%TO.P,U17,26,RUN*%
%TO.N,/mcu/RUN_BUTTON*%
X197207787Y-111011350D03*
%TO.P,U17,27,GPIO16*%
%TO.N,unconnected-(U17-GPIO16-Pad27)*%
X197607787Y-111011350D03*
%TO.P,U17,28,GPIO17*%
%TO.N,unconnected-(U17-GPIO17-Pad28)*%
X198007787Y-111011350D03*
D61*
%TO.P,U17,29,GPIO18*%
%TO.N,unconnected-(U17-GPIO18-Pad29)*%
X198845287Y-110173850D03*
%TO.P,U17,30,GPIO19*%
%TO.N,unconnected-(U17-GPIO19-Pad30)*%
X198845287Y-109773850D03*
%TO.P,U17,31,GPIO20*%
%TO.N,unconnected-(U17-GPIO20-Pad31)*%
X198845287Y-109373850D03*
%TO.P,U17,32,GPIO21*%
%TO.N,unconnected-(U17-GPIO21-Pad32)*%
X198845287Y-108973850D03*
%TO.P,U17,33,IOVDD*%
%TO.N,+3V3*%
X198845287Y-108573850D03*
%TO.P,U17,34,GPIO22*%
%TO.N,unconnected-(U17-GPIO22-Pad34)*%
X198845287Y-108173850D03*
%TO.P,U17,35,GPIO23*%
%TO.N,Net-(D9-A)*%
X198845287Y-107773850D03*
%TO.P,U17,36,GPIO24*%
%TO.N,unconnected-(U17-GPIO24-Pad36)*%
X198845287Y-107373850D03*
%TO.P,U17,37,GPIO25*%
%TO.N,/CV inputs/FPGA_SHTDWN*%
X198845287Y-106973850D03*
%TO.P,U17,38,GPIO26_ADC0*%
%TO.N,unconnected-(U17-GPIO26_ADC0-Pad38)*%
X198845287Y-106573850D03*
%TO.P,U17,39,GPIO27_ADC1*%
%TO.N,unconnected-(U17-GPIO27_ADC1-Pad39)*%
X198845287Y-106173850D03*
%TO.P,U17,40,GPIO28_ADC2*%
%TO.N,unconnected-(U17-GPIO28_ADC2-Pad40)*%
X198845287Y-105773850D03*
%TO.P,U17,41,GPIO29_ADC3*%
%TO.N,unconnected-(U17-GPIO29_ADC3-Pad41)*%
X198845287Y-105373850D03*
%TO.P,U17,42,IOVDD*%
%TO.N,+3V3*%
X198845287Y-104973850D03*
D62*
%TO.P,U17,43,ADC_AVDD*%
X198007787Y-104136350D03*
%TO.P,U17,44,VREG_IN*%
X197607787Y-104136350D03*
%TO.P,U17,45,VREG_VOUT*%
%TO.N,Net-(U17-VREG_VOUT)*%
X197207787Y-104136350D03*
%TO.P,U17,46,USB_DM*%
%TO.N,Net-(U17-USB_DM)*%
X196807787Y-104136350D03*
%TO.P,U17,47,USB_DP*%
%TO.N,Net-(U17-USB_DP)*%
X196407787Y-104136350D03*
%TO.P,U17,48,USB_VDD*%
%TO.N,+3V3*%
X196007787Y-104136350D03*
%TO.P,U17,49,IOVDD*%
X195607787Y-104136350D03*
%TO.P,U17,50,DVDD*%
%TO.N,Net-(U17-VREG_VOUT)*%
X195207787Y-104136350D03*
%TO.P,U17,51,QSPI_SD3*%
%TO.N,Net-(U16-~{HOLD}{slash}~{RESET}{slash}IO_{3})*%
X194807787Y-104136350D03*
%TO.P,U17,52,QSPI_SCLK*%
%TO.N,Net-(U16-CLK)*%
X194407787Y-104136350D03*
%TO.P,U17,53,QSPI_SD0*%
%TO.N,Net-(U16-DI{slash}IO_{0})*%
X194007787Y-104136350D03*
%TO.P,U17,54,QSPI_SD2*%
%TO.N,Net-(U16-~{WP}{slash}IO_{2})*%
X193607787Y-104136350D03*
%TO.P,U17,55,QSPI_SD1*%
%TO.N,Net-(U16-DO{slash}IO_{1})*%
X193207787Y-104136350D03*
%TO.P,U17,56,QSPI_SS*%
%TO.N,/mcu/~{USB_BOOT}*%
X192807787Y-104136350D03*
D63*
%TO.P,U17,57,GND*%
%TO.N,GND*%
X195407787Y-107573850D03*
%TD*%
D35*
%TO.P,R5,1*%
%TO.N,GND*%
X207809813Y-51733526D03*
%TO.P,R5,2*%
%TO.N,Net-(U4-FB)*%
X207809813Y-50083526D03*
%TD*%
D24*
%TO.P,D12,1,K*%
%TO.N,+5V*%
X211298096Y-87298976D03*
%TO.P,D12,2,A*%
%TO.N,Net-(D12-A)*%
X213498096Y-87298976D03*
%TD*%
D17*
%TO.P,R48,1*%
%TO.N,Net-(U21A--)*%
X209025596Y-89965976D03*
%TO.P,R48,2*%
%TO.N,Net-(R45-Pad1)*%
X207375596Y-89965976D03*
%TD*%
D23*
%TO.P,R47,1*%
%TO.N,/MIDI_IN_S*%
X199267009Y-71191449D03*
%TO.P,R47,2*%
%TO.N,Net-(D17-K)*%
X200917009Y-71191449D03*
%TD*%
D10*
%TO.P,R3,1*%
%TO.N,Net-(U2A--)*%
X209126009Y-140445449D03*
%TO.P,R3,2*%
%TO.N,Net-(U2B--)*%
X209126009Y-142095449D03*
%TD*%
D64*
%TO.P,FB1,1*%
%TO.N,Net-(J4-Pin_1)*%
X202984190Y-48274616D03*
%TO.P,FB1,2*%
%TO.N,Net-(D1-A)*%
X204559190Y-48274616D03*
%TD*%
D23*
%TO.P,R78,1*%
%TO.N,Net-(U23C--)*%
X218308509Y-154300449D03*
%TO.P,R78,2*%
%TO.N,Net-(R76-Pad1)*%
X219958509Y-154300449D03*
%TD*%
D65*
%TO.P,b_up1,1,1*%
%TO.N,/mcu/~{USB_BOOT}*%
X194864865Y-98082750D03*
%TO.P,b_up1,2,2*%
%TO.N,Net-(R21-Pad1)*%
X194864865Y-90082750D03*
%TO.P,b_up1,3,3*%
%TO.N,/mcu/~{USB_BOOT}*%
X199364865Y-98082750D03*
%TO.P,b_up1,4,4*%
%TO.N,Net-(R21-Pad1)*%
X199364865Y-90082750D03*
%TD*%
D24*
%TO.P,D11,1,K*%
%TO.N,Net-(D10-A)*%
X214493096Y-79551976D03*
%TO.P,D11,2,A*%
%TO.N,/-5V_CUTOFF*%
X216693096Y-79551976D03*
%TD*%
D17*
%TO.P,R29,1*%
%TO.N,Net-(U1B--)*%
X209310596Y-74456976D03*
%TO.P,R29,2*%
%TO.N,GND*%
X207660596Y-74456976D03*
%TD*%
D41*
%TO.P,C24,1*%
%TO.N,/power/USB_VBUS_protected*%
X195790009Y-62936449D03*
%TO.P,C24,2*%
%TO.N,GND*%
X192710009Y-62936449D03*
%TD*%
D17*
%TO.P,R51,1*%
%TO.N,/CV inputs/CV_REF*%
X220202596Y-94537976D03*
%TO.P,R51,2*%
%TO.N,Net-(U21C-+)*%
X218552596Y-94537976D03*
%TD*%
D23*
%TO.P,R61,1*%
%TO.N,Net-(R61-Pad1)*%
X207333509Y-151300449D03*
%TO.P,R61,2*%
%TO.N,Net-(U23B--)*%
X208983509Y-151300449D03*
%TD*%
D26*
%TO.P,C60,1*%
%TO.N,GND*%
X200771009Y-138050449D03*
%TO.P,C60,2*%
%TO.N,+3V3*%
X199221009Y-138050449D03*
%TD*%
D17*
%TO.P,R42,1*%
%TO.N,/audio inputs/-CODEC_V_{COM}*%
X220586493Y-145369564D03*
%TO.P,R42,2*%
%TO.N,Net-(U2C-+)*%
X218936493Y-145369564D03*
%TD*%
%TO.P,R50,1*%
%TO.N,GND*%
X220586493Y-140869564D03*
%TO.P,R50,2*%
%TO.N,Net-(U2D--)*%
X218936493Y-140869564D03*
%TD*%
%TO.P,R53,1*%
%TO.N,/EURORACK_CV_IN_4*%
X220202596Y-91489976D03*
%TO.P,R53,2*%
%TO.N,Net-(D18-A)*%
X218552596Y-91489976D03*
%TD*%
D66*
%TO.P,D17,1,K*%
%TO.N,Net-(D17-K)*%
X204367009Y-72461449D03*
%TO.P,D17,2,A*%
%TO.N,/MIDI_IN_R*%
X202167009Y-72461449D03*
%TD*%
D52*
%TO.P,U5,1,OUT*%
%TO.N,Net-(JP2-A)*%
X190202815Y-65430297D03*
%TO.P,U5,2,GND*%
%TO.N,GND*%
X190202815Y-66380297D03*
%TO.P,U5,3,~{FLG}*%
%TO.N,Net-(D6-K)*%
X190202815Y-67330297D03*
%TO.P,U5,4,~{EN}*%
%TO.N,/power/EURO_PWR_EN*%
X192477815Y-67330297D03*
%TO.P,U5,5,IN*%
%TO.N,/power/USB_VBUS_protected*%
X192477815Y-65430297D03*
%TD*%
D19*
%TO.P,C9,1*%
%TO.N,+12V*%
X214883193Y-48376090D03*
%TO.P,C9,2*%
%TO.N,GND*%
X217588193Y-48376090D03*
%TD*%
D35*
%TO.P,R14,1*%
%TO.N,Net-(U11-FB)*%
X221428009Y-63748449D03*
%TO.P,R14,2*%
%TO.N,GND*%
X221428009Y-62098449D03*
%TD*%
D17*
%TO.P,R39,1*%
%TO.N,+3V3*%
X200917009Y-84018449D03*
%TO.P,R39,2*%
%TO.N,/FPGA/MIDI_IN*%
X199267009Y-84018449D03*
%TD*%
D67*
%TO.P,TP3,1,1*%
%TO.N,GND*%
X205246009Y-69550449D03*
%TD*%
D66*
%TO.P,D14,1,K*%
%TO.N,Net-(D14-K)*%
X195833134Y-72508469D03*
%TO.P,D14,2,A*%
%TO.N,/MIDI_IN_S*%
X193633134Y-72508469D03*
%TD*%
D68*
%TO.P,C25,1*%
%TO.N,Net-(JP2-A)*%
X190371938Y-69843336D03*
%TO.P,C25,2*%
%TO.N,GND*%
X193451938Y-69843336D03*
%TD*%
D12*
%TO.P,U1,1*%
%TO.N,unconnected-(U1-Pad1)*%
X210957096Y-73821976D03*
%TO.P,U1,2,-*%
%TO.N,+12V*%
X210957096Y-74471976D03*
%TO.P,U1,3,+*%
%TO.N,GND*%
X210957096Y-75121976D03*
%TO.P,U1,4,V+*%
%TO.N,+12V*%
X210957096Y-75771976D03*
%TO.P,U1,5,+*%
%TO.N,GND*%
X210957096Y-76421976D03*
%TO.P,U1,6,-*%
%TO.N,Net-(U1B--)*%
X210957096Y-77071976D03*
%TO.P,U1,7*%
%TO.N,/CV inputs/CV_REF*%
X210957096Y-77721976D03*
%TO.P,U1,8*%
%TO.N,/-5V_CUTOFF*%
X216682096Y-77721976D03*
%TO.P,U1,9,-*%
%TO.N,Net-(U1C--)*%
X216682096Y-77071976D03*
%TO.P,U1,10,+*%
%TO.N,GND*%
X216682096Y-76421976D03*
%TO.P,U1,11,V-*%
%TO.N,-12V*%
X216682096Y-75771976D03*
%TO.P,U1,12,+*%
%TO.N,GND*%
X216682096Y-75121976D03*
%TO.P,U1,13,-*%
%TO.N,+12V*%
X216682096Y-74471976D03*
%TO.P,U1,14*%
%TO.N,unconnected-(U1-Pad14)*%
X216682096Y-73821976D03*
%TD*%
D40*
%TO.P,FB2,1*%
%TO.N,Net-(J4-Pin_10)*%
X190228492Y-48988710D03*
%TO.P,FB2,2*%
%TO.N,Net-(D2-K)*%
X188653492Y-48988710D03*
%TD*%
D52*
%TO.P,U8,1,OUT*%
%TO.N,Net-(JP2-A)*%
X195389713Y-68910856D03*
%TO.P,U8,2,GND*%
%TO.N,GND*%
X195389713Y-69860856D03*
%TO.P,U8,3,~{FLG}*%
%TO.N,Net-(D6-K)*%
X195389713Y-70810856D03*
%TO.P,U8,4,EN*%
%TO.N,/power/EURO_PWR_EN*%
X197664713Y-70810856D03*
%TO.P,U8,5,IN*%
%TO.N,/power/5.3V*%
X197664713Y-68910856D03*
%TD*%
D23*
%TO.P,R8,1*%
%TO.N,Net-(D3-K)*%
X202349557Y-64701625D03*
%TO.P,R8,2*%
%TO.N,/power/CC_OUT1*%
X203999557Y-64701625D03*
%TD*%
D33*
%TO.P,C50,1*%
%TO.N,+3V3*%
X194236552Y-101448747D03*
%TO.P,C50,2*%
%TO.N,GND*%
X194236552Y-99898747D03*
%TD*%
D69*
%TO.P,U6,1,CC1*%
%TO.N,/USB_CC1*%
X199860009Y-64931449D03*
%TO.P,U6,2,CC2*%
%TO.N,/USB_CC2*%
X200260009Y-64931449D03*
D70*
%TO.P,U6,3,PORT*%
%TO.N,GND*%
X200885009Y-64806449D03*
%TO.P,U6,4,VBUS_DET*%
%TO.N,/power/USB_VBUS_protected*%
X200885009Y-64406449D03*
%TO.P,U6,5,ADR/CON_DET*%
%TO.N,unconnected-(U6-ADR{slash}CON_DET-Pad5)*%
X200885009Y-64006449D03*
%TO.P,U6,6,INTB/OUT3*%
%TO.N,unconnected-(U6-INTB{slash}OUT3-Pad6)*%
X200885009Y-63606449D03*
D69*
%TO.P,U6,7,SDA/OUT1*%
%TO.N,/power/CC_OUT1*%
X200260009Y-63481449D03*
%TO.P,U6,8,SCL/OUT2*%
%TO.N,Net-(U6-SCL{slash}OUT2)*%
X199860009Y-63481449D03*
D70*
%TO.P,U6,9,ID*%
%TO.N,unconnected-(U6-ID-Pad9)*%
X199235009Y-63606449D03*
%TO.P,U6,10,GND*%
%TO.N,GND*%
X199235009Y-64006449D03*
%TO.P,U6,11,EXT_SEL*%
%TO.N,unconnected-(U6-EXT_SEL-Pad11)*%
X199235009Y-64406449D03*
%TO.P,U6,12,V_{DD}*%
%TO.N,/power/USB_VBUS_protected*%
X199235009Y-64806449D03*
%TD*%
D26*
%TO.P,C41,1*%
%TO.N,GND*%
X194512649Y-115100724D03*
%TO.P,C41,2*%
%TO.N,+3V3*%
X192962649Y-115100724D03*
%TD*%
D17*
%TO.P,R75,1*%
%TO.N,/EURORACK_AUDIO_IN_L*%
X219958509Y-152800449D03*
%TO.P,R75,2*%
%TO.N,Net-(D22-A)*%
X218308509Y-152800449D03*
%TD*%
D33*
%TO.P,C35,1*%
%TO.N,/power/USB_VBUS_protected*%
X207253145Y-60429952D03*
%TO.P,C35,2*%
%TO.N,GND*%
X207253145Y-58879952D03*
%TD*%
D10*
%TO.P,R34,1*%
%TO.N,Net-(U2C--)*%
X214011493Y-143794564D03*
%TO.P,R34,2*%
%TO.N,Net-(R34-Pad2)*%
X214011493Y-145444564D03*
%TD*%
D71*
%TO.P,cmod_a1,1,IO_L8N_T1_AD14N_35*%
%TO.N,/FPGA/PSRAM_AD0*%
X186931257Y-146729504D03*
D54*
%TO.P,cmod_a1,2,IO_L8P_T1_AD14P_35*%
%TO.N,/FPGA/PSRAM_AD6*%
X186931257Y-144189504D03*
%TO.P,cmod_a1,3,IO_L12P_T1_MRCC_16*%
%TO.N,/FPGA/PSRAM_AD7*%
X186931257Y-141649504D03*
%TO.P,cmod_a1,4,IO_L7N_T1_AD6N_35*%
%TO.N,/FPGA/PSRAM_AD1*%
X186931257Y-139109504D03*
%TO.P,cmod_a1,5,IO_L11P_T1_SRCC_16*%
%TO.N,/FPGA/PSRAM_DQS{slash}DM*%
X186931257Y-136569504D03*
%TO.P,cmod_a1,6,IO_L3P_T0_DQS_AD5P_35*%
%TO.N,/FPGA/PSRAM_CLK*%
X186931257Y-134029504D03*
%TO.P,cmod_a1,7,IO_L6N_T0_VREF_16*%
%TO.N,/FPGA/BLKD_CODEC_DAC_BIT_CLK*%
X186931257Y-131489504D03*
%TO.P,cmod_a1,8,IO_L11N_T1_SRCC_16*%
%TO.N,/FPGA/BLKD_CODEC_DAC_LR_CLK*%
X186931257Y-128949504D03*
%TO.P,cmod_a1,9,IO_L6P_T0_16*%
%TO.N,unconnected-(cmod_a1-IO_L6P_T0_16-Pad9)*%
X186931257Y-126409504D03*
%TO.P,cmod_a1,10,IO_L7P_T1_AD6P_35*%
%TO.N,Net-(D8-A)*%
X186931257Y-123869504D03*
%TO.P,cmod_a1,11,IO_L3N_T0_DQS_AD5N_35*%
%TO.N,unconnected-(cmod_a1-IO_L3N_T0_DQS_AD5N_35-Pad11)*%
X186931257Y-121329504D03*
%TO.P,cmod_a1,12,IO_L5P_T0_AD13P_35*%
%TO.N,/FPGA/SPI_MASTER.~{HLD}*%
X186931257Y-118789504D03*
%TO.P,cmod_a1,13,IO_L6N_T0_VREF_35*%
%TO.N,/FPGA/SPI_MASTER.~{WP}*%
X186931257Y-116249504D03*
%TO.P,cmod_a1,14,IO_L5N_T0_AD13N_35*%
%TO.N,/FPGA/SPI_MASTER.MOSI*%
X186931257Y-113709504D03*
%TO.P,cmod_a1,15,AIN15*%
%TO.N,/FPGA/BLKD_ADC_IN_1*%
X186931257Y-111169504D03*
%TO.P,cmod_a1,16,AIN16*%
%TO.N,unconnected-(cmod_a1-AIN16-Pad16)*%
X186931257Y-108629504D03*
%TO.P,cmod_a1,17,IO_L9N_T1_DQS_AD7N_35*%
%TO.N,/FPGA/SPI_MASTER.SCLK*%
X186931257Y-106089504D03*
%TO.P,cmod_a1,18,IO_L12P_T1_MRCC_35*%
%TO.N,/FPGA/SPI_MASTER.~{CS}*%
X186931257Y-103549504D03*
%TO.P,cmod_a1,19,IO_L12N_T1_MRCC_35*%
%TO.N,/FPGA/SPI_MASTER.MISO*%
X186931257Y-101009504D03*
%TO.P,cmod_a1,20,IO_L9P_T1_DQS_AD7P_35*%
%TO.N,unconnected-(cmod_a1-IO_L9P_T1_DQS_AD7P_35-Pad20)*%
X186931257Y-98469504D03*
%TO.P,cmod_a1,21,IO_L10N_T1_AD15N_35*%
%TO.N,unconnected-(cmod_a1-IO_L10N_T1_AD15N_35-Pad21)*%
X186931257Y-95929504D03*
%TO.P,cmod_a1,22,IO_L10P_T1_AD15P_35*%
%TO.N,unconnected-(cmod_a1-IO_L10P_T1_AD15P_35-Pad22)*%
X186931257Y-93389504D03*
%TO.P,cmod_a1,23,IO_L19N_T3_VREF_35*%
%TO.N,unconnected-(cmod_a1-IO_L19N_T3_VREF_35-Pad23)*%
X186931257Y-90849504D03*
%TO.P,cmod_a1,24,VU*%
%TO.N,Net-(U15-OUT)*%
X186931257Y-88309504D03*
D72*
%TO.P,cmod_a1,25,GND*%
%TO.N,GND*%
X202171257Y-88309504D03*
D54*
%TO.P,cmod_a1,26,IO_L2P_T0_34*%
%TO.N,/FPGA/MIDI_IN*%
X202171257Y-90849504D03*
%TO.P,cmod_a1,27,IO_L2N_T0_34*%
%TO.N,unconnected-(cmod_a1-IO_L2N_T0_34-Pad27)*%
X202171257Y-93389504D03*
%TO.P,cmod_a1,28,IO_L1P_T0_34*%
%TO.N,/CV inputs/adc.~{SS}*%
X202171257Y-95929504D03*
%TO.P,cmod_a1,29,IO_L3P_T0_DQS_34*%
%TO.N,/CV inputs/adc.SCLK*%
X202171257Y-98469504D03*
%TO.P,cmod_a1,30,IO_L1N_T0_34*%
%TO.N,/CV inputs/adc.MOSI*%
X202171257Y-101009504D03*
%TO.P,cmod_a1,31,IO_L3N_T0_DQS_34*%
%TO.N,/CV inputs/CV_ADC_MCLK*%
X202171257Y-103549504D03*
%TO.P,cmod_a1,32,IO_L5N_T0_34*%
%TO.N,/FPGA/CODEC_CTRL.SCLK*%
X202171257Y-106089504D03*
%TO.P,cmod_a1,33,IO_L5P_T0_34*%
%TO.N,/FPGA/CODEC_CTRL.MOSI*%
X202171257Y-108629504D03*
%TO.P,cmod_a1,34,IO_L6N_T0_VREF_34*%
%TO.N,/FPGA/CODEC_ADC.SYS_CLK*%
X202171257Y-111169504D03*
%TO.P,cmod_a1,35,IO_L6P_T0_34*%
%TO.N,/FPGA/CODEC_DAC.SYS_CLK*%
X202171257Y-113709504D03*
%TO.P,cmod_a1,36,IO_L12P_T1_MRCC_34*%
%TO.N,/FPGA/CODEC_DAC.DAC_IN*%
X202171257Y-116249504D03*
%TO.P,cmod_a1,37,IO_L11N_T1_SRCC_34*%
%TO.N,/FPGA/CODEC_CTRL.~{SS}*%
X202171257Y-118789504D03*
%TO.P,cmod_a1,38,IO_L11P_T1_SRCC_34*%
%TO.N,/FPGA/CODEC_CTRL.~{RESET}*%
X202171257Y-121329504D03*
%TO.P,cmod_a1,39,IO_L16N_T2_34*%
%TO.N,Net-(U14-D_{6})*%
X202171257Y-123869504D03*
%TO.P,cmod_a1,40,IO_L12N_T1_MRCC_34*%
%TO.N,Net-(U14-D_{5})*%
X202171257Y-126409504D03*
%TO.P,cmod_a1,41,IO_L16P_T2_34*%
%TO.N,Net-(U14-D_{4})*%
X202171257Y-128949504D03*
%TO.P,cmod_a1,42,IO_L9N_T1_DQS_34*%
%TO.N,Net-(U14-D_{3})*%
X202171257Y-131489504D03*
%TO.P,cmod_a1,43,IO_L13N_T2_MRCC_34*%
%TO.N,/FPGA/PSRAM_~{CE}*%
X202171257Y-134029504D03*
%TO.P,cmod_a1,44,IO_L9P_T1_DQS_34*%
%TO.N,/FPGA/PSRAM_~{RST}*%
X202171257Y-136569504D03*
%TO.P,cmod_a1,45,IO_L19P_T3_34*%
%TO.N,/FPGA/PSRAM_AD2*%
X202171257Y-139109504D03*
%TO.P,cmod_a1,46,IO_L13P_T2_MRCC_34*%
%TO.N,/FPGA/PSRAM_AD4*%
X202171257Y-141649504D03*
%TO.P,cmod_a1,47,IO_L14P_T2_SRCC_34*%
%TO.N,/FPGA/PSRAM_AD3*%
X202171257Y-144189504D03*
%TO.P,cmod_a1,48,IO_L14N_T2_SRCC_34*%
%TO.N,/FPGA/PSRAM_AD5*%
X202171257Y-146729504D03*
%TD*%
D73*
%TO.P,J4,1,Pin_1*%
%TO.N,Net-(J4-Pin_1)*%
X201379497Y-53217513D03*
D21*
%TO.P,J4,2,Pin_2*%
X201379497Y-50677513D03*
%TO.P,J4,3,Pin_3*%
%TO.N,GND*%
X198839497Y-53217513D03*
%TO.P,J4,4,Pin_4*%
X198839497Y-50677513D03*
%TO.P,J4,5,Pin_5*%
X196299497Y-53217513D03*
%TO.P,J4,6,Pin_6*%
X196299497Y-50677513D03*
%TO.P,J4,7,Pin_7*%
X193759497Y-53217513D03*
%TO.P,J4,8,Pin_8*%
X193759497Y-50677513D03*
%TO.P,J4,9,Pin_9*%
%TO.N,Net-(J4-Pin_10)*%
X191219497Y-53217513D03*
%TO.P,J4,10,Pin_10*%
X191219497Y-50677513D03*
%TD*%
D74*
%TO.N,GND*%
X196207787Y-106773850D03*
X215186596Y-94283976D03*
X222480939Y-67410589D03*
X211046009Y-117850449D03*
X204029018Y-96891754D03*
X212527520Y-144621564D03*
X207810122Y-50910526D03*
X214974596Y-104878309D03*
X210428509Y-125650449D03*
X212885084Y-66257152D03*
X206090177Y-57151209D03*
X208117191Y-135162767D03*
X217625205Y-59740973D03*
X196080761Y-126421955D03*
X191164543Y-87637724D03*
X194969294Y-137503437D03*
X219911893Y-112612417D03*
X219010631Y-48366215D03*
X222405007Y-69891020D03*
X202746806Y-68937335D03*
X217615843Y-150567252D03*
X198524934Y-66540647D03*
X197845618Y-89364054D03*
X212392596Y-84758976D03*
X212258903Y-75108044D03*
X191896045Y-139531658D03*
X201423009Y-117817055D03*
X210673051Y-62839390D03*
X187512872Y-89511082D03*
X212340458Y-52155501D03*
X217862675Y-74768198D03*
X208970705Y-48069302D03*
X222430318Y-68726736D03*
X211771860Y-53021435D03*
X200771008Y-138984449D03*
X212972029Y-51211949D03*
X211391440Y-71577211D03*
X189672168Y-123075330D03*
X220192381Y-114909749D03*
X200984068Y-65396868D03*
X212392596Y-94283976D03*
X200495433Y-98539398D03*
X207939838Y-105903933D03*
X194607787Y-106773850D03*
X200194639Y-56039205D03*
X196868682Y-142058895D03*
X196207787Y-108373850D03*
X198287847Y-99084347D03*
X215332009Y-63063449D03*
X216129062Y-70814531D03*
X221903041Y-134426534D03*
X224476009Y-50871449D03*
X215336385Y-102927309D03*
X194607787Y-108373850D03*
X188745591Y-103565801D03*
X217046711Y-109765110D03*
X205246009Y-69550449D03*
X197175335Y-59710071D03*
X204387725Y-112063867D03*
X192210988Y-69084004D03*
X207161753Y-63391191D03*
X211366009Y-111030449D03*
X190836416Y-88333993D03*
X215216596Y-76361976D03*
X211753396Y-51202717D03*
X188232382Y-106223345D03*
X212972029Y-53095291D03*
X211762947Y-47938318D03*
X205255261Y-135847045D03*
X209622767Y-103548723D03*
X212285856Y-151971662D03*
X201638190Y-68937336D03*
X218839040Y-74348675D03*
X210757546Y-115342156D03*
X224476009Y-57729449D03*
X198505344Y-64043550D03*
X210428509Y-125650449D03*
X220539009Y-61031449D03*
X217031324Y-113364838D03*
X188190901Y-56965533D03*
X207645096Y-73377222D03*
X199427385Y-123075330D03*
X193980062Y-62957804D03*
X221450453Y-140815232D03*
X210197514Y-59516691D03*
X204867236Y-61017219D03*
X212422596Y-76361976D03*
X199441433Y-103984629D03*
X204021909Y-104154221D03*
X204023744Y-105562504D03*
X194512649Y-115100724D03*
X219417121Y-99452531D03*
X192664597Y-134124075D03*
X194413970Y-110288581D03*
X219231197Y-102549120D03*
X201269735Y-107797163D03*
X200245294Y-135011560D03*
X206494520Y-119107213D03*
X199759169Y-111321704D03*
X212178970Y-141026390D03*
X215186596Y-84758976D03*
X206831139Y-54819884D03*
X193648440Y-98954878D03*
X211849843Y-55563551D03*
X208929090Y-132478642D03*
X198306519Y-113967774D03*
%TO.N,+3V3*%
X200253705Y-136560141D03*
X195791433Y-87244009D03*
X207046009Y-111450449D03*
X196763320Y-68047336D03*
X195807787Y-105072850D03*
X205806009Y-94150449D03*
X195992105Y-132037461D03*
X193220911Y-105357542D03*
X209575877Y-98628845D03*
X210727325Y-68940681D03*
X195055441Y-102267636D03*
X202590872Y-99737649D03*
X208159651Y-128852315D03*
X199367433Y-102413845D03*
X206971220Y-106991676D03*
X215973291Y-105611643D03*
X215047596Y-124922243D03*
%TO.N,+5V*%
X215176009Y-133040449D03*
X210360596Y-79551976D03*
X210360596Y-96696976D03*
X211733509Y-155000449D03*
X210050078Y-110079019D03*
X211042636Y-65784312D03*
X211733509Y-147500449D03*
X209456089Y-128611848D03*
X216111741Y-59761449D03*
X210360596Y-88314976D03*
X215176009Y-130540449D03*
%TO.N,/audio inputs/V_{OUT}L*%
X218536762Y-146931228D03*
X218692161Y-110709143D03*
%TO.N,/audio inputs/V_{OUT}R*%
X216741929Y-107955449D03*
X212400660Y-153192081D03*
%TO.N,Net-(U2A-+)*%
X212531596Y-139705449D03*
X212526009Y-112080449D03*
%TO.N,Net-(U4-FB)*%
X211268009Y-49855449D03*
X216431864Y-49812304D03*
%TO.N,+12V*%
X207585009Y-56205449D03*
X212377427Y-151250449D03*
X213311596Y-75136976D03*
X213281596Y-83488976D03*
X213281596Y-140320449D03*
X215270888Y-74488871D03*
X213281596Y-93013976D03*
%TO.N,/power/5.3V*%
X207268009Y-57221449D03*
X200274009Y-58450449D03*
X205048678Y-59655658D03*
X196845193Y-64280795D03*
%TO.N,-12V*%
X214297596Y-93013976D03*
X189037718Y-65855473D03*
X214297596Y-140262036D03*
X214300906Y-148766520D03*
X215256072Y-151267068D03*
X214200596Y-75771976D03*
X214297596Y-83488976D03*
X207352589Y-71064449D03*
%TO.N,/USB_VBUS*%
X189805009Y-63698449D03*
%TO.N,Net-(U11-NR{slash}SS)*%
X221428009Y-58110449D03*
X219142009Y-58110449D03*
%TO.N,/FPGA/CODEC_CTRL.~{SS}*%
X207646009Y-108949015D03*
%TO.N,Net-(U15-OUT)*%
X189647611Y-86788007D03*
%TO.N,/FPGA/CODEC_CTRL.~{RESET}*%
X211346009Y-116650449D03*
X210297009Y-121343944D03*
%TO.N,/FPGA/SPI_MASTER.~{HLD}*%
X190046009Y-111650449D03*
%TO.N,/FPGA/SPI_MASTER.~{WP}*%
X189070274Y-111574714D03*
%TO.N,/CV inputs/adc.SCLK*%
X209576877Y-100292935D03*
%TO.N,Net-(D3-K)*%
X198246931Y-61606527D03*
X199143456Y-59761448D03*
%TO.N,Net-(D6-K)*%
X190566315Y-67336096D03*
X193280658Y-66585575D03*
%TO.N,Net-(D12-A)*%
X215186596Y-82853976D03*
X215821596Y-87298976D03*
%TO.N,Net-(D18-A)*%
X215281594Y-96696976D03*
X215186596Y-92378976D03*
%TO.N,/-5V_CUTOFF*%
X217502596Y-96726976D03*
X216989554Y-155019088D03*
X217563429Y-147026354D03*
X217502596Y-79581976D03*
X217502596Y-88314976D03*
%TO.N,/EURORACK_AUDIO_OUT_L*%
X215499596Y-144724449D03*
%TO.N,/USB_CC1*%
X199460623Y-65406449D03*
%TO.N,/USB_CC2*%
X200260009Y-65737078D03*
%TO.N,/USB_D-*%
X196970528Y-98889687D03*
%TO.N,/USB_D+*%
X195964867Y-98869210D03*
%TO.N,/EURORACK_AUDIO_IN_R*%
X207698945Y-149792008D03*
%TO.N,/EURORACK_CV_IN_3*%
X208125596Y-91493227D03*
%TO.N,/EURORACK_CV_IN_1*%
X208195096Y-82092252D03*
%TO.N,Net-(JP3-A)*%
X200593723Y-60394940D03*
X202251009Y-58999449D03*
%TO.N,/power/EURO_PWR_EN*%
X197366181Y-69710856D03*
X216348009Y-63063449D03*
X193308871Y-67447336D03*
X208240700Y-62054868D03*
%TO.N,/CV inputs/SCALED_CV_1*%
X211894528Y-99886835D03*
X209090596Y-87806976D03*
X209146009Y-97250449D03*
X211884641Y-117319426D03*
%TO.N,/audio inputs/-CODEC_V_{COM}*%
X208976009Y-146800449D03*
X208225945Y-152000931D03*
%TO.N,/power/CC_OUT1*%
X201051634Y-62969611D03*
X203287776Y-64203703D03*
%TO.N,/CV inputs/CV_REF*%
X216082096Y-78753020D03*
X219377595Y-93610686D03*
X219319097Y-84466686D03*
%TO.N,/CV inputs/SCALED_CV_2*%
X218520853Y-97751188D03*
X218520853Y-88133239D03*
%TO.N,/CV inputs/adc.MISO*%
X209576877Y-101650449D03*
%TO.N,/audio outputs/V_{IN}L*%
X216805274Y-117971184D03*
X217006009Y-144694564D03*
%TO.N,/audio outputs/V_{IN}R*%
X219861493Y-143773740D03*
X219861493Y-123475933D03*
%TO.N,/mcu/SWCLK*%
X196207788Y-111928621D03*
X193780175Y-117361007D03*
%TO.N,/mcu/SWD*%
X196880310Y-117361007D03*
X197062120Y-112237983D03*
%TO.N,Net-(U16-DI{slash}IO_{0})*%
X192810931Y-93461463D03*
X192150954Y-100365957D03*
%TO.N,Net-(U16-~{HOLD}{slash}~{RESET}{slash}IO_{3})*%
X195007787Y-103068510D03*
X190394308Y-93327826D03*
%TO.N,Net-(U16-CLK)*%
X191513669Y-93398586D03*
X192750954Y-100987675D03*
%TO.N,/power/USB_VBUS_protected*%
X205048876Y-62183535D03*
X198438703Y-62383205D03*
%TO.N,/FPGA/BLKD_ADC_IN_1*%
X199876604Y-121411671D03*
%TO.N,/CV inputs/FPGA_SHTDWN*%
X200896009Y-120150449D03*
X201303963Y-92340624D03*
X199679619Y-106952335D03*
X192526009Y-131160449D03*
X197425009Y-86939449D03*
%TD*%
D75*
%TO.N,GND*%
X211346009Y-110769156D02*
X211346009Y-111010449D01*
X212362596Y-94313976D02*
X212392596Y-94283976D01*
D76*
X206856481Y-54794542D02*
X206831139Y-54819884D01*
D75*
X194749258Y-113776548D02*
X194749258Y-114864115D01*
D77*
X190707193Y-123029202D02*
X189718296Y-123029202D01*
X206716494Y-63836450D02*
X207161753Y-63391191D01*
D76*
X218675989Y-74185624D02*
X218839040Y-74348675D01*
D78*
X211032233Y-71218004D02*
X211391440Y-71577211D01*
D77*
X217994780Y-104056957D02*
X217994780Y-102556957D01*
D75*
X211346009Y-111010449D02*
X211366009Y-111030449D01*
D76*
X220142009Y-61519449D02*
X219743009Y-61519449D01*
X205904171Y-56965203D02*
X206090177Y-57151209D01*
X192970320Y-69843336D02*
X192210988Y-69084004D01*
D77*
X199396686Y-123044631D02*
X199427385Y-123075330D01*
X204111689Y-105650449D02*
X204023744Y-105562504D01*
D78*
X217588193Y-48376090D02*
X219000756Y-48376090D01*
D77*
X214713385Y-103550309D02*
X215336385Y-102927309D01*
D78*
X198839497Y-53217513D02*
X196299497Y-50677513D01*
D77*
X208851509Y-105902156D02*
X207941615Y-105902156D01*
D75*
X189137176Y-103957386D02*
X188745591Y-103565801D01*
D77*
X220201009Y-114918377D02*
X220192381Y-114909749D01*
D78*
X196299497Y-53217513D02*
X198839497Y-50677513D01*
X219000756Y-48376090D02*
X219010631Y-48366215D01*
X222378308Y-69917719D02*
X222405007Y-69891020D01*
D77*
X206716494Y-64360431D02*
X206716494Y-63836450D01*
X200357787Y-110723086D02*
X199759169Y-111321704D01*
X199475799Y-104018995D02*
X199441433Y-103984629D01*
X200717304Y-117111350D02*
X201423009Y-117817055D01*
D78*
X198839497Y-50677513D02*
X193759497Y-50677513D01*
D75*
X204024557Y-95849255D02*
X204024557Y-96887293D01*
D77*
X192446009Y-139050449D02*
X192377254Y-139050449D01*
X221226009Y-134377949D02*
X221854456Y-134377949D01*
D76*
X210641646Y-62870795D02*
X210673051Y-62839390D01*
D78*
X193830102Y-56052646D02*
X193830102Y-53288118D01*
D77*
X187487718Y-57609705D02*
X187546729Y-57609705D01*
X197837925Y-90302648D02*
X197837925Y-89371747D01*
X203161581Y-68522560D02*
X202746806Y-68937335D01*
X208126009Y-134390449D02*
X208126009Y-135153949D01*
D76*
X207738084Y-54794542D02*
X206856481Y-54794542D01*
X218675989Y-73071337D02*
X218675989Y-74185624D01*
D77*
X198542445Y-64006449D02*
X198505344Y-64043550D01*
X217071009Y-109789408D02*
X217046711Y-109765110D01*
D76*
X224476009Y-56612449D02*
X224476009Y-57729449D01*
D77*
X200654619Y-107182047D02*
X201269735Y-107797163D01*
D75*
X200885009Y-64806449D02*
X200885009Y-65297809D01*
D76*
X207253145Y-58879952D02*
X208338512Y-58879952D01*
D77*
X198796191Y-99592691D02*
X198287847Y-99084347D01*
X207288509Y-119112949D02*
X206500256Y-119112949D01*
X212511493Y-145444564D02*
X212511493Y-144637591D01*
X200477705Y-98557126D02*
X200495433Y-98539398D01*
D78*
X212225084Y-66917152D02*
X212885084Y-66257152D01*
D77*
X188397988Y-89936247D02*
X187938037Y-89936247D01*
X199246009Y-135000449D02*
X200234183Y-135000449D01*
X210198759Y-127045464D02*
X210198759Y-125880199D01*
X205621009Y-112069156D02*
X204393014Y-112069156D01*
D75*
X192820954Y-99185147D02*
X193418171Y-99185147D01*
D78*
X196299497Y-50677513D02*
X193759497Y-53217513D01*
D77*
X206315783Y-135875449D02*
X205283665Y-135875449D01*
X192671009Y-134117663D02*
X192664597Y-134124075D01*
X212214643Y-151900449D02*
X212285856Y-151971662D01*
D75*
X212362596Y-84788976D02*
X212392596Y-84758976D01*
D76*
X208098788Y-48178292D02*
X208861715Y-48178292D01*
D78*
X193830102Y-56052646D02*
X193830102Y-55686908D01*
D75*
X216682096Y-76421976D02*
X215276596Y-76421976D01*
D78*
X212192128Y-48367499D02*
X211762947Y-47938318D01*
D75*
X210957096Y-75121976D02*
X212244971Y-75121976D01*
D76*
X219142009Y-60269449D02*
X218153681Y-60269449D01*
X221428009Y-62098449D02*
X221428009Y-60650449D01*
D77*
X212511493Y-144637591D02*
X212527520Y-144621564D01*
X216856009Y-60536449D02*
X216856009Y-60510169D01*
D76*
X187983555Y-67868473D02*
X187315285Y-67868473D01*
D75*
X188620534Y-106611497D02*
X188232382Y-106223345D01*
D76*
X220920009Y-60650449D02*
X220539009Y-61031449D01*
D77*
X208126009Y-135153949D02*
X208117191Y-135162767D01*
D78*
X212177313Y-68621543D02*
X212177313Y-68955882D01*
D77*
X195019009Y-126450449D02*
X196052267Y-126450449D01*
X208126009Y-132440449D02*
X208890897Y-132440449D01*
X217031009Y-113365153D02*
X217031324Y-113364838D01*
D75*
X211046009Y-118425449D02*
X211733509Y-119112949D01*
D77*
X216834191Y-71519660D02*
X216129062Y-70814531D01*
X205425006Y-60459449D02*
X204867236Y-61017219D01*
D76*
X214245458Y-54060501D02*
X212340458Y-52155501D01*
D77*
X208364038Y-103550309D02*
X209621181Y-103550309D01*
X217071009Y-110790449D02*
X217071009Y-109789408D01*
X214765792Y-105866959D02*
X214765792Y-105087113D01*
X189718296Y-123029202D02*
X189672168Y-123075330D01*
D75*
X216652096Y-94313976D02*
X215216596Y-94313976D01*
D78*
X200181198Y-56052646D02*
X200194639Y-56039205D01*
D76*
X193451938Y-69843336D02*
X192970320Y-69843336D01*
D77*
X216901395Y-71519660D02*
X216834191Y-71519660D01*
D78*
X193830102Y-55686908D02*
X196299497Y-53217513D01*
X209916750Y-71218004D02*
X211032233Y-71218004D01*
D77*
X210883509Y-141000449D02*
X212153029Y-141000449D01*
X217508897Y-75121976D02*
X217862675Y-74768198D01*
X216856009Y-60536449D02*
X216856009Y-60305449D01*
X208890897Y-132440449D02*
X208929090Y-132478642D01*
D75*
X210927096Y-94313976D02*
X212362596Y-94313976D01*
D78*
X193759497Y-50677513D02*
X193759497Y-53217513D01*
D77*
X217582646Y-150600449D02*
X217615843Y-150567252D01*
D78*
X212177313Y-67045095D02*
X212225084Y-67092866D01*
D77*
X200357787Y-110548850D02*
X200357787Y-110723086D01*
D76*
X190202815Y-66380297D02*
X189471731Y-66380297D01*
X214990458Y-54060501D02*
X214245458Y-54060501D01*
X193469458Y-69860856D02*
X193451938Y-69843336D01*
D75*
X211098509Y-119112949D02*
X211098509Y-117902949D01*
D76*
X210188272Y-59507449D02*
X210197514Y-59516691D01*
D78*
X220843951Y-67387719D02*
X222458069Y-67387719D01*
D77*
X211098509Y-124387949D02*
X211098509Y-124980449D01*
D75*
X216652096Y-84788976D02*
X215216596Y-84788976D01*
D78*
X220843951Y-69917719D02*
X222378308Y-69917719D01*
D77*
X197607787Y-113269042D02*
X198306519Y-113967774D01*
D76*
X221428009Y-60650449D02*
X220920009Y-60650449D01*
D75*
X194749258Y-114864115D02*
X194512649Y-115100724D01*
D78*
X196299497Y-53217513D02*
X198839497Y-53217513D01*
D75*
X212244971Y-75121976D02*
X212258903Y-75108044D01*
X210957096Y-76421976D02*
X212362596Y-76421976D01*
D77*
X219223360Y-102556957D02*
X219231197Y-102549120D01*
X197787129Y-65654126D02*
X197787129Y-65802842D01*
X216682096Y-75121976D02*
X217508897Y-75121976D01*
X220201009Y-116230449D02*
X220201009Y-114918377D01*
D78*
X193830102Y-53288118D02*
X193759497Y-53217513D01*
D77*
X187938037Y-89936247D02*
X187512872Y-89511082D01*
X210780546Y-115319156D02*
X210757546Y-115342156D01*
D75*
X196446009Y-141636222D02*
X196868682Y-142058895D01*
X210463509Y-125615449D02*
X210428509Y-125650449D01*
D78*
X220843951Y-66107719D02*
X220843951Y-67387719D01*
D77*
X214765792Y-105087113D02*
X214974596Y-104878309D01*
X200383886Y-104018995D02*
X199475799Y-104018995D01*
D78*
X212225084Y-67092866D02*
X212225084Y-66917152D01*
X212225084Y-67092866D02*
X212225084Y-68573772D01*
D77*
X219906866Y-112607390D02*
X219911893Y-112612417D01*
X190801577Y-88368832D02*
X190836416Y-88333993D01*
D75*
X207660596Y-74456976D02*
X207660596Y-73392722D01*
D76*
X220142009Y-61519449D02*
X220142009Y-61428449D01*
D77*
X214089038Y-102900309D02*
X215309385Y-102900309D01*
D76*
X208966009Y-59507449D02*
X210188272Y-59507449D01*
D77*
X216856009Y-60510169D02*
X217625205Y-59740973D01*
D79*
X197226713Y-59761449D02*
X197175335Y-59710071D01*
D77*
X210771009Y-151900449D02*
X212214643Y-151900449D01*
D76*
X219142009Y-60269449D02*
X219777009Y-60269449D01*
D77*
X194446009Y-138050449D02*
X194446009Y-138026722D01*
X201639509Y-67950857D02*
X201639509Y-68936017D01*
X198308722Y-123044631D02*
X199396686Y-123044631D01*
D78*
X198751076Y-53305934D02*
X198839497Y-53217513D01*
D77*
X220586493Y-140869564D02*
X221396121Y-140869564D01*
D78*
X192710009Y-62936449D02*
X193958707Y-62936449D01*
D75*
X210927096Y-84788976D02*
X212362596Y-84788976D01*
D78*
X193759497Y-53217513D02*
X196299497Y-53217513D01*
D77*
X197607787Y-113148850D02*
X197607787Y-113269042D01*
X211098509Y-124980449D02*
X210428509Y-125650449D01*
X187546729Y-57609705D02*
X188190901Y-56965533D01*
X217994780Y-102556957D02*
X219223360Y-102556957D01*
D78*
X222351301Y-68647719D02*
X222430318Y-68726736D01*
D77*
X221854456Y-134377949D02*
X221903041Y-134426534D01*
X200657787Y-117111350D02*
X200717304Y-117111350D01*
D78*
X196299497Y-50677513D02*
X196299497Y-53217513D01*
D77*
X205096009Y-105650449D02*
X204111689Y-105650449D01*
X204025681Y-104150449D02*
X204021909Y-104154221D01*
D76*
X214316009Y-63063449D02*
X215332009Y-63063449D01*
D77*
X221396121Y-140869564D02*
X221450453Y-140815232D01*
D76*
X195389713Y-69860856D02*
X193469458Y-69860856D01*
D75*
X204024557Y-96887293D02*
X204029018Y-96891754D01*
D77*
X215309385Y-102900309D02*
X215336385Y-102927309D01*
D78*
X193958707Y-62936449D02*
X193980062Y-62957804D01*
D77*
X191253194Y-87726375D02*
X191164543Y-87637724D01*
D78*
X198751076Y-55669092D02*
X196299497Y-53217513D01*
D77*
X199235009Y-64006449D02*
X198542445Y-64006449D01*
X219369087Y-100739542D02*
X219369087Y-99500565D01*
D76*
X219777009Y-60269449D02*
X220539009Y-61031449D01*
D77*
X205283665Y-135875449D02*
X205255261Y-135847045D01*
X212153029Y-141000449D02*
X212178970Y-141026390D01*
X197837925Y-89371747D02*
X197845618Y-89364054D01*
D78*
X198839497Y-50677513D02*
X198839497Y-53217513D01*
D76*
X205120595Y-56965203D02*
X205904171Y-56965203D01*
D77*
X194407787Y-110294764D02*
X194413970Y-110288581D01*
X217031009Y-114410449D02*
X217031009Y-113365153D01*
D78*
X193759497Y-50677513D02*
X196299497Y-53217513D01*
D75*
X215276596Y-76421976D02*
X215216596Y-76361976D01*
D77*
X205680009Y-60459449D02*
X205425006Y-60459449D01*
X214089038Y-103550309D02*
X214713385Y-103550309D01*
D75*
X189137176Y-104421665D02*
X189137176Y-103957386D01*
D77*
X203161581Y-67940360D02*
X203161581Y-68522560D01*
X200477705Y-99513679D02*
X200477705Y-98557126D01*
D78*
X212916294Y-48367499D02*
X212192128Y-48367499D01*
D75*
X210463509Y-124387949D02*
X210463509Y-125615449D01*
D76*
X220142009Y-61428449D02*
X220539009Y-61031449D01*
D77*
X219369087Y-99500565D02*
X219417121Y-99452531D01*
D79*
X197713009Y-59761449D02*
X197226713Y-59761449D01*
D77*
X210861822Y-55609135D02*
X211804259Y-55609135D01*
D75*
X217294509Y-114385390D02*
X217294509Y-114458949D01*
D78*
X198751076Y-56052646D02*
X200181198Y-56052646D01*
D77*
X204393014Y-112069156D02*
X204387725Y-112063867D01*
X194407787Y-111011350D02*
X194407787Y-110294764D01*
X216496009Y-150600449D02*
X217582646Y-150600449D01*
D76*
X224476009Y-52001449D02*
X224476009Y-50871449D01*
D77*
X211346009Y-115319156D02*
X210780546Y-115319156D01*
D75*
X215216596Y-84788976D02*
X215186596Y-84758976D01*
D78*
X220843951Y-68647719D02*
X222351301Y-68647719D01*
D76*
X207809813Y-51733526D02*
X207809813Y-50910835D01*
D78*
X198751076Y-56052646D02*
X198751076Y-53305934D01*
D76*
X207809813Y-50910835D02*
X207810122Y-50910526D01*
D77*
X189897823Y-88368832D02*
X190801577Y-88368832D01*
X200234183Y-135000449D02*
X200245294Y-135011560D01*
D75*
X211346009Y-111419156D02*
X211346009Y-111050449D01*
D77*
X200654619Y-107045614D02*
X200654619Y-107182047D01*
X206500256Y-119112949D02*
X206494520Y-119107213D01*
D76*
X209410700Y-62870795D02*
X210641646Y-62870795D01*
D75*
X196446009Y-141050449D02*
X196446009Y-141636222D01*
X200885009Y-65297809D02*
X200984068Y-65396868D01*
D78*
X198751076Y-56052646D02*
X198751076Y-55669092D01*
D77*
X192671009Y-133340449D02*
X192671009Y-134117663D01*
X207941615Y-105902156D02*
X207939838Y-105903933D01*
X197787129Y-65802842D02*
X198524934Y-66540647D01*
D76*
X208861715Y-48178292D02*
X208970705Y-48069302D01*
D75*
X211346009Y-111050449D02*
X211366009Y-111030449D01*
D76*
X189471731Y-66380297D02*
X187983555Y-67868473D01*
D77*
X209621181Y-103550309D02*
X209622767Y-103548723D01*
X205096009Y-104150449D02*
X204025681Y-104150449D01*
D75*
X215216596Y-94313976D02*
X215186596Y-94283976D01*
X193418171Y-99185147D02*
X193648440Y-98954878D01*
D77*
X201639509Y-68936017D02*
X201638190Y-68937336D01*
D76*
X208338512Y-58879952D02*
X208966009Y-59507449D01*
D77*
X200771009Y-138050449D02*
X200771008Y-138984449D01*
X211804259Y-55609135D02*
X211849843Y-55563551D01*
D78*
X212177313Y-65580113D02*
X212177313Y-67045095D01*
D75*
X212362596Y-76421976D02*
X212422596Y-76361976D01*
D77*
X194446009Y-138026722D02*
X194969294Y-137503437D01*
D75*
X211046009Y-117850449D02*
X211046009Y-118425449D01*
D77*
X210198759Y-125880199D02*
X210428509Y-125650449D01*
D75*
X194236552Y-99542990D02*
X193648440Y-98954878D01*
X211098509Y-117902949D02*
X211046009Y-117850449D01*
X194236552Y-99898747D02*
X194236552Y-99542990D01*
D77*
X218462509Y-112607390D02*
X219906866Y-112607390D01*
D78*
X222458069Y-67387719D02*
X222480939Y-67410589D01*
D77*
X192138308Y-87726375D02*
X191253194Y-87726375D01*
X192377254Y-139050449D02*
X191896045Y-139531658D01*
D76*
X218153681Y-60269449D02*
X217625205Y-59740973D01*
D78*
X212225084Y-68573772D02*
X212177313Y-68621543D01*
D75*
X188620534Y-106923056D02*
X188620534Y-106611497D01*
D77*
X198796191Y-99920566D02*
X198796191Y-99592691D01*
D75*
X207660596Y-73392722D02*
X207645096Y-73377222D01*
D77*
X196052267Y-126450449D02*
X196080761Y-126421955D01*
D75*
%TO.N,/FPGA/PSRAM_AD0*%
X194446009Y-140050449D02*
X193907009Y-140589449D01*
X193907009Y-140589449D02*
X193907009Y-141241402D01*
X188418907Y-146729504D02*
X186931257Y-146729504D01*
X193907009Y-141241402D02*
X188418907Y-146729504D01*
%TO.N,/psram/~{CE}_{gated}*%
X194446009Y-137050449D02*
X194446009Y-133340449D01*
%TO.N,+3V3*%
X195446009Y-138050449D02*
X194985009Y-138511449D01*
X195607787Y-111011350D02*
X195607787Y-110150200D01*
X199221009Y-138050449D02*
X199221009Y-136575449D01*
X194236552Y-101448747D02*
X195055441Y-102267636D01*
X192479787Y-110496388D02*
X193384921Y-109591254D01*
D76*
X214089038Y-102250309D02*
X213197341Y-102250309D01*
D75*
X195907009Y-137589449D02*
X195446009Y-138050449D01*
X195607787Y-104136350D02*
X195607787Y-104872850D01*
X198760009Y-137589449D02*
X195907009Y-137589449D01*
D76*
X214089038Y-102250309D02*
X216138132Y-102250309D01*
D78*
X212025595Y-105902156D02*
X212060792Y-105866959D01*
D75*
X197871451Y-104136350D02*
X198007787Y-104136350D01*
X211346009Y-107519156D02*
X211346009Y-106581742D01*
X195607787Y-104136350D02*
X196007787Y-104136350D01*
D77*
X206646009Y-105650449D02*
X206646009Y-104150449D01*
D76*
X196763320Y-68047336D02*
X195981244Y-67265260D01*
D75*
X193751087Y-109761581D02*
X193384921Y-109395414D01*
D76*
X193251808Y-88321275D02*
X193251808Y-89079475D01*
D75*
X205621009Y-111419156D02*
X207014716Y-111419156D01*
X194448997Y-132037461D02*
X194446009Y-132040449D01*
X195607787Y-112698850D02*
X195607787Y-111011350D01*
X206971220Y-106991676D02*
X206971220Y-105975660D01*
D76*
X216444780Y-104056957D02*
X216300428Y-104201309D01*
X189897823Y-89918832D02*
X189010954Y-90805701D01*
X196155009Y-82118449D02*
X197406009Y-80867449D01*
X202383009Y-84018449D02*
X200917009Y-84018449D01*
D78*
X215677775Y-68621543D02*
X215703951Y-68647719D01*
D75*
X207660596Y-75898976D02*
X207786596Y-75898976D01*
X199675142Y-102468995D02*
X200383886Y-102468995D01*
D78*
X216900951Y-68647719D02*
X218698303Y-70445071D01*
D75*
X200395146Y-101386131D02*
X200395146Y-101001375D01*
D77*
X206646009Y-105650449D02*
X206924009Y-105928449D01*
D75*
X211824994Y-127796464D02*
X209215502Y-127796464D01*
X191970287Y-108573850D02*
X192680190Y-108573850D01*
D78*
X206646009Y-104150449D02*
X206827869Y-104332309D01*
D75*
X195607787Y-110150200D02*
X195219168Y-109761581D01*
D78*
X213595442Y-104332309D02*
X214089038Y-104332309D01*
D75*
X195219168Y-109761581D02*
X193751087Y-109761581D01*
X200253705Y-136560141D02*
X199255701Y-136560141D01*
X196057787Y-113148850D02*
X195607787Y-112698850D01*
D78*
X213798613Y-68692843D02*
X213727313Y-68621543D01*
D76*
X216444780Y-105140154D02*
X215973291Y-105611643D01*
D75*
X192837219Y-104973850D02*
X191970287Y-104973850D01*
D76*
X204283009Y-82118449D02*
X202383009Y-84018449D01*
X193251808Y-89079475D02*
X192412451Y-89918832D01*
D75*
X197644927Y-104136350D02*
X199312282Y-102468995D01*
X195992105Y-132037461D02*
X194448997Y-132037461D01*
X199221009Y-136575449D02*
X199246009Y-136550449D01*
D78*
X212996750Y-71218004D02*
X212996750Y-71210106D01*
D75*
X191742971Y-104973850D02*
X190671157Y-103902036D01*
X193221157Y-109231651D02*
X193221157Y-108033375D01*
D76*
X206533251Y-104150449D02*
X206646009Y-104150449D01*
D75*
X207660596Y-75980976D02*
X207646596Y-75980976D01*
D76*
X213197341Y-102250309D02*
X209575877Y-98628845D01*
D75*
X198845287Y-108573850D02*
X199932787Y-108573850D01*
X193221157Y-108033375D02*
X193220911Y-108033129D01*
X195607787Y-104872850D02*
X195807787Y-105072850D01*
X191970287Y-104973850D02*
X190777023Y-104973850D01*
X190270328Y-108572850D02*
X190678826Y-108572850D01*
D76*
X216138132Y-102250309D02*
X216444780Y-102556957D01*
D75*
X197607787Y-104136350D02*
X197871451Y-104136350D01*
X206971220Y-105975660D02*
X206646009Y-105650449D01*
D76*
X195791433Y-87244009D02*
X195110067Y-87925375D01*
D78*
X206827869Y-104332309D02*
X207964149Y-104332309D01*
D76*
X203032009Y-80867449D02*
X204283009Y-82118449D01*
X207660596Y-75980976D02*
X205534009Y-73854389D01*
D75*
X190777023Y-104973850D02*
X190233192Y-105517681D01*
X190679826Y-108573850D02*
X190678826Y-108572850D01*
D78*
X215703951Y-68647719D02*
X216900951Y-68647719D01*
D75*
X194985009Y-140589449D02*
X195446009Y-141050449D01*
D76*
X216300428Y-104201309D02*
X214089038Y-104201309D01*
D75*
X198007787Y-104136350D02*
X199675142Y-102468995D01*
X200654619Y-105495614D02*
X200372735Y-105495614D01*
D76*
X205799557Y-94549255D02*
X205799557Y-94156901D01*
D78*
X213727313Y-68621543D02*
X213727313Y-70487441D01*
D76*
X205534009Y-73854389D02*
X205534009Y-71785937D01*
X192412451Y-89918832D02*
X189897823Y-89918832D01*
D75*
X192907009Y-139589449D02*
X194924009Y-139589449D01*
X195055441Y-102267636D02*
X195608787Y-102820982D01*
D78*
X213727313Y-68621543D02*
X215677775Y-68621543D01*
D75*
X199367433Y-102413845D02*
X200395146Y-101386131D01*
X213003509Y-124387949D02*
X213003509Y-126082949D01*
X196007787Y-104136350D02*
X196007787Y-104872850D01*
X191970287Y-108573850D02*
X190679826Y-108573850D01*
X199255701Y-136560141D02*
X199246009Y-136550449D01*
D78*
X207046009Y-105250449D02*
X207964149Y-104332309D01*
D75*
X200372735Y-105495614D02*
X199850971Y-104973850D01*
D78*
X218698303Y-70445071D02*
X218698303Y-71522334D01*
D76*
X195981244Y-67265260D02*
X195820281Y-67265260D01*
D75*
X199312282Y-102468995D02*
X199367433Y-102413845D01*
D78*
X210401509Y-105427156D02*
X210401509Y-105902156D01*
D75*
X199221009Y-138050449D02*
X198760009Y-137589449D01*
X193220911Y-105357542D02*
X192837219Y-104973850D01*
D76*
X200383886Y-102468995D02*
X200566413Y-102286468D01*
D75*
X211346009Y-106581742D02*
X212060792Y-105866959D01*
X194924009Y-139589449D02*
X194985009Y-139650449D01*
D78*
X207964149Y-104332309D02*
X209306662Y-104332309D01*
D75*
X193384921Y-109395414D02*
X193221157Y-109231651D01*
X196057787Y-113148850D02*
X195957485Y-113048548D01*
D76*
X215047596Y-124922243D02*
X214699215Y-124922243D01*
D75*
X192479787Y-111907077D02*
X192479787Y-110496388D01*
X198845287Y-104973850D02*
X198007787Y-104136350D01*
X191970287Y-104973850D02*
X191742971Y-104973850D01*
X193384921Y-109591254D02*
X193384921Y-109395414D01*
X194985009Y-138511449D02*
X194985009Y-139650449D01*
D78*
X210727325Y-68140003D02*
X209953634Y-67366312D01*
D76*
X197406009Y-80867449D02*
X203032009Y-80867449D01*
X205799557Y-94156901D02*
X205806009Y-94150449D01*
X195110067Y-87925375D02*
X193647708Y-87925375D01*
D75*
X199932787Y-108573850D02*
X200357787Y-108998850D01*
D78*
X216664087Y-100739542D02*
X216664087Y-102337650D01*
D75*
X197607787Y-104136350D02*
X197644927Y-104136350D01*
D77*
X200395146Y-101001375D02*
X201658872Y-99737649D01*
D75*
X198064368Y-108573850D02*
X197871451Y-108380933D01*
X192849258Y-112276548D02*
X193627258Y-113054548D01*
D78*
X216664087Y-102337650D02*
X216444780Y-102556957D01*
D75*
X195608787Y-102820982D02*
X195608787Y-103970250D01*
X189716550Y-108019072D02*
X190270328Y-108572850D01*
X196007787Y-104872850D02*
X195807787Y-105072850D01*
D78*
X212996750Y-71210106D02*
X210727325Y-68940681D01*
D75*
X194985009Y-139650449D02*
X194985009Y-140589449D01*
D78*
X210727325Y-68940681D02*
X210727325Y-68140003D01*
D75*
X193220911Y-108033129D02*
X193220911Y-105357542D01*
X209215502Y-127796464D02*
X208159651Y-128852315D01*
D78*
X216444780Y-102556957D02*
X216444780Y-104056957D01*
D76*
X205534009Y-71785937D02*
X209953634Y-67366312D01*
D78*
X206646009Y-105650449D02*
X207046009Y-105250449D01*
D75*
X197871451Y-108380933D02*
X197871451Y-104136350D01*
D78*
X212060792Y-105866959D02*
X213595442Y-104332309D01*
X213727313Y-70487441D02*
X212996750Y-71218004D01*
D76*
X216444780Y-104056957D02*
X216444780Y-105140154D01*
X193647708Y-87925375D02*
X193251808Y-88321275D01*
X189010954Y-90805701D02*
X189010954Y-92010147D01*
D75*
X213271009Y-126350449D02*
X211824994Y-127796464D01*
X199850971Y-104973850D02*
X198845287Y-104973850D01*
X192680190Y-108573850D02*
X193220911Y-108033129D01*
X207014716Y-111419156D02*
X207046009Y-111450449D01*
D76*
X205534009Y-80867449D02*
X205534009Y-73854389D01*
D77*
X201658872Y-99737649D02*
X202590872Y-99737649D01*
D75*
X210401509Y-105902156D02*
X210401509Y-106574656D01*
D76*
X213019509Y-123616949D02*
X213019509Y-124387949D01*
D75*
X210401509Y-106574656D02*
X211346009Y-107519156D01*
D78*
X209306662Y-104332309D02*
X210401509Y-105427156D01*
D75*
X193627258Y-114436115D02*
X192962649Y-115100724D01*
X198845287Y-108573850D02*
X198064368Y-108573850D01*
X193627258Y-113054548D02*
X193627258Y-114436115D01*
X192849258Y-112276548D02*
X192479787Y-111907077D01*
X192446009Y-140050449D02*
X192907009Y-139589449D01*
X213003509Y-126082949D02*
X213271009Y-126350449D01*
D76*
X214699215Y-124922243D02*
X213271009Y-126350449D01*
X204283009Y-82118449D02*
X205534009Y-80867449D01*
D75*
%TO.N,/FPGA/PSRAM_AD7*%
X192446009Y-141050449D02*
X187530312Y-141050449D01*
X187530312Y-141050449D02*
X186931257Y-141649504D01*
%TO.N,/FPGA/PSRAM_AD2*%
X201769312Y-139511449D02*
X195907009Y-139511449D01*
X202171257Y-139109504D02*
X201769312Y-139511449D01*
X195907009Y-139511449D02*
X195446009Y-139050449D01*
%TO.N,/FPGA/PSRAM_CLK*%
X193446009Y-138050449D02*
X189425064Y-134029504D01*
X189425064Y-134029504D02*
X186931257Y-134029504D01*
%TO.N,/FPGA/PSRAM_DQS{slash}DM*%
X194446009Y-139050449D02*
X193985009Y-138589449D01*
X188951202Y-138589449D02*
X186931257Y-136569504D01*
X193985009Y-138589449D02*
X188951202Y-138589449D01*
%TO.N,/FPGA/PSRAM_AD4*%
X196446009Y-140050449D02*
X200572202Y-140050449D01*
X200572202Y-140050449D02*
X202171257Y-141649504D01*
%TO.N,/FPGA/PSRAM_AD1*%
X188333202Y-140511449D02*
X186931257Y-139109504D01*
X192985009Y-140511449D02*
X188333202Y-140511449D01*
X193446009Y-140050449D02*
X192985009Y-140511449D01*
%TO.N,/FPGA/PSRAM_AD6*%
X193446009Y-141050449D02*
X190306954Y-144189504D01*
X190306954Y-144189504D02*
X186931257Y-144189504D01*
%TO.N,/FPGA/PSRAM_~{RST}*%
X201401202Y-135799449D02*
X202171257Y-136569504D01*
X196697009Y-135799449D02*
X201401202Y-135799449D01*
X195446009Y-137050449D02*
X196697009Y-135799449D01*
%TO.N,/FPGA/PSRAM_AD5*%
X200125064Y-146729504D02*
X202171257Y-146729504D01*
X194446009Y-141050449D02*
X200125064Y-146729504D01*
%TO.N,/FPGA/PSRAM_AD3*%
X202171257Y-144189504D02*
X198493202Y-140511449D01*
X195907009Y-140511449D02*
X195446009Y-140050449D01*
X198493202Y-140511449D02*
X195907009Y-140511449D01*
%TO.N,+5V*%
X210090215Y-110119156D02*
X210050078Y-110079019D01*
D78*
X209756564Y-65604931D02*
X206259132Y-65604931D01*
D77*
X209166009Y-130490449D02*
X208126009Y-130490449D01*
D78*
X214565914Y-59547600D02*
X212086160Y-59547600D01*
D75*
X211335596Y-96733976D02*
X210397596Y-96733976D01*
D77*
X220025610Y-75964990D02*
X220041596Y-75980976D01*
D75*
X211292596Y-88314976D02*
X210360596Y-88314976D01*
D77*
X210198759Y-128595464D02*
X210198759Y-129457699D01*
X210999653Y-130109319D02*
X210198759Y-129308425D01*
D78*
X213775084Y-65627884D02*
X213727313Y-65580113D01*
D77*
X210198759Y-129308425D02*
X210198759Y-128595464D01*
D75*
X210917509Y-155000449D02*
X211733509Y-155000449D01*
D78*
X210182375Y-128611848D02*
X210198759Y-128595464D01*
X213727313Y-65580113D02*
X213727313Y-65302408D01*
D77*
X213132009Y-130490449D02*
X213876009Y-130490449D01*
X212750879Y-130109319D02*
X213132009Y-130490449D01*
X213876009Y-130490449D02*
X215126009Y-130490449D01*
X210198759Y-129457699D02*
X209166009Y-130490449D01*
X215176009Y-133040449D02*
X213926009Y-133040449D01*
D78*
X212490700Y-62870795D02*
X210505488Y-64856007D01*
D77*
X210999653Y-130109319D02*
X212750879Y-130109319D01*
X211292596Y-88187976D02*
X211292596Y-87304476D01*
X211292596Y-88314976D02*
X211292596Y-88187976D01*
X218794724Y-130634234D02*
X219276009Y-130152949D01*
D78*
X210505488Y-64856007D02*
X210505488Y-65247164D01*
D77*
X213926009Y-133040449D02*
X213876009Y-133090449D01*
D78*
X206259132Y-65604931D02*
X205766494Y-65112293D01*
D77*
X215269794Y-130634234D02*
X218794724Y-130634234D01*
D78*
X212030009Y-59523449D02*
X212046009Y-59507449D01*
X210505488Y-65247164D02*
X211042636Y-65784312D01*
X215409098Y-67092866D02*
X215703951Y-67387719D01*
D77*
X211292596Y-87304476D02*
X211298096Y-87298976D01*
D78*
X214565914Y-59547600D02*
X215897892Y-59547600D01*
X205766494Y-65112293D02*
X205766494Y-64360431D01*
X213727313Y-65302408D02*
X212490700Y-64065795D01*
D77*
X215176009Y-130540449D02*
X215269794Y-130634234D01*
D78*
X220046228Y-75976344D02*
X220041596Y-75980976D01*
X213727313Y-65580113D02*
X215176345Y-65580113D01*
D75*
X210925509Y-147500449D02*
X211733509Y-147500449D01*
D78*
X214316009Y-61777449D02*
X212046009Y-59507449D01*
X215897892Y-59547600D02*
X216111741Y-59761449D01*
X223934707Y-80010449D02*
X223934707Y-79874087D01*
X210505488Y-64856007D02*
X209756564Y-65604931D01*
X212086160Y-59547600D02*
X212046009Y-59507449D01*
X213248046Y-62113449D02*
X212490700Y-62870795D01*
X213775084Y-67092866D02*
X215409098Y-67092866D01*
D77*
X214849716Y-110119156D02*
X211346009Y-110119156D01*
X215126009Y-130490449D02*
X215176009Y-130540449D01*
D75*
X219276009Y-130152949D02*
X218862509Y-130566449D01*
D77*
X215757509Y-112607390D02*
X215757509Y-111026949D01*
X215521009Y-110790449D02*
X214849716Y-110119156D01*
X215757509Y-111026949D02*
X215521009Y-110790449D01*
D75*
X211275096Y-79551976D02*
X210360596Y-79551976D01*
X208126009Y-131140449D02*
X208126009Y-130490449D01*
D78*
X214316009Y-62113449D02*
X213248046Y-62113449D01*
X213775084Y-67092866D02*
X213775084Y-65627884D01*
D75*
X210397596Y-96733976D02*
X210360596Y-96696976D01*
D78*
X215176345Y-65580113D02*
X215703951Y-66107719D01*
D75*
X211346009Y-110119156D02*
X210090215Y-110119156D01*
D78*
X223934707Y-79874087D02*
X220041596Y-75980976D01*
X209456089Y-128611848D02*
X210182375Y-128611848D01*
D77*
X211292596Y-89240976D02*
X211292596Y-88314976D01*
D78*
X214316009Y-62113449D02*
X214316009Y-61777449D01*
X212490700Y-64065795D02*
X212490700Y-62870795D01*
D75*
%TO.N,Net-(U3-V_{IN}L)*%
X215284802Y-109469156D02*
X211346009Y-109469156D01*
X215783509Y-108970449D02*
X215284802Y-109469156D01*
%TO.N,/audio inputs/V_{OUT}L*%
X218358509Y-147109481D02*
X218536762Y-146931228D01*
X217496009Y-148300449D02*
X216496009Y-149300449D01*
X218692161Y-109174101D02*
X218488509Y-108970449D01*
X218358509Y-148300449D02*
X217496009Y-148300449D01*
D77*
X218358509Y-148300449D02*
X218358509Y-147109481D01*
X218692161Y-110709143D02*
X218692161Y-109174101D01*
D75*
%TO.N,/audio inputs/V_{OUT}R*%
X218213510Y-107955448D02*
X216741929Y-107955449D01*
X219408509Y-106760449D02*
X218213510Y-107955448D01*
D77*
X210779377Y-153192081D02*
X210771009Y-153200449D01*
D75*
X209671009Y-154300449D02*
X210771009Y-153200449D01*
D77*
X210795937Y-153225377D02*
X210771009Y-153200449D01*
D75*
X208933509Y-154300449D02*
X209671009Y-154300449D01*
D77*
X212400660Y-153192081D02*
X210779377Y-153192081D01*
D75*
%TO.N,Net-(U3-V_{IN}R)*%
X213937302Y-108819156D02*
X211346009Y-108819156D01*
X215996009Y-106760449D02*
X213937302Y-108819156D01*
X216703509Y-106760449D02*
X215996009Y-106760449D01*
%TO.N,Net-(U2A-+)*%
X211517009Y-139849449D02*
X210886009Y-139849449D01*
D77*
X215676009Y-114410449D02*
X217496009Y-116230449D01*
X215481009Y-114410449D02*
X215676009Y-114410449D01*
D75*
X212526009Y-112080449D02*
X214830950Y-114385390D01*
D77*
X215481009Y-114410449D02*
X214856009Y-114410449D01*
X214856009Y-114410449D02*
X214830950Y-114385390D01*
D75*
X212526009Y-112080449D02*
X211357302Y-112080449D01*
X210883509Y-139700449D02*
X212526596Y-139700449D01*
X212526596Y-139700449D02*
X212531596Y-139705449D01*
X211357302Y-112080449D02*
X211346009Y-112069156D01*
D78*
%TO.N,Net-(U4-FB)*%
X218638583Y-50186192D02*
X218728695Y-50096080D01*
D75*
X216431864Y-49812304D02*
X216662957Y-50043397D01*
X209690458Y-51520501D02*
X209246788Y-51520501D01*
X211268009Y-49855449D02*
X210791458Y-50332000D01*
X210490457Y-51520501D02*
X209690458Y-51520501D01*
X216662957Y-50043397D02*
X217062538Y-50043397D01*
D78*
X218728695Y-50096080D02*
X220236541Y-50096080D01*
D75*
X210791458Y-51219500D02*
X210490457Y-51520501D01*
D78*
X220236541Y-50096080D02*
X220274723Y-50134262D01*
D75*
X209246788Y-51520501D02*
X207809813Y-50083526D01*
X210791458Y-50332000D02*
X210791458Y-51219500D01*
D78*
X217047020Y-50186192D02*
X218638583Y-50186192D01*
%TO.N,Net-(U4-BOOT)*%
X215063354Y-51593397D02*
X214990458Y-51520501D01*
X217062538Y-51593397D02*
X215063354Y-51593397D01*
%TO.N,+12V*%
X207532788Y-49162292D02*
X208602249Y-49162292D01*
D75*
X212646596Y-74471976D02*
X213311596Y-75136976D01*
X210927096Y-83488976D02*
X213281596Y-83488976D01*
D78*
X203570595Y-55647591D02*
X203570595Y-56965203D01*
X209690458Y-48888335D02*
X210211294Y-48367499D01*
X214883193Y-50143236D02*
X214990458Y-50250501D01*
X210933478Y-48367499D02*
X212137478Y-49571499D01*
D77*
X213276009Y-140330449D02*
X210903509Y-140330449D01*
D78*
X206204639Y-56205449D02*
X204608688Y-54609498D01*
X201831076Y-56052646D02*
X202658038Y-56052646D01*
D75*
X215287783Y-74471976D02*
X215270888Y-74488871D01*
D78*
X206548788Y-52669398D02*
X206548788Y-48178292D01*
X206548788Y-48178292D02*
X207532788Y-49162292D01*
D76*
X212377427Y-151250449D02*
X210771009Y-151250449D01*
D75*
X210957096Y-74471976D02*
X212646596Y-74471976D01*
D78*
X208602249Y-49162292D02*
X208709019Y-49269063D01*
X209690458Y-50250501D02*
X209690458Y-48888335D01*
X212137478Y-49571499D02*
X213695110Y-49571499D01*
X214883193Y-48383416D02*
X214883193Y-48376090D01*
D75*
X212676596Y-75771976D02*
X213311596Y-75136976D01*
X210957096Y-75771976D02*
X212676596Y-75771976D01*
D78*
X204608688Y-54609498D02*
X203570595Y-55647591D01*
X210211294Y-48367499D02*
X210933478Y-48367499D01*
X214883193Y-48376090D02*
X214883193Y-50143236D01*
X202658038Y-56052646D02*
X203570595Y-56965203D01*
D75*
X216682096Y-74471976D02*
X215287783Y-74471976D01*
D78*
X204608688Y-54609498D02*
X206548788Y-52669398D01*
D75*
X210927096Y-93013976D02*
X213281596Y-93013976D01*
D78*
X213695110Y-49571499D02*
X214883193Y-48383416D01*
X208602249Y-49162292D02*
X209690458Y-50250501D01*
X207585009Y-56205449D02*
X206204639Y-56205449D01*
D77*
X210903509Y-140330449D02*
X210883509Y-140350449D01*
D78*
%TO.N,/power/5.3V*%
X222365286Y-55776686D02*
X222561523Y-55580449D01*
X220055004Y-57221449D02*
X218253009Y-57221449D01*
X220142009Y-57308454D02*
X220055004Y-57221449D01*
D76*
X201819592Y-57960866D02*
X204831426Y-57960866D01*
D78*
X222561523Y-55580449D02*
X223958009Y-55580449D01*
D76*
X205048678Y-59655658D02*
X205048678Y-59440780D01*
D78*
X223958009Y-55580449D02*
X224476009Y-55062449D01*
D76*
X200274009Y-58450449D02*
X199613009Y-59111449D01*
D77*
X219642009Y-59019449D02*
X220142009Y-59019449D01*
D78*
X220142009Y-59019449D02*
X220142009Y-57308454D01*
D75*
X218642009Y-59019449D02*
X218142009Y-59019449D01*
D76*
X204831426Y-57960866D02*
X205680009Y-58809449D01*
X218109009Y-58986449D02*
X218142009Y-59019449D01*
D78*
X218253009Y-57221449D02*
X207268009Y-57221449D01*
D76*
X197787129Y-67204126D02*
X196845193Y-66262190D01*
X201330009Y-58450449D02*
X201819592Y-57960866D01*
D78*
X218142009Y-59019449D02*
X218142009Y-57332449D01*
D76*
X224476009Y-55062449D02*
X224476009Y-53551449D01*
D78*
X218142009Y-57332449D02*
X218253009Y-57221449D01*
D76*
X205048678Y-59440780D02*
X205680009Y-58809449D01*
D78*
X207268009Y-57221449D02*
X205680009Y-58809449D01*
D76*
X201330009Y-58450449D02*
X200274009Y-58450449D01*
X196845193Y-66262190D02*
X196845193Y-64280795D01*
D78*
X222365286Y-55776686D02*
X220920523Y-57221449D01*
X220920523Y-57221449D02*
X220055004Y-57221449D01*
D76*
X216856009Y-58986449D02*
X218109009Y-58986449D01*
X197664713Y-68910856D02*
X197664713Y-67433295D01*
%TO.N,-12V*%
X207352589Y-71064449D02*
X209152144Y-72864004D01*
D78*
X190750102Y-56052646D02*
X190594777Y-56052646D01*
D76*
X209152144Y-72864004D02*
X212100699Y-72864004D01*
X189040315Y-65852876D02*
X189040315Y-65769277D01*
X189037718Y-65766680D02*
X189037718Y-57609705D01*
D78*
X187836297Y-55288533D02*
X189037718Y-56489954D01*
D75*
X216496009Y-151250449D02*
X215272691Y-151250449D01*
D76*
X189040315Y-65769277D02*
X189037718Y-65766680D01*
D75*
X216671096Y-75760976D02*
X214211596Y-75760976D01*
X216652096Y-93013976D02*
X214297596Y-93013976D01*
X215256072Y-149721686D02*
X214300906Y-148766520D01*
X215272691Y-151250449D02*
X215256072Y-151267068D01*
X214211596Y-75760976D02*
X214200596Y-75771976D01*
D76*
X214200596Y-74963901D02*
X214200596Y-75771976D01*
D77*
X216608509Y-140350449D02*
X214386009Y-140350449D01*
D76*
X212100699Y-72864004D02*
X214200596Y-74963901D01*
D75*
X216682096Y-75771976D02*
X216671096Y-75760976D01*
D78*
X189037718Y-56489954D02*
X189037718Y-57609705D01*
D75*
X216652096Y-83488976D02*
X214297596Y-83488976D01*
D78*
X190594777Y-56052646D02*
X189037718Y-57609705D01*
D77*
X214386009Y-140350449D02*
X214297596Y-140262036D01*
D76*
X189037718Y-65855473D02*
X189040315Y-65852876D01*
D75*
X215256072Y-151267068D02*
X215256072Y-149721686D01*
%TO.N,Net-(U4-VREG)*%
X209690458Y-52790501D02*
X208192125Y-52790501D01*
X208192125Y-52790501D02*
X207738084Y-53244542D01*
%TO.N,Net-(U4-SS)*%
X209311822Y-55609135D02*
X209311822Y-54439137D01*
X209311822Y-54439137D02*
X209690458Y-54060501D01*
D78*
%TO.N,/USB_VBUS*%
X187315285Y-60248473D02*
X187315285Y-60725224D01*
D76*
X189830509Y-63723949D02*
X189805009Y-63698449D01*
X190789009Y-63723949D02*
X189830509Y-63723949D01*
%TO.N,Net-(JP2-A)*%
X191316315Y-65881298D02*
X191316315Y-68898959D01*
D78*
X190218009Y-83987001D02*
X190218009Y-84780449D01*
D76*
X191316315Y-68898959D02*
X190371938Y-69843336D01*
X190202815Y-65430297D02*
X190865314Y-65430297D01*
X195389713Y-68910856D02*
X194676193Y-68197336D01*
D78*
X188869599Y-71440264D02*
X188869599Y-82638591D01*
X188397988Y-86600470D02*
X190218009Y-84780449D01*
X188397988Y-88386247D02*
X188397988Y-86600470D01*
D76*
X192017938Y-68197336D02*
X190371938Y-69843336D01*
D78*
X190371938Y-69937925D02*
X188869599Y-71440264D01*
D76*
X194676193Y-68197336D02*
X192017938Y-68197336D01*
X190865314Y-65430297D02*
X191316315Y-65881298D01*
D78*
X190371938Y-69843336D02*
X190371938Y-69937925D01*
X188869599Y-82638591D02*
X190218009Y-83987001D01*
%TO.N,Net-(J4-Pin_1)*%
X202984190Y-48274616D02*
X202984190Y-49072820D01*
X201379497Y-50677513D02*
X201379497Y-53217513D01*
X202984190Y-49072820D02*
X201379497Y-50677513D01*
D75*
%TO.N,Net-(U11-FB)*%
X219967009Y-63063449D02*
X219142009Y-62238449D01*
D76*
X219967009Y-63063449D02*
X219917009Y-63113449D01*
X220652009Y-63748449D02*
X221428009Y-63748449D01*
X219917009Y-63113449D02*
X219917009Y-64587449D01*
X219967009Y-63063449D02*
X220652009Y-63748449D01*
D75*
X219142009Y-62238449D02*
X219142009Y-61519449D01*
D78*
%TO.N,Net-(U9-IN)*%
X218142009Y-61519449D02*
X217548009Y-62113449D01*
X218142009Y-61519449D02*
X218142009Y-62888449D01*
D76*
X218367009Y-64587449D02*
X218367009Y-63113449D01*
D78*
X217548009Y-62113449D02*
X216591009Y-62113449D01*
X218142009Y-62888449D02*
X218317009Y-63063449D01*
D76*
X218367009Y-63113449D02*
X218317009Y-63063449D01*
D77*
%TO.N,Net-(U28-BYP)*%
X215351395Y-71519660D02*
X215351395Y-70270275D01*
X215351395Y-70270275D02*
X215703951Y-69917719D01*
D75*
%TO.N,Net-(U11-NR{slash}SS)*%
X219142009Y-59019449D02*
X219142009Y-58110449D01*
X221428009Y-59100449D02*
X221428009Y-58110449D01*
%TO.N,Net-(U17-VREG_VOUT)*%
X198627987Y-101470566D02*
X198796191Y-101470566D01*
X195207787Y-104136350D02*
X195207787Y-105493000D01*
X195207787Y-105493000D02*
X195387637Y-105672850D01*
X196007787Y-110478076D02*
X196457188Y-110028675D01*
X197308787Y-109474850D02*
X197308787Y-105323850D01*
X196007787Y-111011350D02*
X196007787Y-110478076D01*
X196959787Y-105672850D02*
X197308787Y-105323850D01*
X197207787Y-104136350D02*
X197207787Y-104773850D01*
X195387637Y-105672850D02*
X196959787Y-105672850D01*
X196754962Y-110028675D02*
X197308787Y-109474850D01*
X196457188Y-110028675D02*
X196754962Y-110028675D01*
X197308787Y-104874850D02*
X197308787Y-105323850D01*
X197207787Y-104136350D02*
X197207787Y-102890766D01*
X197207787Y-104773850D02*
X197308787Y-104874850D01*
X197207787Y-102890766D02*
X198627987Y-101470566D01*
%TO.N,/mcu/~{USB_BOOT}*%
X198342365Y-97060250D02*
X195887365Y-97060250D01*
X189010954Y-100339517D02*
X189010954Y-99185147D01*
X192807787Y-104136350D02*
X189010954Y-100339517D01*
X194853762Y-98071647D02*
X194864865Y-98082750D01*
X189311955Y-98071647D02*
X194853762Y-98071647D01*
X189010954Y-98372648D02*
X189311955Y-98071647D01*
X199364865Y-98082750D02*
X198342365Y-97060250D01*
X195887365Y-97060250D02*
X194864865Y-98082750D01*
X189504431Y-102735310D02*
X189504431Y-100832994D01*
X189504431Y-100832994D02*
X189010954Y-100339517D01*
X189010954Y-99185147D02*
X189010954Y-98372648D01*
%TO.N,/mcu/RUN_BUTTON*%
X199783787Y-114099740D02*
X197433897Y-111749850D01*
X198443379Y-121359974D02*
X198308722Y-121494631D01*
X197207787Y-111546624D02*
X197207787Y-111011350D01*
X197411013Y-111749850D02*
X197207787Y-111546624D01*
X198443379Y-119999530D02*
X199783787Y-118659122D01*
X198443379Y-119999530D02*
X198443379Y-121359974D01*
X199783787Y-118659122D02*
X199783787Y-114099740D01*
X197532722Y-123588873D02*
X198443379Y-124499530D01*
X197433897Y-111749850D02*
X197411013Y-111749850D01*
X198443379Y-119999530D02*
X197532722Y-120910187D01*
X197532722Y-120910187D02*
X197532722Y-123588873D01*
%TO.N,Net-(U25-INR-)*%
X213876009Y-133740449D02*
X213181139Y-133740449D01*
X217743224Y-133397959D02*
X217400734Y-133740449D01*
X217400734Y-133740449D02*
X213876009Y-133740449D01*
X213181139Y-133740449D02*
X212776009Y-134145579D01*
X212776009Y-135655449D02*
X213071009Y-135950449D01*
X217743224Y-132922959D02*
X217743224Y-133397959D01*
X212776009Y-134145579D02*
X212776009Y-135655449D01*
%TO.N,Net-(C63-Pad2)*%
X215776009Y-135950449D02*
X217001009Y-134725449D01*
X217001009Y-134725449D02*
X217481009Y-134725449D01*
%TO.N,Net-(U25-C1P)*%
X206772601Y-131790449D02*
X206301991Y-131319839D01*
X208126009Y-131790449D02*
X206772601Y-131790449D01*
%TO.N,Net-(U25-C1N)*%
X208126009Y-133090449D02*
X206522601Y-133090449D01*
X206522601Y-133090449D02*
X206301991Y-132869839D01*
%TO.N,Net-(U25-INL-)*%
X213876009Y-129840449D02*
X214188106Y-129840449D01*
X214223017Y-129875360D02*
X216318956Y-129875360D01*
X214188106Y-129840449D02*
X214223017Y-129875360D01*
X213876009Y-129840449D02*
X213876009Y-128487949D01*
%TO.N,Net-(C65-Pad2)*%
X216153981Y-128250449D02*
X216246481Y-128250449D01*
X216246481Y-128250449D02*
X217861481Y-129865449D01*
D76*
%TO.N,/FPGA/MIDI_IN*%
X191075009Y-82118449D02*
X192457009Y-83500449D01*
X192457009Y-83500449D02*
X197821009Y-83500449D01*
X198339009Y-84018449D02*
X197821009Y-83500449D01*
D77*
X199267009Y-87945256D02*
X199267009Y-84018449D01*
D76*
X199267009Y-84018449D02*
X198339009Y-84018449D01*
D77*
X202171257Y-90849504D02*
X199267009Y-87945256D01*
D76*
X197821009Y-83500449D02*
X199203009Y-82118449D01*
D75*
%TO.N,/FPGA/CODEC_CTRL.~{SS}*%
X208425868Y-108169156D02*
X207646009Y-108949015D01*
X211346009Y-108169156D02*
X208425868Y-108169156D01*
%TO.N,/FPGA/CODEC_DAC.SYS_CLK*%
X203161605Y-112719156D02*
X205621009Y-112719156D01*
X202171257Y-113709504D02*
X203161605Y-112719156D01*
%TO.N,/FPGA/SPI_MASTER.MISO*%
X188032257Y-102110504D02*
X186931257Y-101009504D01*
X191269410Y-107773850D02*
X188032257Y-104536697D01*
X191970287Y-107773850D02*
X191269410Y-107773850D01*
X188032257Y-104536697D02*
X188032257Y-102110504D01*
%TO.N,/CV inputs/CV_ADC_MCLK*%
X202171257Y-104069404D02*
X202171257Y-103549504D01*
X202171257Y-103549504D02*
X202820452Y-102900309D01*
X202820452Y-102900309D02*
X208364038Y-102900309D01*
D78*
%TO.N,Net-(U15-OUT)*%
X190360105Y-86776375D02*
X192138308Y-86776375D01*
X186931257Y-88230474D02*
X186931257Y-88309504D01*
X189647611Y-86788007D02*
X190348473Y-86788007D01*
X190348473Y-86788007D02*
X190360105Y-86776375D01*
D75*
%TO.N,/FPGA/CODEC_CTRL.~{RESET}*%
X211346009Y-115969156D02*
X211346009Y-116650449D01*
X210297009Y-121343944D02*
X210282569Y-121329504D01*
X210282569Y-121329504D02*
X202171257Y-121329504D01*
%TO.N,/FPGA/SPI_MASTER.MOSI*%
X190422608Y-109373850D02*
X191970287Y-109373850D01*
X186931257Y-113709504D02*
X186931257Y-112865201D01*
X186931257Y-112865201D02*
X190422608Y-109373850D01*
%TO.N,/FPGA/CODEC_CTRL.SCLK*%
X202171257Y-106089504D02*
X204191357Y-106089504D01*
X204191357Y-106089504D02*
X205621009Y-107519156D01*
%TO.N,/FPGA/SPI_MASTER.~{CS}*%
X191102310Y-108173850D02*
X191970287Y-108173850D01*
X186931257Y-104002797D02*
X191102310Y-108173850D01*
X186931257Y-103549504D02*
X186931257Y-104002797D01*
%TO.N,/FPGA/SPI_MASTER.SCLK*%
X191970287Y-108973850D02*
X189573898Y-108973850D01*
X189573898Y-108973850D02*
X186931257Y-106331209D01*
X186931257Y-106331209D02*
X186931257Y-106089504D01*
%TO.N,/FPGA/SPI_MASTER.~{HLD}*%
X190046009Y-111650449D02*
X190493688Y-111650449D01*
X190493688Y-111650449D02*
X191970287Y-110173850D01*
%TO.N,/FPGA/CODEC_DAC.DAC_IN*%
X205621009Y-114669156D02*
X203751605Y-114669156D01*
X203751605Y-114669156D02*
X202171257Y-116249504D01*
%TO.N,/FPGA/SPI_MASTER.~{WP}*%
X190871138Y-109773850D02*
X189070274Y-111574714D01*
X191970287Y-109773850D02*
X190871138Y-109773850D01*
%TO.N,/CV inputs/adc.~{SS}*%
X202901506Y-95199255D02*
X202171257Y-95929504D01*
X204024557Y-95199255D02*
X202901506Y-95199255D01*
%TO.N,/CV inputs/adc.SCLK*%
X208364038Y-100300309D02*
X209569503Y-100300309D01*
X204002062Y-100300309D02*
X202171257Y-98469504D01*
X209569503Y-100300309D02*
X209576877Y-100292935D01*
X208364038Y-100300309D02*
X204002062Y-100300309D01*
%TO.N,/CV inputs/adc.MOSI*%
X208304843Y-101009504D02*
X208364038Y-100950309D01*
X202171257Y-101009504D02*
X208304843Y-101009504D01*
%TO.N,/FPGA/CODEC_CTRL.MOSI*%
X202631605Y-108169156D02*
X205621009Y-108169156D01*
X202171257Y-108629504D02*
X202631605Y-108169156D01*
%TO.N,/FPGA/CODEC_ADC.SYS_CLK*%
X202571605Y-110769156D02*
X205621009Y-110769156D01*
X202171257Y-111169504D02*
X202571605Y-110769156D01*
D78*
%TO.N,Net-(D1-A)*%
X204608688Y-48324114D02*
X204559190Y-48274616D01*
X204608688Y-50609498D02*
X204608688Y-48324114D01*
%TO.N,Net-(D2-K)*%
X187836297Y-51288533D02*
X187836297Y-49805905D01*
X187836297Y-49805905D02*
X188653492Y-48988710D01*
D75*
%TO.N,Net-(D3-K)*%
X199613009Y-59761449D02*
X199143456Y-59761448D01*
X203161583Y-65513651D02*
X202349557Y-64701625D01*
X199613009Y-59761449D02*
X201108009Y-59761449D01*
X201340525Y-61718933D02*
X201330009Y-61729449D01*
X198017009Y-61836449D02*
X198246931Y-61606527D01*
X202162134Y-62540543D02*
X201340525Y-61718933D01*
X201330009Y-59983449D02*
X201330009Y-60650449D01*
X201108009Y-59761449D02*
X201330009Y-59983449D01*
X203161583Y-66390360D02*
X203161583Y-65513651D01*
X197679009Y-61836449D02*
X198017009Y-61836449D01*
X201330009Y-61729449D02*
X201330009Y-60650449D01*
X202162134Y-64656661D02*
X202162134Y-62540543D01*
X199368139Y-59761449D02*
X199613009Y-59761449D01*
D78*
%TO.N,Net-(D5-A)*%
X191456009Y-59507449D02*
X191456009Y-61481949D01*
X191456009Y-61481949D02*
X190789009Y-62148949D01*
D75*
%TO.N,Net-(D6-K)*%
X196093181Y-68309856D02*
X196353213Y-68569888D01*
X195567945Y-68309856D02*
X196093181Y-68309856D01*
X194485983Y-67227894D02*
X195567945Y-68309856D01*
X196353213Y-70509855D02*
X196052212Y-70810856D01*
D76*
X190560516Y-67330297D02*
X190566315Y-67336096D01*
X190202815Y-67330297D02*
X190560516Y-67330297D01*
D75*
X196052212Y-70810856D02*
X195389713Y-70810856D01*
X194296537Y-67227894D02*
X194485983Y-67227894D01*
X193280658Y-66585575D02*
X193654218Y-66585575D01*
X193654218Y-66585575D02*
X194296537Y-67227894D01*
X196353213Y-68569888D02*
X196353213Y-70509855D01*
D76*
%TO.N,Net-(D6-A)*%
X194296537Y-65652894D02*
X195782647Y-65652894D01*
X195782647Y-65652894D02*
X195820281Y-65615260D01*
%TO.N,Net-(D7-K)*%
X220273303Y-73018651D02*
X220325989Y-73071337D01*
X220273303Y-71522334D02*
X220273303Y-73018651D01*
D75*
%TO.N,Net-(D8-K)*%
X193369009Y-126450449D02*
X191933509Y-126450449D01*
%TO.N,Net-(D9-K)*%
X200657787Y-115461350D02*
X200657787Y-114111350D01*
%TO.N,Net-(D9-A)*%
X200407897Y-107823850D02*
X199430561Y-107823850D01*
X201133787Y-112060350D02*
X201133787Y-108549740D01*
X201133787Y-108549740D02*
X200407897Y-107823850D01*
X199430561Y-107823850D02*
X199380561Y-107773850D01*
X199380561Y-107773850D02*
X198845287Y-107773850D01*
X200657787Y-112536350D02*
X201133787Y-112060350D01*
D77*
%TO.N,Net-(D10-A)*%
X213475096Y-79551976D02*
X213475096Y-81028475D01*
X213475096Y-81028475D02*
X211664595Y-82838976D01*
X211664595Y-82838976D02*
X210927096Y-82838976D01*
X214493096Y-79551976D02*
X213475096Y-79551976D01*
X209842096Y-82838976D02*
X210927096Y-82838976D01*
X209095096Y-82091976D02*
X209842096Y-82838976D01*
%TO.N,Net-(D12-A)*%
X216652096Y-82838976D02*
X215201596Y-82838976D01*
X215201596Y-82838976D02*
X215186596Y-82853976D01*
X218001096Y-82838976D02*
X216652096Y-82838976D01*
X215821596Y-87298976D02*
X214516096Y-87298976D01*
X213498096Y-87298976D02*
X214516096Y-87298976D01*
X218494096Y-82345976D02*
X218001096Y-82838976D01*
%TO.N,/MIDI_IN_S*%
X193615009Y-74498449D02*
X193615009Y-72504449D01*
X198632009Y-71826449D02*
X199267009Y-71191449D01*
X194293009Y-71826449D02*
X198632009Y-71826449D01*
X193658009Y-72461449D02*
X194293009Y-71826449D01*
X193615009Y-72504449D02*
X193658009Y-72461449D01*
%TO.N,Net-(D14-K)*%
X198251009Y-72715449D02*
X196112009Y-72715449D01*
X195858009Y-74201449D02*
X196155009Y-74498449D01*
X195858009Y-72461449D02*
X195858009Y-74201449D01*
X197938009Y-72715449D02*
X196155009Y-74498449D01*
X198251009Y-72715449D02*
X197938009Y-72715449D01*
X196112009Y-72715449D02*
X195858009Y-72461449D01*
%TO.N,Net-(D15-A)*%
X211664595Y-92363976D02*
X213492596Y-90535975D01*
X209899596Y-92363976D02*
X210927096Y-92363976D01*
X210927096Y-92363976D02*
X211664595Y-92363976D01*
X209025596Y-91489976D02*
X209899596Y-92363976D01*
X213492596Y-90535975D02*
X213492596Y-89240976D01*
X214522596Y-89240976D02*
X213492596Y-89240976D01*
%TO.N,Net-(D17-K)*%
X204367009Y-72461449D02*
X204367009Y-74414449D01*
X204367009Y-74414449D02*
X204283009Y-74498449D01*
X200917009Y-71191449D02*
X203097009Y-71191449D01*
X203097009Y-71191449D02*
X204367009Y-72461449D01*
%TO.N,/MIDI_IN_R*%
X202167009Y-74074449D02*
X201743009Y-74498449D01*
X202167009Y-72461449D02*
X202167009Y-74074449D01*
X199960009Y-72715449D02*
X201743009Y-74498449D01*
X199901009Y-72715449D02*
X199960009Y-72715449D01*
%TO.N,Net-(D18-A)*%
X217678596Y-92363976D02*
X216652096Y-92363976D01*
X216652096Y-92363976D02*
X215201596Y-92363976D01*
X214588596Y-96696976D02*
X214551596Y-96733976D01*
X215201596Y-92363976D02*
X215186596Y-92378976D01*
X214551596Y-96733976D02*
X213535596Y-96733976D01*
X215281594Y-96696976D02*
X214588596Y-96696976D01*
X218552596Y-91489976D02*
X217678596Y-92363976D01*
D75*
%TO.N,Net-(D20-A)*%
X210771009Y-150600449D02*
X211508508Y-150600449D01*
X208983509Y-149800449D02*
X209783509Y-150600449D01*
X214141509Y-147500449D02*
X213125509Y-147500449D01*
X211508508Y-150600449D02*
X213125509Y-148983448D01*
X213125509Y-148983448D02*
X213125509Y-147500449D01*
X209783509Y-150600449D02*
X210771009Y-150600449D01*
%TO.N,/-5V_CUTOFF*%
X217472596Y-79551976D02*
X217502596Y-79581976D01*
X216693096Y-79551976D02*
X217472596Y-79551976D01*
X216989554Y-155019088D02*
X216352148Y-155019088D01*
D77*
X216716096Y-89234476D02*
X216722596Y-89240976D01*
D75*
X217495596Y-96733976D02*
X217502596Y-96726976D01*
X216682096Y-77721976D02*
X216682096Y-79540976D01*
X217089334Y-147500449D02*
X217563429Y-147026354D01*
X218174596Y-77721976D02*
X216682096Y-77721976D01*
X216716096Y-88314976D02*
X217502596Y-88314976D01*
D77*
X216716096Y-88314976D02*
X216716096Y-89234476D01*
D75*
X216682096Y-79540976D02*
X216693096Y-79551976D01*
X216341509Y-147500449D02*
X217089334Y-147500449D01*
X217784671Y-96726976D02*
X217502596Y-96726976D01*
D77*
X216716096Y-87298976D02*
X216716096Y-88314976D01*
D75*
X216352148Y-155019088D02*
X216333509Y-155000449D01*
D77*
X216722596Y-87305476D02*
X216716096Y-87298976D01*
D75*
X218391596Y-77504976D02*
X218174596Y-77721976D01*
X216751596Y-96733976D02*
X217495596Y-96733976D01*
%TO.N,Net-(D22-A)*%
X215758510Y-151900449D02*
X214133509Y-153525450D01*
X216496009Y-151900449D02*
X215758510Y-151900449D01*
X214133509Y-153525450D02*
X214133509Y-155000449D01*
X218308509Y-152800449D02*
X217408509Y-151900449D01*
X217408509Y-151900449D02*
X216496009Y-151900449D01*
X213117509Y-155000449D02*
X214133509Y-155000449D01*
D78*
%TO.N,Net-(J4-Pin_10)*%
X191219497Y-49979715D02*
X190228492Y-48988710D01*
X191219497Y-50677513D02*
X191219497Y-53217513D01*
X191219497Y-50677513D02*
X191219497Y-49979715D01*
D77*
%TO.N,/EURORACK_AUDIO_OUT_L*%
X215511493Y-145444564D02*
X215511493Y-144736346D01*
X215511493Y-144736346D02*
X215499596Y-144724449D01*
%TO.N,/EURORACK_AUDIO_IN_L*%
X223934707Y-153528233D02*
X220686293Y-153528233D01*
X220686293Y-153528233D02*
X219958509Y-152800449D01*
D75*
%TO.N,/USB_CC1*%
X199860009Y-64931449D02*
X199860009Y-65007063D01*
X199860009Y-65007063D02*
X199460623Y-65406449D01*
X187456441Y-62929629D02*
X187315285Y-62788473D01*
D77*
%TO.N,/EURORACK_AUDIO_OUT_R*%
X223934707Y-141217778D02*
X223934707Y-145908233D01*
X220586493Y-137869564D02*
X223934707Y-141217778D01*
D75*
%TO.N,/USB_CC2*%
X200260009Y-65737078D02*
X200260009Y-64931449D01*
%TO.N,/USB_D-*%
X197313539Y-99845347D02*
X197313539Y-99232698D01*
X197313539Y-99232698D02*
X196970528Y-98889687D01*
%TO.N,/USB_D+*%
X195964867Y-99625221D02*
X195964867Y-98869210D01*
X195744741Y-99845347D02*
X195964867Y-99625221D01*
D77*
%TO.N,/EURORACK_AUDIO_IN_R*%
X207690504Y-149800449D02*
X207698945Y-149792008D01*
X207333509Y-149800449D02*
X207690504Y-149800449D01*
D75*
%TO.N,/HEADPHONE_TIP*%
X216318956Y-131525360D02*
X215934045Y-131140449D01*
X222186361Y-131525360D02*
X216318956Y-131525360D01*
X215934045Y-131140449D02*
X213876009Y-131140449D01*
X223934707Y-133273706D02*
X222186361Y-131525360D01*
%TO.N,/EURORACK_CV_IN_3*%
X207375596Y-91489976D02*
X208122345Y-91489976D01*
X208122345Y-91489976D02*
X208125596Y-91493227D01*
%TO.N,/VOL_KNOB_L_VAR*%
X221806766Y-130733706D02*
X221226009Y-130152949D01*
X223934707Y-130733706D02*
X221806766Y-130733706D01*
%TO.N,/HEADPHONE_RING*%
X215610714Y-132440449D02*
X213876009Y-132440449D01*
X220443171Y-132219959D02*
X216796224Y-132219959D01*
X216093224Y-132922959D02*
X216796224Y-132219959D01*
X216093224Y-132922959D02*
X215610714Y-132440449D01*
X223934707Y-135711495D02*
X220443171Y-132219959D01*
X223934707Y-135813706D02*
X223934707Y-135711495D01*
%TO.N,/EURORACK_CV_IN_2*%
X223971009Y-82550449D02*
X220348569Y-82550449D01*
X220348569Y-82550449D02*
X220144096Y-82345976D01*
%TO.N,/VOL_KNOB_R_VAR*%
X223739267Y-138353706D02*
X220576009Y-135190448D01*
X220576009Y-135190448D02*
X220576009Y-134377949D01*
X223934707Y-138353706D02*
X223739267Y-138353706D01*
%TO.N,/EURORACK_CV_IN_1*%
X207445096Y-82091976D02*
X208194820Y-82091976D01*
X208194820Y-82091976D02*
X208195096Y-82092252D01*
%TO.N,/EURORACK_CV_IN_4*%
X223971009Y-90170449D02*
X222651482Y-91489976D01*
X222651482Y-91489976D02*
X220202596Y-91489976D01*
D78*
%TO.N,Net-(JP1-A)*%
X218728695Y-51746080D02*
X220236541Y-51746080D01*
X222230067Y-51641467D02*
X222365286Y-51776686D01*
X220274723Y-51784262D02*
X222357710Y-51784262D01*
X222357710Y-51784262D02*
X222365286Y-51776686D01*
X220236541Y-51746080D02*
X220274723Y-51784262D01*
X220157211Y-54685812D02*
X220157211Y-51901774D01*
X220157211Y-51901774D02*
X220274723Y-51784262D01*
D75*
%TO.N,/FPGA/FPGA_VDD*%
X194413308Y-84975748D02*
X194218009Y-84780449D01*
X194413308Y-86776375D02*
X194413308Y-84975748D01*
%TO.N,Net-(JP3-A)*%
X200577214Y-60411449D02*
X200593723Y-60394940D01*
X202251009Y-58999449D02*
X203521009Y-58999449D01*
X199613009Y-60411449D02*
X200577214Y-60411449D01*
X203521009Y-58999449D02*
X203616009Y-58904449D01*
%TO.N,/power/EURO_PWR_EN*%
X203648009Y-62936449D02*
X203616009Y-62904449D01*
X202718576Y-69710856D02*
X197366181Y-69710856D01*
D76*
X192477815Y-67330297D02*
X193191832Y-67330297D01*
D75*
X204700557Y-67728875D02*
X204700557Y-63932187D01*
X202718576Y-69710856D02*
X204700557Y-67728875D01*
D76*
X197366181Y-69710856D02*
X197366181Y-70512324D01*
D75*
X208240700Y-62054868D02*
X207697057Y-62054868D01*
X207697057Y-62054868D02*
X207666494Y-62085431D01*
X216591009Y-63306449D02*
X216348009Y-63063449D01*
X216591009Y-64013449D02*
X216591009Y-63306449D01*
D76*
X197366181Y-70512324D02*
X197664713Y-70810856D01*
D75*
X204700557Y-63932187D02*
X205343617Y-63289127D01*
X204700557Y-63932187D02*
X203685236Y-62916866D01*
X205343617Y-63289127D02*
X206462798Y-63289127D01*
X206462798Y-63289127D02*
X207666494Y-62085431D01*
D76*
X193191832Y-67330297D02*
X193308871Y-67447336D01*
D77*
%TO.N,/CV inputs/SCALED_CV_1*%
X209096096Y-86663976D02*
X209096096Y-87801476D01*
D75*
X211894528Y-99886835D02*
X211782395Y-99886835D01*
D77*
X209702096Y-86663976D02*
X210927096Y-85438976D01*
X209096096Y-87801476D02*
X209090596Y-87806976D01*
D75*
X214089038Y-101600309D02*
X213351539Y-101600309D01*
D77*
X212281083Y-117236829D02*
X211967238Y-117236829D01*
X211967238Y-117236829D02*
X211884641Y-117319426D01*
D75*
X209146009Y-97350449D02*
X209146009Y-97250449D01*
X209146009Y-97349034D02*
X209146009Y-97250449D01*
X213351539Y-101600309D02*
X211894528Y-100143298D01*
X211894528Y-100143298D02*
X211894528Y-99886835D01*
X211782395Y-99886835D02*
X209146009Y-97250449D01*
D77*
X209096096Y-86663976D02*
X209702096Y-86663976D01*
D78*
%TO.N,Net-(U4-SW)*%
X216101009Y-52790501D02*
X214990458Y-52790501D01*
X217157211Y-54685812D02*
X217157211Y-53846703D01*
X217157211Y-53846703D02*
X216101009Y-52790501D01*
D75*
%TO.N,Net-(U2A--)*%
X210796010Y-138400449D02*
X210883509Y-138400449D01*
D77*
X210014005Y-139050449D02*
X210883509Y-139050449D01*
X209126009Y-139938445D02*
X210014005Y-139050449D01*
X209126009Y-140445449D02*
X209126009Y-139938445D01*
D75*
X210883509Y-138400449D02*
X210883509Y-139050449D01*
%TO.N,Net-(U2B--)*%
X210883509Y-141650449D02*
X210196009Y-141650449D01*
D77*
X209126009Y-142095449D02*
X209571009Y-141650449D01*
X209126009Y-143355449D02*
X208971009Y-143510449D01*
X209571009Y-141650449D02*
X210883509Y-141650449D01*
X209126009Y-142095449D02*
X209126009Y-143355449D01*
D75*
%TO.N,/audio inputs/-CODEC_V_{COM}*%
X210621009Y-145155449D02*
X208976009Y-146800449D01*
D77*
X210621009Y-142562949D02*
X210883509Y-142300449D01*
D75*
X208225945Y-152000931D02*
X208183027Y-152000931D01*
X221287493Y-143070564D02*
X220586493Y-142369564D01*
D77*
X220940509Y-145723580D02*
X220586493Y-145369564D01*
D75*
X210621009Y-144975449D02*
X210621009Y-143510449D01*
X220570277Y-145353348D02*
X220586493Y-145369564D01*
X220586493Y-142369564D02*
X220436493Y-142369564D01*
X210621009Y-143510449D02*
X210621009Y-145155449D01*
X208183027Y-152000931D02*
X207383509Y-152800449D01*
X220586493Y-145369564D02*
X219810493Y-146145564D01*
X221287493Y-144668564D02*
X221287493Y-143070564D01*
D77*
X210621009Y-143510449D02*
X210621009Y-142562949D01*
D75*
X220586493Y-145369564D02*
X221287493Y-144668564D01*
X211791124Y-146145564D02*
X210621009Y-144975449D01*
D77*
X220940509Y-148768449D02*
X220940509Y-145723580D01*
D75*
X219810493Y-146145564D02*
X211791124Y-146145564D01*
D77*
X219908509Y-149800449D02*
X220940509Y-148768449D01*
D75*
%TO.N,/power/CC_OUT1*%
X200260009Y-63481449D02*
X200260009Y-61526510D01*
X200260009Y-61526510D02*
X199645948Y-60912449D01*
X201014796Y-63006449D02*
X200662235Y-63006449D01*
X201051634Y-62969611D02*
X201014796Y-63006449D01*
X198536009Y-59609450D02*
X198038008Y-59111449D01*
X203999557Y-64701625D02*
X203785698Y-64701625D01*
X200662235Y-63006449D02*
X200261009Y-63407675D01*
X203785698Y-64701625D02*
X203287776Y-64203703D01*
X199066009Y-60912449D02*
X198536009Y-60382449D01*
X199645948Y-60912449D02*
X199066009Y-60912449D01*
X198038008Y-59111449D02*
X197713009Y-59111449D01*
X198536009Y-60382449D02*
X198536009Y-59609450D01*
%TO.N,Net-(U6-SCL{slash}OUT2)*%
X199860009Y-63481449D02*
X199860009Y-62545449D01*
X199362009Y-62047449D02*
X199362009Y-61873075D01*
X197900383Y-60411449D02*
X197713009Y-60411449D01*
X199860009Y-62545449D02*
X199362009Y-62047449D01*
X199362009Y-61873075D02*
X197900383Y-60411449D01*
%TO.N,Net-(U17-USB_DP)*%
X196407787Y-102158393D02*
X196407787Y-104136350D01*
X195744741Y-101495347D02*
X196407787Y-102158393D01*
%TO.N,Net-(U17-USB_DM)*%
X196807787Y-101975755D02*
X197288195Y-101495347D01*
X197288195Y-101495347D02*
X197313539Y-101495347D01*
X196807787Y-104136350D02*
X196807787Y-101975755D01*
%TO.N,Net-(U17-XOUT)*%
X194749258Y-112276548D02*
X195207787Y-111818019D01*
X195207787Y-111818019D02*
X195207787Y-111011350D01*
D78*
%TO.N,Net-(R21-Pad1)*%
X195084763Y-90302648D02*
X194864865Y-90082750D01*
D75*
X194864865Y-90082750D02*
X195860763Y-91078648D01*
X195860763Y-91078648D02*
X198368967Y-91078648D01*
X198368967Y-91078648D02*
X199364865Y-90082750D01*
D78*
X196187925Y-90302648D02*
X195084763Y-90302648D01*
D75*
%TO.N,Net-(R22-Pad1)*%
X191483193Y-122155202D02*
X190707193Y-121379202D01*
X191483193Y-123459716D02*
X191483193Y-122155202D01*
X190443379Y-121115388D02*
X190707193Y-121379202D01*
X190443379Y-124499530D02*
X191483193Y-123459716D01*
X190443379Y-119999530D02*
X190443379Y-121115388D01*
D77*
%TO.N,Net-(U18B-+)*%
X209096096Y-85139976D02*
X210097096Y-84138976D01*
D75*
X209159096Y-85012976D02*
X209078096Y-85012976D01*
D77*
X210097096Y-84138976D02*
X210927096Y-84138976D01*
X208970096Y-85139976D02*
X207446096Y-86663976D01*
X209619096Y-84138976D02*
X210927096Y-84138976D01*
X209096096Y-83615976D02*
X209619096Y-84138976D01*
X209096096Y-85139976D02*
X208970096Y-85139976D01*
D75*
X209041096Y-84975976D02*
X209078096Y-85012976D01*
%TO.N,/CV inputs/CV_REF*%
X209527596Y-77721976D02*
X209310596Y-77504976D01*
X206293096Y-83986976D02*
X206293096Y-83863341D01*
X206273596Y-83882841D02*
X206273596Y-93434976D01*
X206293096Y-80522476D02*
X209310596Y-77504976D01*
X207446096Y-85139976D02*
X207782892Y-85139976D01*
X220144096Y-85393976D02*
X220144096Y-85291685D01*
X207446096Y-85139976D02*
X206293096Y-83986976D01*
X210957096Y-77721976D02*
X209527596Y-77721976D01*
X210957096Y-77721976D02*
X215051052Y-77721976D01*
X206293096Y-83863341D02*
X206293096Y-80522476D01*
X207376596Y-94537976D02*
X207474927Y-94537976D01*
X206293096Y-83863341D02*
X206273596Y-83882841D01*
X215051052Y-77721976D02*
X216082096Y-78753020D01*
X220144096Y-85291685D02*
X219319097Y-84466686D01*
X220202596Y-94537976D02*
X220202596Y-94435687D01*
X220202596Y-94435687D02*
X219377595Y-93610686D01*
X206273596Y-93434976D02*
X207376596Y-94537976D01*
X209310596Y-77504976D02*
X209310596Y-77846247D01*
D77*
%TO.N,Net-(R28-Pad1)*%
X210927096Y-81174558D02*
X210927096Y-81538976D01*
X206719096Y-81294976D02*
X206719096Y-82888976D01*
X207446096Y-80567976D02*
X206719096Y-81294976D01*
X207446096Y-80567976D02*
X208247096Y-79766976D01*
X206719096Y-82888976D02*
X207446096Y-83615976D01*
X208247096Y-79766976D02*
X209519514Y-79766976D01*
X209519514Y-79766976D02*
X210927096Y-81174558D01*
%TO.N,Net-(U18A--)*%
X209863596Y-81818202D02*
X210234370Y-82188976D01*
X210234370Y-82188976D02*
X210927096Y-82188976D01*
X209863596Y-81335476D02*
X209863596Y-81818202D01*
X209096096Y-80567976D02*
X209863596Y-81335476D01*
%TO.N,Net-(U18C-+)*%
X218494096Y-83869976D02*
X218225096Y-84138976D01*
X217714096Y-84138976D02*
X217414096Y-84138976D01*
X217714096Y-84138976D02*
X216652096Y-84138976D01*
X220018096Y-86917976D02*
X218494096Y-85393976D01*
X218494096Y-85393976D02*
X218620096Y-85393976D01*
X220144096Y-86917976D02*
X220018096Y-86917976D01*
X218494096Y-84918976D02*
X217714096Y-84138976D01*
X218225096Y-84138976D02*
X217714096Y-84138976D01*
X218494096Y-85393976D02*
X218494096Y-84918976D01*
D75*
%TO.N,/CV inputs/SCALED_CV_2*%
X214764660Y-100950309D02*
X217963781Y-97751188D01*
D77*
X218131096Y-86917976D02*
X216652096Y-85438976D01*
X218494096Y-86917976D02*
X218131096Y-86917976D01*
D75*
X214089038Y-100950309D02*
X214764660Y-100950309D01*
D77*
X218494096Y-88106482D02*
X218520853Y-88133239D01*
X218494096Y-86917976D02*
X218494096Y-88106482D01*
D75*
X217963781Y-97751188D02*
X218520853Y-97751188D01*
D77*
%TO.N,Net-(R36-Pad1)*%
X219220096Y-82945976D02*
X219220096Y-81745976D01*
X216652096Y-81338977D02*
X216652096Y-81538976D01*
X217970097Y-80020976D02*
X216652096Y-81338977D01*
X219220096Y-81745976D02*
X220144096Y-80821976D01*
X220144096Y-83869976D02*
X219220096Y-82945976D01*
X219343096Y-80020976D02*
X217970097Y-80020976D01*
X220144096Y-80821976D02*
X219343096Y-80020976D01*
%TO.N,Net-(U18D--)*%
X218494096Y-80821976D02*
X218494096Y-81039702D01*
X217344822Y-82188976D02*
X216652096Y-82188976D01*
X218494096Y-81039702D02*
X217344822Y-82188976D01*
%TO.N,Net-(U21B-+)*%
X209676596Y-93663976D02*
X210927096Y-93663976D01*
X209900596Y-93663976D02*
X209026596Y-94537976D01*
X210927096Y-93663976D02*
X209900596Y-93663976D01*
X207376596Y-96061976D02*
X207502596Y-96061976D01*
X207502596Y-96061976D02*
X209026596Y-94537976D01*
X209026596Y-93013976D02*
X209676596Y-93663976D01*
%TO.N,/CV inputs/SCALED_CV_3*%
X210927096Y-94963976D02*
X210124596Y-94963976D01*
D75*
X211886596Y-98755237D02*
X211886596Y-95923476D01*
X214089038Y-100300309D02*
X213431668Y-100300309D01*
X214089038Y-100300309D02*
X214089038Y-100271417D01*
X213431668Y-100300309D02*
X211886596Y-98755237D01*
X214086675Y-100269054D02*
X214089038Y-100271417D01*
D77*
X210124596Y-94963976D02*
X209026596Y-96061976D01*
D75*
X211886596Y-95923476D02*
X210927096Y-94963976D01*
%TO.N,/CV inputs/adc.MISO*%
X209526737Y-101600309D02*
X209576877Y-101650449D01*
X208364038Y-101600309D02*
X209526737Y-101600309D01*
D77*
%TO.N,Net-(R45-Pad1)*%
X210927096Y-91063976D02*
X210927096Y-90643058D01*
D75*
X207376596Y-93013976D02*
X206674596Y-92311976D01*
D77*
X208176596Y-89164976D02*
X207375596Y-89965976D01*
X209449014Y-89164976D02*
X208176596Y-89164976D01*
D75*
X206674596Y-90666976D02*
X207375596Y-89965976D01*
X206674596Y-92311976D02*
X206674596Y-90666976D01*
D77*
X210927096Y-90643058D02*
X209449014Y-89164976D01*
%TO.N,Net-(U21A--)*%
X210234370Y-91713976D02*
X210927096Y-91713976D01*
X209751596Y-91231202D02*
X210234370Y-91713976D01*
X209751596Y-90691976D02*
X209751596Y-91231202D01*
X209025596Y-89965976D02*
X209751596Y-90691976D01*
%TO.N,Net-(U21C-+)*%
X218552596Y-94537976D02*
X217678596Y-93663976D01*
X217902596Y-93663976D02*
X217103096Y-93663976D01*
X220076596Y-96061976D02*
X218552596Y-94537976D01*
X220202596Y-96061976D02*
X220076596Y-96061976D01*
X217678596Y-93663976D02*
X217902596Y-93663976D01*
X217902596Y-93663976D02*
X218552596Y-93013976D01*
%TO.N,/CV inputs/SCALED_CV_4*%
X216652096Y-94963976D02*
X215907594Y-95708478D01*
X215907594Y-95708478D02*
X215907594Y-98569252D01*
X218552596Y-96061976D02*
X217750096Y-96061976D01*
X217750096Y-96061976D02*
X216652096Y-94963976D01*
X214826537Y-99650309D02*
X214089038Y-99650309D01*
X215907594Y-98569252D02*
X214826537Y-99650309D01*
%TO.N,Net-(R54-Pad1)*%
X216652096Y-91063976D02*
X216652096Y-90605058D01*
X219476596Y-90654976D02*
X220202596Y-89928976D01*
X218129178Y-89127976D02*
X219401596Y-89127976D01*
X219401596Y-89127976D02*
X220202596Y-89928976D01*
X219476596Y-92287976D02*
X219476596Y-90654976D01*
X220202596Y-93013976D02*
X219476596Y-92287976D01*
X216652096Y-90605058D02*
X218129178Y-89127976D01*
%TO.N,Net-(U21D--)*%
X217826596Y-90654976D02*
X217826596Y-91232202D01*
X217826596Y-91232202D02*
X217344822Y-91713976D01*
X218552596Y-89928976D02*
X217826596Y-90654976D01*
X217344822Y-91713976D02*
X216652096Y-91713976D01*
D75*
%TO.N,Net-(U23B--)*%
X208883509Y-152800449D02*
X207383509Y-154300449D01*
X208933509Y-152800449D02*
X208883509Y-152800449D01*
X208933509Y-151350449D02*
X208983509Y-151300449D01*
X208933509Y-152800449D02*
X208933509Y-151350449D01*
X210771009Y-152550449D02*
X209183509Y-152550449D01*
X209183509Y-152550449D02*
X208933509Y-152800449D01*
%TO.N,Net-(U2C-+)*%
X217647009Y-141301450D02*
X217346008Y-141000449D01*
X218936493Y-145369564D02*
X218586493Y-145369564D01*
X217647009Y-143159048D02*
X217647009Y-141301450D01*
X218586493Y-145369564D02*
X217011493Y-143794564D01*
X217346008Y-141000449D02*
X216608509Y-141000449D01*
X217011493Y-143794564D02*
X217647009Y-143159048D01*
X219261493Y-145369564D02*
X219161493Y-145369564D01*
%TO.N,Net-(U2D-+)*%
X217346008Y-139700449D02*
X216608509Y-139700449D01*
X218936493Y-142369564D02*
X218235493Y-141668564D01*
X218936493Y-143869564D02*
X218936493Y-142369564D01*
X218235493Y-140589934D02*
X217346008Y-139700449D01*
X218235493Y-141668564D02*
X218235493Y-140589934D01*
%TO.N,Net-(R61-Pad1)*%
X210771009Y-148898885D02*
X209372573Y-147500449D01*
X208133509Y-147500449D02*
X207333509Y-148300449D01*
X206271360Y-150238300D02*
X207333509Y-151300449D01*
X206271360Y-149362598D02*
X206271360Y-150238300D01*
X210771009Y-149300449D02*
X210771009Y-148898885D01*
X207333509Y-148300449D02*
X206271360Y-149362598D01*
X209372573Y-147500449D02*
X208133509Y-147500449D01*
%TO.N,/audio outputs/V_{IN}L*%
X217132429Y-145323628D02*
X217011493Y-145444564D01*
X216805274Y-117459714D02*
X216805274Y-117971184D01*
X221793693Y-122959603D02*
X216805274Y-117971184D01*
X217011493Y-145444564D02*
X217011493Y-144700048D01*
X217011493Y-144700048D02*
X217006009Y-144694564D01*
X211346009Y-112719156D02*
X212064716Y-112719156D01*
X223187938Y-122959603D02*
X221793693Y-122959603D01*
X212064716Y-112719156D02*
X216805274Y-117459714D01*
%TO.N,/audio outputs/V_{IN}R*%
X221073227Y-125084137D02*
X221073227Y-124687667D01*
X219861493Y-121875933D02*
X219861493Y-123475933D01*
X221073227Y-124687667D02*
X219861493Y-123475933D01*
X211346009Y-114019156D02*
X212004716Y-114019156D01*
X212004716Y-114019156D02*
X219861493Y-121875933D01*
X220490669Y-143773740D02*
X220586493Y-143869564D01*
X219861493Y-143773740D02*
X220490669Y-143773740D01*
%TO.N,Net-(U23A--)*%
X208983509Y-148300449D02*
X209732509Y-149049449D01*
X209732509Y-149049449D02*
X209732509Y-149649448D01*
X209732509Y-149649448D02*
X210033510Y-149950449D01*
X210033510Y-149950449D02*
X210771009Y-149950449D01*
%TO.N,Net-(U2C--)*%
X215755608Y-141650449D02*
X216608509Y-141650449D01*
X214011493Y-143794564D02*
X214011493Y-143394564D01*
X212511493Y-143794564D02*
X214011493Y-143794564D01*
X214011493Y-143394564D02*
X215755608Y-141650449D01*
%TO.N,Net-(U2D--)*%
X219261493Y-139369564D02*
X218942378Y-139050449D01*
X219261493Y-140869564D02*
X219261493Y-139369564D01*
X218617378Y-139050449D02*
X216608509Y-139050449D01*
X218936493Y-139369564D02*
X218617378Y-139050449D01*
%TO.N,Net-(U23D--)*%
X218358509Y-151300449D02*
X218358509Y-149800449D01*
X216496009Y-149950449D02*
X218258509Y-149950449D01*
X218258509Y-149950449D02*
X219908509Y-148300449D01*
%TO.N,Net-(R76-Pad1)*%
X219908509Y-151300449D02*
X219257509Y-151951449D01*
X216496009Y-153200449D02*
X216496009Y-153677013D01*
X216496009Y-153677013D02*
X217895445Y-155076449D01*
X219182509Y-155076449D02*
X219958509Y-154300449D01*
X219257509Y-151951449D02*
X219257509Y-153599449D01*
X217895445Y-155076449D02*
X219182509Y-155076449D01*
X219257509Y-153599449D02*
X219958509Y-154300449D01*
%TO.N,Net-(U23C--)*%
X217233508Y-152550449D02*
X216496009Y-152550449D01*
X217534509Y-153526449D02*
X217534509Y-152851450D01*
X218308509Y-154300449D02*
X217534509Y-153526449D01*
X217534509Y-152851450D02*
X217233508Y-152550449D01*
%TO.N,Net-(R80-Pad1)*%
X218761009Y-136375449D02*
X218866009Y-136270449D01*
X217481009Y-136375449D02*
X218761009Y-136375449D01*
X219276009Y-134377949D02*
X219276009Y-135860449D01*
X219276009Y-135860449D02*
X218866009Y-136270449D01*
%TO.N,Net-(U24A--)*%
X220516009Y-136270449D02*
X219926009Y-135680449D01*
X219926009Y-135680449D02*
X219926009Y-134377949D01*
%TO.N,Net-(R83-Pad1)*%
X219826481Y-130053421D02*
X219926009Y-130152949D01*
X219701481Y-128215449D02*
X219826481Y-128340449D01*
X217861481Y-128215449D02*
X219701481Y-128215449D01*
X219826481Y-128340449D02*
X219826481Y-130053421D01*
%TO.N,Net-(U24B--)*%
X220576009Y-130152949D02*
X220576009Y-129240921D01*
X220576009Y-129240921D02*
X221476481Y-128340449D01*
%TO.N,/mcu/SWCLK*%
X196407787Y-111728622D02*
X196207788Y-111928621D01*
X196407787Y-111011350D02*
X196407787Y-111728622D01*
%TO.N,/mcu/SWD*%
X196807787Y-111983650D02*
X197062120Y-112237983D01*
X196807787Y-111011350D02*
X196807787Y-111983650D01*
%TO.N,/FPGA/CODEC_ADC.ADC_OUT*%
X206648916Y-108819156D02*
X205621009Y-108819156D01*
X210229509Y-117933949D02*
X210463509Y-118167949D01*
X210229509Y-112399749D02*
X210229509Y-117933949D01*
X210463509Y-118167949D02*
X210463509Y-119112949D01*
X210229509Y-112399749D02*
X206648916Y-108819156D01*
%TO.N,/FPGA/CODEC_ADC.LR_CLK*%
X206731816Y-109469156D02*
X205621009Y-109469156D01*
X209828509Y-112565849D02*
X209828509Y-119112949D01*
X209828509Y-112565849D02*
X206731816Y-109469156D01*
%TO.N,/FPGA/CODEC_ADC.BIT_CLK*%
X209193509Y-119112949D02*
X209193509Y-112497949D01*
X209193509Y-112497949D02*
X206814716Y-110119156D01*
X206814716Y-110119156D02*
X205621009Y-110119156D01*
%TO.N,/FPGA/CODEC_DAC.BIT_CLK*%
X208558509Y-115569157D02*
X206358508Y-113369156D01*
X208558509Y-119112949D02*
X208558509Y-115569157D01*
X206358508Y-113369156D02*
X205621009Y-113369156D01*
%TO.N,/FPGA/CODEC_DAC.LR_CLK*%
X207923509Y-119112949D02*
X207923509Y-115584157D01*
X206358508Y-114019156D02*
X205621009Y-114019156D01*
X207923509Y-115584157D02*
X206358508Y-114019156D01*
%TO.N,Net-(U16-DI{slash}IO_{0})*%
X192810931Y-92020170D02*
X192820954Y-92010147D01*
X192150954Y-101281538D02*
X192150954Y-100365957D01*
X194007787Y-104136350D02*
X194007787Y-103138371D01*
X194007787Y-103138371D02*
X192150954Y-101281538D01*
X192810931Y-93461463D02*
X192810931Y-92020170D01*
%TO.N,Net-(U16-DO{slash}IO_{1})*%
X190280954Y-100625784D02*
X190280954Y-99185147D01*
X193207787Y-103552617D02*
X190280954Y-100625784D01*
X193207787Y-104136350D02*
X193207787Y-103552617D01*
%TO.N,Net-(U16-~{HOLD}{slash}~{RESET}{slash}IO_{3})*%
X194807787Y-103268510D02*
X195007787Y-103068510D01*
X194807787Y-104136350D02*
X194807787Y-103268510D01*
X190280954Y-93214472D02*
X190394308Y-93327826D01*
X190280954Y-92010147D02*
X190280954Y-93214472D01*
%TO.N,Net-(U16-CLK)*%
X194407787Y-102969751D02*
X192750954Y-101312918D01*
X191513669Y-93398586D02*
X191513669Y-92047432D01*
X191513669Y-92047432D02*
X191550954Y-92010147D01*
X192750954Y-101312918D02*
X192750954Y-100987675D01*
X194407787Y-104136350D02*
X194407787Y-102969751D01*
%TO.N,Net-(U16-~{WP}{slash}IO_{2})*%
X193607787Y-103349454D02*
X191550954Y-101292621D01*
X191550954Y-101292621D02*
X191550954Y-99185147D01*
X193607787Y-104136350D02*
X193607787Y-103349454D01*
D76*
%TO.N,/audio outputs/HEADPHONE_AMP_HEATSINK*%
X209376009Y-133740449D02*
X211001009Y-132115449D01*
X211326009Y-131790449D02*
X211001009Y-132115449D01*
X213876009Y-131790449D02*
X211326009Y-131790449D01*
X208126009Y-133740449D02*
X209376009Y-133740449D01*
D77*
X206315783Y-134325449D02*
X206900783Y-133740449D01*
X206900783Y-133740449D02*
X208126009Y-133740449D01*
D76*
%TO.N,/power/USB_VBUS_protected*%
X195790009Y-62936449D02*
X195790009Y-59841449D01*
X195790009Y-62936449D02*
X196579009Y-62936449D01*
X205668390Y-62183535D02*
X205766494Y-62085431D01*
D75*
X201511698Y-64406449D02*
X200885009Y-64406449D01*
X201602854Y-64497605D02*
X201511698Y-64406449D01*
D76*
X196579009Y-62936449D02*
X197679009Y-64036449D01*
D75*
X201602854Y-66360476D02*
X201602854Y-64497605D01*
X198563129Y-65756292D02*
X198563129Y-64920569D01*
D76*
X195790009Y-62936449D02*
X197885459Y-62936449D01*
D78*
X192730313Y-65430297D02*
X192477815Y-65430297D01*
D75*
X198563129Y-64920569D02*
X198449009Y-64806449D01*
X207253145Y-60429952D02*
X207253145Y-60598780D01*
X207253145Y-60598780D02*
X205766494Y-62085431D01*
D76*
X195790009Y-59841449D02*
X195456009Y-59507449D01*
X194144009Y-64582449D02*
X193325663Y-64582449D01*
D75*
X201639509Y-66400857D02*
X199207694Y-66400857D01*
X199235009Y-64806449D02*
X198449009Y-64806449D01*
D76*
X205048876Y-62183535D02*
X205668390Y-62183535D01*
X193325663Y-64582449D02*
X192477815Y-65430297D01*
X195790009Y-62936449D02*
X194144009Y-64582449D01*
D75*
X198449009Y-64806449D02*
X197679009Y-64036449D01*
X199207694Y-66400857D02*
X198563129Y-65756292D01*
D76*
X197885459Y-62936449D02*
X198438703Y-62383205D01*
D75*
%TO.N,Net-(R34-Pad2)*%
X215511493Y-143794564D02*
X215511493Y-143397465D01*
X215511493Y-143397465D02*
X216608509Y-142300449D01*
X214011493Y-145444564D02*
X214011493Y-145294564D01*
X214011493Y-145294564D02*
X215511493Y-143794564D01*
%TO.N,Net-(R58-Pad2)*%
X218936493Y-137869564D02*
X219086493Y-137869564D01*
X219086493Y-137869564D02*
X220586493Y-139369564D01*
X217139394Y-137869564D02*
X218936493Y-137869564D01*
X217139394Y-137869564D02*
X216608509Y-138400449D01*
%TO.N,Net-(U1C--)*%
X219256564Y-76719944D02*
X217987564Y-76719944D01*
X217635532Y-77071976D02*
X217987564Y-76719944D01*
X220041596Y-77504976D02*
X219256564Y-76719944D01*
X216682096Y-77071976D02*
X217635532Y-77071976D01*
X217987564Y-76719944D02*
X218391596Y-76315912D01*
%TO.N,Net-(U1B--)*%
X210299726Y-77071976D02*
X209310596Y-76082846D01*
X209183596Y-75980976D02*
X209057596Y-75980976D01*
X209310596Y-76082846D02*
X209310596Y-75980976D01*
X210957096Y-77071976D02*
X210299726Y-77071976D01*
X209310596Y-74456976D02*
X209310596Y-75980976D01*
X207786596Y-77504976D02*
X209310596Y-75980976D01*
%TO.N,/FPGA/BLKD_CODEC_DAC_LR_CLK*%
X196095405Y-128949504D02*
X186931257Y-128949504D01*
X207288509Y-124387949D02*
X206705954Y-124970504D01*
X206705954Y-124970504D02*
X200074405Y-124970504D01*
X200074405Y-124970504D02*
X196095405Y-128949504D01*
%TO.N,Net-(D8-A)*%
X189512202Y-126450449D02*
X186931257Y-123869504D01*
X190358509Y-126450449D02*
X189512202Y-126450449D01*
%TO.N,/FPGA/BLKD_ADC_IN_1*%
X211732067Y-122958874D02*
X211732067Y-122986507D01*
X211499506Y-122753946D02*
X201218879Y-122753946D01*
X211732067Y-124386507D02*
X211733509Y-124387949D01*
X201218879Y-122753946D02*
X199876604Y-121411671D01*
X211732067Y-122986507D02*
X211732067Y-124386507D01*
X211732067Y-122986507D02*
X211499506Y-122753946D01*
%TO.N,Net-(U14-D_{4})*%
X209193509Y-124387949D02*
X209193509Y-125615449D01*
X209193509Y-125615449D02*
X205859454Y-128949504D01*
X205859454Y-128949504D02*
X202171257Y-128949504D01*
%TO.N,/FPGA/PSRAM_~{CE}*%
X202171257Y-134029504D02*
X200832202Y-132690449D01*
X200832202Y-132690449D02*
X192671009Y-132690449D01*
%TO.N,Net-(U14-D_{5})*%
X208558509Y-125403319D02*
X208558509Y-124387949D01*
X202171257Y-126409504D02*
X207552324Y-126409504D01*
X207552324Y-126409504D02*
X208558509Y-125403319D01*
%TO.N,Net-(U14-D_{3})*%
X204492256Y-131489504D02*
X202171257Y-131489504D01*
X209828509Y-124387949D02*
X209828509Y-126153251D01*
X209828509Y-126153251D02*
X204492256Y-131489504D01*
%TO.N,/CV inputs/FPGA_SHTDWN*%
X204024557Y-93685754D02*
X202627307Y-92288504D01*
X202627307Y-92288504D02*
X201356083Y-92288504D01*
X212368509Y-124387949D02*
X212368509Y-125602949D01*
X199658104Y-106973850D02*
X199679619Y-106952335D01*
X212368509Y-122177949D02*
X210419064Y-120228504D01*
X201356083Y-92288504D02*
X201303963Y-92340624D01*
X200974064Y-120228504D02*
X200896009Y-120150449D01*
X212368509Y-124387949D02*
X212368509Y-122177949D01*
X210419064Y-120228504D02*
X200974064Y-120228504D01*
X192526009Y-131160449D02*
X192526009Y-131895449D01*
X212368509Y-125602949D02*
X211621009Y-126350449D01*
X195688083Y-88676375D02*
X197425009Y-86939449D01*
X198845287Y-106973850D02*
X199658104Y-106973850D01*
X194413308Y-88676375D02*
X195688083Y-88676375D01*
X192526009Y-131895449D02*
X192671009Y-132040449D01*
X204024557Y-94549255D02*
X204024557Y-93685754D01*
%TO.N,Net-(U14-D_{6})*%
X207923509Y-124387949D02*
X207923509Y-123640579D01*
X207923509Y-123640579D02*
X207557379Y-123274449D01*
X202766312Y-123274449D02*
X202171257Y-123869504D01*
X207557379Y-123274449D02*
X202766312Y-123274449D01*
%TO.N,/CV inputs/~{SS}*%
X207626539Y-99650309D02*
X207146009Y-99169779D01*
X208364038Y-99650309D02*
X207626539Y-99650309D01*
X207146009Y-97195707D02*
X205799557Y-95849255D01*
X207146009Y-99169779D02*
X207146009Y-97195707D01*
%TO.N,/VOL_KNOB_L_FIXED*%
X223934707Y-125653706D02*
X223934707Y-123862834D01*
X223934707Y-123862834D02*
X224837938Y-122959603D01*
%TO.N,/VOL_KNOB_R_FIXED*%
X222475138Y-126734137D02*
X221073227Y-126734137D01*
X223934707Y-128193706D02*
X222475138Y-126734137D01*
D77*
%TO.N,/CV inputs/RAW_SCALED_CV_1*%
X213531083Y-117236829D02*
X212368509Y-118399403D01*
X213931083Y-117236829D02*
X213531083Y-117236829D01*
X212368509Y-118399403D02*
X212368509Y-119112949D01*
%TD*%
D80*
%TO.C,b_up2*%
X191443379Y-123519530D02*
X191443379Y-120979530D01*
X197443379Y-119249530D02*
X191443379Y-119249530D01*
X197443379Y-123519530D02*
X197443379Y-120979530D01*
X197443379Y-125249530D02*
X191443379Y-125249530D01*
X192923379Y-124219530D02*
G75*
G02*
X191783379Y-124219530I-570000J0D01*
G01*
X191783379Y-124219530D02*
G75*
G02*
X192923379Y-124219530I570000J0D01*
G01*
X192983379Y-120219530D02*
G75*
G02*
X191843379Y-120219530I-570000J0D01*
G01*
X191843379Y-120219530D02*
G75*
G02*
X192983379Y-120219530I570000J0D01*
G01*
X196153379Y-122249530D02*
G75*
G02*
X192733379Y-122249530I-1710000J0D01*
G01*
X192733379Y-122249530D02*
G75*
G02*
X196153379Y-122249530I1710000J0D01*
G01*
X196983379Y-120159530D02*
G75*
G02*
X195843379Y-120159530I-570000J0D01*
G01*
X195843379Y-120159530D02*
G75*
G02*
X196983379Y-120159530I570000J0D01*
G01*
X197043379Y-124279530D02*
G75*
G02*
X195903379Y-124279530I-570000J0D01*
G01*
X195903379Y-124279530D02*
G75*
G02*
X197043379Y-124279530I570000J0D01*
G01*
%TO.C,b_up1*%
X194114865Y-97082750D02*
X194114865Y-91082750D01*
X195844865Y-91082750D02*
X198384865Y-91082750D01*
X195844865Y-97082750D02*
X198384865Y-97082750D01*
X200114865Y-97082750D02*
X200114865Y-91082750D01*
X195654865Y-96112750D02*
G75*
G02*
X194514865Y-96112750I-570000J0D01*
G01*
X194514865Y-96112750D02*
G75*
G02*
X195654865Y-96112750I570000J0D01*
G01*
X195714865Y-91992750D02*
G75*
G02*
X194574865Y-91992750I-570000J0D01*
G01*
X194574865Y-91992750D02*
G75*
G02*
X195714865Y-91992750I570000J0D01*
G01*
X198824865Y-94082750D02*
G75*
G02*
X195404865Y-94082750I-1710000J0D01*
G01*
X195404865Y-94082750D02*
G75*
G02*
X198824865Y-94082750I1710000J0D01*
G01*
X199714865Y-92052750D02*
G75*
G02*
X198574865Y-92052750I-570000J0D01*
G01*
X198574865Y-92052750D02*
G75*
G02*
X199714865Y-92052750I570000J0D01*
G01*
X199774865Y-96052750D02*
G75*
G02*
X198634865Y-96052750I-570000J0D01*
G01*
X198634865Y-96052750D02*
G75*
G02*
X199774865Y-96052750I570000J0D01*
G01*
%TD*%
M02*
