M48
; DRILL file {KiCad 9.0.7} date 2026-03-17T19:40:15-0500
; FORMAT={-:-/ absolute / metric / decimal}
; #@! TF.CreationDate,2026-03-17T19:40:15-05:00
; #@! TF.GenerationSoftware,Kicad,Pcbnew,9.0.7
; #@! TF.FileFunction,Plated,1,4,PTH
FMAT,2
METRIC
; #@! TA.AperFunction,Plated,PTH,ViaDrill
T1C0.300
; #@! TA.AperFunction,Plated,PTH,ComponentDrill
T2C0.800
; #@! TA.AperFunction,Plated,PTH,ComponentDrill
T3C1.000
%
G90
G05
T1
X187.513Y-89.511
X188.191Y-56.966
X188.232Y-106.223
X188.746Y-103.566
X189.038Y-65.855
X189.07Y-111.575
X189.648Y-86.788
X189.672Y-123.075
X189.805Y-63.698
X190.046Y-111.65
X190.394Y-93.328
X190.566Y-67.336
X190.836Y-88.334
X191.165Y-87.638
X191.514Y-93.399
X191.896Y-139.532
X192.151Y-100.366
X192.211Y-69.084
X192.526Y-131.16
X192.665Y-134.124
X192.751Y-100.988
X192.811Y-93.461
X193.221Y-105.358
X193.281Y-66.586
X193.309Y-67.447
X193.648Y-98.955
X193.78Y-117.361
X193.98Y-62.958
X194.414Y-110.289
X194.513Y-115.101
X194.608Y-106.774
X194.608Y-108.374
X194.969Y-137.503
X195.008Y-103.069
X195.055Y-102.268
X195.791Y-87.244
X195.808Y-105.073
X195.965Y-98.869
X195.992Y-132.037
X196.081Y-126.422
X196.208Y-106.774
X196.208Y-108.374
X196.208Y-111.929
X196.763Y-68.047
X196.845Y-64.281
X196.869Y-142.059
X196.88Y-117.361
X196.971Y-98.89
X197.062Y-112.238
X197.175Y-59.71
X197.366Y-69.711
X197.425Y-86.939
X197.846Y-89.364
X198.247Y-61.607
X198.288Y-99.084
X198.307Y-113.968
X198.439Y-62.383
X198.505Y-64.044
X198.525Y-66.541
X199.143Y-59.761
X199.367Y-102.414
X199.427Y-123.075
X199.441Y-103.985
X199.461Y-65.406
X199.68Y-106.952
X199.759Y-111.322
X199.877Y-121.412
X200.195Y-56.039
X200.245Y-135.012
X200.254Y-136.56
X200.26Y-65.737
X200.274Y-58.45
X200.495Y-98.539
X200.594Y-60.395
X200.771Y-138.984
X200.896Y-120.15
X200.984Y-65.397
X201.052Y-62.97
X201.27Y-107.797
X201.304Y-92.341
X201.423Y-117.817
X201.638Y-68.937
X202.251Y-58.999
X202.591Y-99.738
X202.747Y-68.937
X203.288Y-64.204
X204.022Y-104.154
X204.024Y-105.563
X204.029Y-96.892
X204.388Y-112.064
X204.867Y-61.017
X205.049Y-59.656
X205.049Y-62.184
X205.246Y-69.55
X205.255Y-135.847
X205.806Y-94.15
X206.09Y-57.151
X206.495Y-119.107
X206.831Y-54.82
X206.971Y-106.992
X207.046Y-111.45
X207.162Y-63.391
X207.268Y-57.221
X207.353Y-71.064
X207.585Y-56.205
X207.645Y-73.377
X207.646Y-108.949
X207.699Y-149.792
X207.81Y-50.911
X207.94Y-105.904
X208.117Y-135.163
X208.126Y-91.493
X208.16Y-128.852
X208.195Y-82.092
X208.226Y-152.001
X208.241Y-62.055
X208.929Y-132.479
X208.971Y-48.069
X208.976Y-146.8
X209.091Y-87.807
X209.146Y-97.25
X209.456Y-128.612
X209.576Y-98.629
X209.577Y-100.293
X209.577Y-101.65
X209.623Y-103.549
X210.05Y-110.079
X210.198Y-59.517
X210.297Y-121.344
X210.361Y-79.552
X210.361Y-88.315
X210.361Y-96.697
X210.429Y-125.65
X210.429Y-125.65
X210.673Y-62.839
X210.727Y-68.941
X210.758Y-115.342
X211.043Y-65.784
X211.046Y-117.85
X211.268Y-49.855
X211.346Y-116.65
X211.366Y-111.03
X211.391Y-71.577
X211.734Y-147.5
X211.734Y-155.0
X211.753Y-51.203
X211.763Y-47.938
X211.772Y-53.021
X211.85Y-55.564
X211.885Y-117.319
X211.895Y-99.887
X212.179Y-141.026
X212.259Y-75.108
X212.286Y-151.972
X212.34Y-52.156
X212.377Y-151.25
X212.393Y-84.759
X212.393Y-94.284
X212.401Y-153.192
X212.423Y-76.362
X212.526Y-112.08
X212.528Y-144.622
X212.532Y-139.705
X212.885Y-66.257
X212.972Y-51.212
X212.972Y-53.095
X213.282Y-83.489
X213.282Y-93.014
X213.282Y-140.32
X213.312Y-75.137
X214.201Y-75.772
X214.298Y-83.489
X214.298Y-93.014
X214.298Y-140.262
X214.301Y-148.767
X214.975Y-104.878
X215.048Y-124.922
X215.176Y-130.54
X215.176Y-133.04
X215.187Y-82.854
X215.187Y-84.759
X215.187Y-92.379
X215.187Y-94.284
X215.217Y-76.362
X215.256Y-151.267
X215.271Y-74.489
X215.282Y-96.697
X215.332Y-63.063
X215.336Y-102.927
X215.5Y-144.724
X215.822Y-87.299
X215.973Y-105.612
X216.082Y-78.753
X216.112Y-59.761
X216.129Y-70.815
X216.348Y-63.063
X216.432Y-49.812
X216.742Y-107.955
X216.805Y-117.971
X216.99Y-155.019
X217.006Y-144.695
X217.031Y-113.365
X217.047Y-109.765
X217.503Y-79.582
X217.503Y-88.315
X217.503Y-96.727
X217.563Y-147.026
X217.616Y-150.567
X217.625Y-59.741
X217.863Y-74.768
X218.521Y-88.133
X218.521Y-97.751
X218.537Y-146.931
X218.692Y-110.709
X218.839Y-74.349
X219.011Y-48.366
X219.142Y-58.11
X219.231Y-102.549
X219.319Y-84.467
X219.378Y-93.611
X219.417Y-99.453
X219.861Y-123.476
X219.861Y-143.774
X219.912Y-112.612
X220.192Y-114.91
X220.539Y-61.031
X221.428Y-58.11
X221.45Y-140.815
X221.903Y-134.427
X222.405Y-69.891
X222.43Y-68.727
X222.481Y-67.411
X224.476Y-50.871
X224.476Y-57.729
T2
X186.931Y-88.31
X186.931Y-90.85
X186.931Y-93.39
X186.931Y-95.93
X186.931Y-98.47
X186.931Y-101.01
X186.931Y-103.55
X186.931Y-106.09
X186.931Y-108.63
X186.931Y-111.17
X186.931Y-113.71
X186.931Y-116.25
X186.931Y-118.79
X186.931Y-121.33
X186.931Y-123.87
X186.931Y-126.41
X186.931Y-128.95
X186.931Y-131.49
X186.931Y-134.03
X186.931Y-136.57
X186.931Y-139.11
X186.931Y-141.65
X186.931Y-144.19
X186.931Y-146.73
X191.062Y-74.52
X191.062Y-82.14
X193.602Y-74.52
X193.602Y-82.14
X196.142Y-74.52
X196.142Y-82.14
X199.203Y-74.498
X199.203Y-82.118
X201.743Y-74.498
X201.743Y-82.118
X202.171Y-88.31
X202.171Y-90.85
X202.171Y-93.39
X202.171Y-95.93
X202.171Y-98.47
X202.171Y-101.01
X202.171Y-103.55
X202.171Y-106.09
X202.171Y-108.63
X202.171Y-111.17
X202.171Y-113.71
X202.171Y-116.25
X202.171Y-118.79
X202.171Y-121.33
X202.171Y-123.87
X202.171Y-126.41
X202.171Y-128.95
X202.171Y-131.49
X202.171Y-134.03
X202.171Y-136.57
X202.171Y-139.11
X202.171Y-141.65
X202.171Y-144.19
X202.171Y-146.73
X204.283Y-74.498
X204.283Y-82.118
T3
X187.315Y-60.248
X187.315Y-62.788
X187.315Y-65.328
X187.315Y-67.868
X187.315Y-70.408
X187.315Y-72.948
X187.315Y-75.488
X187.315Y-78.028
X187.315Y-80.568
X187.315Y-83.108
X187.315Y-85.648
X191.219Y-50.678
X191.219Y-53.218
X193.759Y-50.678
X193.759Y-53.218
X196.299Y-50.678
X196.299Y-53.218
X198.839Y-50.678
X198.839Y-53.218
X201.379Y-50.678
X201.379Y-53.218
X223.935Y-80.01
X223.935Y-82.55
X223.935Y-85.09
X223.935Y-87.63
X223.935Y-90.17
X223.935Y-92.71
X223.935Y-125.654
X223.935Y-128.194
X223.935Y-130.734
X223.935Y-133.274
X223.935Y-135.814
X223.935Y-138.354
X223.935Y-145.908
X223.935Y-148.448
X223.935Y-150.988
X223.935Y-153.528
M30
