%TF.GenerationSoftware,KiCad,Pcbnew,9.0.7*%
%TF.CreationDate,2026-03-17T19:37:40-05:00*%
%TF.ProjectId,fieldbox_font_pcb,6669656c-6462-46f7-985f-666f6e745f70,rev?*%
%TF.SameCoordinates,Original*%
%TF.FileFunction,Copper,L1,Top*%
%TF.FilePolarity,Positive*%
%FSLAX46Y46*%
G04 Gerber Fmt 4.6, Leading zero omitted, Abs format (unit mm)*
G04 Created by KiCad (PCBNEW 9.0.7) date 2026-03-17 19:37:40*
%MOMM*%
%LPD*%
G01*
G04 APERTURE LIST*
G04 Aperture macros list*
%AMRoundRect*
0 Rectangle with rounded corners*
0 $1 Rounding radius*
0 $2 $3 $4 $5 $6 $7 $8 $9 X,Y pos of 4 corners*
0 Add a 4 corners polygon primitive as box body*
4,1,4,$2,$3,$4,$5,$6,$7,$8,$9,$2,$3,0*
0 Add four circle primitives for the rounded corners*
1,1,$1+$1,$2,$3*
1,1,$1+$1,$4,$5*
1,1,$1+$1,$6,$7*
1,1,$1+$1,$8,$9*
0 Add four rect primitives between the rounded corners*
20,1,$1+$1,$2,$3,$4,$5,0*
20,1,$1+$1,$4,$5,$6,$7,0*
20,1,$1+$1,$6,$7,$8,$9,0*
20,1,$1+$1,$8,$9,$2,$3,0*%
%AMFreePoly0*
4,1,165,0.158620,0.054961,0.166707,0.053950,0.173700,0.052951,0.181620,0.051961,0.182213,0.051851,0.190213,0.049851,0.190374,0.049808,0.197374,0.047808,0.197756,0.047682,0.205756,0.044682,0.205970,0.044596,0.219970,0.038596,0.220481,0.038341,0.234481,0.030341,0.235201,0.029841,0.240995,0.025012,0.246774,0.021160,0.247536,0.020536,0.253381,0.014691,0.259201,0.009841,
0.259841,0.009201,0.264691,0.003381,0.270536,-0.002464,0.271160,-0.003226,0.275012,-0.009005,0.279841,-0.014799,0.280341,-0.015519,0.288341,-0.029519,0.288596,-0.030030,0.294596,-0.044030,0.294682,-0.044244,0.297682,-0.052244,0.297808,-0.052626,0.299808,-0.059626,0.299851,-0.059787,0.301851,-0.067787,0.301961,-0.068380,0.302950,-0.076293,0.303950,-0.083293,0.304961,-0.091380,
0.305000,-0.092000,0.305000,-0.250000,0.303536,-0.253536,0.300000,-0.255000,0.200000,-0.255000,0.196464,-0.253536,0.195000,-0.250000,0.195000,-0.095810,0.194257,-0.093581,0.194000,-0.092000,0.194000,-0.090810,0.193257,-0.088581,0.193000,-0.087000,0.193000,-0.085810,0.192370,-0.083920,0.191528,-0.082236,0.191257,-0.081581,0.190631,-0.079703,0.189464,-0.078536,0.188528,-0.077236,
0.187892,-0.075964,0.186464,-0.074536,0.185528,-0.073236,0.184892,-0.071964,0.178036,-0.065108,0.176764,-0.064472,0.175464,-0.063536,0.174036,-0.062108,0.172764,-0.061472,0.171464,-0.060536,0.170297,-0.059369,0.168419,-0.058743,0.167764,-0.058472,0.166080,-0.057630,0.164190,-0.057000,0.163000,-0.057000,0.161419,-0.056743,0.159190,-0.056000,0.158000,-0.056000,0.156419,-0.055743,
0.154190,-0.055000,-0.154190,-0.055000,-0.156419,-0.055743,-0.158000,-0.056000,-0.159190,-0.056000,-0.161419,-0.056743,-0.163000,-0.057000,-0.164190,-0.057000,-0.166080,-0.057630,-0.167764,-0.058472,-0.168419,-0.058743,-0.170297,-0.059369,-0.171464,-0.060536,-0.172764,-0.061472,-0.174036,-0.062108,-0.175464,-0.063536,-0.176764,-0.064472,-0.178036,-0.065108,-0.184892,-0.071964,-0.185528,-0.073236,
-0.186464,-0.074536,-0.187892,-0.075964,-0.188528,-0.077236,-0.189464,-0.078536,-0.190631,-0.079703,-0.191257,-0.081581,-0.191528,-0.082236,-0.192370,-0.083920,-0.193000,-0.085810,-0.193000,-0.087000,-0.193257,-0.088581,-0.194000,-0.090810,-0.194000,-0.092000,-0.194257,-0.093581,-0.195000,-0.095810,-0.195000,-0.250000,-0.196464,-0.253536,-0.200000,-0.255000,-0.300000,-0.255000,-0.303536,-0.253536,
-0.305000,-0.250000,-0.305000,-0.092000,-0.304961,-0.091380,-0.303950,-0.083293,-0.302950,-0.076293,-0.301961,-0.068380,-0.301851,-0.067787,-0.299851,-0.059787,-0.299808,-0.059626,-0.297808,-0.052626,-0.297682,-0.052244,-0.294682,-0.044244,-0.294596,-0.044030,-0.288596,-0.030030,-0.288341,-0.029519,-0.280341,-0.015519,-0.279841,-0.014799,-0.275012,-0.009005,-0.271160,-0.003226,-0.270536,-0.002464,
-0.264691,0.003381,-0.259841,0.009201,-0.259201,0.009841,-0.253381,0.014691,-0.247536,0.020536,-0.246774,0.021160,-0.240995,0.025012,-0.235201,0.029841,-0.234481,0.030341,-0.220481,0.038341,-0.219970,0.038596,-0.205970,0.044596,-0.205756,0.044682,-0.197756,0.047682,-0.197374,0.047808,-0.190374,0.049808,-0.190213,0.049851,-0.182213,0.051851,-0.181620,0.051961,-0.173700,0.052951,
-0.166707,0.053950,-0.158620,0.054961,-0.158000,0.055000,0.158000,0.055000,0.158620,0.054961,0.158620,0.054961,$1*%
%AMFreePoly1*
4,1,165,-0.196464,0.253536,-0.195000,0.250000,-0.195000,0.095810,-0.194257,0.093581,-0.194000,0.092000,-0.194000,0.090810,-0.193257,0.088581,-0.193000,0.087000,-0.193000,0.085810,-0.192370,0.083920,-0.191528,0.082236,-0.191257,0.081581,-0.190631,0.079703,-0.189464,0.078536,-0.188528,0.077236,-0.187892,0.075964,-0.186464,0.074536,-0.185528,0.073236,-0.184892,0.071964,-0.178036,0.065108,
-0.176764,0.064472,-0.175464,0.063536,-0.174036,0.062108,-0.172764,0.061472,-0.171464,0.060536,-0.170297,0.059369,-0.168419,0.058743,-0.167764,0.058472,-0.166080,0.057630,-0.164190,0.057000,-0.163000,0.057000,-0.161419,0.056743,-0.159190,0.056000,-0.158000,0.056000,-0.156419,0.055743,-0.154190,0.055000,0.154190,0.055000,0.156419,0.055743,0.158000,0.056000,0.159190,0.056000,
0.161419,0.056743,0.163000,0.057000,0.164190,0.057000,0.166080,0.057630,0.167764,0.058472,0.168419,0.058743,0.170297,0.059369,0.171464,0.060536,0.172764,0.061472,0.174036,0.062108,0.175464,0.063536,0.176764,0.064472,0.178036,0.065108,0.184892,0.071964,0.185528,0.073236,0.186464,0.074536,0.187892,0.075964,0.188528,0.077236,0.189464,0.078536,0.190631,0.079703,
0.191257,0.081581,0.191528,0.082236,0.192370,0.083920,0.193000,0.085810,0.193000,0.087000,0.193257,0.088581,0.194000,0.090810,0.194000,0.092000,0.194257,0.093581,0.195000,0.095810,0.195000,0.250000,0.196464,0.253536,0.200000,0.255000,0.300000,0.255000,0.303536,0.253536,0.305000,0.250000,0.305000,0.092000,0.304961,0.091380,0.303950,0.083293,0.302950,0.076293,
0.301961,0.068380,0.301851,0.067787,0.299851,0.059787,0.299808,0.059626,0.297808,0.052626,0.297682,0.052244,0.294682,0.044244,0.294596,0.044030,0.288596,0.030030,0.288341,0.029519,0.280341,0.015519,0.279841,0.014799,0.275012,0.009005,0.271160,0.003226,0.270536,0.002464,0.264691,-0.003381,0.259841,-0.009201,0.259201,-0.009841,0.253381,-0.014691,0.247536,-0.020536,
0.246774,-0.021160,0.240995,-0.025012,0.235201,-0.029841,0.234481,-0.030341,0.220481,-0.038341,0.219970,-0.038596,0.205970,-0.044596,0.205756,-0.044682,0.197756,-0.047682,0.197374,-0.047808,0.190374,-0.049808,0.190213,-0.049851,0.182213,-0.051851,0.181620,-0.051961,0.173700,-0.052951,0.166707,-0.053950,0.158620,-0.054961,0.158000,-0.055000,-0.158000,-0.055000,-0.158620,-0.054961,
-0.166707,-0.053950,-0.173700,-0.052951,-0.181620,-0.051961,-0.182213,-0.051851,-0.190213,-0.049851,-0.190374,-0.049808,-0.197374,-0.047808,-0.197756,-0.047682,-0.205756,-0.044682,-0.205970,-0.044596,-0.219970,-0.038596,-0.220481,-0.038341,-0.234481,-0.030341,-0.235201,-0.029841,-0.240995,-0.025012,-0.246774,-0.021160,-0.247536,-0.020536,-0.253381,-0.014691,-0.259201,-0.009841,-0.259841,-0.009201,
-0.264691,-0.003381,-0.270536,0.002464,-0.271160,0.003226,-0.275012,0.009005,-0.279841,0.014799,-0.280341,0.015519,-0.288341,0.029519,-0.288596,0.030030,-0.294596,0.044030,-0.294682,0.044244,-0.297682,0.052244,-0.297808,0.052626,-0.299808,0.059626,-0.299851,0.059787,-0.301851,0.067787,-0.301961,0.068380,-0.302950,0.076293,-0.303950,0.083293,-0.304961,0.091380,-0.305000,0.092000,
-0.305000,0.250000,-0.303536,0.253536,-0.300000,0.255000,-0.200000,0.255000,-0.196464,0.253536,-0.196464,0.253536,$1*%
%AMFreePoly2*
4,1,177,0.663383,0.104985,0.676383,0.103985,0.676760,0.103942,0.702760,0.099942,0.703470,0.099779,0.716335,0.095820,0.728213,0.092851,0.728795,0.092667,0.741795,0.087667,0.741923,0.087615,0.753923,0.082615,0.754069,0.082552,0.765069,0.077552,0.765236,0.077472,0.777236,0.071472,0.777684,0.071218,0.788684,0.064218,0.788941,0.064044,0.799941,0.056044,0.800123,0.055904,
0.820123,0.039904,0.820345,0.039716,0.830345,0.030716,0.830716,0.030345,0.839716,0.020345,0.839904,0.020123,0.855904,0.000123,0.856044,-0.000059,0.864044,-0.011059,0.864218,-0.011316,0.871218,-0.022316,0.871472,-0.022764,0.877472,-0.034764,0.877552,-0.034931,0.882552,-0.045931,0.882615,-0.046077,0.887615,-0.058077,0.887667,-0.058205,0.892667,-0.071205,0.892851,-0.071787,
0.895820,-0.083664,0.899779,-0.096530,0.899942,-0.097240,0.903942,-0.123240,0.903985,-0.123617,0.904985,-0.136617,0.905000,-0.137000,0.905000,-0.350000,0.903536,-0.353536,0.900000,-0.355000,0.700000,-0.355000,0.696464,-0.353536,0.695000,-0.350000,0.695000,-0.145810,0.694257,-0.143581,0.694000,-0.142000,0.694000,-0.140810,0.693257,-0.138581,0.693000,-0.137000,0.693000,-0.135810,
0.692370,-0.133920,0.691528,-0.132236,0.691257,-0.131581,0.690631,-0.129703,0.689464,-0.128536,0.688528,-0.127236,0.687892,-0.125964,0.686464,-0.124536,0.685528,-0.123236,0.684892,-0.121964,0.678036,-0.115108,0.676764,-0.114472,0.675464,-0.113536,0.674036,-0.112108,0.672764,-0.111472,0.671464,-0.110536,0.670297,-0.109369,0.668419,-0.108743,0.667764,-0.108472,0.666080,-0.107630,
0.664190,-0.107000,0.663000,-0.107000,0.661419,-0.106743,0.659190,-0.106000,0.658000,-0.106000,0.656419,-0.105743,0.654190,-0.105000,-0.654190,-0.105000,-0.656419,-0.105743,-0.658000,-0.106000,-0.659190,-0.106000,-0.661419,-0.106743,-0.663000,-0.107000,-0.664190,-0.107000,-0.666080,-0.107630,-0.667764,-0.108472,-0.668419,-0.108743,-0.670297,-0.109369,-0.671464,-0.110536,-0.672764,-0.111472,
-0.674036,-0.112108,-0.675464,-0.113536,-0.676764,-0.114472,-0.678036,-0.115108,-0.684892,-0.121964,-0.685528,-0.123236,-0.686464,-0.124536,-0.687892,-0.125964,-0.688528,-0.127236,-0.689464,-0.128536,-0.690631,-0.129703,-0.691257,-0.131581,-0.691528,-0.132236,-0.692370,-0.133920,-0.693000,-0.135810,-0.693000,-0.137000,-0.693257,-0.138581,-0.694000,-0.140810,-0.694000,-0.142000,-0.694257,-0.143581,
-0.695000,-0.145810,-0.695000,-0.350000,-0.696464,-0.353536,-0.700000,-0.355000,-0.900000,-0.355000,-0.903536,-0.353536,-0.905000,-0.350000,-0.905000,-0.137000,-0.904985,-0.136617,-0.903985,-0.123617,-0.903942,-0.123240,-0.899942,-0.097240,-0.899779,-0.096530,-0.895820,-0.083664,-0.892851,-0.071787,-0.892667,-0.071205,-0.887667,-0.058205,-0.887615,-0.058077,-0.882615,-0.046077,-0.882552,-0.045931,
-0.877552,-0.034931,-0.877472,-0.034764,-0.871472,-0.022764,-0.871218,-0.022316,-0.864218,-0.011316,-0.864044,-0.011059,-0.856044,-0.000059,-0.855904,0.000123,-0.839904,0.020123,-0.839716,0.020345,-0.830716,0.030345,-0.830345,0.030716,-0.820345,0.039716,-0.820123,0.039904,-0.800123,0.055904,-0.799941,0.056044,-0.788941,0.064044,-0.788684,0.064218,-0.777684,0.071218,-0.777236,0.071472,
-0.765236,0.077472,-0.765069,0.077552,-0.754069,0.082552,-0.753923,0.082615,-0.741923,0.087615,-0.741795,0.087667,-0.728795,0.092667,-0.728213,0.092851,-0.716335,0.095820,-0.703470,0.099779,-0.702760,0.099942,-0.676760,0.103942,-0.676383,0.103985,-0.663383,0.104985,-0.663000,0.105000,0.663000,0.105000,0.663383,0.104985,0.663383,0.104985,$1*%
%AMFreePoly3*
4,1,177,-0.696464,0.353536,-0.695000,0.350000,-0.695000,0.145810,-0.694257,0.143581,-0.694000,0.142000,-0.694000,0.140810,-0.693257,0.138581,-0.693000,0.137000,-0.693000,0.135810,-0.692370,0.133920,-0.691528,0.132236,-0.691257,0.131581,-0.690631,0.129703,-0.689464,0.128536,-0.688528,0.127236,-0.687892,0.125964,-0.686464,0.124536,-0.685528,0.123236,-0.684892,0.121964,-0.678036,0.115108,
-0.676764,0.114472,-0.675464,0.113536,-0.674036,0.112108,-0.672764,0.111472,-0.671464,0.110536,-0.670297,0.109369,-0.668419,0.108743,-0.667764,0.108472,-0.666080,0.107630,-0.664190,0.107000,-0.663000,0.107000,-0.661419,0.106743,-0.659190,0.106000,-0.658000,0.106000,-0.656419,0.105743,-0.654190,0.105000,0.654190,0.105000,0.656419,0.105743,0.658000,0.106000,0.659190,0.106000,
0.661419,0.106743,0.663000,0.107000,0.664190,0.107000,0.666080,0.107630,0.667764,0.108472,0.668419,0.108743,0.670297,0.109369,0.671464,0.110536,0.672764,0.111472,0.674036,0.112108,0.675464,0.113536,0.676764,0.114472,0.678036,0.115108,0.684892,0.121964,0.685528,0.123236,0.686464,0.124536,0.687892,0.125964,0.688528,0.127236,0.689464,0.128536,0.690631,0.129703,
0.691257,0.131581,0.691528,0.132236,0.692370,0.133920,0.693000,0.135810,0.693000,0.137000,0.693257,0.138581,0.694000,0.140810,0.694000,0.142000,0.694257,0.143581,0.695000,0.145810,0.695000,0.350000,0.696464,0.353536,0.700000,0.355000,0.900000,0.355000,0.903536,0.353536,0.905000,0.350000,0.905000,0.137000,0.904985,0.136617,0.903985,0.123617,0.903942,0.123240,
0.899942,0.097240,0.899779,0.096530,0.895820,0.083664,0.892851,0.071787,0.892667,0.071205,0.887667,0.058205,0.887615,0.058077,0.882615,0.046077,0.882552,0.045931,0.877552,0.034931,0.877472,0.034764,0.871472,0.022764,0.871218,0.022316,0.864218,0.011316,0.864044,0.011059,0.856044,0.000059,0.855904,-0.000123,0.839904,-0.020123,0.839716,-0.020345,0.830716,-0.030345,
0.830345,-0.030716,0.820345,-0.039716,0.820123,-0.039904,0.800123,-0.055904,0.799941,-0.056044,0.788941,-0.064044,0.788684,-0.064218,0.777684,-0.071218,0.777236,-0.071472,0.765236,-0.077472,0.765069,-0.077552,0.754069,-0.082552,0.753923,-0.082615,0.741923,-0.087615,0.741795,-0.087667,0.728795,-0.092667,0.728213,-0.092851,0.716335,-0.095820,0.703470,-0.099779,0.702760,-0.099942,
0.676760,-0.103942,0.676383,-0.103985,0.663383,-0.104985,0.663000,-0.105000,-0.663000,-0.105000,-0.663383,-0.104985,-0.676383,-0.103985,-0.676760,-0.103942,-0.702760,-0.099942,-0.703470,-0.099779,-0.716335,-0.095820,-0.728213,-0.092851,-0.728795,-0.092667,-0.741795,-0.087667,-0.741923,-0.087615,-0.753923,-0.082615,-0.754069,-0.082552,-0.765069,-0.077552,-0.765236,-0.077472,-0.777236,-0.071472,
-0.777684,-0.071218,-0.788684,-0.064218,-0.788941,-0.064044,-0.799941,-0.056044,-0.800123,-0.055904,-0.820123,-0.039904,-0.820345,-0.039716,-0.830345,-0.030716,-0.830716,-0.030345,-0.839716,-0.020345,-0.839904,-0.020123,-0.855904,-0.000123,-0.856044,0.000059,-0.864044,0.011059,-0.864218,0.011316,-0.871218,0.022316,-0.871472,0.022764,-0.877472,0.034764,-0.877552,0.034931,-0.882552,0.045931,
-0.882615,0.046077,-0.887615,0.058077,-0.887667,0.058205,-0.892667,0.071205,-0.892851,0.071787,-0.895820,0.083664,-0.899779,0.096530,-0.899942,0.097240,-0.903942,0.123240,-0.903985,0.123617,-0.904985,0.136617,-0.905000,0.137000,-0.905000,0.350000,-0.903536,0.353536,-0.900000,0.355000,-0.700000,0.355000,-0.696464,0.353536,-0.696464,0.353536,$1*%
G04 Aperture macros list end*
%TA.AperFunction,ComponentPad*%
%ADD10O,3.100000X2.300000*%
%TD*%
%TA.AperFunction,ComponentPad*%
%ADD11RoundRect,0.650000X0.650000X0.650000X-0.650000X0.650000X-0.650000X-0.650000X0.650000X-0.650000X0*%
%TD*%
%TA.AperFunction,ComponentPad*%
%ADD12RoundRect,0.650000X-0.650000X-0.650000X0.650000X-0.650000X0.650000X0.650000X-0.650000X0.650000X0*%
%TD*%
%TA.AperFunction,ComponentPad*%
%ADD13O,3.100000X2.100000*%
%TD*%
%TA.AperFunction,ComponentPad*%
%ADD14O,2.300000X3.100000*%
%TD*%
%TA.AperFunction,ComponentPad*%
%ADD15RoundRect,0.650000X-0.650000X0.650000X-0.650000X-0.650000X0.650000X-0.650000X0.650000X0.650000X0*%
%TD*%
%TA.AperFunction,ComponentPad*%
%ADD16R,1.800000X1.800000*%
%TD*%
%TA.AperFunction,ComponentPad*%
%ADD17C,1.800000*%
%TD*%
%TA.AperFunction,ComponentPad*%
%ADD18RoundRect,0.500000X-1.000000X0.500000X-1.000000X-0.500000X1.000000X-0.500000X1.000000X0.500000X0*%
%TD*%
%TA.AperFunction,SMDPad,CuDef*%
%ADD19FreePoly0,270.000000*%
%TD*%
%TA.AperFunction,SMDPad,CuDef*%
%ADD20FreePoly1,270.000000*%
%TD*%
%TA.AperFunction,SMDPad,CuDef*%
%ADD21FreePoly2,270.000000*%
%TD*%
%TA.AperFunction,SMDPad,CuDef*%
%ADD22FreePoly3,270.000000*%
%TD*%
%TA.AperFunction,ComponentPad*%
%ADD23RoundRect,0.500000X-0.500000X-1.000000X0.500000X-1.000000X0.500000X1.000000X-0.500000X1.000000X0*%
%TD*%
%TA.AperFunction,ComponentPad*%
%ADD24R,1.700000X1.700000*%
%TD*%
%TA.AperFunction,ComponentPad*%
%ADD25C,1.700000*%
%TD*%
%TA.AperFunction,ViaPad*%
%ADD26C,0.600000*%
%TD*%
%TA.AperFunction,Conductor*%
%ADD27C,0.200000*%
%TD*%
%TA.AperFunction,Conductor*%
%ADD28C,0.152400*%
%TD*%
%TA.AperFunction,Conductor*%
%ADD29C,0.500000*%
%TD*%
%TA.AperFunction,Conductor*%
%ADD30C,1.000000*%
%TD*%
G04 APERTURE END LIST*
D10*
%TO.P,J2,S*%
%TO.N,GND*%
X264092241Y-85507403D03*
D11*
%TO.P,J2,T*%
%TO.N,/EURORACK_AUDIO_OUT_L*%
X264092241Y-96907403D03*
%TO.P,J2,TN*%
%TO.N,GND*%
X264092241Y-88607403D03*
%TD*%
D12*
%TO.P,J9,R*%
%TO.N,/HEADPHONE_RING*%
X224758908Y-95367403D03*
D13*
%TO.P,J9,S*%
%TO.N,GND*%
X224758908Y-98467403D03*
D12*
%TO.P,J9,T*%
%TO.N,/HEADPHONE_TIP*%
X224758908Y-87067403D03*
%TD*%
D14*
%TO.P,J6,S*%
%TO.N,GND*%
X189612241Y-105487404D03*
D15*
%TO.P,J6,T*%
%TO.N,/EURORACK_CV_IN_3*%
X201012241Y-105487404D03*
%TO.P,J6,TN*%
%TO.N,Net-(J6-PadTN)*%
X192712241Y-105487404D03*
%TD*%
D10*
%TO.P,J1,S*%
%TO.N,GND*%
X182092241Y-111967404D03*
D12*
%TO.P,J1,T*%
%TO.N,/EURORACK_CV_IN_1*%
X182092241Y-100567404D03*
%TO.P,J1,TN*%
%TO.N,Net-(J1-PadTN)*%
X182092241Y-108867404D03*
%TD*%
D16*
%TO.P,RV5,1,1*%
%TO.N,+5V*%
X212592241Y-84554070D03*
D17*
%TO.P,RV5,2,2*%
%TO.N,Net-(J7-PadTN)*%
X210092241Y-84554070D03*
%TO.P,RV5,3,3*%
%TO.N,GND*%
X207592241Y-84554070D03*
D18*
%TO.P,RV5,MP,MountPin*%
X214842241Y-92054070D03*
X205342241Y-92054070D03*
%TD*%
D16*
%TO.P,RV3,1,1*%
%TO.N,+5V*%
X170592241Y-84554070D03*
D17*
%TO.P,RV3,2,2*%
%TO.N,Net-(J5-PadTN)*%
X168092241Y-84554070D03*
%TO.P,RV3,3,3*%
%TO.N,GND*%
X165592241Y-84554070D03*
D18*
%TO.P,RV3,MP,MountPin*%
X172842241Y-92054070D03*
X163342241Y-92054070D03*
%TD*%
D19*
%TO.P,U1,A1_1,GND*%
%TO.N,GND*%
X225708908Y-102112404D03*
D20*
%TO.P,U1,A1_2,GND__1*%
X225208908Y-102112404D03*
%TO.P,U1,A4_1,VBUS*%
%TO.N,/USB_VBUS*%
X225208908Y-103062404D03*
D19*
%TO.P,U1,A4_2,VBUS__1*%
X225708908Y-103062404D03*
%TO.P,U1,A5_1,CC1*%
%TO.N,/USB_CC1*%
X225708908Y-104012404D03*
D20*
%TO.P,U1,A5_2,CC1__1*%
X225208908Y-104012404D03*
D19*
%TO.P,U1,A6_1,DP1*%
%TO.N,/USB_D+*%
X225708908Y-104912404D03*
D20*
%TO.P,U1,A6_2,DP1__1*%
X225208908Y-104912404D03*
D19*
%TO.P,U1,A7_1,DN1*%
%TO.N,/USB_D-*%
X225708908Y-105812404D03*
D20*
%TO.P,U1,A7_2,DN1__1*%
X225208908Y-105812404D03*
D19*
%TO.P,U1,A8_1,SBU1*%
%TO.N,Net-(U1-SBU1)*%
X225708908Y-106712404D03*
D20*
%TO.P,U1,A8_2,SBU1__1*%
X225208908Y-106712404D03*
%TO.P,U1,A9_1,VBUS__4*%
%TO.N,/USB_VBUS*%
X225208908Y-107662404D03*
D19*
%TO.P,U1,A9_2,VBUS__5*%
X225708908Y-107662404D03*
%TO.P,U1,A12_1,GND__4*%
%TO.N,GND*%
X225708908Y-108612404D03*
D20*
%TO.P,U1,A12_2,GND__5*%
X225208908Y-108612404D03*
%TO.P,U1,B1_1,GND__8*%
X223808908Y-108612404D03*
D19*
%TO.P,U1,B1_2,GND__9*%
X224308908Y-108612404D03*
%TO.P,U1,B4_1,VBUS__8*%
%TO.N,/USB_VBUS*%
X224308908Y-107662404D03*
D20*
%TO.P,U1,B4_2,VBUS__9*%
X223808908Y-107662404D03*
%TO.P,U1,B5_1,CC2*%
%TO.N,/USB_CC2*%
X223808908Y-106712404D03*
D19*
%TO.P,U1,B5_2,CC2__1*%
X224308908Y-106712404D03*
D20*
%TO.P,U1,B6_1,DP2*%
%TO.N,/USB_D+*%
X223808908Y-105812404D03*
D19*
%TO.P,U1,B6_2,DP2__1*%
X224308908Y-105812404D03*
D20*
%TO.P,U1,B7_1,DN2*%
%TO.N,/USB_D-*%
X223808908Y-104912404D03*
D19*
%TO.P,U1,B7_2,DN2__1*%
X224308908Y-104912404D03*
D20*
%TO.P,U1,B8_1,SBU2*%
%TO.N,Net-(U1-SBU2)*%
X223808908Y-104012404D03*
D19*
%TO.P,U1,B8_2,SBU2__1*%
X224308908Y-104012404D03*
%TO.P,U1,B9_1,VBUS__12*%
%TO.N,/USB_VBUS*%
X224308908Y-103062404D03*
D20*
%TO.P,U1,B9_2,VBUS__13*%
X223808908Y-103062404D03*
%TO.P,U1,B12_1,GND__12*%
%TO.N,GND*%
X223808908Y-102112404D03*
D19*
%TO.P,U1,B12_2,GND__13*%
X224308908Y-102112404D03*
D21*
%TO.P,U1,SH1_1,SHIELD*%
X227038908Y-103362404D03*
D22*
%TO.P,U1,SH1_4,SHIELD__3*%
X226338908Y-103362404D03*
D21*
%TO.P,U1,SH2_2,SHIELD__5*%
X227038908Y-107362404D03*
D22*
%TO.P,U1,SH2_4,SHIELD__7*%
X226338908Y-107362404D03*
D21*
%TO.P,U1,SH3_2,SHIELD__9*%
X223178908Y-107362404D03*
D22*
%TO.P,U1,SH3_4,SHIELD__11*%
X222478908Y-107362404D03*
D21*
%TO.P,U1,SH4_2,SHIELD__13*%
X223178908Y-103362404D03*
D22*
%TO.P,U1,SH4_4,SHIELD__15*%
X222478908Y-103362404D03*
%TD*%
D10*
%TO.P,J5,S*%
%TO.N,GND*%
X168092241Y-111967404D03*
D12*
%TO.P,J5,T*%
%TO.N,/EURORACK_CV_IN_2*%
X168092241Y-100567404D03*
%TO.P,J5,TN*%
%TO.N,Net-(J5-PadTN)*%
X168092241Y-108867404D03*
%TD*%
D16*
%TO.P,RV2,1,1*%
%TO.N,+5V*%
X184592241Y-84554070D03*
D17*
%TO.P,RV2,2,2*%
%TO.N,Net-(J1-PadTN)*%
X182092241Y-84554070D03*
%TO.P,RV2,3,3*%
%TO.N,GND*%
X179592241Y-84554070D03*
D18*
%TO.P,RV2,MP,MountPin*%
X186842241Y-92054070D03*
X177342241Y-92054070D03*
%TD*%
D16*
%TO.P,RV4,1,1*%
%TO.N,+5V*%
X198592241Y-84554070D03*
D17*
%TO.P,RV4,2,2*%
%TO.N,Net-(J6-PadTN)*%
X196092241Y-84554070D03*
%TO.P,RV4,3,3*%
%TO.N,GND*%
X193592241Y-84554070D03*
D18*
%TO.P,RV4,MP,MountPin*%
X200842241Y-92054070D03*
X191342241Y-92054070D03*
%TD*%
D10*
%TO.P,J10,S*%
%TO.N,GND*%
X264092241Y-111967404D03*
D12*
%TO.P,J10,T*%
%TO.N,/EURORACK_AUDIO_IN_L*%
X264092241Y-100567404D03*
%TO.P,J10,TN*%
%TO.N,GND*%
X264092241Y-108867404D03*
%TD*%
D10*
%TO.P,J8,S*%
%TO.N,GND*%
X254092241Y-85507403D03*
D11*
%TO.P,J8,T*%
%TO.N,/EURORACK_AUDIO_OUT_R*%
X254092241Y-96907403D03*
%TO.P,J8,TN*%
%TO.N,GND*%
X254092241Y-88607403D03*
%TD*%
D10*
%TO.P,J11,S*%
%TO.N,GND*%
X254092241Y-111967404D03*
D12*
%TO.P,J11,T*%
%TO.N,/EURORACK_AUDIO_IN_R*%
X254092241Y-100567404D03*
%TO.P,J11,TN*%
%TO.N,GND*%
X254092241Y-108867404D03*
%TD*%
D16*
%TO.P,RV1,1,1*%
%TO.N,GND*%
X229575574Y-102987404D03*
D17*
%TO.P,RV1,2,2*%
%TO.N,/VOL_KNOB_L_VAR*%
X229575574Y-105487404D03*
%TO.P,RV1,3,3*%
%TO.N,/VOL_KNOB_L_FIXED*%
X229575574Y-107987404D03*
%TO.P,RV1,4,4*%
%TO.N,GND*%
X232075574Y-102987404D03*
%TO.P,RV1,5,5*%
%TO.N,/VOL_KNOB_R_VAR*%
X232075574Y-105487404D03*
%TO.P,RV1,6,6*%
%TO.N,/VOL_KNOB_R_FIXED*%
X232075574Y-107987404D03*
D23*
%TO.P,RV1,MP,MountPin*%
%TO.N,GND*%
X239575574Y-100737404D03*
X239575574Y-110237404D03*
%TD*%
D11*
%TO.P,J12,R*%
%TO.N,/MIDI_IN_R*%
X239425574Y-88674070D03*
D13*
%TO.P,J12,S*%
%TO.N,GND*%
X239425574Y-85574070D03*
D11*
%TO.P,J12,T*%
%TO.N,/MIDI_IN_S*%
X239425574Y-96974070D03*
%TD*%
D10*
%TO.P,J7,S*%
%TO.N,GND*%
X210092241Y-111967404D03*
D12*
%TO.P,J7,T*%
%TO.N,/EURORACK_CV_IN_4*%
X210092241Y-100567404D03*
%TO.P,J7,TN*%
%TO.N,Net-(J7-PadTN)*%
X210092241Y-108867404D03*
%TD*%
D24*
%TO.P,J14,1,Pin_1*%
%TO.N,+5V*%
X194100734Y-80355294D03*
D25*
%TO.P,J14,2,Pin_2*%
%TO.N,/EURORACK_CV_IN_2*%
X196640734Y-80355294D03*
%TO.P,J14,3,Pin_3*%
%TO.N,/EURORACK_CV_IN_1*%
X199180734Y-80355294D03*
%TO.P,J14,4,Pin_4*%
%TO.N,/EURORACK_CV_IN_3*%
X201720734Y-80355294D03*
%TO.P,J14,5,Pin_5*%
%TO.N,/EURORACK_CV_IN_4*%
X204260734Y-80355294D03*
%TO.P,J14,6,Pin_6*%
%TO.N,+5V*%
X206800734Y-80355294D03*
%TD*%
D24*
%TO.P,J15,1,Pin_1*%
%TO.N,/USB_VBUS*%
X174338758Y-116974716D03*
D25*
%TO.P,J15,2,Pin_2*%
%TO.N,/USB_CC1*%
X176878758Y-116974716D03*
%TO.P,J15,3,Pin_3*%
%TO.N,/USB_CC2*%
X179418758Y-116974716D03*
%TO.P,J15,4,Pin_4*%
%TO.N,GND*%
X181958758Y-116974716D03*
%TO.P,J15,5,Pin_5*%
%TO.N,/MIDI_IN_S*%
X184498758Y-116974716D03*
%TO.P,J15,6,Pin_6*%
%TO.N,/MIDI_IN_R*%
X187038758Y-116974716D03*
%TO.P,J15,7,Pin_7*%
%TO.N,GND*%
X189578758Y-116974716D03*
%TO.P,J15,8,Pin_8*%
%TO.N,/USB_D-*%
X192118758Y-116974716D03*
%TO.P,J15,9,Pin_9*%
%TO.N,GND*%
X194658758Y-116974716D03*
%TO.P,J15,10,Pin_10*%
%TO.N,/USB_D+*%
X197198758Y-116974716D03*
%TO.P,J15,11,Pin_11*%
%TO.N,GND*%
X199738758Y-116974716D03*
%TD*%
D24*
%TO.P,J16,1,Pin_1*%
%TO.N,/EURORACK_AUDIO_OUT_R*%
X260002734Y-80354992D03*
D25*
%TO.P,J16,2,Pin_2*%
%TO.N,/EURORACK_AUDIO_OUT_L*%
X262542734Y-80354992D03*
%TO.P,J16,3,Pin_3*%
%TO.N,/EURORACK_AUDIO_IN_R*%
X265082734Y-80354992D03*
%TO.P,J16,4,Pin_4*%
%TO.N,/EURORACK_AUDIO_IN_L*%
X267622734Y-80354992D03*
%TD*%
D24*
%TO.P,J13,1,Pin_1*%
%TO.N,/VOL_KNOB_L_FIXED*%
X239743991Y-80355294D03*
D25*
%TO.P,J13,2,Pin_2*%
%TO.N,/VOL_KNOB_R_FIXED*%
X242283991Y-80355294D03*
%TO.P,J13,3,Pin_3*%
%TO.N,/VOL_KNOB_L_VAR*%
X244823991Y-80355294D03*
%TO.P,J13,4,Pin_4*%
%TO.N,/HEADPHONE_TIP*%
X247363991Y-80355294D03*
%TO.P,J13,5,Pin_5*%
%TO.N,/HEADPHONE_RING*%
X249903991Y-80355294D03*
%TO.P,J13,6,Pin_6*%
%TO.N,/VOL_KNOB_R_VAR*%
X252443991Y-80355294D03*
%TD*%
D26*
%TO.N,GND*%
X227053199Y-108961939D03*
X221650388Y-102099715D03*
X226449614Y-100813216D03*
X226294477Y-109753889D03*
X221457662Y-107356491D03*
X227639200Y-101431269D03*
%TO.N,/MIDI_IN_S*%
X234592241Y-97054070D03*
%TO.N,/USB_VBUS*%
X224751399Y-107662404D03*
X198817159Y-113890125D03*
X213196367Y-107958196D03*
%TO.N,/MIDI_IN_R*%
X234711875Y-89377949D03*
%TO.N,/VOL_KNOB_R_VAR*%
X232992241Y-104715676D03*
%TO.N,/HEADPHONE_TIP*%
X242092241Y-83554070D03*
%TO.N,/HEADPHONE_RING*%
X234592241Y-95054070D03*
%TD*%
D27*
%TO.N,GND*%
X222478908Y-107362404D02*
X221463575Y-107362404D01*
X222478908Y-102928235D02*
X221650388Y-102099715D01*
X223178908Y-107362404D02*
X223178908Y-107982404D01*
X222478908Y-103362404D02*
X222478908Y-102928235D01*
X223178908Y-107982404D02*
X223808908Y-108612404D01*
X225708908Y-108612404D02*
X226338908Y-107982404D01*
X223808908Y-102112404D02*
X223178908Y-102742404D01*
X221463575Y-107362404D02*
X221457662Y-107356491D01*
D28*
X224308908Y-108612404D02*
X225208908Y-108612404D01*
D27*
X226338908Y-107982404D02*
X226338908Y-107362404D01*
X223178908Y-102742404D02*
X223178908Y-103362404D01*
D29*
%TO.N,Net-(J1-PadTN)*%
X184343241Y-107066404D02*
X184343241Y-86950102D01*
X182447209Y-85054070D02*
X182092241Y-85054070D01*
X182542241Y-108867404D02*
X184343241Y-107066404D01*
X184343241Y-86950102D02*
X182447209Y-85054070D01*
%TO.N,/EURORACK_AUDIO_OUT_L*%
X266093241Y-94906403D02*
X266093241Y-83905499D01*
X266093241Y-83905499D02*
X262542734Y-80354992D01*
X264092241Y-96907403D02*
X266093241Y-94906403D01*
D27*
%TO.N,/USB_CC2*%
X216400493Y-106054070D02*
X211986159Y-110468404D01*
X211986159Y-110468404D02*
X203371665Y-110468404D01*
X216400493Y-106054070D02*
X223171448Y-106054070D01*
X223808908Y-106691530D02*
X223808908Y-106712404D01*
X198016353Y-115823716D02*
X180569758Y-115823716D01*
X223171448Y-106054070D02*
X223808908Y-106691530D01*
X180569758Y-115823716D02*
X179418758Y-116974716D01*
X203371665Y-110468404D02*
X198016353Y-115823716D01*
X179418758Y-116974716D02*
X180674389Y-115719085D01*
D29*
%TO.N,/EURORACK_AUDIO_OUT_R*%
X260002734Y-90996910D02*
X254092241Y-96907403D01*
X260002734Y-80354992D02*
X260002734Y-90996910D01*
D27*
%TO.N,/MIDI_IN_S*%
X234672241Y-96974070D02*
X239425574Y-96974070D01*
X239345574Y-97054070D02*
X239425574Y-96974070D01*
X234592241Y-97054070D02*
X234672241Y-96974070D01*
D28*
%TO.N,/USB_VBUS*%
X224751399Y-107662404D02*
X225208908Y-107662404D01*
D30*
X198817159Y-113890125D02*
X177423349Y-113890125D01*
D27*
X224751399Y-107662404D02*
X224773636Y-107640167D01*
D30*
X224592241Y-100854070D02*
X220300493Y-100854070D01*
D28*
X224773636Y-103062404D02*
X224773636Y-101035465D01*
D30*
X177423349Y-113890125D02*
X174338758Y-116974716D01*
D28*
X224308908Y-103062404D02*
X224773636Y-103062404D01*
X224773636Y-103062404D02*
X225208908Y-103062404D01*
X224308908Y-107662404D02*
X224751399Y-107662404D01*
X224773636Y-101035465D02*
X224592241Y-100854070D01*
D30*
X220300493Y-100854070D02*
X213196367Y-107958196D01*
D27*
%TO.N,/USB_CC1*%
X228199942Y-106661771D02*
X228199942Y-109223826D01*
X225708908Y-104012404D02*
X225708908Y-104170737D01*
X225400074Y-104012404D02*
X225708908Y-104012404D01*
X228199942Y-109223826D02*
X219298052Y-118125716D01*
X178029758Y-118125716D02*
X176878758Y-116974716D01*
X225708908Y-104170737D02*
X228199942Y-106661771D01*
X219298052Y-118125716D02*
X178029758Y-118125716D01*
D29*
%TO.N,/MIDI_IN_R*%
X239425574Y-88674070D02*
X235415754Y-88674070D01*
X235415754Y-88674070D02*
X234711875Y-89377949D01*
D27*
%TO.N,/USB_D-*%
X224308908Y-104912404D02*
X225208908Y-105812404D01*
%TO.N,/VOL_KNOB_R_VAR*%
X232220513Y-105487404D02*
X232992241Y-104715676D01*
X232075574Y-105487404D02*
X232220513Y-105487404D01*
%TO.N,/VOL_KNOB_R_FIXED*%
X233592241Y-88809044D02*
X242045991Y-80355294D01*
X242045991Y-80355294D02*
X242283991Y-80355294D01*
X233592241Y-106470737D02*
X233592241Y-88809044D01*
X232075574Y-107987404D02*
X233592241Y-106470737D01*
D30*
%TO.N,/EURORACK_CV_IN_4*%
X204260734Y-80355294D02*
X204260734Y-84222563D01*
X207591241Y-97216404D02*
X210942241Y-100567404D01*
X207591241Y-87553070D02*
X207591241Y-97216404D01*
X204260734Y-84222563D02*
X207591241Y-87553070D01*
D29*
%TO.N,/HEADPHONE_TIP*%
X244165215Y-83554070D02*
X242092241Y-83554070D01*
X247363991Y-80355294D02*
X244165215Y-83554070D01*
%TO.N,/EURORACK_CV_IN_3*%
X203391241Y-84697988D02*
X203391241Y-103108404D01*
X201720734Y-83027481D02*
X203391241Y-84697988D01*
X201720734Y-80355294D02*
X201720734Y-83027481D01*
X203391241Y-103108404D02*
X201012241Y-105487404D01*
D27*
%TO.N,/VOL_KNOB_L_FIXED*%
X239743991Y-80355294D02*
X230874574Y-89224711D01*
X230874574Y-89224711D02*
X230874574Y-106688404D01*
X230874574Y-106688404D02*
X229575574Y-107987404D01*
D30*
%TO.N,/EURORACK_CV_IN_2*%
X196640734Y-80355294D02*
X196640734Y-80567733D01*
X170593241Y-91097326D02*
X170593241Y-98066404D01*
X178737497Y-82953070D02*
X170593241Y-91097326D01*
X170593241Y-98066404D02*
X168092241Y-100567404D01*
X196640734Y-80567733D02*
X194255397Y-82953070D01*
X194255397Y-82953070D02*
X178737497Y-82953070D01*
D29*
%TO.N,/HEADPHONE_RING*%
X236407296Y-95054070D02*
X234592241Y-95054070D01*
X249903991Y-80355294D02*
X249903991Y-81557375D01*
X249903991Y-81557375D02*
X236407296Y-95054070D01*
%TO.N,Net-(J5-PadTN)*%
X168092241Y-108867404D02*
X165841241Y-106616404D01*
X165841241Y-86805070D02*
X168092241Y-84554070D01*
X165841241Y-106616404D02*
X165841241Y-86805070D01*
%TO.N,Net-(J6-PadTN)*%
X193562241Y-99039383D02*
X192712241Y-99889383D01*
X193562241Y-87084070D02*
X193562241Y-99039383D01*
X192712241Y-99889383D02*
X192712241Y-105487404D01*
X196092241Y-84554070D02*
X193562241Y-87084070D01*
D30*
X196092241Y-84554070D02*
X195883719Y-84554070D01*
D29*
%TO.N,Net-(J7-PadTN)*%
X212891241Y-106068404D02*
X210092241Y-108867404D01*
X212891241Y-87353070D02*
X212891241Y-106068404D01*
X212891241Y-87353070D02*
X210092241Y-84554070D01*
%TD*%
M02*
