%TF.GenerationSoftware,KiCad,Pcbnew,9.0.7*%
%TF.CreationDate,2026-03-17T19:37:40-05:00*%
%TF.ProjectId,fieldbox_font_pcb,6669656c-6462-46f7-985f-666f6e745f70,rev?*%
%TF.SameCoordinates,Original*%
%TF.FileFunction,Legend,Bot*%
%TF.FilePolarity,Positive*%
%FSLAX46Y46*%
G04 Gerber Fmt 4.6, Leading zero omitted, Abs format (unit mm)*
G04 Created by KiCad (PCBNEW 9.0.7) date 2026-03-17 19:37:40*
%MOMM*%
%LPD*%
G01*
G04 APERTURE LIST*
%ADD10C,0.150000*%
%ADD11C,0.120000*%
G04 APERTURE END LIST*
D10*
X191175553Y-79545770D02*
X191889838Y-79545770D01*
X191889838Y-79545770D02*
X192032695Y-79498151D01*
X192032695Y-79498151D02*
X192127934Y-79402913D01*
X192127934Y-79402913D02*
X192175553Y-79260056D01*
X192175553Y-79260056D02*
X192175553Y-79164818D01*
X192175553Y-80545770D02*
X192175553Y-79974342D01*
X192175553Y-80260056D02*
X191175553Y-80260056D01*
X191175553Y-80260056D02*
X191318410Y-80164818D01*
X191318410Y-80164818D02*
X191413648Y-80069580D01*
X191413648Y-80069580D02*
X191461267Y-79974342D01*
X191508886Y-81402913D02*
X192175553Y-81402913D01*
X191127934Y-81164818D02*
X191842219Y-80926723D01*
X191842219Y-80926723D02*
X191842219Y-81545770D01*
X171413577Y-116165192D02*
X172127862Y-116165192D01*
X172127862Y-116165192D02*
X172270719Y-116117573D01*
X172270719Y-116117573D02*
X172365958Y-116022335D01*
X172365958Y-116022335D02*
X172413577Y-115879478D01*
X172413577Y-115879478D02*
X172413577Y-115784240D01*
X172413577Y-117165192D02*
X172413577Y-116593764D01*
X172413577Y-116879478D02*
X171413577Y-116879478D01*
X171413577Y-116879478D02*
X171556434Y-116784240D01*
X171556434Y-116784240D02*
X171651672Y-116689002D01*
X171651672Y-116689002D02*
X171699291Y-116593764D01*
X171413577Y-118069954D02*
X171413577Y-117593764D01*
X171413577Y-117593764D02*
X171889767Y-117546145D01*
X171889767Y-117546145D02*
X171842148Y-117593764D01*
X171842148Y-117593764D02*
X171794529Y-117689002D01*
X171794529Y-117689002D02*
X171794529Y-117927097D01*
X171794529Y-117927097D02*
X171842148Y-118022335D01*
X171842148Y-118022335D02*
X171889767Y-118069954D01*
X171889767Y-118069954D02*
X171985005Y-118117573D01*
X171985005Y-118117573D02*
X172223100Y-118117573D01*
X172223100Y-118117573D02*
X172318338Y-118069954D01*
X172318338Y-118069954D02*
X172365958Y-118022335D01*
X172365958Y-118022335D02*
X172413577Y-117927097D01*
X172413577Y-117927097D02*
X172413577Y-117689002D01*
X172413577Y-117689002D02*
X172365958Y-117593764D01*
X172365958Y-117593764D02*
X172318338Y-117546145D01*
X257077553Y-79545468D02*
X257791838Y-79545468D01*
X257791838Y-79545468D02*
X257934695Y-79497849D01*
X257934695Y-79497849D02*
X258029934Y-79402611D01*
X258029934Y-79402611D02*
X258077553Y-79259754D01*
X258077553Y-79259754D02*
X258077553Y-79164516D01*
X258077553Y-80545468D02*
X258077553Y-79974040D01*
X258077553Y-80259754D02*
X257077553Y-80259754D01*
X257077553Y-80259754D02*
X257220410Y-80164516D01*
X257220410Y-80164516D02*
X257315648Y-80069278D01*
X257315648Y-80069278D02*
X257363267Y-79974040D01*
X257077553Y-81402611D02*
X257077553Y-81212135D01*
X257077553Y-81212135D02*
X257125172Y-81116897D01*
X257125172Y-81116897D02*
X257172791Y-81069278D01*
X257172791Y-81069278D02*
X257315648Y-80974040D01*
X257315648Y-80974040D02*
X257506124Y-80926421D01*
X257506124Y-80926421D02*
X257887076Y-80926421D01*
X257887076Y-80926421D02*
X257982314Y-80974040D01*
X257982314Y-80974040D02*
X258029934Y-81021659D01*
X258029934Y-81021659D02*
X258077553Y-81116897D01*
X258077553Y-81116897D02*
X258077553Y-81307373D01*
X258077553Y-81307373D02*
X258029934Y-81402611D01*
X258029934Y-81402611D02*
X257982314Y-81450230D01*
X257982314Y-81450230D02*
X257887076Y-81497849D01*
X257887076Y-81497849D02*
X257648981Y-81497849D01*
X257648981Y-81497849D02*
X257553743Y-81450230D01*
X257553743Y-81450230D02*
X257506124Y-81402611D01*
X257506124Y-81402611D02*
X257458505Y-81307373D01*
X257458505Y-81307373D02*
X257458505Y-81116897D01*
X257458505Y-81116897D02*
X257506124Y-81021659D01*
X257506124Y-81021659D02*
X257553743Y-80974040D01*
X257553743Y-80974040D02*
X257648981Y-80926421D01*
X236818810Y-79545770D02*
X237533095Y-79545770D01*
X237533095Y-79545770D02*
X237675952Y-79498151D01*
X237675952Y-79498151D02*
X237771191Y-79402913D01*
X237771191Y-79402913D02*
X237818810Y-79260056D01*
X237818810Y-79260056D02*
X237818810Y-79164818D01*
X237818810Y-80545770D02*
X237818810Y-79974342D01*
X237818810Y-80260056D02*
X236818810Y-80260056D01*
X236818810Y-80260056D02*
X236961667Y-80164818D01*
X236961667Y-80164818D02*
X237056905Y-80069580D01*
X237056905Y-80069580D02*
X237104524Y-79974342D01*
X236818810Y-80879104D02*
X236818810Y-81498151D01*
X236818810Y-81498151D02*
X237199762Y-81164818D01*
X237199762Y-81164818D02*
X237199762Y-81307675D01*
X237199762Y-81307675D02*
X237247381Y-81402913D01*
X237247381Y-81402913D02*
X237295000Y-81450532D01*
X237295000Y-81450532D02*
X237390238Y-81498151D01*
X237390238Y-81498151D02*
X237628333Y-81498151D01*
X237628333Y-81498151D02*
X237723571Y-81450532D01*
X237723571Y-81450532D02*
X237771191Y-81402913D01*
X237771191Y-81402913D02*
X237818810Y-81307675D01*
X237818810Y-81307675D02*
X237818810Y-81021961D01*
X237818810Y-81021961D02*
X237771191Y-80926723D01*
X237771191Y-80926723D02*
X237723571Y-80879104D01*
D11*
%TO.C,J14*%
X192720734Y-78975294D02*
X192720734Y-80355294D01*
X194100734Y-78975294D02*
X192720734Y-78975294D01*
X195370734Y-78975294D02*
X195370734Y-81735294D01*
X195370734Y-78975294D02*
X208180734Y-78975294D01*
X195370734Y-81735294D02*
X208180734Y-81735294D01*
X208180734Y-78975294D02*
X208180734Y-81735294D01*
%TO.C,J15*%
X172958758Y-115594716D02*
X172958758Y-116974716D01*
X174338758Y-115594716D02*
X172958758Y-115594716D01*
X175608758Y-115594716D02*
X175608758Y-118354716D01*
X175608758Y-115594716D02*
X201118758Y-115594716D01*
X175608758Y-118354716D02*
X201118758Y-118354716D01*
X201118758Y-115594716D02*
X201118758Y-118354716D01*
%TO.C,J16*%
X258622734Y-78974992D02*
X258622734Y-80354992D01*
X260002734Y-78974992D02*
X258622734Y-78974992D01*
X261272734Y-78974992D02*
X261272734Y-81734992D01*
X261272734Y-78974992D02*
X269002734Y-78974992D01*
X261272734Y-81734992D02*
X269002734Y-81734992D01*
X269002734Y-78974992D02*
X269002734Y-81734992D01*
%TO.C,J13*%
X238363991Y-78975294D02*
X238363991Y-80355294D01*
X239743991Y-78975294D02*
X238363991Y-78975294D01*
X241013991Y-78975294D02*
X241013991Y-81735294D01*
X241013991Y-78975294D02*
X253823991Y-78975294D01*
X241013991Y-81735294D02*
X253823991Y-81735294D01*
X253823991Y-78975294D02*
X253823991Y-81735294D01*
%TD*%
M02*
