%TF.GenerationSoftware,KiCad,Pcbnew,9.0.7*%
%TF.CreationDate,2026-03-17T19:37:40-05:00*%
%TF.ProjectId,fieldbox_font_pcb,6669656c-6462-46f7-985f-666f6e745f70,rev?*%
%TF.SameCoordinates,Original*%
%TF.FileFunction,Legend,Top*%
%TF.FilePolarity,Positive*%
%FSLAX46Y46*%
G04 Gerber Fmt 4.6, Leading zero omitted, Abs format (unit mm)*
G04 Created by KiCad (PCBNEW 9.0.7) date 2026-03-17 19:37:40*
%MOMM*%
%LPD*%
G01*
G04 APERTURE LIST*
%ADD10C,0.150000*%
%ADD11C,0.200000*%
%ADD12C,0.120000*%
%ADD13C,0.127000*%
G04 APERTURE END LIST*
D10*
X266258907Y-98242222D02*
X266258907Y-98956507D01*
X266258907Y-98956507D02*
X266211288Y-99099364D01*
X266211288Y-99099364D02*
X266116050Y-99194603D01*
X266116050Y-99194603D02*
X265973193Y-99242222D01*
X265973193Y-99242222D02*
X265877955Y-99242222D01*
X266687479Y-98337460D02*
X266735098Y-98289841D01*
X266735098Y-98289841D02*
X266830336Y-98242222D01*
X266830336Y-98242222D02*
X267068431Y-98242222D01*
X267068431Y-98242222D02*
X267163669Y-98289841D01*
X267163669Y-98289841D02*
X267211288Y-98337460D01*
X267211288Y-98337460D02*
X267258907Y-98432698D01*
X267258907Y-98432698D02*
X267258907Y-98527936D01*
X267258907Y-98527936D02*
X267211288Y-98670793D01*
X267211288Y-98670793D02*
X266639860Y-99242222D01*
X266639860Y-99242222D02*
X267258907Y-99242222D01*
X221825574Y-84642222D02*
X221825574Y-85356507D01*
X221825574Y-85356507D02*
X221777955Y-85499364D01*
X221777955Y-85499364D02*
X221682717Y-85594603D01*
X221682717Y-85594603D02*
X221539860Y-85642222D01*
X221539860Y-85642222D02*
X221444622Y-85642222D01*
X222349384Y-85642222D02*
X222539860Y-85642222D01*
X222539860Y-85642222D02*
X222635098Y-85594603D01*
X222635098Y-85594603D02*
X222682717Y-85546983D01*
X222682717Y-85546983D02*
X222777955Y-85404126D01*
X222777955Y-85404126D02*
X222825574Y-85213650D01*
X222825574Y-85213650D02*
X222825574Y-84832698D01*
X222825574Y-84832698D02*
X222777955Y-84737460D01*
X222777955Y-84737460D02*
X222730336Y-84689841D01*
X222730336Y-84689841D02*
X222635098Y-84642222D01*
X222635098Y-84642222D02*
X222444622Y-84642222D01*
X222444622Y-84642222D02*
X222349384Y-84689841D01*
X222349384Y-84689841D02*
X222301765Y-84737460D01*
X222301765Y-84737460D02*
X222254146Y-84832698D01*
X222254146Y-84832698D02*
X222254146Y-85070793D01*
X222254146Y-85070793D02*
X222301765Y-85166031D01*
X222301765Y-85166031D02*
X222349384Y-85213650D01*
X222349384Y-85213650D02*
X222444622Y-85261269D01*
X222444622Y-85261269D02*
X222635098Y-85261269D01*
X222635098Y-85261269D02*
X222730336Y-85213650D01*
X222730336Y-85213650D02*
X222777955Y-85166031D01*
X222777955Y-85166031D02*
X222825574Y-85070793D01*
X202347060Y-103320737D02*
X203061345Y-103320737D01*
X203061345Y-103320737D02*
X203204202Y-103368356D01*
X203204202Y-103368356D02*
X203299441Y-103463594D01*
X203299441Y-103463594D02*
X203347060Y-103606451D01*
X203347060Y-103606451D02*
X203347060Y-103701689D01*
X202347060Y-102415975D02*
X202347060Y-102606451D01*
X202347060Y-102606451D02*
X202394679Y-102701689D01*
X202394679Y-102701689D02*
X202442298Y-102749308D01*
X202442298Y-102749308D02*
X202585155Y-102844546D01*
X202585155Y-102844546D02*
X202775631Y-102892165D01*
X202775631Y-102892165D02*
X203156583Y-102892165D01*
X203156583Y-102892165D02*
X203251821Y-102844546D01*
X203251821Y-102844546D02*
X203299441Y-102796927D01*
X203299441Y-102796927D02*
X203347060Y-102701689D01*
X203347060Y-102701689D02*
X203347060Y-102511213D01*
X203347060Y-102511213D02*
X203299441Y-102415975D01*
X203299441Y-102415975D02*
X203251821Y-102368356D01*
X203251821Y-102368356D02*
X203156583Y-102320737D01*
X203156583Y-102320737D02*
X202918488Y-102320737D01*
X202918488Y-102320737D02*
X202823250Y-102368356D01*
X202823250Y-102368356D02*
X202775631Y-102415975D01*
X202775631Y-102415975D02*
X202728012Y-102511213D01*
X202728012Y-102511213D02*
X202728012Y-102701689D01*
X202728012Y-102701689D02*
X202775631Y-102796927D01*
X202775631Y-102796927D02*
X202823250Y-102844546D01*
X202823250Y-102844546D02*
X202918488Y-102892165D01*
X179258907Y-98142223D02*
X179258907Y-98856508D01*
X179258907Y-98856508D02*
X179211288Y-98999365D01*
X179211288Y-98999365D02*
X179116050Y-99094604D01*
X179116050Y-99094604D02*
X178973193Y-99142223D01*
X178973193Y-99142223D02*
X178877955Y-99142223D01*
X180258907Y-99142223D02*
X179687479Y-99142223D01*
X179973193Y-99142223D02*
X179973193Y-98142223D01*
X179973193Y-98142223D02*
X179877955Y-98285080D01*
X179877955Y-98285080D02*
X179782717Y-98380318D01*
X179782717Y-98380318D02*
X179687479Y-98427937D01*
X227598727Y-104549308D02*
X228408250Y-104549308D01*
X228408250Y-104549308D02*
X228503488Y-104501689D01*
X228503488Y-104501689D02*
X228551108Y-104454070D01*
X228551108Y-104454070D02*
X228598727Y-104358832D01*
X228598727Y-104358832D02*
X228598727Y-104168356D01*
X228598727Y-104168356D02*
X228551108Y-104073118D01*
X228551108Y-104073118D02*
X228503488Y-104025499D01*
X228503488Y-104025499D02*
X228408250Y-103977880D01*
X228408250Y-103977880D02*
X227598727Y-103977880D01*
X228598727Y-102977880D02*
X228598727Y-103549308D01*
X228598727Y-103263594D02*
X227598727Y-103263594D01*
X227598727Y-103263594D02*
X227741584Y-103358832D01*
X227741584Y-103358832D02*
X227836822Y-103454070D01*
X227836822Y-103454070D02*
X227884441Y-103549308D01*
X165258907Y-98142223D02*
X165258907Y-98856508D01*
X165258907Y-98856508D02*
X165211288Y-98999365D01*
X165211288Y-98999365D02*
X165116050Y-99094604D01*
X165116050Y-99094604D02*
X164973193Y-99142223D01*
X164973193Y-99142223D02*
X164877955Y-99142223D01*
X166211288Y-98142223D02*
X165735098Y-98142223D01*
X165735098Y-98142223D02*
X165687479Y-98618413D01*
X165687479Y-98618413D02*
X165735098Y-98570794D01*
X165735098Y-98570794D02*
X165830336Y-98523175D01*
X165830336Y-98523175D02*
X166068431Y-98523175D01*
X166068431Y-98523175D02*
X166163669Y-98570794D01*
X166163669Y-98570794D02*
X166211288Y-98618413D01*
X166211288Y-98618413D02*
X166258907Y-98713651D01*
X166258907Y-98713651D02*
X166258907Y-98951746D01*
X166258907Y-98951746D02*
X166211288Y-99046984D01*
X166211288Y-99046984D02*
X166163669Y-99094604D01*
X166163669Y-99094604D02*
X166068431Y-99142223D01*
X166068431Y-99142223D02*
X165830336Y-99142223D01*
X165830336Y-99142223D02*
X165735098Y-99094604D01*
X165735098Y-99094604D02*
X165687479Y-99046984D01*
X260782717Y-98142223D02*
X260782717Y-98856508D01*
X260782717Y-98856508D02*
X260735098Y-98999365D01*
X260735098Y-98999365D02*
X260639860Y-99094604D01*
X260639860Y-99094604D02*
X260497003Y-99142223D01*
X260497003Y-99142223D02*
X260401765Y-99142223D01*
X261782717Y-99142223D02*
X261211289Y-99142223D01*
X261497003Y-99142223D02*
X261497003Y-98142223D01*
X261497003Y-98142223D02*
X261401765Y-98285080D01*
X261401765Y-98285080D02*
X261306527Y-98380318D01*
X261306527Y-98380318D02*
X261211289Y-98427937D01*
X262401765Y-98142223D02*
X262497003Y-98142223D01*
X262497003Y-98142223D02*
X262592241Y-98189842D01*
X262592241Y-98189842D02*
X262639860Y-98237461D01*
X262639860Y-98237461D02*
X262687479Y-98332699D01*
X262687479Y-98332699D02*
X262735098Y-98523175D01*
X262735098Y-98523175D02*
X262735098Y-98761270D01*
X262735098Y-98761270D02*
X262687479Y-98951746D01*
X262687479Y-98951746D02*
X262639860Y-99046984D01*
X262639860Y-99046984D02*
X262592241Y-99094604D01*
X262592241Y-99094604D02*
X262497003Y-99142223D01*
X262497003Y-99142223D02*
X262401765Y-99142223D01*
X262401765Y-99142223D02*
X262306527Y-99094604D01*
X262306527Y-99094604D02*
X262258908Y-99046984D01*
X262258908Y-99046984D02*
X262211289Y-98951746D01*
X262211289Y-98951746D02*
X262163670Y-98761270D01*
X262163670Y-98761270D02*
X262163670Y-98523175D01*
X262163670Y-98523175D02*
X262211289Y-98332699D01*
X262211289Y-98332699D02*
X262258908Y-98237461D01*
X262258908Y-98237461D02*
X262306527Y-98189842D01*
X262306527Y-98189842D02*
X262401765Y-98142223D01*
X256258907Y-98242222D02*
X256258907Y-98956507D01*
X256258907Y-98956507D02*
X256211288Y-99099364D01*
X256211288Y-99099364D02*
X256116050Y-99194603D01*
X256116050Y-99194603D02*
X255973193Y-99242222D01*
X255973193Y-99242222D02*
X255877955Y-99242222D01*
X256877955Y-98670793D02*
X256782717Y-98623174D01*
X256782717Y-98623174D02*
X256735098Y-98575555D01*
X256735098Y-98575555D02*
X256687479Y-98480317D01*
X256687479Y-98480317D02*
X256687479Y-98432698D01*
X256687479Y-98432698D02*
X256735098Y-98337460D01*
X256735098Y-98337460D02*
X256782717Y-98289841D01*
X256782717Y-98289841D02*
X256877955Y-98242222D01*
X256877955Y-98242222D02*
X257068431Y-98242222D01*
X257068431Y-98242222D02*
X257163669Y-98289841D01*
X257163669Y-98289841D02*
X257211288Y-98337460D01*
X257211288Y-98337460D02*
X257258907Y-98432698D01*
X257258907Y-98432698D02*
X257258907Y-98480317D01*
X257258907Y-98480317D02*
X257211288Y-98575555D01*
X257211288Y-98575555D02*
X257163669Y-98623174D01*
X257163669Y-98623174D02*
X257068431Y-98670793D01*
X257068431Y-98670793D02*
X256877955Y-98670793D01*
X256877955Y-98670793D02*
X256782717Y-98718412D01*
X256782717Y-98718412D02*
X256735098Y-98766031D01*
X256735098Y-98766031D02*
X256687479Y-98861269D01*
X256687479Y-98861269D02*
X256687479Y-99051745D01*
X256687479Y-99051745D02*
X256735098Y-99146983D01*
X256735098Y-99146983D02*
X256782717Y-99194603D01*
X256782717Y-99194603D02*
X256877955Y-99242222D01*
X256877955Y-99242222D02*
X257068431Y-99242222D01*
X257068431Y-99242222D02*
X257163669Y-99194603D01*
X257163669Y-99194603D02*
X257211288Y-99146983D01*
X257211288Y-99146983D02*
X257258907Y-99051745D01*
X257258907Y-99051745D02*
X257258907Y-98861269D01*
X257258907Y-98861269D02*
X257211288Y-98766031D01*
X257211288Y-98766031D02*
X257163669Y-98718412D01*
X257163669Y-98718412D02*
X257068431Y-98670793D01*
X250782717Y-98142223D02*
X250782717Y-98856508D01*
X250782717Y-98856508D02*
X250735098Y-98999365D01*
X250735098Y-98999365D02*
X250639860Y-99094604D01*
X250639860Y-99094604D02*
X250497003Y-99142223D01*
X250497003Y-99142223D02*
X250401765Y-99142223D01*
X251782717Y-99142223D02*
X251211289Y-99142223D01*
X251497003Y-99142223D02*
X251497003Y-98142223D01*
X251497003Y-98142223D02*
X251401765Y-98285080D01*
X251401765Y-98285080D02*
X251306527Y-98380318D01*
X251306527Y-98380318D02*
X251211289Y-98427937D01*
X252735098Y-99142223D02*
X252163670Y-99142223D01*
X252449384Y-99142223D02*
X252449384Y-98142223D01*
X252449384Y-98142223D02*
X252354146Y-98285080D01*
X252354146Y-98285080D02*
X252258908Y-98380318D01*
X252258908Y-98380318D02*
X252163670Y-98427937D01*
X241216050Y-98308889D02*
X241216050Y-99023174D01*
X241216050Y-99023174D02*
X241168431Y-99166031D01*
X241168431Y-99166031D02*
X241073193Y-99261270D01*
X241073193Y-99261270D02*
X240930336Y-99308889D01*
X240930336Y-99308889D02*
X240835098Y-99308889D01*
X242216050Y-99308889D02*
X241644622Y-99308889D01*
X241930336Y-99308889D02*
X241930336Y-98308889D01*
X241930336Y-98308889D02*
X241835098Y-98451746D01*
X241835098Y-98451746D02*
X241739860Y-98546984D01*
X241739860Y-98546984D02*
X241644622Y-98594603D01*
X242597003Y-98404127D02*
X242644622Y-98356508D01*
X242644622Y-98356508D02*
X242739860Y-98308889D01*
X242739860Y-98308889D02*
X242977955Y-98308889D01*
X242977955Y-98308889D02*
X243073193Y-98356508D01*
X243073193Y-98356508D02*
X243120812Y-98404127D01*
X243120812Y-98404127D02*
X243168431Y-98499365D01*
X243168431Y-98499365D02*
X243168431Y-98594603D01*
X243168431Y-98594603D02*
X243120812Y-98737460D01*
X243120812Y-98737460D02*
X242549384Y-99308889D01*
X242549384Y-99308889D02*
X243168431Y-99308889D01*
X207258907Y-98142223D02*
X207258907Y-98856508D01*
X207258907Y-98856508D02*
X207211288Y-98999365D01*
X207211288Y-98999365D02*
X207116050Y-99094604D01*
X207116050Y-99094604D02*
X206973193Y-99142223D01*
X206973193Y-99142223D02*
X206877955Y-99142223D01*
X207639860Y-98142223D02*
X208306526Y-98142223D01*
X208306526Y-98142223D02*
X207877955Y-99142223D01*
D11*
%TO.C,J2*%
X259592241Y-87487403D02*
X259592241Y-97987403D01*
X262492241Y-97987403D02*
X259592241Y-97987403D01*
X262592241Y-87487403D02*
X259592241Y-87487403D01*
X268592241Y-87487403D02*
X265592241Y-87487403D01*
X268592241Y-87487403D02*
X268592241Y-97987403D01*
X268592241Y-97987403D02*
X265692241Y-97987403D01*
D12*
X264092241Y-94882403D02*
G75*
G02*
X262795978Y-89398827I0J2895000D01*
G01*
X265388504Y-89398826D02*
G75*
G02*
X264092241Y-94882404I-1296263J-2588577D01*
G01*
X265892241Y-91987403D02*
G75*
G02*
X262292241Y-91987403I-1800000J0D01*
G01*
X262292241Y-91987403D02*
G75*
G02*
X265892241Y-91987403I1800000J0D01*
G01*
D11*
%TO.C,J9*%
X220258908Y-85987403D02*
X223158908Y-85987403D01*
X220258908Y-96487403D02*
X220258908Y-85987403D01*
X220258908Y-96487403D02*
X223258908Y-96487403D01*
X226258908Y-96487403D02*
X229258908Y-96487403D01*
X226358908Y-85987403D02*
X229258908Y-85987403D01*
X229258908Y-96487403D02*
X229258908Y-85987403D01*
D12*
X223462645Y-94575980D02*
G75*
G02*
X224758908Y-89092402I1296263J2588577D01*
G01*
X224758908Y-89092403D02*
G75*
G02*
X226055171Y-94575979I0J-2895000D01*
G01*
X226558908Y-91987403D02*
G75*
G02*
X222958908Y-91987403I-1800000J0D01*
G01*
X222958908Y-91987403D02*
G75*
G02*
X226558908Y-91987403I1800000J0D01*
G01*
D11*
%TO.C,J6*%
X191592241Y-100987404D02*
X191592241Y-103987404D01*
X191592241Y-100987404D02*
X202092241Y-100987404D01*
X191592241Y-106987404D02*
X191592241Y-109987404D01*
X191592241Y-109987404D02*
X202092241Y-109987404D01*
X202092241Y-100987404D02*
X202092241Y-103887404D01*
X202092241Y-107087404D02*
X202092241Y-109987404D01*
D12*
X193503664Y-104191141D02*
G75*
G02*
X198987242Y-105487404I2588577J-1296263D01*
G01*
X198987241Y-105487404D02*
G75*
G02*
X193503665Y-106783667I-2895000J0D01*
G01*
X197892241Y-105487404D02*
G75*
G02*
X194292241Y-105487404I-1800000J0D01*
G01*
X194292241Y-105487404D02*
G75*
G02*
X197892241Y-105487404I1800000J0D01*
G01*
D11*
%TO.C,J1*%
X177592241Y-99487404D02*
X180492241Y-99487404D01*
X177592241Y-109987404D02*
X177592241Y-99487404D01*
X177592241Y-109987404D02*
X180592241Y-109987404D01*
X183592241Y-109987404D02*
X186592241Y-109987404D01*
X183692241Y-99487404D02*
X186592241Y-99487404D01*
X186592241Y-109987404D02*
X186592241Y-99487404D01*
D12*
X180795978Y-108075981D02*
G75*
G02*
X182092241Y-102592403I1296263J2588577D01*
G01*
X182092241Y-102592404D02*
G75*
G02*
X183388504Y-108075980I0J-2895000D01*
G01*
X183892241Y-105487404D02*
G75*
G02*
X180292241Y-105487404I-1800000J0D01*
G01*
X180292241Y-105487404D02*
G75*
G02*
X183892241Y-105487404I1800000J0D01*
G01*
%TO.C,RV5*%
X203922241Y-85434070D02*
X203922241Y-90100070D01*
X203922241Y-94009070D02*
X203922241Y-97024070D01*
X206722241Y-85434070D02*
X203922241Y-85434070D01*
X209221241Y-85434070D02*
X208462241Y-85434070D01*
X211392241Y-85434070D02*
X210962241Y-85434070D01*
X216262241Y-85434070D02*
X213792241Y-85434070D01*
X216262241Y-85434070D02*
X216262241Y-90100070D01*
X216262241Y-94009070D02*
X216262241Y-97024070D01*
X216262241Y-97024070D02*
X203922241Y-97024070D01*
X212092241Y-87054070D02*
X208092241Y-87054070D01*
X208092241Y-88554070D01*
X212092241Y-88554070D01*
X212092241Y-87054070D01*
X212092241Y-95554070D02*
X208092241Y-95554070D01*
X208092241Y-97054070D01*
X212092241Y-97054070D01*
X212092241Y-95554070D01*
%TO.C,RV3*%
X161922241Y-85434070D02*
X161922241Y-90100070D01*
X161922241Y-94009070D02*
X161922241Y-97024070D01*
X164722241Y-85434070D02*
X161922241Y-85434070D01*
X167221241Y-85434070D02*
X166462241Y-85434070D01*
X169392241Y-85434070D02*
X168962241Y-85434070D01*
X174262241Y-85434070D02*
X171792241Y-85434070D01*
X174262241Y-85434070D02*
X174262241Y-90100070D01*
X174262241Y-94009070D02*
X174262241Y-97024070D01*
X174262241Y-97024070D02*
X161922241Y-97024070D01*
X170092241Y-87054070D02*
X166092241Y-87054070D01*
X166092241Y-88554070D01*
X170092241Y-88554070D01*
X170092241Y-87054070D01*
X170092241Y-95554070D02*
X166092241Y-95554070D01*
X166092241Y-97054070D01*
X170092241Y-97054070D01*
X170092241Y-95554070D01*
D13*
%TO.C,U1*%
X222858908Y-100612404D02*
X226658908Y-100612404D01*
X222858908Y-102142404D02*
X222858908Y-100612404D01*
X222858908Y-106142404D02*
X222858908Y-104582404D01*
X222858908Y-110112404D02*
X222858908Y-108582404D01*
X226658908Y-100612404D02*
X226658908Y-102142404D01*
X226658908Y-106142404D02*
X226658908Y-104582404D01*
X226658908Y-108582404D02*
X226658908Y-110112404D01*
X226658908Y-110112404D02*
X222858908Y-110112404D01*
D11*
X225558908Y-99862404D02*
G75*
G02*
X225358908Y-99862404I-100000J0D01*
G01*
X225358908Y-99862404D02*
G75*
G02*
X225558908Y-99862404I100000J0D01*
G01*
%TO.C,J5*%
X163592241Y-99487404D02*
X166492241Y-99487404D01*
X163592241Y-109987404D02*
X163592241Y-99487404D01*
X163592241Y-109987404D02*
X166592241Y-109987404D01*
X169592241Y-109987404D02*
X172592241Y-109987404D01*
X169692241Y-99487404D02*
X172592241Y-99487404D01*
X172592241Y-109987404D02*
X172592241Y-99487404D01*
D12*
X166795978Y-108075981D02*
G75*
G02*
X168092241Y-102592403I1296263J2588577D01*
G01*
X168092241Y-102592404D02*
G75*
G02*
X169388504Y-108075980I0J-2895000D01*
G01*
X169892241Y-105487404D02*
G75*
G02*
X166292241Y-105487404I-1800000J0D01*
G01*
X166292241Y-105487404D02*
G75*
G02*
X169892241Y-105487404I1800000J0D01*
G01*
%TO.C,RV2*%
X175922241Y-85434070D02*
X175922241Y-90100070D01*
X175922241Y-94009070D02*
X175922241Y-97024070D01*
X178722241Y-85434070D02*
X175922241Y-85434070D01*
X181221241Y-85434070D02*
X180462241Y-85434070D01*
X183392241Y-85434070D02*
X182962241Y-85434070D01*
X188262241Y-85434070D02*
X185792241Y-85434070D01*
X188262241Y-85434070D02*
X188262241Y-90100070D01*
X188262241Y-94009070D02*
X188262241Y-97024070D01*
X188262241Y-97024070D02*
X175922241Y-97024070D01*
X184092241Y-87054070D02*
X180092241Y-87054070D01*
X180092241Y-88554070D01*
X184092241Y-88554070D01*
X184092241Y-87054070D01*
X184092241Y-95554070D02*
X180092241Y-95554070D01*
X180092241Y-97054070D01*
X184092241Y-97054070D01*
X184092241Y-95554070D01*
%TO.C,RV4*%
X189922241Y-85434070D02*
X189922241Y-90100070D01*
X189922241Y-94009070D02*
X189922241Y-97024070D01*
X192722241Y-85434070D02*
X189922241Y-85434070D01*
X195221241Y-85434070D02*
X194462241Y-85434070D01*
X197392241Y-85434070D02*
X196962241Y-85434070D01*
X202262241Y-85434070D02*
X199792241Y-85434070D01*
X202262241Y-85434070D02*
X202262241Y-90100070D01*
X202262241Y-94009070D02*
X202262241Y-97024070D01*
X202262241Y-97024070D02*
X189922241Y-97024070D01*
X198092241Y-87054070D02*
X194092241Y-87054070D01*
X194092241Y-88554070D01*
X198092241Y-88554070D01*
X198092241Y-87054070D01*
X198092241Y-95554070D02*
X194092241Y-95554070D01*
X194092241Y-97054070D01*
X198092241Y-97054070D01*
X198092241Y-95554070D01*
D11*
%TO.C,J10*%
X259592241Y-99487404D02*
X262492241Y-99487404D01*
X259592241Y-109987404D02*
X259592241Y-99487404D01*
X259592241Y-109987404D02*
X262592241Y-109987404D01*
X265592241Y-109987404D02*
X268592241Y-109987404D01*
X265692241Y-99487404D02*
X268592241Y-99487404D01*
X268592241Y-109987404D02*
X268592241Y-99487404D01*
D12*
X262795978Y-108075981D02*
G75*
G02*
X264092241Y-102592403I1296263J2588577D01*
G01*
X264092241Y-102592404D02*
G75*
G02*
X265388504Y-108075980I0J-2895000D01*
G01*
X265892241Y-105487404D02*
G75*
G02*
X262292241Y-105487404I-1800000J0D01*
G01*
X262292241Y-105487404D02*
G75*
G02*
X265892241Y-105487404I1800000J0D01*
G01*
D11*
%TO.C,J8*%
X249592241Y-87487403D02*
X249592241Y-97987403D01*
X252492241Y-97987403D02*
X249592241Y-97987403D01*
X252592241Y-87487403D02*
X249592241Y-87487403D01*
X258592241Y-87487403D02*
X255592241Y-87487403D01*
X258592241Y-87487403D02*
X258592241Y-97987403D01*
X258592241Y-97987403D02*
X255692241Y-97987403D01*
D12*
X254092241Y-94882403D02*
G75*
G02*
X252795978Y-89398827I0J2895000D01*
G01*
X255388504Y-89398826D02*
G75*
G02*
X254092241Y-94882404I-1296263J-2588577D01*
G01*
X255892241Y-91987403D02*
G75*
G02*
X252292241Y-91987403I-1800000J0D01*
G01*
X252292241Y-91987403D02*
G75*
G02*
X255892241Y-91987403I1800000J0D01*
G01*
D11*
%TO.C,J11*%
X249592241Y-99487404D02*
X252492241Y-99487404D01*
X249592241Y-109987404D02*
X249592241Y-99487404D01*
X249592241Y-109987404D02*
X252592241Y-109987404D01*
X255592241Y-109987404D02*
X258592241Y-109987404D01*
X255692241Y-99487404D02*
X258592241Y-99487404D01*
X258592241Y-109987404D02*
X258592241Y-99487404D01*
D12*
X252795978Y-108075981D02*
G75*
G02*
X254092241Y-102592403I1296263J2588577D01*
G01*
X254092241Y-102592404D02*
G75*
G02*
X255388504Y-108075980I0J-2895000D01*
G01*
X255892241Y-105487404D02*
G75*
G02*
X252292241Y-105487404I-1800000J0D01*
G01*
X252292241Y-105487404D02*
G75*
G02*
X255892241Y-105487404I1800000J0D01*
G01*
%TO.C,RV1*%
X232955574Y-99317404D02*
X232955574Y-102116404D01*
X232955574Y-99317404D02*
X237621574Y-99317404D01*
X232955574Y-103858404D02*
X232955574Y-104617404D01*
X232955574Y-106358404D02*
X232955574Y-107117404D01*
X232955574Y-108857404D02*
X232955574Y-111657404D01*
X232955574Y-111657404D02*
X237621574Y-111657404D01*
X241530574Y-99317404D02*
X244545574Y-99317404D01*
X241530574Y-111657404D02*
X244545574Y-111657404D01*
X244545574Y-99317404D02*
X244545574Y-111657404D01*
X234575574Y-103487404D02*
X236075574Y-103487404D01*
X236075574Y-107487404D01*
X234575574Y-107487404D01*
X234575574Y-103487404D01*
X243075574Y-103487404D02*
X244575574Y-103487404D01*
X244575574Y-107487404D01*
X243075574Y-107487404D01*
X243075574Y-103487404D01*
D11*
%TO.C,J12*%
X234925574Y-87554070D02*
X234925574Y-98054070D01*
X237825574Y-98054070D02*
X234925574Y-98054070D01*
X237925574Y-87554070D02*
X234925574Y-87554070D01*
X243925574Y-87554070D02*
X240925574Y-87554070D01*
X243925574Y-87554070D02*
X243925574Y-98054070D01*
X243925574Y-98054070D02*
X241025574Y-98054070D01*
D12*
X239425574Y-94949070D02*
G75*
G02*
X238129311Y-89465494I0J2895000D01*
G01*
X240721837Y-89465493D02*
G75*
G02*
X239425574Y-94949071I-1296263J-2588577D01*
G01*
X241225574Y-92054070D02*
G75*
G02*
X237625574Y-92054070I-1800000J0D01*
G01*
X237625574Y-92054070D02*
G75*
G02*
X241225574Y-92054070I1800000J0D01*
G01*
D11*
%TO.C,J7*%
X205592241Y-99487404D02*
X208492241Y-99487404D01*
X205592241Y-109987404D02*
X205592241Y-99487404D01*
X205592241Y-109987404D02*
X208592241Y-109987404D01*
X211592241Y-109987404D02*
X214592241Y-109987404D01*
X211692241Y-99487404D02*
X214592241Y-99487404D01*
X214592241Y-109987404D02*
X214592241Y-99487404D01*
D12*
X208795978Y-108075981D02*
G75*
G02*
X210092241Y-102592403I1296263J2588577D01*
G01*
X210092241Y-102592404D02*
G75*
G02*
X211388504Y-108075980I0J-2895000D01*
G01*
X211892241Y-105487404D02*
G75*
G02*
X208292241Y-105487404I-1800000J0D01*
G01*
X208292241Y-105487404D02*
G75*
G02*
X211892241Y-105487404I1800000J0D01*
G01*
%TD*%
M02*
