%TF.GenerationSoftware,KiCad,Pcbnew,9.0.7*%
%TF.CreationDate,2026-03-17T19:37:40-05:00*%
%TF.ProjectId,fieldbox_font_pcb,6669656c-6462-46f7-985f-666f6e745f70,rev?*%
%TF.SameCoordinates,Original*%
%TF.FileFunction,Copper,L3,Inr*%
%TF.FilePolarity,Positive*%
%FSLAX46Y46*%
G04 Gerber Fmt 4.6, Leading zero omitted, Abs format (unit mm)*
G04 Created by KiCad (PCBNEW 9.0.7) date 2026-03-17 19:37:40*
%MOMM*%
%LPD*%
G01*
G04 APERTURE LIST*
G04 Aperture macros list*
%AMRoundRect*
0 Rectangle with rounded corners*
0 $1 Rounding radius*
0 $2 $3 $4 $5 $6 $7 $8 $9 X,Y pos of 4 corners*
0 Add a 4 corners polygon primitive as box body*
4,1,4,$2,$3,$4,$5,$6,$7,$8,$9,$2,$3,0*
0 Add four circle primitives for the rounded corners*
1,1,$1+$1,$2,$3*
1,1,$1+$1,$4,$5*
1,1,$1+$1,$6,$7*
1,1,$1+$1,$8,$9*
0 Add four rect primitives between the rounded corners*
20,1,$1+$1,$2,$3,$4,$5,0*
20,1,$1+$1,$4,$5,$6,$7,0*
20,1,$1+$1,$6,$7,$8,$9,0*
20,1,$1+$1,$8,$9,$2,$3,0*%
G04 Aperture macros list end*
%TA.AperFunction,ComponentPad*%
%ADD10O,3.100000X2.300000*%
%TD*%
%TA.AperFunction,ComponentPad*%
%ADD11RoundRect,0.650000X0.650000X0.650000X-0.650000X0.650000X-0.650000X-0.650000X0.650000X-0.650000X0*%
%TD*%
%TA.AperFunction,ComponentPad*%
%ADD12RoundRect,0.650000X-0.650000X-0.650000X0.650000X-0.650000X0.650000X0.650000X-0.650000X0.650000X0*%
%TD*%
%TA.AperFunction,ComponentPad*%
%ADD13O,3.100000X2.100000*%
%TD*%
%TA.AperFunction,ComponentPad*%
%ADD14O,2.300000X3.100000*%
%TD*%
%TA.AperFunction,ComponentPad*%
%ADD15RoundRect,0.650000X-0.650000X0.650000X-0.650000X-0.650000X0.650000X-0.650000X0.650000X0.650000X0*%
%TD*%
%TA.AperFunction,ComponentPad*%
%ADD16R,1.800000X1.800000*%
%TD*%
%TA.AperFunction,ComponentPad*%
%ADD17C,1.800000*%
%TD*%
%TA.AperFunction,ComponentPad*%
%ADD18RoundRect,0.500000X-1.000000X0.500000X-1.000000X-0.500000X1.000000X-0.500000X1.000000X0.500000X0*%
%TD*%
%TA.AperFunction,ComponentPad*%
%ADD19RoundRect,0.500000X-0.500000X-1.000000X0.500000X-1.000000X0.500000X1.000000X-0.500000X1.000000X0*%
%TD*%
%TA.AperFunction,ComponentPad*%
%ADD20R,1.700000X1.700000*%
%TD*%
%TA.AperFunction,ComponentPad*%
%ADD21C,1.700000*%
%TD*%
%TA.AperFunction,ViaPad*%
%ADD22C,0.600000*%
%TD*%
%TA.AperFunction,Conductor*%
%ADD23C,0.500000*%
%TD*%
G04 APERTURE END LIST*
D10*
%TO.N,GND*%
%TO.C,J2*%
X264092241Y-85507403D03*
D11*
%TO.N,/EURORACK_AUDIO_OUT_L*%
X264092241Y-96907403D03*
%TO.N,GND*%
X264092241Y-88607403D03*
%TD*%
D12*
%TO.N,/HEADPHONE_RING*%
%TO.C,J9*%
X224758908Y-95367403D03*
D13*
%TO.N,GND*%
X224758908Y-98467403D03*
D12*
%TO.N,/HEADPHONE_TIP*%
X224758908Y-87067403D03*
%TD*%
D14*
%TO.N,GND*%
%TO.C,J6*%
X189612241Y-105487404D03*
D15*
%TO.N,/EURORACK_CV_IN_3*%
X201012241Y-105487404D03*
%TO.N,Net-(J6-PadTN)*%
X192712241Y-105487404D03*
%TD*%
D10*
%TO.N,GND*%
%TO.C,J1*%
X182092241Y-111967404D03*
D12*
%TO.N,/EURORACK_CV_IN_1*%
X182092241Y-100567404D03*
%TO.N,Net-(J1-PadTN)*%
X182092241Y-108867404D03*
%TD*%
D16*
%TO.N,+5V*%
%TO.C,RV5*%
X212592241Y-84554070D03*
D17*
%TO.N,Net-(J7-PadTN)*%
X210092241Y-84554070D03*
%TO.N,GND*%
X207592241Y-84554070D03*
D18*
X214842241Y-92054070D03*
X205342241Y-92054070D03*
%TD*%
D16*
%TO.N,+5V*%
%TO.C,RV3*%
X170592241Y-84554070D03*
D17*
%TO.N,Net-(J5-PadTN)*%
X168092241Y-84554070D03*
%TO.N,GND*%
X165592241Y-84554070D03*
D18*
X172842241Y-92054070D03*
X163342241Y-92054070D03*
%TD*%
D10*
%TO.N,GND*%
%TO.C,J5*%
X168092241Y-111967404D03*
D12*
%TO.N,/EURORACK_CV_IN_2*%
X168092241Y-100567404D03*
%TO.N,Net-(J5-PadTN)*%
X168092241Y-108867404D03*
%TD*%
D16*
%TO.N,+5V*%
%TO.C,RV2*%
X184592241Y-84554070D03*
D17*
%TO.N,Net-(J1-PadTN)*%
X182092241Y-84554070D03*
%TO.N,GND*%
X179592241Y-84554070D03*
D18*
X186842241Y-92054070D03*
X177342241Y-92054070D03*
%TD*%
D16*
%TO.N,+5V*%
%TO.C,RV4*%
X198592241Y-84554070D03*
D17*
%TO.N,Net-(J6-PadTN)*%
X196092241Y-84554070D03*
%TO.N,GND*%
X193592241Y-84554070D03*
D18*
X200842241Y-92054070D03*
X191342241Y-92054070D03*
%TD*%
D10*
%TO.N,GND*%
%TO.C,J10*%
X264092241Y-111967404D03*
D12*
%TO.N,/EURORACK_AUDIO_IN_L*%
X264092241Y-100567404D03*
%TO.N,GND*%
X264092241Y-108867404D03*
%TD*%
D10*
%TO.N,GND*%
%TO.C,J8*%
X254092241Y-85507403D03*
D11*
%TO.N,/EURORACK_AUDIO_OUT_R*%
X254092241Y-96907403D03*
%TO.N,GND*%
X254092241Y-88607403D03*
%TD*%
D10*
%TO.N,GND*%
%TO.C,J11*%
X254092241Y-111967404D03*
D12*
%TO.N,/EURORACK_AUDIO_IN_R*%
X254092241Y-100567404D03*
%TO.N,GND*%
X254092241Y-108867404D03*
%TD*%
D16*
%TO.N,GND*%
%TO.C,RV1*%
X229575574Y-102987404D03*
D17*
%TO.N,/VOL_KNOB_L_VAR*%
X229575574Y-105487404D03*
%TO.N,/VOL_KNOB_L_FIXED*%
X229575574Y-107987404D03*
%TO.N,GND*%
X232075574Y-102987404D03*
%TO.N,/VOL_KNOB_R_VAR*%
X232075574Y-105487404D03*
%TO.N,/VOL_KNOB_R_FIXED*%
X232075574Y-107987404D03*
D19*
%TO.N,GND*%
X239575574Y-100737404D03*
X239575574Y-110237404D03*
%TD*%
D11*
%TO.N,/MIDI_IN_R*%
%TO.C,J12*%
X239425574Y-88674070D03*
D13*
%TO.N,GND*%
X239425574Y-85574070D03*
D11*
%TO.N,/MIDI_IN_S*%
X239425574Y-96974070D03*
%TD*%
D10*
%TO.N,GND*%
%TO.C,J7*%
X210092241Y-111967404D03*
D12*
%TO.N,/EURORACK_CV_IN_4*%
X210092241Y-100567404D03*
%TO.N,Net-(J7-PadTN)*%
X210092241Y-108867404D03*
%TD*%
D20*
%TO.N,+5V*%
%TO.C,J14*%
X194100734Y-80355294D03*
D21*
%TO.N,/EURORACK_CV_IN_2*%
X196640734Y-80355294D03*
%TO.N,/EURORACK_CV_IN_1*%
X199180734Y-80355294D03*
%TO.N,/EURORACK_CV_IN_3*%
X201720734Y-80355294D03*
%TO.N,/EURORACK_CV_IN_4*%
X204260734Y-80355294D03*
%TO.N,+5V*%
X206800734Y-80355294D03*
%TD*%
D20*
%TO.N,/USB_VBUS*%
%TO.C,J15*%
X174338758Y-116974716D03*
D21*
%TO.N,/USB_CC1*%
X176878758Y-116974716D03*
%TO.N,/USB_CC2*%
X179418758Y-116974716D03*
%TO.N,GND*%
X181958758Y-116974716D03*
%TO.N,/MIDI_IN_S*%
X184498758Y-116974716D03*
%TO.N,/MIDI_IN_R*%
X187038758Y-116974716D03*
%TO.N,GND*%
X189578758Y-116974716D03*
%TO.N,/USB_D-*%
X192118758Y-116974716D03*
%TO.N,GND*%
X194658758Y-116974716D03*
%TO.N,/USB_D+*%
X197198758Y-116974716D03*
%TO.N,GND*%
X199738758Y-116974716D03*
%TD*%
D20*
%TO.N,/EURORACK_AUDIO_OUT_R*%
%TO.C,J16*%
X260002734Y-80354992D03*
D21*
%TO.N,/EURORACK_AUDIO_OUT_L*%
X262542734Y-80354992D03*
%TO.N,/EURORACK_AUDIO_IN_R*%
X265082734Y-80354992D03*
%TO.N,/EURORACK_AUDIO_IN_L*%
X267622734Y-80354992D03*
%TD*%
D20*
%TO.N,/VOL_KNOB_L_FIXED*%
%TO.C,J13*%
X239743991Y-80355294D03*
D21*
%TO.N,/VOL_KNOB_R_FIXED*%
X242283991Y-80355294D03*
%TO.N,/VOL_KNOB_L_VAR*%
X244823991Y-80355294D03*
%TO.N,/HEADPHONE_TIP*%
X247363991Y-80355294D03*
%TO.N,/HEADPHONE_RING*%
X249903991Y-80355294D03*
%TO.N,/VOL_KNOB_R_VAR*%
X252443991Y-80355294D03*
%TD*%
D22*
%TO.N,GND*%
X227053199Y-108961939D03*
X221650388Y-102099715D03*
X226449614Y-100813216D03*
X226294477Y-109753889D03*
X221457662Y-107356491D03*
X227639200Y-101431269D03*
%TO.N,/MIDI_IN_S*%
X234592241Y-97054070D03*
%TO.N,/USB_VBUS*%
X224751399Y-107662404D03*
X198817159Y-113890125D03*
X213196367Y-107958196D03*
%TO.N,/MIDI_IN_R*%
X234711875Y-89377949D03*
%TO.N,/VOL_KNOB_R_VAR*%
X232992241Y-104715676D03*
%TO.N,/HEADPHONE_TIP*%
X242092241Y-83554070D03*
%TO.N,/HEADPHONE_RING*%
X234592241Y-95054070D03*
%TD*%
D23*
%TO.N,GND*%
X190592241Y-115961233D02*
X189578758Y-116974716D01*
X193592241Y-115908199D02*
X193592241Y-115354070D01*
X181958758Y-116974716D02*
X183092241Y-115841233D01*
X183092241Y-115841233D02*
X183092241Y-115354070D01*
X190592241Y-115961233D02*
X190592241Y-115354070D01*
X194658758Y-116974716D02*
X193592241Y-115908199D01*
%TD*%
%TA.AperFunction,Conductor*%
%TO.N,GND*%
G36*
X254342241Y-111667404D02*
G01*
X253842241Y-111667404D01*
X253842241Y-109167404D01*
X254342241Y-109167404D01*
X254342241Y-111667404D01*
G37*
%TD.AperFunction*%
%TA.AperFunction,Conductor*%
G36*
X264342241Y-111667404D02*
G01*
X263842241Y-111667404D01*
X263842241Y-109167404D01*
X264342241Y-109167404D01*
X264342241Y-111667404D01*
G37*
%TD.AperFunction*%
%TA.AperFunction,Conductor*%
G36*
X254342241Y-88307403D02*
G01*
X253842241Y-88307403D01*
X253842241Y-85807403D01*
X254342241Y-85807403D01*
X254342241Y-88307403D01*
G37*
%TD.AperFunction*%
%TA.AperFunction,Conductor*%
G36*
X264342241Y-88307403D02*
G01*
X263842241Y-88307403D01*
X263842241Y-85807403D01*
X264342241Y-85807403D01*
X264342241Y-88307403D01*
G37*
%TD.AperFunction*%
%TA.AperFunction,Conductor*%
G36*
X192241632Y-79074255D02*
G01*
X192287387Y-79127059D01*
X192297331Y-79196217D01*
X192293809Y-79212681D01*
X192260848Y-79327876D01*
X192260847Y-79327880D01*
X192250234Y-79447260D01*
X192250234Y-81263322D01*
X192250235Y-81263328D01*
X192260847Y-81382709D01*
X192316823Y-81578339D01*
X192316824Y-81578342D01*
X192316825Y-81578343D01*
X192411036Y-81758701D01*
X192421241Y-81771216D01*
X192539624Y-81916403D01*
X192599243Y-81965015D01*
X192697327Y-82044992D01*
X192877685Y-82139203D01*
X192877687Y-82139203D01*
X192877688Y-82139204D01*
X192897089Y-82144755D01*
X193073316Y-82195180D01*
X193192697Y-82205794D01*
X195008770Y-82205793D01*
X195128152Y-82195180D01*
X195323783Y-82139203D01*
X195504141Y-82044992D01*
X195588013Y-81976602D01*
X195652408Y-81949493D01*
X195721238Y-81961502D01*
X195728373Y-81965317D01*
X195820511Y-82018512D01*
X195820514Y-82018513D01*
X195820522Y-82018518D01*
X196044634Y-82111348D01*
X196278945Y-82174132D01*
X196459320Y-82197878D01*
X196519445Y-82205794D01*
X196519446Y-82205794D01*
X196762023Y-82205794D01*
X196810122Y-82199461D01*
X197002523Y-82174132D01*
X197236834Y-82111348D01*
X197460946Y-82018518D01*
X197671023Y-81897230D01*
X197835248Y-81771216D01*
X197900417Y-81746022D01*
X197968862Y-81760060D01*
X197986220Y-81771216D01*
X198150445Y-81897230D01*
X198360522Y-82018518D01*
X198584634Y-82111348D01*
X198818945Y-82174132D01*
X198999320Y-82197878D01*
X199059445Y-82205794D01*
X199059446Y-82205794D01*
X199302023Y-82205794D01*
X199350122Y-82199461D01*
X199542523Y-82174132D01*
X199776834Y-82111348D01*
X200000946Y-82018518D01*
X200211023Y-81897230D01*
X200375248Y-81771216D01*
X200440417Y-81746022D01*
X200508862Y-81760060D01*
X200526220Y-81771216D01*
X200690445Y-81897230D01*
X200900522Y-82018518D01*
X201124634Y-82111348D01*
X201358945Y-82174132D01*
X201539320Y-82197878D01*
X201599445Y-82205794D01*
X201599446Y-82205794D01*
X201842023Y-82205794D01*
X201890122Y-82199461D01*
X202082523Y-82174132D01*
X202316834Y-82111348D01*
X202540946Y-82018518D01*
X202751023Y-81897230D01*
X202915248Y-81771216D01*
X202980417Y-81746022D01*
X203048862Y-81760060D01*
X203066220Y-81771216D01*
X203230445Y-81897230D01*
X203440522Y-82018518D01*
X203664634Y-82111348D01*
X203898945Y-82174132D01*
X204079320Y-82197878D01*
X204139445Y-82205794D01*
X204139446Y-82205794D01*
X204382023Y-82205794D01*
X204430122Y-82199461D01*
X204622523Y-82174132D01*
X204856834Y-82111348D01*
X205080946Y-82018518D01*
X205291023Y-81897230D01*
X205455248Y-81771216D01*
X205520417Y-81746022D01*
X205588862Y-81760060D01*
X205606220Y-81771216D01*
X205770445Y-81897230D01*
X205980522Y-82018518D01*
X206204634Y-82111348D01*
X206438945Y-82174132D01*
X206619320Y-82197878D01*
X206679445Y-82205794D01*
X206679446Y-82205794D01*
X206922023Y-82205794D01*
X206970122Y-82199461D01*
X207162523Y-82174132D01*
X207396834Y-82111348D01*
X207620946Y-82018518D01*
X207831023Y-81897230D01*
X208023472Y-81749559D01*
X208194999Y-81578032D01*
X208342670Y-81385583D01*
X208463958Y-81175506D01*
X208556788Y-80951394D01*
X208619572Y-80717083D01*
X208651234Y-80476582D01*
X208651234Y-80234006D01*
X208619572Y-79993505D01*
X208556788Y-79759194D01*
X208463958Y-79535082D01*
X208342670Y-79325005D01*
X208288228Y-79254054D01*
X208263035Y-79188887D01*
X208277073Y-79120443D01*
X208325887Y-79070453D01*
X208386605Y-79054570D01*
X237817850Y-79054570D01*
X237884889Y-79074255D01*
X237930644Y-79127059D01*
X237940588Y-79196217D01*
X237937066Y-79212681D01*
X237904105Y-79327876D01*
X237904104Y-79327880D01*
X237893491Y-79447260D01*
X237893491Y-81263322D01*
X237893492Y-81263328D01*
X237904104Y-81382709D01*
X237960080Y-81578339D01*
X237960081Y-81578342D01*
X237960082Y-81578343D01*
X238054293Y-81758701D01*
X238064498Y-81771216D01*
X238182881Y-81916403D01*
X238242500Y-81965015D01*
X238340584Y-82044992D01*
X238520942Y-82139203D01*
X238520944Y-82139203D01*
X238520945Y-82139204D01*
X238540346Y-82144755D01*
X238716573Y-82195180D01*
X238835954Y-82205794D01*
X240652027Y-82205793D01*
X240771409Y-82195180D01*
X240967040Y-82139203D01*
X241147398Y-82044992D01*
X241231270Y-81976602D01*
X241295665Y-81949493D01*
X241364495Y-81961502D01*
X241371630Y-81965317D01*
X241463768Y-82018512D01*
X241463772Y-82018514D01*
X241463779Y-82018518D01*
X241463784Y-82018520D01*
X241463790Y-82018523D01*
X241656979Y-82098544D01*
X241711383Y-82142385D01*
X241733448Y-82208679D01*
X241716169Y-82276378D01*
X241665032Y-82323989D01*
X241647847Y-82331035D01*
X241593021Y-82348849D01*
X241410627Y-82441785D01*
X241245027Y-82562098D01*
X241100269Y-82706856D01*
X240979956Y-82872456D01*
X240887022Y-83054846D01*
X240823763Y-83249535D01*
X240791741Y-83451718D01*
X240791741Y-83656421D01*
X240823763Y-83858604D01*
X240850816Y-83941863D01*
X240887021Y-84053289D01*
X240887022Y-84053292D01*
X240887023Y-84053293D01*
X240900302Y-84079356D01*
X240913197Y-84148025D01*
X240886919Y-84212765D01*
X240829812Y-84253021D01*
X240760007Y-84256013D01*
X240733521Y-84246134D01*
X240520572Y-84137630D01*
X240288533Y-84062235D01*
X240047567Y-84024070D01*
X239675574Y-84024070D01*
X239675574Y-85274070D01*
X239175574Y-85274070D01*
X239175574Y-84024070D01*
X238803581Y-84024070D01*
X238562614Y-84062235D01*
X238330575Y-84137630D01*
X238113196Y-84248391D01*
X237915814Y-84391798D01*
X237743302Y-84564310D01*
X237599895Y-84761692D01*
X237489134Y-84979071D01*
X237413739Y-85211110D01*
X237395849Y-85324070D01*
X238758586Y-85324070D01*
X238741369Y-85334010D01*
X238685514Y-85389865D01*
X238646018Y-85458274D01*
X238625574Y-85534574D01*
X238625574Y-85613566D01*
X238646018Y-85689866D01*
X238685514Y-85758275D01*
X238741369Y-85814130D01*
X238758586Y-85824070D01*
X237395849Y-85824070D01*
X237413739Y-85937029D01*
X237489134Y-86169068D01*
X237599895Y-86386447D01*
X237743775Y-86584480D01*
X237767255Y-86650287D01*
X237751430Y-86718341D01*
X237723989Y-86751656D01*
X237604885Y-86853381D01*
X237436162Y-87050929D01*
X237300417Y-87272446D01*
X237201001Y-87512459D01*
X237140352Y-87765079D01*
X237125074Y-87959211D01*
X237125074Y-89388914D01*
X237125075Y-89388929D01*
X237140352Y-89583061D01*
X237201001Y-89835680D01*
X237300417Y-90075693D01*
X237300419Y-90075697D01*
X237300420Y-90075698D01*
X237436162Y-90297210D01*
X237604885Y-90494759D01*
X237802434Y-90663482D01*
X238023946Y-90799224D01*
X238023948Y-90799224D01*
X238023950Y-90799226D01*
X238085267Y-90824624D01*
X238263964Y-90898643D01*
X238516580Y-90959291D01*
X238710721Y-90974570D01*
X240140426Y-90974569D01*
X240334568Y-90959291D01*
X240587184Y-90898643D01*
X240827202Y-90799224D01*
X241048714Y-90663482D01*
X241246263Y-90494759D01*
X241414986Y-90297210D01*
X241550728Y-90075698D01*
X241650147Y-89835680D01*
X241710795Y-89583064D01*
X241726074Y-89388923D01*
X241726073Y-88646899D01*
X241726073Y-87959225D01*
X241726072Y-87959217D01*
X241710795Y-87765076D01*
X241650147Y-87512460D01*
X241550728Y-87272442D01*
X241414986Y-87050930D01*
X241246263Y-86853381D01*
X241127157Y-86751655D01*
X241088965Y-86693149D01*
X241088467Y-86623281D01*
X241107372Y-86584480D01*
X241251252Y-86386447D01*
X241362013Y-86169068D01*
X241437408Y-85937029D01*
X241455299Y-85824070D01*
X240092562Y-85824070D01*
X240109779Y-85814130D01*
X240165634Y-85758275D01*
X240205130Y-85689866D01*
X240225574Y-85613566D01*
X240225574Y-85534574D01*
X240205130Y-85458274D01*
X240165634Y-85389865D01*
X240109779Y-85334010D01*
X240092562Y-85324070D01*
X241455299Y-85324070D01*
X241453683Y-85313864D01*
X241444740Y-85257403D01*
X252061270Y-85257403D01*
X253425253Y-85257403D01*
X253408036Y-85267343D01*
X253352181Y-85323198D01*
X253312685Y-85391607D01*
X253292241Y-85467907D01*
X253292241Y-85546899D01*
X253312685Y-85623199D01*
X253352181Y-85691608D01*
X253408036Y-85747463D01*
X253425253Y-85757403D01*
X252061270Y-85757403D01*
X252082870Y-85893780D01*
X252163124Y-86140780D01*
X252281037Y-86372194D01*
X252433686Y-86582299D01*
X252433690Y-86582304D01*
X252617343Y-86765957D01*
X252732022Y-86849275D01*
X252774688Y-86904604D01*
X252780667Y-86974218D01*
X252748062Y-87036013D01*
X252729215Y-87051892D01*
X252704421Y-87068876D01*
X252553715Y-87219582D01*
X252433269Y-87395412D01*
X252347187Y-87590370D01*
X252347182Y-87590385D01*
X252298390Y-87797832D01*
X252298388Y-87797847D01*
X252292241Y-87886414D01*
X252292241Y-88357403D01*
X253425253Y-88357403D01*
X253408036Y-88367343D01*
X253352181Y-88423198D01*
X253312685Y-88491607D01*
X253292241Y-88567907D01*
X253292241Y-88646899D01*
X253312685Y-88723199D01*
X253352181Y-88791608D01*
X253408036Y-88847463D01*
X253425253Y-88857403D01*
X252292242Y-88857403D01*
X252292242Y-89328391D01*
X252298388Y-89416962D01*
X252298389Y-89416971D01*
X252347182Y-89624420D01*
X252347187Y-89624435D01*
X252433269Y-89819393D01*
X252553715Y-89995223D01*
X252704420Y-90145928D01*
X252880250Y-90266374D01*
X253075208Y-90352456D01*
X253075223Y-90352461D01*
X253282670Y-90401253D01*
X253282685Y-90401255D01*
X253371252Y-90407402D01*
X253842240Y-90407402D01*
X253842241Y-90407401D01*
X253842241Y-88907403D01*
X254342241Y-88907403D01*
X254342241Y-90407402D01*
X254813229Y-90407402D01*
X254901800Y-90401255D01*
X254901809Y-90401254D01*
X255109258Y-90352461D01*
X255109273Y-90352456D01*
X255304231Y-90266374D01*
X255480061Y-90145928D01*
X255630766Y-89995223D01*
X255751212Y-89819393D01*
X255837294Y-89624435D01*
X255837299Y-89624420D01*
X255886091Y-89416973D01*
X255886093Y-89416958D01*
X255892241Y-89328391D01*
X255892241Y-88857403D01*
X254759229Y-88857403D01*
X254776446Y-88847463D01*
X254832301Y-88791608D01*
X254871797Y-88723199D01*
X254892241Y-88646899D01*
X254892241Y-88567907D01*
X254871797Y-88491607D01*
X254832301Y-88423198D01*
X254776446Y-88367343D01*
X254759229Y-88357403D01*
X255892240Y-88357403D01*
X255892240Y-87886414D01*
X255886093Y-87797843D01*
X255886092Y-87797834D01*
X255837299Y-87590385D01*
X255837294Y-87590370D01*
X255751212Y-87395412D01*
X255630766Y-87219582D01*
X255480061Y-87068877D01*
X255455267Y-87051893D01*
X255411084Y-86997767D01*
X255403178Y-86928346D01*
X255434058Y-86865671D01*
X255452459Y-86849274D01*
X255567144Y-86765951D01*
X255750791Y-86582304D01*
X255750795Y-86582299D01*
X255903444Y-86372194D01*
X256021357Y-86140780D01*
X256101611Y-85893780D01*
X256123212Y-85757403D01*
X254759229Y-85757403D01*
X254776446Y-85747463D01*
X254832301Y-85691608D01*
X254871797Y-85623199D01*
X254892241Y-85546899D01*
X254892241Y-85467907D01*
X254871797Y-85391607D01*
X254832301Y-85323198D01*
X254776446Y-85267343D01*
X254759229Y-85257403D01*
X256123212Y-85257403D01*
X262061270Y-85257403D01*
X263425253Y-85257403D01*
X263408036Y-85267343D01*
X263352181Y-85323198D01*
X263312685Y-85391607D01*
X263292241Y-85467907D01*
X263292241Y-85546899D01*
X263312685Y-85623199D01*
X263352181Y-85691608D01*
X263408036Y-85747463D01*
X263425253Y-85757403D01*
X262061270Y-85757403D01*
X262082870Y-85893780D01*
X262163124Y-86140780D01*
X262281037Y-86372194D01*
X262433686Y-86582299D01*
X262433690Y-86582304D01*
X262617343Y-86765957D01*
X262732022Y-86849275D01*
X262774688Y-86904604D01*
X262780667Y-86974218D01*
X262748062Y-87036013D01*
X262729215Y-87051892D01*
X262704421Y-87068876D01*
X262553715Y-87219582D01*
X262433269Y-87395412D01*
X262347187Y-87590370D01*
X262347182Y-87590385D01*
X262298390Y-87797832D01*
X262298388Y-87797847D01*
X262292241Y-87886414D01*
X262292241Y-88357403D01*
X263425253Y-88357403D01*
X263408036Y-88367343D01*
X263352181Y-88423198D01*
X263312685Y-88491607D01*
X263292241Y-88567907D01*
X263292241Y-88646899D01*
X263312685Y-88723199D01*
X263352181Y-88791608D01*
X263408036Y-88847463D01*
X263425253Y-88857403D01*
X262292242Y-88857403D01*
X262292242Y-89328391D01*
X262298388Y-89416962D01*
X262298389Y-89416971D01*
X262347182Y-89624420D01*
X262347187Y-89624435D01*
X262433269Y-89819393D01*
X262553715Y-89995223D01*
X262704420Y-90145928D01*
X262880250Y-90266374D01*
X263075208Y-90352456D01*
X263075223Y-90352461D01*
X263282670Y-90401253D01*
X263282685Y-90401255D01*
X263371252Y-90407402D01*
X263842240Y-90407402D01*
X263842241Y-90407401D01*
X263842241Y-88907403D01*
X264342241Y-88907403D01*
X264342241Y-90407402D01*
X264813229Y-90407402D01*
X264901800Y-90401255D01*
X264901809Y-90401254D01*
X265109258Y-90352461D01*
X265109273Y-90352456D01*
X265304231Y-90266374D01*
X265480061Y-90145928D01*
X265630766Y-89995223D01*
X265751212Y-89819393D01*
X265837294Y-89624435D01*
X265837299Y-89624420D01*
X265886091Y-89416973D01*
X265886093Y-89416958D01*
X265892241Y-89328391D01*
X265892241Y-88857403D01*
X264759229Y-88857403D01*
X264776446Y-88847463D01*
X264832301Y-88791608D01*
X264871797Y-88723199D01*
X264892241Y-88646899D01*
X264892241Y-88567907D01*
X264871797Y-88491607D01*
X264832301Y-88423198D01*
X264776446Y-88367343D01*
X264759229Y-88357403D01*
X265892240Y-88357403D01*
X265892240Y-87886414D01*
X265886093Y-87797843D01*
X265886092Y-87797834D01*
X265837299Y-87590385D01*
X265837294Y-87590370D01*
X265751212Y-87395412D01*
X265630766Y-87219582D01*
X265480061Y-87068877D01*
X265455267Y-87051893D01*
X265411084Y-86997767D01*
X265403178Y-86928346D01*
X265434058Y-86865671D01*
X265452459Y-86849274D01*
X265567144Y-86765951D01*
X265750791Y-86582304D01*
X265750795Y-86582299D01*
X265903444Y-86372194D01*
X266021357Y-86140780D01*
X266101611Y-85893780D01*
X266123212Y-85757403D01*
X264759229Y-85757403D01*
X264776446Y-85747463D01*
X264832301Y-85691608D01*
X264871797Y-85623199D01*
X264892241Y-85546899D01*
X264892241Y-85467907D01*
X264871797Y-85391607D01*
X264832301Y-85323198D01*
X264776446Y-85267343D01*
X264759229Y-85257403D01*
X266123212Y-85257403D01*
X266101611Y-85121025D01*
X266021357Y-84874025D01*
X265903444Y-84642611D01*
X265750795Y-84432506D01*
X265750791Y-84432501D01*
X265567142Y-84248852D01*
X265567137Y-84248848D01*
X265357032Y-84096199D01*
X265125618Y-83978286D01*
X264878618Y-83898032D01*
X264622098Y-83857403D01*
X264342241Y-83857403D01*
X264342241Y-85207403D01*
X263842241Y-85207403D01*
X263842241Y-83857403D01*
X263562384Y-83857403D01*
X263305863Y-83898032D01*
X263058863Y-83978286D01*
X262827449Y-84096199D01*
X262617344Y-84248848D01*
X262617339Y-84248852D01*
X262433690Y-84432501D01*
X262433686Y-84432506D01*
X262281037Y-84642611D01*
X262163124Y-84874025D01*
X262082870Y-85121025D01*
X262061270Y-85257403D01*
X256123212Y-85257403D01*
X256101611Y-85121025D01*
X256021357Y-84874025D01*
X255903444Y-84642611D01*
X255750795Y-84432506D01*
X255750791Y-84432501D01*
X255567142Y-84248852D01*
X255567137Y-84248848D01*
X255357032Y-84096199D01*
X255125618Y-83978286D01*
X254878618Y-83898032D01*
X254622098Y-83857403D01*
X254342241Y-83857403D01*
X254342241Y-85207403D01*
X253842241Y-85207403D01*
X253842241Y-83857403D01*
X253562384Y-83857403D01*
X253305863Y-83898032D01*
X253058863Y-83978286D01*
X252827449Y-84096199D01*
X252617344Y-84248848D01*
X252617339Y-84248852D01*
X252433690Y-84432501D01*
X252433686Y-84432506D01*
X252281037Y-84642611D01*
X252163124Y-84874025D01*
X252082870Y-85121025D01*
X252061270Y-85257403D01*
X241444740Y-85257403D01*
X241437408Y-85211110D01*
X241362013Y-84979071D01*
X241303015Y-84863282D01*
X241290119Y-84794613D01*
X241316395Y-84729872D01*
X241373502Y-84689615D01*
X241443307Y-84686623D01*
X241469790Y-84696500D01*
X241534741Y-84729594D01*
X241593017Y-84759288D01*
X241593019Y-84759288D01*
X241593022Y-84759290D01*
X241697378Y-84793197D01*
X241787706Y-84822547D01*
X241888798Y-84838558D01*
X241989889Y-84854570D01*
X241989890Y-84854570D01*
X242194592Y-84854570D01*
X242194593Y-84854570D01*
X242396775Y-84822547D01*
X242591460Y-84759290D01*
X242773851Y-84666357D01*
X242914308Y-84564310D01*
X242939454Y-84546041D01*
X242939456Y-84546038D01*
X242939460Y-84546036D01*
X243084207Y-84401289D01*
X243084209Y-84401285D01*
X243084212Y-84401283D01*
X243189755Y-84256013D01*
X243204528Y-84235680D01*
X243297461Y-84053289D01*
X243360718Y-83858604D01*
X243392741Y-83656422D01*
X243392741Y-83451718D01*
X243360718Y-83249536D01*
X243297461Y-83054851D01*
X243297459Y-83054848D01*
X243297459Y-83054846D01*
X243240450Y-82942961D01*
X243204528Y-82872460D01*
X243185231Y-82845900D01*
X243084212Y-82706856D01*
X242939454Y-82562098D01*
X242773854Y-82441785D01*
X242773853Y-82441784D01*
X242773851Y-82441783D01*
X242720527Y-82414613D01*
X242673278Y-82390538D01*
X242622482Y-82342563D01*
X242605687Y-82274742D01*
X242628225Y-82208607D01*
X242682940Y-82165156D01*
X242697466Y-82160282D01*
X242880091Y-82111348D01*
X243104203Y-82018518D01*
X243314280Y-81897230D01*
X243478505Y-81771216D01*
X243543674Y-81746022D01*
X243612119Y-81760060D01*
X243629477Y-81771216D01*
X243793702Y-81897230D01*
X244003779Y-82018518D01*
X244227891Y-82111348D01*
X244462202Y-82174132D01*
X244642577Y-82197878D01*
X244702702Y-82205794D01*
X244702703Y-82205794D01*
X244945280Y-82205794D01*
X244993379Y-82199461D01*
X245185780Y-82174132D01*
X245420091Y-82111348D01*
X245644203Y-82018518D01*
X245854280Y-81897230D01*
X246018505Y-81771216D01*
X246083674Y-81746022D01*
X246152119Y-81760060D01*
X246169477Y-81771216D01*
X246333702Y-81897230D01*
X246543779Y-82018518D01*
X246767891Y-82111348D01*
X247002202Y-82174132D01*
X247182577Y-82197878D01*
X247242702Y-82205794D01*
X247242703Y-82205794D01*
X247485280Y-82205794D01*
X247533379Y-82199461D01*
X247725780Y-82174132D01*
X247960091Y-82111348D01*
X248184203Y-82018518D01*
X248394280Y-81897230D01*
X248558505Y-81771216D01*
X248623674Y-81746022D01*
X248692119Y-81760060D01*
X248709477Y-81771216D01*
X248873702Y-81897230D01*
X249083779Y-82018518D01*
X249307891Y-82111348D01*
X249542202Y-82174132D01*
X249722577Y-82197878D01*
X249782702Y-82205794D01*
X249782703Y-82205794D01*
X250025280Y-82205794D01*
X250073379Y-82199461D01*
X250265780Y-82174132D01*
X250500091Y-82111348D01*
X250724203Y-82018518D01*
X250934280Y-81897230D01*
X251098505Y-81771216D01*
X251163674Y-81746022D01*
X251232119Y-81760060D01*
X251249477Y-81771216D01*
X251413702Y-81897230D01*
X251623779Y-82018518D01*
X251847891Y-82111348D01*
X252082202Y-82174132D01*
X252262577Y-82197878D01*
X252322702Y-82205794D01*
X252322703Y-82205794D01*
X252565280Y-82205794D01*
X252613379Y-82199461D01*
X252805780Y-82174132D01*
X253040091Y-82111348D01*
X253264203Y-82018518D01*
X253474280Y-81897230D01*
X253666729Y-81749559D01*
X253838256Y-81578032D01*
X253985927Y-81385583D01*
X254107215Y-81175506D01*
X254200045Y-80951394D01*
X254262829Y-80717083D01*
X254294491Y-80476582D01*
X254294491Y-80234006D01*
X254262829Y-79993505D01*
X254200045Y-79759194D01*
X254107215Y-79535082D01*
X253985927Y-79325005D01*
X253931485Y-79254054D01*
X253906292Y-79188887D01*
X253920330Y-79120443D01*
X253969144Y-79070453D01*
X254029862Y-79054570D01*
X258076507Y-79054570D01*
X258143546Y-79074255D01*
X258189301Y-79127059D01*
X258199245Y-79196217D01*
X258195723Y-79212680D01*
X258163584Y-79325004D01*
X258162848Y-79327575D01*
X258162847Y-79327578D01*
X258152234Y-79446958D01*
X258152234Y-81263020D01*
X258152235Y-81263026D01*
X258162847Y-81382407D01*
X258218823Y-81578037D01*
X258218824Y-81578040D01*
X258218825Y-81578041D01*
X258313036Y-81758399D01*
X258323241Y-81770914D01*
X258441624Y-81916101D01*
X258515454Y-81976301D01*
X258599327Y-82044690D01*
X258779685Y-82138901D01*
X258779687Y-82138901D01*
X258779688Y-82138902D01*
X258791861Y-82142385D01*
X258975316Y-82194878D01*
X259094697Y-82205492D01*
X260910770Y-82205491D01*
X261030152Y-82194878D01*
X261225783Y-82138901D01*
X261406141Y-82044690D01*
X261490013Y-81976300D01*
X261554408Y-81949191D01*
X261623238Y-81961200D01*
X261630373Y-81965015D01*
X261722511Y-82018210D01*
X261722514Y-82018211D01*
X261722522Y-82018216D01*
X261946634Y-82111046D01*
X262180945Y-82173830D01*
X262361320Y-82197576D01*
X262421445Y-82205492D01*
X262421446Y-82205492D01*
X262664023Y-82205492D01*
X262712122Y-82199159D01*
X262904523Y-82173830D01*
X263138834Y-82111046D01*
X263362946Y-82018216D01*
X263573023Y-81896928D01*
X263737248Y-81770914D01*
X263802417Y-81745720D01*
X263870862Y-81759758D01*
X263888220Y-81770914D01*
X264052445Y-81896928D01*
X264262522Y-82018216D01*
X264486634Y-82111046D01*
X264720945Y-82173830D01*
X264901320Y-82197576D01*
X264961445Y-82205492D01*
X264961446Y-82205492D01*
X265204023Y-82205492D01*
X265252122Y-82199159D01*
X265444523Y-82173830D01*
X265678834Y-82111046D01*
X265902946Y-82018216D01*
X266113023Y-81896928D01*
X266277248Y-81770914D01*
X266342417Y-81745720D01*
X266410862Y-81759758D01*
X266428220Y-81770914D01*
X266592445Y-81896928D01*
X266802522Y-82018216D01*
X267026634Y-82111046D01*
X267260945Y-82173830D01*
X267441320Y-82197576D01*
X267501445Y-82205492D01*
X267501446Y-82205492D01*
X267744023Y-82205492D01*
X267792122Y-82199159D01*
X267984523Y-82173830D01*
X268218834Y-82111046D01*
X268442946Y-82018216D01*
X268653023Y-81896928D01*
X268845472Y-81749257D01*
X269016999Y-81577730D01*
X269164670Y-81385281D01*
X269285958Y-81175204D01*
X269378788Y-80951092D01*
X269441572Y-80716781D01*
X269473234Y-80476280D01*
X269473234Y-80233704D01*
X269441572Y-79993203D01*
X269378788Y-79758892D01*
X269285958Y-79534780D01*
X269164670Y-79324703D01*
X269110461Y-79254056D01*
X269085267Y-79188887D01*
X269099305Y-79120442D01*
X269148119Y-79070453D01*
X269208837Y-79054570D01*
X270467741Y-79054570D01*
X270534780Y-79074255D01*
X270580535Y-79127059D01*
X270591741Y-79178570D01*
X270591741Y-118229570D01*
X270572056Y-118296609D01*
X270519252Y-118342364D01*
X270467741Y-118353570D01*
X200519318Y-118353570D01*
X200452279Y-118333885D01*
X200406524Y-118281081D01*
X200396580Y-118211923D01*
X200425605Y-118148367D01*
X200446432Y-118129252D01*
X200500474Y-118089986D01*
X200500475Y-118089986D01*
X199868167Y-117457678D01*
X199931751Y-117440641D01*
X200045765Y-117374815D01*
X200138857Y-117281723D01*
X200204683Y-117167709D01*
X200221720Y-117104124D01*
X200854028Y-117736433D01*
X200854028Y-117736432D01*
X200893380Y-117682270D01*
X200989853Y-117492933D01*
X201055515Y-117290846D01*
X201055515Y-117290843D01*
X201088758Y-117080962D01*
X201088758Y-116868469D01*
X201055515Y-116658588D01*
X201055515Y-116658585D01*
X200989853Y-116456498D01*
X200893382Y-116267165D01*
X200854028Y-116212998D01*
X200854027Y-116212998D01*
X200221720Y-116845306D01*
X200204683Y-116781723D01*
X200138857Y-116667709D01*
X200045765Y-116574617D01*
X199931751Y-116508791D01*
X199868165Y-116491752D01*
X200500474Y-115859444D01*
X200446308Y-115820091D01*
X200256975Y-115723620D01*
X200054887Y-115657958D01*
X199845004Y-115624716D01*
X199632512Y-115624716D01*
X199422630Y-115657958D01*
X199422627Y-115657958D01*
X199220540Y-115723620D01*
X199031204Y-115820092D01*
X198881149Y-115929113D01*
X198815342Y-115952592D01*
X198747288Y-115936766D01*
X198709888Y-115904280D01*
X198593024Y-115751979D01*
X198593018Y-115751972D01*
X198421501Y-115580455D01*
X198421494Y-115580449D01*
X198229051Y-115432783D01*
X198229050Y-115432782D01*
X198229047Y-115432780D01*
X198018970Y-115311492D01*
X198018963Y-115311489D01*
X197794862Y-115218663D01*
X197560543Y-115155877D01*
X197320047Y-115124216D01*
X197320046Y-115124216D01*
X197077470Y-115124216D01*
X197077469Y-115124216D01*
X196836972Y-115155877D01*
X196602653Y-115218663D01*
X196378552Y-115311489D01*
X196378543Y-115311493D01*
X196168464Y-115432783D01*
X195976021Y-115580449D01*
X195976014Y-115580455D01*
X195804497Y-115751972D01*
X195804491Y-115751979D01*
X195687627Y-115904280D01*
X195631199Y-115945483D01*
X195561453Y-115949638D01*
X195516366Y-115929112D01*
X195366315Y-115820095D01*
X195176975Y-115723620D01*
X194974887Y-115657958D01*
X194765004Y-115624716D01*
X194552512Y-115624716D01*
X194342630Y-115657958D01*
X194342627Y-115657958D01*
X194140540Y-115723620D01*
X193951204Y-115820092D01*
X193801149Y-115929113D01*
X193735342Y-115952592D01*
X193667288Y-115936766D01*
X193629888Y-115904280D01*
X193513024Y-115751979D01*
X193513018Y-115751972D01*
X193341501Y-115580455D01*
X193341494Y-115580449D01*
X193149051Y-115432783D01*
X193149050Y-115432782D01*
X193149047Y-115432780D01*
X192938970Y-115311492D01*
X192938963Y-115311489D01*
X192714862Y-115218663D01*
X192480543Y-115155877D01*
X192240047Y-115124216D01*
X192240046Y-115124216D01*
X191997470Y-115124216D01*
X191997469Y-115124216D01*
X191756972Y-115155877D01*
X191522653Y-115218663D01*
X191298552Y-115311489D01*
X191298543Y-115311493D01*
X191088464Y-115432783D01*
X190896021Y-115580449D01*
X190896014Y-115580455D01*
X190724497Y-115751972D01*
X190724491Y-115751979D01*
X190607627Y-115904280D01*
X190551199Y-115945483D01*
X190481453Y-115949638D01*
X190436366Y-115929112D01*
X190286315Y-115820095D01*
X190096975Y-115723620D01*
X189894887Y-115657958D01*
X189685004Y-115624716D01*
X189472512Y-115624716D01*
X189262630Y-115657958D01*
X189262627Y-115657958D01*
X189060540Y-115723620D01*
X188871204Y-115820092D01*
X188721149Y-115929113D01*
X188655342Y-115952592D01*
X188587288Y-115936766D01*
X188549888Y-115904280D01*
X188433024Y-115751979D01*
X188433018Y-115751972D01*
X188261501Y-115580455D01*
X188261494Y-115580449D01*
X188069051Y-115432783D01*
X188069050Y-115432782D01*
X188069047Y-115432780D01*
X187858970Y-115311492D01*
X187858963Y-115311489D01*
X187634862Y-115218663D01*
X187400543Y-115155877D01*
X187160047Y-115124216D01*
X187160046Y-115124216D01*
X186917470Y-115124216D01*
X186917469Y-115124216D01*
X186676972Y-115155877D01*
X186442653Y-115218663D01*
X186218552Y-115311489D01*
X186218543Y-115311493D01*
X186008464Y-115432783D01*
X185844244Y-115558793D01*
X185779075Y-115583987D01*
X185710630Y-115569948D01*
X185693272Y-115558793D01*
X185529051Y-115432783D01*
X185529050Y-115432782D01*
X185529047Y-115432780D01*
X185318970Y-115311492D01*
X185318963Y-115311489D01*
X185094862Y-115218663D01*
X184860543Y-115155877D01*
X184620047Y-115124216D01*
X184620046Y-115124216D01*
X184377470Y-115124216D01*
X184377469Y-115124216D01*
X184136972Y-115155877D01*
X183902653Y-115218663D01*
X183678552Y-115311489D01*
X183678543Y-115311493D01*
X183468464Y-115432783D01*
X183276021Y-115580449D01*
X183276014Y-115580455D01*
X183104497Y-115751972D01*
X183104491Y-115751979D01*
X182987627Y-115904280D01*
X182931199Y-115945483D01*
X182861453Y-115949638D01*
X182816366Y-115929112D01*
X182666315Y-115820095D01*
X182476975Y-115723620D01*
X182274887Y-115657958D01*
X182065004Y-115624716D01*
X181852512Y-115624716D01*
X181642630Y-115657958D01*
X181642627Y-115657958D01*
X181440540Y-115723620D01*
X181251204Y-115820092D01*
X181101149Y-115929113D01*
X181035342Y-115952592D01*
X180967288Y-115936766D01*
X180929888Y-115904280D01*
X180813024Y-115751979D01*
X180813018Y-115751972D01*
X180641501Y-115580455D01*
X180641494Y-115580449D01*
X180449051Y-115432783D01*
X180449050Y-115432782D01*
X180449047Y-115432780D01*
X180238970Y-115311492D01*
X180238963Y-115311489D01*
X180014862Y-115218663D01*
X179780543Y-115155877D01*
X179540047Y-115124216D01*
X179540046Y-115124216D01*
X179297470Y-115124216D01*
X179297469Y-115124216D01*
X179056972Y-115155877D01*
X178822653Y-115218663D01*
X178598552Y-115311489D01*
X178598543Y-115311493D01*
X178388464Y-115432783D01*
X178224244Y-115558793D01*
X178159075Y-115583987D01*
X178090630Y-115569948D01*
X178073272Y-115558793D01*
X177909051Y-115432783D01*
X177909050Y-115432782D01*
X177909047Y-115432780D01*
X177698970Y-115311492D01*
X177698963Y-115311489D01*
X177474862Y-115218663D01*
X177240543Y-115155877D01*
X177000047Y-115124216D01*
X177000046Y-115124216D01*
X176757470Y-115124216D01*
X176757469Y-115124216D01*
X176516972Y-115155877D01*
X176282653Y-115218663D01*
X176058552Y-115311489D01*
X176058547Y-115311491D01*
X175966398Y-115364693D01*
X175898498Y-115381165D01*
X175832471Y-115358312D01*
X175826039Y-115353407D01*
X175742170Y-115285021D01*
X175742166Y-115285019D01*
X175742165Y-115285018D01*
X175561807Y-115190807D01*
X175561806Y-115190806D01*
X175561803Y-115190805D01*
X175444587Y-115157266D01*
X175366176Y-115134830D01*
X175366173Y-115134829D01*
X175366171Y-115134829D01*
X175299860Y-115128933D01*
X175246795Y-115124216D01*
X175246790Y-115124216D01*
X173430729Y-115124216D01*
X173430723Y-115124216D01*
X173430722Y-115124217D01*
X173419074Y-115125252D01*
X173311342Y-115134829D01*
X173115712Y-115190805D01*
X173062383Y-115218662D01*
X172935351Y-115285018D01*
X172935349Y-115285019D01*
X172935348Y-115285020D01*
X172777648Y-115413606D01*
X172649062Y-115571306D01*
X172554847Y-115751670D01*
X172535270Y-115820091D01*
X172499392Y-115945483D01*
X172498872Y-115947299D01*
X172498871Y-115947302D01*
X172488258Y-116066682D01*
X172488258Y-117882744D01*
X172488259Y-117882750D01*
X172498871Y-118002131D01*
X172554189Y-118195459D01*
X172553706Y-118265327D01*
X172515526Y-118323842D01*
X172451771Y-118352427D01*
X172434973Y-118353570D01*
X161716741Y-118353570D01*
X161649702Y-118333885D01*
X161603947Y-118281081D01*
X161592741Y-118229570D01*
X161592741Y-113787773D01*
X197516659Y-113787773D01*
X197516659Y-113992476D01*
X197548681Y-114194659D01*
X197611940Y-114389348D01*
X197704874Y-114571738D01*
X197825187Y-114737338D01*
X197969945Y-114882096D01*
X198124908Y-114994681D01*
X198135549Y-115002412D01*
X198251766Y-115061628D01*
X198317935Y-115095343D01*
X198317937Y-115095343D01*
X198317940Y-115095345D01*
X198406796Y-115124216D01*
X198512624Y-115158602D01*
X198613716Y-115174613D01*
X198714807Y-115190625D01*
X198714808Y-115190625D01*
X198919510Y-115190625D01*
X198919511Y-115190625D01*
X199121693Y-115158602D01*
X199316378Y-115095345D01*
X199498769Y-115002412D01*
X199591749Y-114934857D01*
X199664372Y-114882096D01*
X199664374Y-114882093D01*
X199664378Y-114882091D01*
X199809125Y-114737344D01*
X199809127Y-114737340D01*
X199809130Y-114737338D01*
X199861891Y-114664715D01*
X199929446Y-114571735D01*
X200022379Y-114389344D01*
X200085636Y-114194659D01*
X200117659Y-113992477D01*
X200117659Y-113787773D01*
X200085636Y-113585591D01*
X200022379Y-113390906D01*
X200022377Y-113390903D01*
X200022377Y-113390901D01*
X199988662Y-113324732D01*
X199929446Y-113208515D01*
X199921715Y-113197874D01*
X199809130Y-113042911D01*
X199664372Y-112898153D01*
X199498772Y-112777840D01*
X199498771Y-112777839D01*
X199498769Y-112777838D01*
X199441812Y-112748816D01*
X199316382Y-112684906D01*
X199121693Y-112621647D01*
X198947154Y-112594003D01*
X198919511Y-112589625D01*
X198714807Y-112589625D01*
X198690488Y-112593476D01*
X198512624Y-112621647D01*
X198317935Y-112684906D01*
X198135545Y-112777840D01*
X197969945Y-112898153D01*
X197825187Y-113042911D01*
X197704874Y-113208511D01*
X197611940Y-113390901D01*
X197548681Y-113585590D01*
X197516659Y-113787773D01*
X161592741Y-113787773D01*
X161592741Y-108152545D01*
X165791741Y-108152545D01*
X165791741Y-109582248D01*
X165791742Y-109582263D01*
X165807019Y-109776395D01*
X165867668Y-110029014D01*
X165967084Y-110269027D01*
X165967086Y-110269031D01*
X165967087Y-110269032D01*
X166102829Y-110490544D01*
X166271552Y-110688093D01*
X166376089Y-110777376D01*
X166414282Y-110835883D01*
X166414780Y-110905751D01*
X166395875Y-110944551D01*
X166281037Y-111102612D01*
X166163124Y-111334026D01*
X166082870Y-111581026D01*
X166061270Y-111717404D01*
X167425253Y-111717404D01*
X167408036Y-111727344D01*
X167352181Y-111783199D01*
X167312685Y-111851608D01*
X167292241Y-111927908D01*
X167292241Y-112006900D01*
X167312685Y-112083200D01*
X167352181Y-112151609D01*
X167408036Y-112207464D01*
X167425253Y-112217404D01*
X166061270Y-112217404D01*
X166082870Y-112353781D01*
X166163124Y-112600781D01*
X166281037Y-112832195D01*
X166433686Y-113042300D01*
X166433690Y-113042305D01*
X166617339Y-113225954D01*
X166617344Y-113225958D01*
X166827449Y-113378607D01*
X167058863Y-113496520D01*
X167305863Y-113576774D01*
X167562384Y-113617404D01*
X167842241Y-113617404D01*
X167842241Y-112267404D01*
X168342241Y-112267404D01*
X168342241Y-113617404D01*
X168622098Y-113617404D01*
X168878618Y-113576774D01*
X169125618Y-113496520D01*
X169357032Y-113378607D01*
X169567137Y-113225958D01*
X169567142Y-113225954D01*
X169750791Y-113042305D01*
X169750795Y-113042300D01*
X169903444Y-112832195D01*
X170021357Y-112600781D01*
X170101611Y-112353781D01*
X170123212Y-112217404D01*
X168759229Y-112217404D01*
X168776446Y-112207464D01*
X168832301Y-112151609D01*
X168871797Y-112083200D01*
X168892241Y-112006900D01*
X168892241Y-111927908D01*
X168871797Y-111851608D01*
X168832301Y-111783199D01*
X168776446Y-111727344D01*
X168759229Y-111717404D01*
X170123212Y-111717404D01*
X170101611Y-111581026D01*
X170021357Y-111334026D01*
X169903444Y-111102612D01*
X169788607Y-110944550D01*
X169765127Y-110878744D01*
X169780953Y-110810690D01*
X169808390Y-110777378D01*
X169912930Y-110688093D01*
X170081653Y-110490544D01*
X170217395Y-110269032D01*
X170316814Y-110029014D01*
X170377462Y-109776398D01*
X170392741Y-109582257D01*
X170392740Y-108152552D01*
X170392739Y-108152545D01*
X179791741Y-108152545D01*
X179791741Y-109582248D01*
X179791742Y-109582263D01*
X179807019Y-109776395D01*
X179867668Y-110029014D01*
X179967084Y-110269027D01*
X179967086Y-110269031D01*
X179967087Y-110269032D01*
X180102829Y-110490544D01*
X180271552Y-110688093D01*
X180376089Y-110777376D01*
X180414282Y-110835883D01*
X180414780Y-110905751D01*
X180395875Y-110944551D01*
X180281037Y-111102612D01*
X180163124Y-111334026D01*
X180082870Y-111581026D01*
X180061270Y-111717404D01*
X181425253Y-111717404D01*
X181408036Y-111727344D01*
X181352181Y-111783199D01*
X181312685Y-111851608D01*
X181292241Y-111927908D01*
X181292241Y-112006900D01*
X181312685Y-112083200D01*
X181352181Y-112151609D01*
X181408036Y-112207464D01*
X181425253Y-112217404D01*
X180061270Y-112217404D01*
X180082870Y-112353781D01*
X180163124Y-112600781D01*
X180281037Y-112832195D01*
X180433686Y-113042300D01*
X180433690Y-113042305D01*
X180617339Y-113225954D01*
X180617344Y-113225958D01*
X180827449Y-113378607D01*
X181058863Y-113496520D01*
X181305863Y-113576774D01*
X181562384Y-113617404D01*
X181842241Y-113617404D01*
X181842241Y-112267404D01*
X182342241Y-112267404D01*
X182342241Y-113617404D01*
X182622098Y-113617404D01*
X182878618Y-113576774D01*
X183125618Y-113496520D01*
X183357032Y-113378607D01*
X183567137Y-113225958D01*
X183567142Y-113225954D01*
X183750791Y-113042305D01*
X183750795Y-113042300D01*
X183903444Y-112832195D01*
X184021357Y-112600781D01*
X184101611Y-112353781D01*
X184123212Y-112217404D01*
X182759229Y-112217404D01*
X182776446Y-112207464D01*
X182832301Y-112151609D01*
X182871797Y-112083200D01*
X182892241Y-112006900D01*
X182892241Y-111927908D01*
X182871797Y-111851608D01*
X182832301Y-111783199D01*
X182776446Y-111727344D01*
X182759229Y-111717404D01*
X184123212Y-111717404D01*
X184101611Y-111581026D01*
X184021357Y-111334026D01*
X183903444Y-111102612D01*
X183788607Y-110944550D01*
X183765127Y-110878744D01*
X183780953Y-110810690D01*
X183808390Y-110777378D01*
X183912930Y-110688093D01*
X184081653Y-110490544D01*
X184217395Y-110269032D01*
X184316814Y-110029014D01*
X184377462Y-109776398D01*
X184392741Y-109582257D01*
X184392740Y-108152552D01*
X184392739Y-108152545D01*
X207791741Y-108152545D01*
X207791741Y-109582248D01*
X207791742Y-109582263D01*
X207807019Y-109776395D01*
X207867668Y-110029014D01*
X207967084Y-110269027D01*
X207967086Y-110269031D01*
X207967087Y-110269032D01*
X208102829Y-110490544D01*
X208271552Y-110688093D01*
X208376089Y-110777376D01*
X208414282Y-110835883D01*
X208414780Y-110905751D01*
X208395875Y-110944551D01*
X208281037Y-111102612D01*
X208163124Y-111334026D01*
X208082870Y-111581026D01*
X208061270Y-111717404D01*
X209425253Y-111717404D01*
X209408036Y-111727344D01*
X209352181Y-111783199D01*
X209312685Y-111851608D01*
X209292241Y-111927908D01*
X209292241Y-112006900D01*
X209312685Y-112083200D01*
X209352181Y-112151609D01*
X209408036Y-112207464D01*
X209425253Y-112217404D01*
X208061270Y-112217404D01*
X208082870Y-112353781D01*
X208163124Y-112600781D01*
X208281037Y-112832195D01*
X208433686Y-113042300D01*
X208433690Y-113042305D01*
X208617339Y-113225954D01*
X208617344Y-113225958D01*
X208827449Y-113378607D01*
X209058863Y-113496520D01*
X209305863Y-113576774D01*
X209562384Y-113617404D01*
X209842241Y-113617404D01*
X209842241Y-112267404D01*
X210342241Y-112267404D01*
X210342241Y-113617404D01*
X210622098Y-113617404D01*
X210878618Y-113576774D01*
X211125618Y-113496520D01*
X211357032Y-113378607D01*
X211567137Y-113225958D01*
X211567142Y-113225954D01*
X211750791Y-113042305D01*
X211750795Y-113042300D01*
X211903444Y-112832195D01*
X212021357Y-112600781D01*
X212101611Y-112353781D01*
X212123212Y-112217404D01*
X210759229Y-112217404D01*
X210776446Y-112207464D01*
X210832301Y-112151609D01*
X210871797Y-112083200D01*
X210892241Y-112006900D01*
X210892241Y-111927908D01*
X210871797Y-111851608D01*
X210832301Y-111783199D01*
X210776446Y-111727344D01*
X210759229Y-111717404D01*
X212123212Y-111717404D01*
X212101611Y-111581026D01*
X212021357Y-111334026D01*
X211903444Y-111102612D01*
X211788607Y-110944550D01*
X211765127Y-110878744D01*
X211780953Y-110810690D01*
X211808390Y-110777378D01*
X211912930Y-110688093D01*
X212081653Y-110490544D01*
X212217395Y-110269032D01*
X212316814Y-110029014D01*
X212377462Y-109776398D01*
X212392741Y-109582257D01*
X212392740Y-109210660D01*
X212412424Y-109143623D01*
X212465228Y-109097868D01*
X212534387Y-109087924D01*
X212573035Y-109100177D01*
X212697143Y-109163414D01*
X212697145Y-109163414D01*
X212697148Y-109163416D01*
X212801504Y-109197323D01*
X212891832Y-109226673D01*
X212992924Y-109242684D01*
X213094015Y-109258696D01*
X213094016Y-109258696D01*
X213298718Y-109258696D01*
X213298719Y-109258696D01*
X213500901Y-109226673D01*
X213695586Y-109163416D01*
X213877977Y-109070483D01*
X213998113Y-108983200D01*
X214043580Y-108950167D01*
X214043582Y-108950164D01*
X214043586Y-108950162D01*
X214188333Y-108805415D01*
X214188335Y-108805411D01*
X214188338Y-108805409D01*
X214277127Y-108683199D01*
X214308654Y-108639806D01*
X214401587Y-108457415D01*
X214464844Y-108262730D01*
X214496867Y-108060548D01*
X214496867Y-107855844D01*
X214464844Y-107653662D01*
X214451488Y-107612558D01*
X214435494Y-107563333D01*
X214401587Y-107458977D01*
X214401585Y-107458974D01*
X214401585Y-107458972D01*
X214335298Y-107328878D01*
X214308654Y-107276586D01*
X214259138Y-107208432D01*
X214188338Y-107110982D01*
X214043580Y-106966224D01*
X213877980Y-106845911D01*
X213877979Y-106845910D01*
X213877977Y-106845909D01*
X213779109Y-106795533D01*
X213695590Y-106752977D01*
X213500901Y-106689718D01*
X213325369Y-106661917D01*
X213298719Y-106657696D01*
X213094015Y-106657696D01*
X213069696Y-106661547D01*
X212891832Y-106689718D01*
X212697143Y-106752977D01*
X212514753Y-106845911D01*
X212349153Y-106966224D01*
X212204403Y-107110974D01*
X212204398Y-107110980D01*
X212188105Y-107133405D01*
X212132774Y-107176070D01*
X212063160Y-107182046D01*
X212001366Y-107149439D01*
X211993499Y-107141049D01*
X211967819Y-107110982D01*
X211912930Y-107046715D01*
X211715381Y-106877992D01*
X211493869Y-106742250D01*
X211493868Y-106742249D01*
X211493864Y-106742247D01*
X211299931Y-106661918D01*
X211253851Y-106642831D01*
X211253852Y-106642831D01*
X211116162Y-106609774D01*
X211001235Y-106582183D01*
X211001233Y-106582182D01*
X211001232Y-106582182D01*
X210840260Y-106569514D01*
X210807094Y-106566904D01*
X210807092Y-106566904D01*
X209377396Y-106566904D01*
X209377381Y-106566905D01*
X209183249Y-106582182D01*
X208930630Y-106642831D01*
X208690617Y-106742247D01*
X208469100Y-106877992D01*
X208271552Y-107046715D01*
X208102829Y-107244263D01*
X207967084Y-107465780D01*
X207867668Y-107705793D01*
X207807019Y-107958413D01*
X207791741Y-108152545D01*
X184392739Y-108152545D01*
X184377462Y-107958410D01*
X184316814Y-107705794D01*
X184217395Y-107465776D01*
X184081653Y-107244264D01*
X183912930Y-107046715D01*
X183715381Y-106877992D01*
X183493869Y-106742250D01*
X183493868Y-106742249D01*
X183493864Y-106742247D01*
X183299931Y-106661918D01*
X183253851Y-106642831D01*
X183253852Y-106642831D01*
X183116162Y-106609774D01*
X183001235Y-106582183D01*
X183001233Y-106582182D01*
X183001232Y-106582182D01*
X182840260Y-106569514D01*
X182807094Y-106566904D01*
X182807092Y-106566904D01*
X181377396Y-106566904D01*
X181377381Y-106566905D01*
X181183249Y-106582182D01*
X180930630Y-106642831D01*
X180690617Y-106742247D01*
X180469100Y-106877992D01*
X180271552Y-107046715D01*
X180102829Y-107244263D01*
X179967084Y-107465780D01*
X179867668Y-107705793D01*
X179807019Y-107958413D01*
X179791741Y-108152545D01*
X170392739Y-108152545D01*
X170377462Y-107958410D01*
X170316814Y-107705794D01*
X170217395Y-107465776D01*
X170081653Y-107244264D01*
X169912930Y-107046715D01*
X169715381Y-106877992D01*
X169493869Y-106742250D01*
X169493868Y-106742249D01*
X169493864Y-106742247D01*
X169299931Y-106661918D01*
X169253851Y-106642831D01*
X169253852Y-106642831D01*
X169116162Y-106609774D01*
X169001235Y-106582183D01*
X169001233Y-106582182D01*
X169001232Y-106582182D01*
X168840260Y-106569514D01*
X168807094Y-106566904D01*
X168807092Y-106566904D01*
X167377396Y-106566904D01*
X167377381Y-106566905D01*
X167183249Y-106582182D01*
X166930630Y-106642831D01*
X166690617Y-106742247D01*
X166469100Y-106877992D01*
X166271552Y-107046715D01*
X166102829Y-107244263D01*
X165967084Y-107465780D01*
X165867668Y-107705793D01*
X165807019Y-107958413D01*
X165791741Y-108152545D01*
X161592741Y-108152545D01*
X161592741Y-104957546D01*
X187962241Y-104957546D01*
X187962241Y-105237404D01*
X189312241Y-105237404D01*
X189312241Y-105737404D01*
X187962241Y-105737404D01*
X187962241Y-106017261D01*
X188002870Y-106273781D01*
X188083124Y-106520781D01*
X188201037Y-106752195D01*
X188353686Y-106962300D01*
X188353690Y-106962305D01*
X188537339Y-107145954D01*
X188537344Y-107145958D01*
X188747449Y-107298607D01*
X188978863Y-107416520D01*
X189225863Y-107496774D01*
X189362241Y-107518375D01*
X189362241Y-106154392D01*
X189372181Y-106171609D01*
X189428036Y-106227464D01*
X189496445Y-106266960D01*
X189572745Y-106287404D01*
X189651737Y-106287404D01*
X189728037Y-106266960D01*
X189796446Y-106227464D01*
X189852301Y-106171609D01*
X189862241Y-106154392D01*
X189862241Y-107518374D01*
X189998618Y-107496774D01*
X190245618Y-107416520D01*
X190477029Y-107298609D01*
X190635092Y-107183769D01*
X190700898Y-107160289D01*
X190768952Y-107176114D01*
X190802267Y-107203554D01*
X190891552Y-107308093D01*
X191089101Y-107476816D01*
X191310613Y-107612558D01*
X191310615Y-107612558D01*
X191310617Y-107612560D01*
X191318541Y-107615842D01*
X191550631Y-107711977D01*
X191803247Y-107772625D01*
X191997388Y-107787904D01*
X193427093Y-107787903D01*
X193621235Y-107772625D01*
X193873851Y-107711977D01*
X194113869Y-107612558D01*
X194335381Y-107476816D01*
X194532930Y-107308093D01*
X194701653Y-107110544D01*
X194837395Y-106889032D01*
X194936814Y-106649014D01*
X194997462Y-106396398D01*
X195012741Y-106202257D01*
X195012740Y-104772552D01*
X195012739Y-104772545D01*
X198711741Y-104772545D01*
X198711741Y-106202248D01*
X198711742Y-106202263D01*
X198727019Y-106396395D01*
X198787668Y-106649014D01*
X198887084Y-106889027D01*
X198887086Y-106889031D01*
X198887087Y-106889032D01*
X199022829Y-107110544D01*
X199191552Y-107308093D01*
X199389101Y-107476816D01*
X199610613Y-107612558D01*
X199610615Y-107612558D01*
X199610617Y-107612560D01*
X199618541Y-107615842D01*
X199850631Y-107711977D01*
X200103247Y-107772625D01*
X200297388Y-107787904D01*
X201727093Y-107787903D01*
X201921235Y-107772625D01*
X202173851Y-107711977D01*
X202413869Y-107612558D01*
X202635381Y-107476816D01*
X202832930Y-107308093D01*
X203001653Y-107110544D01*
X203137395Y-106889032D01*
X203236814Y-106649014D01*
X203297462Y-106396398D01*
X203312741Y-106202257D01*
X203312740Y-104772552D01*
X203297462Y-104578410D01*
X203236814Y-104325794D01*
X203178575Y-104185194D01*
X203137395Y-104085775D01*
X203100691Y-104025880D01*
X203100690Y-104025879D01*
X203081634Y-103994783D01*
X203061000Y-103961111D01*
X222078391Y-103961111D01*
X222078402Y-104078255D01*
X222078408Y-104078296D01*
X222083674Y-104097949D01*
X222084787Y-104102439D01*
X222106017Y-104195415D01*
X222106018Y-104195418D01*
X222106019Y-104195421D01*
X222116150Y-104216452D01*
X222121623Y-104227814D01*
X222133908Y-104281627D01*
X222133908Y-106443208D01*
X222128558Y-106479239D01*
X222125778Y-106488391D01*
X222106007Y-106529449D01*
X222084375Y-106624238D01*
X222083257Y-106628409D01*
X222083247Y-106628444D01*
X222078407Y-106646516D01*
X222078404Y-106646539D01*
X222078408Y-106705516D01*
X222078408Y-107938551D01*
X222078406Y-107946539D01*
X222078403Y-107946552D01*
X222078403Y-107957393D01*
X222078403Y-107961104D01*
X222078391Y-107961144D01*
X222078401Y-108069507D01*
X222078401Y-108069509D01*
X222078402Y-108074474D01*
X222078408Y-108074500D01*
X222078408Y-108078296D01*
X222084271Y-108100178D01*
X222085217Y-108104322D01*
X222085221Y-108104341D01*
X222106017Y-108195415D01*
X222106018Y-108195418D01*
X222106019Y-108195421D01*
X222121623Y-108227814D01*
X222133908Y-108281627D01*
X222133908Y-110607404D01*
X227383908Y-110607404D01*
X227383908Y-108281601D01*
X227389324Y-108245355D01*
X227392087Y-108236314D01*
X227411798Y-108195387D01*
X227433047Y-108102307D01*
X227434356Y-108098025D01*
X227451200Y-108072439D01*
X227466161Y-108045696D01*
X227470237Y-108043524D01*
X227472776Y-108039668D01*
X227500777Y-108027251D01*
X227527824Y-108012841D01*
X227532427Y-108013217D01*
X227536649Y-108011346D01*
X227566922Y-108016040D01*
X227597461Y-108018539D01*
X227601129Y-108021344D01*
X227605693Y-108022052D01*
X227628623Y-108042368D01*
X227652963Y-108060981D01*
X227654801Y-108065563D01*
X227657989Y-108068387D01*
X227662825Y-108085557D01*
X227675879Y-108118086D01*
X227707591Y-108358965D01*
X227772072Y-108599611D01*
X227867404Y-108829765D01*
X227867411Y-108829780D01*
X227991974Y-109045530D01*
X228143634Y-109243178D01*
X228143640Y-109243185D01*
X228319792Y-109419337D01*
X228319799Y-109419343D01*
X228517447Y-109571003D01*
X228733197Y-109695566D01*
X228733212Y-109695573D01*
X228832399Y-109736657D01*
X228963367Y-109790906D01*
X229204009Y-109855386D01*
X229451009Y-109887904D01*
X229451016Y-109887904D01*
X229700132Y-109887904D01*
X229700139Y-109887904D01*
X229947139Y-109855386D01*
X230187781Y-109790906D01*
X230417947Y-109695568D01*
X230614200Y-109582262D01*
X230633696Y-109571006D01*
X230633696Y-109571005D01*
X230633701Y-109571003D01*
X230750089Y-109481694D01*
X230815257Y-109456502D01*
X230883701Y-109470540D01*
X230901052Y-109481690D01*
X231017447Y-109571003D01*
X231017451Y-109571006D01*
X231233197Y-109695566D01*
X231233212Y-109695573D01*
X231332399Y-109736657D01*
X231463367Y-109790906D01*
X231704009Y-109855386D01*
X231951009Y-109887904D01*
X231951016Y-109887904D01*
X232200132Y-109887904D01*
X232200139Y-109887904D01*
X232447139Y-109855386D01*
X232687781Y-109790906D01*
X232917947Y-109695568D01*
X233133701Y-109571003D01*
X233331350Y-109419342D01*
X233507512Y-109243180D01*
X233556450Y-109179403D01*
X238075574Y-109179403D01*
X238075574Y-109987404D01*
X239025574Y-109987404D01*
X239025574Y-110487404D01*
X238075574Y-110487404D01*
X238075574Y-111295404D01*
X238086182Y-111414729D01*
X238086183Y-111414732D01*
X238142131Y-111610265D01*
X238236295Y-111790533D01*
X238364820Y-111948157D01*
X238522444Y-112076682D01*
X238702712Y-112170846D01*
X238898245Y-112226794D01*
X238898248Y-112226795D01*
X239017573Y-112237403D01*
X239017576Y-112237404D01*
X239325574Y-112237404D01*
X239325574Y-111078151D01*
X239363282Y-111099922D01*
X239503165Y-111137404D01*
X239647983Y-111137404D01*
X239787866Y-111099922D01*
X239825574Y-111078151D01*
X239825574Y-112237404D01*
X240133572Y-112237404D01*
X240133574Y-112237403D01*
X240252899Y-112226795D01*
X240252902Y-112226794D01*
X240448435Y-112170846D01*
X240628703Y-112076682D01*
X240786327Y-111948157D01*
X240914852Y-111790533D01*
X240953052Y-111717404D01*
X252061270Y-111717404D01*
X253425253Y-111717404D01*
X253408036Y-111727344D01*
X253352181Y-111783199D01*
X253312685Y-111851608D01*
X253292241Y-111927908D01*
X253292241Y-112006900D01*
X253312685Y-112083200D01*
X253352181Y-112151609D01*
X253408036Y-112207464D01*
X253425253Y-112217404D01*
X252061270Y-112217404D01*
X252082870Y-112353781D01*
X252163124Y-112600781D01*
X252281037Y-112832195D01*
X252433686Y-113042300D01*
X252433690Y-113042305D01*
X252617339Y-113225954D01*
X252617344Y-113225958D01*
X252827449Y-113378607D01*
X253058863Y-113496520D01*
X253305863Y-113576774D01*
X253562384Y-113617404D01*
X253842241Y-113617404D01*
X253842241Y-112267404D01*
X254342241Y-112267404D01*
X254342241Y-113617404D01*
X254622098Y-113617404D01*
X254878618Y-113576774D01*
X255125618Y-113496520D01*
X255357032Y-113378607D01*
X255567137Y-113225958D01*
X255567142Y-113225954D01*
X255750791Y-113042305D01*
X255750795Y-113042300D01*
X255903444Y-112832195D01*
X256021357Y-112600781D01*
X256101611Y-112353781D01*
X256123212Y-112217404D01*
X254759229Y-112217404D01*
X254776446Y-112207464D01*
X254832301Y-112151609D01*
X254871797Y-112083200D01*
X254892241Y-112006900D01*
X254892241Y-111927908D01*
X254871797Y-111851608D01*
X254832301Y-111783199D01*
X254776446Y-111727344D01*
X254759229Y-111717404D01*
X256123212Y-111717404D01*
X262061270Y-111717404D01*
X263425253Y-111717404D01*
X263408036Y-111727344D01*
X263352181Y-111783199D01*
X263312685Y-111851608D01*
X263292241Y-111927908D01*
X263292241Y-112006900D01*
X263312685Y-112083200D01*
X263352181Y-112151609D01*
X263408036Y-112207464D01*
X263425253Y-112217404D01*
X262061270Y-112217404D01*
X262082870Y-112353781D01*
X262163124Y-112600781D01*
X262281037Y-112832195D01*
X262433686Y-113042300D01*
X262433690Y-113042305D01*
X262617339Y-113225954D01*
X262617344Y-113225958D01*
X262827449Y-113378607D01*
X263058863Y-113496520D01*
X263305863Y-113576774D01*
X263562384Y-113617404D01*
X263842241Y-113617404D01*
X263842241Y-112267404D01*
X264342241Y-112267404D01*
X264342241Y-113617404D01*
X264622098Y-113617404D01*
X264878618Y-113576774D01*
X265125618Y-113496520D01*
X265357032Y-113378607D01*
X265567137Y-113225958D01*
X265567142Y-113225954D01*
X265750791Y-113042305D01*
X265750795Y-113042300D01*
X265903444Y-112832195D01*
X266021357Y-112600781D01*
X266101611Y-112353781D01*
X266123212Y-112217404D01*
X264759229Y-112217404D01*
X264776446Y-112207464D01*
X264832301Y-112151609D01*
X264871797Y-112083200D01*
X264892241Y-112006900D01*
X264892241Y-111927908D01*
X264871797Y-111851608D01*
X264832301Y-111783199D01*
X264776446Y-111727344D01*
X264759229Y-111717404D01*
X266123212Y-111717404D01*
X266101611Y-111581026D01*
X266021357Y-111334026D01*
X265903444Y-111102612D01*
X265750795Y-110892507D01*
X265750791Y-110892502D01*
X265567142Y-110708853D01*
X265567137Y-110708849D01*
X265452459Y-110625531D01*
X265409793Y-110570202D01*
X265403814Y-110500588D01*
X265436419Y-110438793D01*
X265455270Y-110422912D01*
X265480058Y-110405932D01*
X265630766Y-110255224D01*
X265751212Y-110079394D01*
X265837294Y-109884436D01*
X265837299Y-109884421D01*
X265886091Y-109676974D01*
X265886093Y-109676959D01*
X265892241Y-109588392D01*
X265892241Y-109117404D01*
X264759229Y-109117404D01*
X264776446Y-109107464D01*
X264832301Y-109051609D01*
X264871797Y-108983200D01*
X264892241Y-108906900D01*
X264892241Y-108827908D01*
X264871797Y-108751608D01*
X264832301Y-108683199D01*
X264776446Y-108627344D01*
X264759229Y-108617404D01*
X265892240Y-108617404D01*
X265892240Y-108146415D01*
X265886093Y-108057844D01*
X265886092Y-108057835D01*
X265837299Y-107850386D01*
X265837294Y-107850371D01*
X265751212Y-107655413D01*
X265630766Y-107479583D01*
X265480061Y-107328878D01*
X265304231Y-107208432D01*
X265109273Y-107122350D01*
X265109258Y-107122345D01*
X264901811Y-107073553D01*
X264901796Y-107073551D01*
X264813230Y-107067404D01*
X264342241Y-107067404D01*
X264342241Y-108567404D01*
X263842241Y-108567404D01*
X263842241Y-107067404D01*
X263371253Y-107067404D01*
X263282681Y-107073551D01*
X263282672Y-107073552D01*
X263075223Y-107122345D01*
X263075208Y-107122350D01*
X262880250Y-107208432D01*
X262704420Y-107328878D01*
X262553715Y-107479583D01*
X262433269Y-107655413D01*
X262347187Y-107850371D01*
X262347182Y-107850386D01*
X262298390Y-108057833D01*
X262298388Y-108057848D01*
X262292241Y-108146415D01*
X262292241Y-108617404D01*
X263425253Y-108617404D01*
X263408036Y-108627344D01*
X263352181Y-108683199D01*
X263312685Y-108751608D01*
X263292241Y-108827908D01*
X263292241Y-108906900D01*
X263312685Y-108983200D01*
X263352181Y-109051609D01*
X263408036Y-109107464D01*
X263425253Y-109117404D01*
X262292242Y-109117404D01*
X262292242Y-109588392D01*
X262298388Y-109676963D01*
X262298389Y-109676972D01*
X262347182Y-109884421D01*
X262347187Y-109884436D01*
X262433269Y-110079394D01*
X262553715Y-110255224D01*
X262704422Y-110405931D01*
X262729213Y-110422913D01*
X262773396Y-110477038D01*
X262781303Y-110546459D01*
X262750423Y-110609135D01*
X262732022Y-110625531D01*
X262617344Y-110708849D01*
X262617339Y-110708853D01*
X262433690Y-110892502D01*
X262433686Y-110892507D01*
X262281037Y-111102612D01*
X262163124Y-111334026D01*
X262082870Y-111581026D01*
X262061270Y-111717404D01*
X256123212Y-111717404D01*
X256101611Y-111581026D01*
X256021357Y-111334026D01*
X255903444Y-111102612D01*
X255750795Y-110892507D01*
X255750791Y-110892502D01*
X255567142Y-110708853D01*
X255567137Y-110708849D01*
X255452459Y-110625531D01*
X255409793Y-110570202D01*
X255403814Y-110500588D01*
X255436419Y-110438793D01*
X255455270Y-110422912D01*
X255480058Y-110405932D01*
X255630766Y-110255224D01*
X255751212Y-110079394D01*
X255837294Y-109884436D01*
X255837299Y-109884421D01*
X255886091Y-109676974D01*
X255886093Y-109676959D01*
X255892241Y-109588392D01*
X255892241Y-109117404D01*
X254759229Y-109117404D01*
X254776446Y-109107464D01*
X254832301Y-109051609D01*
X254871797Y-108983200D01*
X254892241Y-108906900D01*
X254892241Y-108827908D01*
X254871797Y-108751608D01*
X254832301Y-108683199D01*
X254776446Y-108627344D01*
X254759229Y-108617404D01*
X255892240Y-108617404D01*
X255892240Y-108146415D01*
X255886093Y-108057844D01*
X255886092Y-108057835D01*
X255837299Y-107850386D01*
X255837294Y-107850371D01*
X255751212Y-107655413D01*
X255630766Y-107479583D01*
X255480061Y-107328878D01*
X255304231Y-107208432D01*
X255109273Y-107122350D01*
X255109258Y-107122345D01*
X254901811Y-107073553D01*
X254901796Y-107073551D01*
X254813230Y-107067404D01*
X254342241Y-107067404D01*
X254342241Y-108567404D01*
X253842241Y-108567404D01*
X253842241Y-107067404D01*
X253371253Y-107067404D01*
X253282681Y-107073551D01*
X253282672Y-107073552D01*
X253075223Y-107122345D01*
X253075208Y-107122350D01*
X252880250Y-107208432D01*
X252704420Y-107328878D01*
X252553715Y-107479583D01*
X252433269Y-107655413D01*
X252347187Y-107850371D01*
X252347182Y-107850386D01*
X252298390Y-108057833D01*
X252298388Y-108057848D01*
X252292241Y-108146415D01*
X252292241Y-108617404D01*
X253425253Y-108617404D01*
X253408036Y-108627344D01*
X253352181Y-108683199D01*
X253312685Y-108751608D01*
X253292241Y-108827908D01*
X253292241Y-108906900D01*
X253312685Y-108983200D01*
X253352181Y-109051609D01*
X253408036Y-109107464D01*
X253425253Y-109117404D01*
X252292242Y-109117404D01*
X252292242Y-109588392D01*
X252298388Y-109676963D01*
X252298389Y-109676972D01*
X252347182Y-109884421D01*
X252347187Y-109884436D01*
X252433269Y-110079394D01*
X252553715Y-110255224D01*
X252704422Y-110405931D01*
X252729213Y-110422913D01*
X252773396Y-110477038D01*
X252781303Y-110546459D01*
X252750423Y-110609135D01*
X252732022Y-110625531D01*
X252617344Y-110708849D01*
X252617339Y-110708853D01*
X252433690Y-110892502D01*
X252433686Y-110892507D01*
X252281037Y-111102612D01*
X252163124Y-111334026D01*
X252082870Y-111581026D01*
X252061270Y-111717404D01*
X240953052Y-111717404D01*
X240963681Y-111697056D01*
X240963681Y-111697055D01*
X241009017Y-111610263D01*
X241064964Y-111414732D01*
X241064965Y-111414729D01*
X241075573Y-111295404D01*
X241075574Y-111295402D01*
X241075574Y-110487404D01*
X240125574Y-110487404D01*
X240125574Y-109987404D01*
X241075574Y-109987404D01*
X241075574Y-109179406D01*
X241075573Y-109179403D01*
X241064965Y-109060078D01*
X241064964Y-109060075D01*
X241009016Y-108864542D01*
X240914852Y-108684274D01*
X240786327Y-108526650D01*
X240628703Y-108398125D01*
X240448435Y-108303961D01*
X240306982Y-108263487D01*
X240306981Y-108263487D01*
X240252899Y-108248012D01*
X240133574Y-108237404D01*
X239825574Y-108237404D01*
X239825574Y-109396656D01*
X239787866Y-109374886D01*
X239647983Y-109337404D01*
X239503165Y-109337404D01*
X239363282Y-109374886D01*
X239325574Y-109396656D01*
X239325574Y-108237404D01*
X239017573Y-108237404D01*
X238898248Y-108248012D01*
X238898245Y-108248013D01*
X238702712Y-108303961D01*
X238522444Y-108398125D01*
X238364820Y-108526650D01*
X238236295Y-108684274D01*
X238142131Y-108864542D01*
X238086183Y-109060075D01*
X238086182Y-109060078D01*
X238075574Y-109179403D01*
X233556450Y-109179403D01*
X233604023Y-109117404D01*
X233616484Y-109101165D01*
X233629953Y-109083610D01*
X233659173Y-109045531D01*
X233783738Y-108829777D01*
X233879076Y-108599611D01*
X233943556Y-108358969D01*
X233976074Y-108111969D01*
X233976074Y-107862839D01*
X233943556Y-107615839D01*
X233879076Y-107375197D01*
X233810000Y-107208432D01*
X233783743Y-107145042D01*
X233783736Y-107145027D01*
X233659176Y-106929281D01*
X233628288Y-106889027D01*
X233569864Y-106812888D01*
X233544672Y-106747721D01*
X233558710Y-106679277D01*
X233569860Y-106661925D01*
X233659173Y-106545531D01*
X233783738Y-106329777D01*
X233879076Y-106099611D01*
X233943556Y-105858969D01*
X233976074Y-105611969D01*
X233976074Y-105611948D01*
X233976339Y-105607919D01*
X233977940Y-105608023D01*
X233995759Y-105547340D01*
X233999756Y-105541494D01*
X234033525Y-105495013D01*
X234104528Y-105397286D01*
X234197461Y-105214895D01*
X234260718Y-105020210D01*
X234292741Y-104818028D01*
X234292741Y-104613324D01*
X234260718Y-104411142D01*
X234197461Y-104216457D01*
X234197459Y-104216454D01*
X234197459Y-104216452D01*
X234143940Y-104111417D01*
X234104528Y-104034066D01*
X234085116Y-104007347D01*
X233984212Y-103868462D01*
X233839454Y-103723704D01*
X233673854Y-103603391D01*
X233673853Y-103603390D01*
X233673851Y-103603389D01*
X233573050Y-103552028D01*
X233488195Y-103508792D01*
X233437399Y-103460817D01*
X233420604Y-103392996D01*
X233426560Y-103359986D01*
X233441101Y-103315234D01*
X233475574Y-103097585D01*
X233475574Y-102877222D01*
X233441100Y-102659568D01*
X233373006Y-102449993D01*
X233272962Y-102253647D01*
X233226639Y-102189889D01*
X232558536Y-102857993D01*
X232541499Y-102794411D01*
X232475673Y-102680397D01*
X232382581Y-102587305D01*
X232268567Y-102521479D01*
X232204981Y-102504441D01*
X232873087Y-101836336D01*
X232809330Y-101790015D01*
X232612984Y-101689971D01*
X232403409Y-101621877D01*
X232185755Y-101587404D01*
X231965393Y-101587404D01*
X231747738Y-101621877D01*
X231538163Y-101689971D01*
X231341807Y-101790020D01*
X231278059Y-101836335D01*
X231278059Y-101836336D01*
X231946164Y-102504441D01*
X231882581Y-102521479D01*
X231768567Y-102587305D01*
X231675475Y-102680397D01*
X231609649Y-102794411D01*
X231592611Y-102857994D01*
X230904605Y-102169988D01*
X230871120Y-102108665D01*
X230875942Y-102039412D01*
X230933298Y-101883844D01*
X230918928Y-101845317D01*
X230918924Y-101845310D01*
X230832764Y-101730216D01*
X230832761Y-101730213D01*
X230717667Y-101644053D01*
X230717660Y-101644049D01*
X230582953Y-101593807D01*
X230582946Y-101593805D01*
X230523418Y-101587404D01*
X229825574Y-101587404D01*
X229825574Y-102554392D01*
X229768567Y-102521479D01*
X229641400Y-102487404D01*
X229509748Y-102487404D01*
X229382581Y-102521479D01*
X229325574Y-102554392D01*
X229325574Y-101587404D01*
X228627729Y-101587404D01*
X228568201Y-101593805D01*
X228568194Y-101593807D01*
X228433487Y-101644049D01*
X228433480Y-101644053D01*
X228318386Y-101730213D01*
X228318383Y-101730216D01*
X228232223Y-101845310D01*
X228232219Y-101845317D01*
X228181977Y-101980024D01*
X228181975Y-101980031D01*
X228175574Y-102039559D01*
X228175574Y-102737404D01*
X229142562Y-102737404D01*
X229109649Y-102794411D01*
X229075574Y-102921578D01*
X229075574Y-103053230D01*
X229109649Y-103180397D01*
X229142562Y-103237404D01*
X228175574Y-103237404D01*
X228175574Y-103935248D01*
X228181975Y-103994776D01*
X228181977Y-103994783D01*
X228208053Y-104064696D01*
X228213037Y-104134387D01*
X228179555Y-104195708D01*
X228143630Y-104231634D01*
X227991974Y-104429277D01*
X227867411Y-104645027D01*
X227867404Y-104645042D01*
X227772072Y-104875196D01*
X227707591Y-105115842D01*
X227675075Y-105362828D01*
X227675074Y-105362845D01*
X227675074Y-105611962D01*
X227675075Y-105611979D01*
X227707591Y-105858965D01*
X227772072Y-106099611D01*
X227867404Y-106329765D01*
X227867411Y-106329780D01*
X227991974Y-106545530D01*
X228081280Y-106661918D01*
X228106474Y-106727088D01*
X228092435Y-106795533D01*
X228081280Y-106812890D01*
X227991974Y-106929277D01*
X227867411Y-107145027D01*
X227867404Y-107145042D01*
X227772072Y-107375196D01*
X227707591Y-107615842D01*
X227686347Y-107777210D01*
X227658081Y-107841107D01*
X227599756Y-107879578D01*
X227529891Y-107880409D01*
X227470668Y-107843337D01*
X227440889Y-107780131D01*
X227439408Y-107761025D01*
X227439408Y-106646514D01*
X227439407Y-106646509D01*
X227438421Y-106642831D01*
X227433356Y-106623926D01*
X227411809Y-106529483D01*
X227392039Y-106488419D01*
X227389262Y-106479277D01*
X227389139Y-106466162D01*
X227383908Y-106443234D01*
X227383908Y-104281601D01*
X227396188Y-104227799D01*
X227411798Y-104195387D01*
X227433467Y-104100468D01*
X227439408Y-104078296D01*
X227439408Y-104012364D01*
X227439413Y-103946552D01*
X227439412Y-103946549D01*
X227439413Y-103938618D01*
X227439408Y-103938524D01*
X227439408Y-102646514D01*
X227439407Y-102646509D01*
X227434491Y-102628162D01*
X227433356Y-102623926D01*
X227411809Y-102529483D01*
X227392039Y-102488419D01*
X227389262Y-102479277D01*
X227389139Y-102466162D01*
X227383908Y-102443234D01*
X227383908Y-100117404D01*
X225951265Y-100117404D01*
X225884226Y-100097719D01*
X225838471Y-100044915D01*
X225828527Y-99975757D01*
X225857552Y-99912201D01*
X225894970Y-99882919D01*
X226071285Y-99793081D01*
X226268667Y-99649674D01*
X226441179Y-99477162D01*
X226584586Y-99279780D01*
X226695347Y-99062401D01*
X226770742Y-98830362D01*
X226788633Y-98717403D01*
X225425896Y-98717403D01*
X225443113Y-98707463D01*
X225498968Y-98651608D01*
X225538464Y-98583199D01*
X225558908Y-98506899D01*
X225558908Y-98427907D01*
X225538464Y-98351607D01*
X225498968Y-98283198D01*
X225443113Y-98227343D01*
X225425896Y-98217403D01*
X226788633Y-98217403D01*
X226770742Y-98104443D01*
X226695347Y-97872404D01*
X226584586Y-97655025D01*
X226440706Y-97456992D01*
X226417226Y-97391185D01*
X226433051Y-97323131D01*
X226460488Y-97289820D01*
X226579597Y-97188092D01*
X226748320Y-96990543D01*
X226884062Y-96769031D01*
X226983481Y-96529013D01*
X227044129Y-96276397D01*
X227059408Y-96082256D01*
X227059407Y-94951718D01*
X233291741Y-94951718D01*
X233291741Y-95156421D01*
X233323763Y-95358604D01*
X233387022Y-95553293D01*
X233479956Y-95735683D01*
X233600269Y-95901283D01*
X233665375Y-95966389D01*
X233698860Y-96027712D01*
X233693876Y-96097404D01*
X233665375Y-96141751D01*
X233600273Y-96206852D01*
X233600269Y-96206856D01*
X233479956Y-96372456D01*
X233387022Y-96554846D01*
X233323763Y-96749535D01*
X233291741Y-96951718D01*
X233291741Y-97156421D01*
X233323763Y-97358604D01*
X233387022Y-97553293D01*
X233438858Y-97655025D01*
X233456125Y-97688914D01*
X233479956Y-97735683D01*
X233600269Y-97901283D01*
X233745027Y-98046041D01*
X233868407Y-98135680D01*
X233910631Y-98166357D01*
X234026848Y-98225573D01*
X234093017Y-98259288D01*
X234093019Y-98259288D01*
X234093022Y-98259290D01*
X234197378Y-98293197D01*
X234287706Y-98322547D01*
X234388798Y-98338558D01*
X234489889Y-98354570D01*
X234489890Y-98354570D01*
X234694592Y-98354570D01*
X234694593Y-98354570D01*
X234896775Y-98322547D01*
X235091460Y-98259290D01*
X235273851Y-98166357D01*
X235407835Y-98069013D01*
X235439454Y-98046041D01*
X235439456Y-98046038D01*
X235439460Y-98046036D01*
X235584207Y-97901289D01*
X235584209Y-97901285D01*
X235584212Y-97901283D01*
X235645887Y-97816393D01*
X235704528Y-97735680D01*
X235797461Y-97553289D01*
X235860718Y-97358604D01*
X235892741Y-97156422D01*
X235892741Y-96951718D01*
X235860718Y-96749536D01*
X235797461Y-96554851D01*
X235797459Y-96554848D01*
X235797459Y-96554846D01*
X235763744Y-96488677D01*
X235704528Y-96372460D01*
X235699621Y-96365707D01*
X235673440Y-96329670D01*
X235673437Y-96329667D01*
X235634734Y-96276397D01*
X235622248Y-96259211D01*
X237125074Y-96259211D01*
X237125074Y-97688914D01*
X237125075Y-97688929D01*
X237140352Y-97883061D01*
X237201001Y-98135680D01*
X237300417Y-98375693D01*
X237300419Y-98375697D01*
X237300420Y-98375698D01*
X237436162Y-98597210D01*
X237604885Y-98794759D01*
X237802434Y-98963482D01*
X238023946Y-99099224D01*
X238023948Y-99099224D01*
X238023950Y-99099226D01*
X238109848Y-99134806D01*
X238164251Y-99178647D01*
X238186316Y-99244941D01*
X238172305Y-99306776D01*
X238142130Y-99364543D01*
X238086183Y-99560075D01*
X238086182Y-99560078D01*
X238075574Y-99679403D01*
X238075574Y-100487404D01*
X239025574Y-100487404D01*
X239025574Y-100987404D01*
X238075574Y-100987404D01*
X238075574Y-101795404D01*
X238086182Y-101914729D01*
X238086183Y-101914732D01*
X238142131Y-102110265D01*
X238236295Y-102290533D01*
X238364820Y-102448157D01*
X238522444Y-102576682D01*
X238702712Y-102670846D01*
X238898245Y-102726794D01*
X238898248Y-102726795D01*
X239017573Y-102737403D01*
X239017576Y-102737404D01*
X239325574Y-102737404D01*
X239325574Y-101578151D01*
X239363282Y-101599922D01*
X239503165Y-101637404D01*
X239647983Y-101637404D01*
X239787866Y-101599922D01*
X239825574Y-101578151D01*
X239825574Y-102737404D01*
X240133572Y-102737404D01*
X240133574Y-102737403D01*
X240252899Y-102726795D01*
X240252902Y-102726794D01*
X240448435Y-102670846D01*
X240628703Y-102576682D01*
X240786327Y-102448157D01*
X240914852Y-102290533D01*
X241009016Y-102110265D01*
X241064964Y-101914732D01*
X241064965Y-101914729D01*
X241075573Y-101795404D01*
X241075574Y-101795402D01*
X241075574Y-100987404D01*
X240125574Y-100987404D01*
X240125574Y-100487404D01*
X241075574Y-100487404D01*
X241075574Y-99679406D01*
X241075573Y-99679403D01*
X241064965Y-99560078D01*
X241064964Y-99560075D01*
X241009016Y-99364542D01*
X240913557Y-99181794D01*
X240899966Y-99113259D01*
X240925585Y-99048256D01*
X240958671Y-99018659D01*
X241048714Y-98963482D01*
X241246263Y-98794759D01*
X241414986Y-98597210D01*
X241550728Y-98375698D01*
X241650147Y-98135680D01*
X241710795Y-97883064D01*
X241726074Y-97688923D01*
X241726073Y-96259218D01*
X241725209Y-96248239D01*
X241721401Y-96199842D01*
X241720827Y-96192544D01*
X251791741Y-96192544D01*
X251791741Y-97622247D01*
X251791742Y-97622262D01*
X251807019Y-97816394D01*
X251867668Y-98069013D01*
X251967084Y-98309026D01*
X251967086Y-98309030D01*
X251967087Y-98309031D01*
X252102829Y-98530543D01*
X252147802Y-98583199D01*
X252210724Y-98656872D01*
X252239294Y-98720633D01*
X252228857Y-98789719D01*
X252210724Y-98817934D01*
X252102829Y-98944264D01*
X251967084Y-99165780D01*
X251867668Y-99405793D01*
X251807019Y-99658413D01*
X251791741Y-99852545D01*
X251791741Y-101282248D01*
X251791742Y-101282263D01*
X251807019Y-101476395D01*
X251867668Y-101729014D01*
X251967084Y-101969027D01*
X251967086Y-101969031D01*
X251967087Y-101969032D01*
X252102829Y-102190544D01*
X252271552Y-102388093D01*
X252469101Y-102556816D01*
X252690613Y-102692558D01*
X252690615Y-102692558D01*
X252690617Y-102692560D01*
X252751934Y-102717958D01*
X252930631Y-102791977D01*
X253183247Y-102852625D01*
X253377388Y-102867904D01*
X254807093Y-102867903D01*
X255001235Y-102852625D01*
X255253851Y-102791977D01*
X255493869Y-102692558D01*
X255715381Y-102556816D01*
X255912930Y-102388093D01*
X256081653Y-102190544D01*
X256217395Y-101969032D01*
X256316814Y-101729014D01*
X256377462Y-101476398D01*
X256392741Y-101282257D01*
X256392740Y-99852552D01*
X256377462Y-99658410D01*
X256316814Y-99405794D01*
X256224030Y-99181794D01*
X256217397Y-99165780D01*
X256198416Y-99134806D01*
X256081653Y-98944264D01*
X255973756Y-98817933D01*
X255945186Y-98754174D01*
X255955623Y-98685088D01*
X255973752Y-98656878D01*
X256081653Y-98530543D01*
X256217395Y-98309031D01*
X256316814Y-98069013D01*
X256377462Y-97816397D01*
X256392741Y-97622256D01*
X256392740Y-96192551D01*
X256392739Y-96192544D01*
X261791741Y-96192544D01*
X261791741Y-97622247D01*
X261791742Y-97622262D01*
X261807019Y-97816394D01*
X261867668Y-98069013D01*
X261967084Y-98309026D01*
X261967086Y-98309030D01*
X261967087Y-98309031D01*
X262102829Y-98530543D01*
X262147802Y-98583199D01*
X262210724Y-98656872D01*
X262239294Y-98720633D01*
X262228857Y-98789719D01*
X262210724Y-98817934D01*
X262102829Y-98944264D01*
X261967084Y-99165780D01*
X261867668Y-99405793D01*
X261807019Y-99658413D01*
X261791741Y-99852545D01*
X261791741Y-101282248D01*
X261791742Y-101282263D01*
X261807019Y-101476395D01*
X261867668Y-101729014D01*
X261967084Y-101969027D01*
X261967086Y-101969031D01*
X261967087Y-101969032D01*
X262102829Y-102190544D01*
X262271552Y-102388093D01*
X262469101Y-102556816D01*
X262690613Y-102692558D01*
X262690615Y-102692558D01*
X262690617Y-102692560D01*
X262751934Y-102717958D01*
X262930631Y-102791977D01*
X263183247Y-102852625D01*
X263377388Y-102867904D01*
X264807093Y-102867903D01*
X265001235Y-102852625D01*
X265253851Y-102791977D01*
X265493869Y-102692558D01*
X265715381Y-102556816D01*
X265912930Y-102388093D01*
X266081653Y-102190544D01*
X266217395Y-101969032D01*
X266316814Y-101729014D01*
X266377462Y-101476398D01*
X266392741Y-101282257D01*
X266392740Y-99852552D01*
X266377462Y-99658410D01*
X266316814Y-99405794D01*
X266224030Y-99181794D01*
X266217397Y-99165780D01*
X266198416Y-99134806D01*
X266081653Y-98944264D01*
X265973756Y-98817933D01*
X265945186Y-98754174D01*
X265955623Y-98685088D01*
X265973752Y-98656878D01*
X266081653Y-98530543D01*
X266217395Y-98309031D01*
X266316814Y-98069013D01*
X266377462Y-97816397D01*
X266392741Y-97622256D01*
X266392740Y-96192551D01*
X266377462Y-95998409D01*
X266316814Y-95745793D01*
X266245011Y-95572446D01*
X266217397Y-95505779D01*
X266122505Y-95350929D01*
X266081653Y-95284263D01*
X265912930Y-95086714D01*
X265715381Y-94917991D01*
X265493869Y-94782249D01*
X265493868Y-94782248D01*
X265493864Y-94782246D01*
X265327868Y-94713489D01*
X265253851Y-94682830D01*
X265253852Y-94682830D01*
X265116162Y-94649773D01*
X265001235Y-94622182D01*
X265001233Y-94622181D01*
X265001232Y-94622181D01*
X264840260Y-94609513D01*
X264807094Y-94606903D01*
X264807092Y-94606903D01*
X263377396Y-94606903D01*
X263377381Y-94606904D01*
X263183249Y-94622181D01*
X262930630Y-94682830D01*
X262690617Y-94782246D01*
X262469100Y-94917991D01*
X262271552Y-95086714D01*
X262102829Y-95284262D01*
X261967084Y-95505779D01*
X261867668Y-95745792D01*
X261807019Y-95998412D01*
X261791741Y-96192544D01*
X256392739Y-96192544D01*
X256377462Y-95998409D01*
X256316814Y-95745793D01*
X256245011Y-95572446D01*
X256217397Y-95505779D01*
X256122505Y-95350929D01*
X256081653Y-95284263D01*
X255912930Y-95086714D01*
X255715381Y-94917991D01*
X255493869Y-94782249D01*
X255493868Y-94782248D01*
X255493864Y-94782246D01*
X255327868Y-94713489D01*
X255253851Y-94682830D01*
X255253852Y-94682830D01*
X255116162Y-94649773D01*
X255001235Y-94622182D01*
X255001233Y-94622181D01*
X255001232Y-94622181D01*
X254840260Y-94609513D01*
X254807094Y-94606903D01*
X254807092Y-94606903D01*
X253377396Y-94606903D01*
X253377381Y-94606904D01*
X253183249Y-94622181D01*
X252930630Y-94682830D01*
X252690617Y-94782246D01*
X252469100Y-94917991D01*
X252271552Y-95086714D01*
X252102829Y-95284262D01*
X251967084Y-95505779D01*
X251867668Y-95745792D01*
X251807019Y-95998412D01*
X251791741Y-96192544D01*
X241720827Y-96192544D01*
X241710795Y-96065079D01*
X241710795Y-96065076D01*
X241650147Y-95812460D01*
X241550728Y-95572442D01*
X241414986Y-95350930D01*
X241246263Y-95153381D01*
X241048714Y-94984658D01*
X240827202Y-94848916D01*
X240827201Y-94848915D01*
X240827197Y-94848913D01*
X240661201Y-94780156D01*
X240587184Y-94749497D01*
X240587185Y-94749497D01*
X240449495Y-94716440D01*
X240334568Y-94688849D01*
X240334566Y-94688848D01*
X240334565Y-94688848D01*
X240173593Y-94676180D01*
X240140427Y-94673570D01*
X240140425Y-94673570D01*
X238710729Y-94673570D01*
X238710714Y-94673571D01*
X238516582Y-94688848D01*
X238263963Y-94749497D01*
X238023950Y-94848913D01*
X237802433Y-94984658D01*
X237604885Y-95153381D01*
X237436162Y-95350929D01*
X237300417Y-95572446D01*
X237201001Y-95812459D01*
X237140352Y-96065079D01*
X237125074Y-96259211D01*
X235622248Y-96259211D01*
X235584207Y-96206851D01*
X235519107Y-96141751D01*
X235485622Y-96080428D01*
X235490606Y-96010736D01*
X235519107Y-95966389D01*
X235584207Y-95901289D01*
X235584209Y-95901285D01*
X235584212Y-95901283D01*
X235636973Y-95828660D01*
X235704528Y-95735680D01*
X235797461Y-95553289D01*
X235860718Y-95358604D01*
X235892741Y-95156422D01*
X235892741Y-94951718D01*
X235887399Y-94917991D01*
X235860718Y-94749535D01*
X235797459Y-94554846D01*
X235748321Y-94458409D01*
X235704528Y-94372460D01*
X235696797Y-94361819D01*
X235584212Y-94206856D01*
X235439454Y-94062098D01*
X235273854Y-93941785D01*
X235273853Y-93941784D01*
X235273851Y-93941783D01*
X235216894Y-93912761D01*
X235091464Y-93848851D01*
X234896775Y-93785592D01*
X234722236Y-93757948D01*
X234694593Y-93753570D01*
X234489889Y-93753570D01*
X234465570Y-93757421D01*
X234287706Y-93785592D01*
X234093017Y-93848851D01*
X233910627Y-93941785D01*
X233745027Y-94062098D01*
X233600269Y-94206856D01*
X233479956Y-94372456D01*
X233387022Y-94554846D01*
X233323763Y-94749535D01*
X233291741Y-94951718D01*
X227059407Y-94951718D01*
X227059407Y-94652551D01*
X227044129Y-94458409D01*
X226983481Y-94205793D01*
X226884062Y-93965775D01*
X226748320Y-93744263D01*
X226579597Y-93546714D01*
X226382048Y-93377991D01*
X226160536Y-93242249D01*
X226160535Y-93242248D01*
X226160531Y-93242246D01*
X225994535Y-93173489D01*
X225920518Y-93142830D01*
X225920519Y-93142830D01*
X225772105Y-93107199D01*
X225667902Y-93082182D01*
X225667900Y-93082181D01*
X225667899Y-93082181D01*
X225506927Y-93069513D01*
X225473761Y-93066903D01*
X225473759Y-93066903D01*
X224044063Y-93066903D01*
X224044048Y-93066904D01*
X223849916Y-93082181D01*
X223597297Y-93142830D01*
X223357284Y-93242246D01*
X223135767Y-93377991D01*
X222938219Y-93546714D01*
X222769496Y-93744262D01*
X222633751Y-93965779D01*
X222534335Y-94205792D01*
X222473686Y-94458412D01*
X222458408Y-94652544D01*
X222458408Y-96082247D01*
X222458409Y-96082262D01*
X222473686Y-96276394D01*
X222534335Y-96529013D01*
X222633751Y-96769026D01*
X222633753Y-96769030D01*
X222633754Y-96769031D01*
X222769496Y-96990543D01*
X222938219Y-97188092D01*
X223029928Y-97266419D01*
X223057322Y-97289816D01*
X223095515Y-97348323D01*
X223096013Y-97418191D01*
X223077108Y-97456991D01*
X222933231Y-97655022D01*
X222822468Y-97872404D01*
X222747073Y-98104443D01*
X222729183Y-98217403D01*
X224091920Y-98217403D01*
X224074703Y-98227343D01*
X224018848Y-98283198D01*
X223979352Y-98351607D01*
X223958908Y-98427907D01*
X223958908Y-98506899D01*
X223979352Y-98583199D01*
X224018848Y-98651608D01*
X224074703Y-98707463D01*
X224091920Y-98717403D01*
X222729183Y-98717403D01*
X222747073Y-98830362D01*
X222822468Y-99062401D01*
X222933229Y-99279780D01*
X223076636Y-99477162D01*
X223249148Y-99649674D01*
X223446530Y-99793081D01*
X223622846Y-99882919D01*
X223673642Y-99930894D01*
X223690437Y-99998715D01*
X223667900Y-100064850D01*
X223613184Y-100108301D01*
X223566551Y-100117404D01*
X222133908Y-100117404D01*
X222133908Y-102443208D01*
X222128558Y-102479239D01*
X222125778Y-102488391D01*
X222106007Y-102529449D01*
X222084375Y-102624238D01*
X222083257Y-102628409D01*
X222083247Y-102628444D01*
X222078407Y-102646516D01*
X222078404Y-102646539D01*
X222078408Y-102711900D01*
X222078408Y-103938524D01*
X222078402Y-103938618D01*
X222078403Y-103961071D01*
X222078391Y-103961111D01*
X203061000Y-103961111D01*
X203001653Y-103864264D01*
X202832930Y-103666715D01*
X202635381Y-103497992D01*
X202413869Y-103362250D01*
X202413868Y-103362249D01*
X202413864Y-103362247D01*
X202247868Y-103293490D01*
X202173851Y-103262831D01*
X202173852Y-103262831D01*
X202021264Y-103226198D01*
X201921235Y-103202183D01*
X201921233Y-103202182D01*
X201921232Y-103202182D01*
X201760260Y-103189514D01*
X201727094Y-103186904D01*
X201727092Y-103186904D01*
X200297396Y-103186904D01*
X200297381Y-103186905D01*
X200103249Y-103202182D01*
X199850630Y-103262831D01*
X199610617Y-103362247D01*
X199389100Y-103497992D01*
X199191552Y-103666715D01*
X199022829Y-103864263D01*
X198887084Y-104085780D01*
X198787668Y-104325793D01*
X198727019Y-104578413D01*
X198711741Y-104772545D01*
X195012739Y-104772545D01*
X194997462Y-104578410D01*
X194936814Y-104325794D01*
X194874120Y-104174439D01*
X194837397Y-104085780D01*
X194816104Y-104051033D01*
X194701653Y-103864264D01*
X194532930Y-103666715D01*
X194335381Y-103497992D01*
X194113869Y-103362250D01*
X194113868Y-103362249D01*
X194113864Y-103362247D01*
X193947868Y-103293490D01*
X193873851Y-103262831D01*
X193873852Y-103262831D01*
X193721264Y-103226198D01*
X193621235Y-103202183D01*
X193621233Y-103202182D01*
X193621232Y-103202182D01*
X193460260Y-103189514D01*
X193427094Y-103186904D01*
X193427092Y-103186904D01*
X191997396Y-103186904D01*
X191997381Y-103186905D01*
X191803249Y-103202182D01*
X191550630Y-103262831D01*
X191310617Y-103362247D01*
X191089100Y-103497992D01*
X190891552Y-103666715D01*
X190802269Y-103771251D01*
X190743762Y-103809444D01*
X190673894Y-103809942D01*
X190635094Y-103791037D01*
X190477032Y-103676200D01*
X190245616Y-103558286D01*
X189998615Y-103478032D01*
X189862241Y-103456432D01*
X189862241Y-104820415D01*
X189852301Y-104803199D01*
X189796446Y-104747344D01*
X189728037Y-104707848D01*
X189651737Y-104687404D01*
X189572745Y-104687404D01*
X189496445Y-104707848D01*
X189428036Y-104747344D01*
X189372181Y-104803199D01*
X189362241Y-104820415D01*
X189362241Y-103456432D01*
X189362240Y-103456432D01*
X189225866Y-103478032D01*
X188978865Y-103558286D01*
X188747449Y-103676200D01*
X188537344Y-103828849D01*
X188537339Y-103828853D01*
X188353690Y-104012502D01*
X188353686Y-104012507D01*
X188201037Y-104222612D01*
X188083124Y-104454026D01*
X188002870Y-104701026D01*
X187962241Y-104957546D01*
X161592741Y-104957546D01*
X161592741Y-99852545D01*
X165791741Y-99852545D01*
X165791741Y-101282248D01*
X165791742Y-101282263D01*
X165807019Y-101476395D01*
X165867668Y-101729014D01*
X165967084Y-101969027D01*
X165967086Y-101969031D01*
X165967087Y-101969032D01*
X166102829Y-102190544D01*
X166271552Y-102388093D01*
X166469101Y-102556816D01*
X166690613Y-102692558D01*
X166690615Y-102692558D01*
X166690617Y-102692560D01*
X166751934Y-102717958D01*
X166930631Y-102791977D01*
X167183247Y-102852625D01*
X167377388Y-102867904D01*
X168807093Y-102867903D01*
X169001235Y-102852625D01*
X169253851Y-102791977D01*
X169493869Y-102692558D01*
X169715381Y-102556816D01*
X169912930Y-102388093D01*
X170081653Y-102190544D01*
X170217395Y-101969032D01*
X170316814Y-101729014D01*
X170377462Y-101476398D01*
X170392741Y-101282257D01*
X170392740Y-99852552D01*
X170392739Y-99852545D01*
X179791741Y-99852545D01*
X179791741Y-101282248D01*
X179791742Y-101282263D01*
X179807019Y-101476395D01*
X179867668Y-101729014D01*
X179967084Y-101969027D01*
X179967086Y-101969031D01*
X179967087Y-101969032D01*
X180102829Y-102190544D01*
X180271552Y-102388093D01*
X180469101Y-102556816D01*
X180690613Y-102692558D01*
X180690615Y-102692558D01*
X180690617Y-102692560D01*
X180751934Y-102717958D01*
X180930631Y-102791977D01*
X181183247Y-102852625D01*
X181377388Y-102867904D01*
X182807093Y-102867903D01*
X183001235Y-102852625D01*
X183253851Y-102791977D01*
X183493869Y-102692558D01*
X183715381Y-102556816D01*
X183912930Y-102388093D01*
X184081653Y-102190544D01*
X184217395Y-101969032D01*
X184316814Y-101729014D01*
X184377462Y-101476398D01*
X184392741Y-101282257D01*
X184392740Y-99852552D01*
X184392739Y-99852545D01*
X207791741Y-99852545D01*
X207791741Y-101282248D01*
X207791742Y-101282263D01*
X207807019Y-101476395D01*
X207867668Y-101729014D01*
X207967084Y-101969027D01*
X207967086Y-101969031D01*
X207967087Y-101969032D01*
X208102829Y-102190544D01*
X208271552Y-102388093D01*
X208469101Y-102556816D01*
X208690613Y-102692558D01*
X208690615Y-102692558D01*
X208690617Y-102692560D01*
X208751934Y-102717958D01*
X208930631Y-102791977D01*
X209183247Y-102852625D01*
X209377388Y-102867904D01*
X210807093Y-102867903D01*
X211001235Y-102852625D01*
X211253851Y-102791977D01*
X211493869Y-102692558D01*
X211715381Y-102556816D01*
X211912930Y-102388093D01*
X212081653Y-102190544D01*
X212155657Y-102069779D01*
X221499888Y-102069779D01*
X221499888Y-102129651D01*
X221516597Y-102169988D01*
X221522802Y-102184968D01*
X221565134Y-102227300D01*
X221565135Y-102227300D01*
X221565137Y-102227302D01*
X221620452Y-102250215D01*
X221620454Y-102250215D01*
X221680322Y-102250215D01*
X221680324Y-102250215D01*
X221735639Y-102227302D01*
X221777975Y-102184966D01*
X221800888Y-102129651D01*
X221800888Y-102069779D01*
X221777975Y-102014464D01*
X221777973Y-102014462D01*
X221777973Y-102014461D01*
X221735641Y-101972129D01*
X221735639Y-101972128D01*
X221680324Y-101949215D01*
X221620452Y-101949215D01*
X221577667Y-101966937D01*
X221565134Y-101972129D01*
X221522802Y-102014461D01*
X221522801Y-102014464D01*
X221499888Y-102069779D01*
X212155657Y-102069779D01*
X212217395Y-101969032D01*
X212316814Y-101729014D01*
X212377462Y-101476398D01*
X212392741Y-101282257D01*
X212392740Y-99852552D01*
X212377462Y-99658410D01*
X212316814Y-99405794D01*
X212224030Y-99181794D01*
X212217397Y-99165780D01*
X212198416Y-99134806D01*
X212081653Y-98944264D01*
X211912930Y-98746715D01*
X211715381Y-98577992D01*
X211493869Y-98442250D01*
X211493868Y-98442249D01*
X211493864Y-98442247D01*
X211282191Y-98354570D01*
X211253851Y-98342831D01*
X211253852Y-98342831D01*
X211113044Y-98309026D01*
X211001235Y-98282183D01*
X211001233Y-98282182D01*
X211001232Y-98282182D01*
X210840260Y-98269514D01*
X210807094Y-98266904D01*
X210807092Y-98266904D01*
X209377396Y-98266904D01*
X209377381Y-98266905D01*
X209183249Y-98282182D01*
X208930630Y-98342831D01*
X208690617Y-98442247D01*
X208469100Y-98577992D01*
X208271552Y-98746715D01*
X208102829Y-98944263D01*
X207967084Y-99165780D01*
X207867668Y-99405793D01*
X207807019Y-99658413D01*
X207791741Y-99852545D01*
X184392739Y-99852545D01*
X184377462Y-99658410D01*
X184316814Y-99405794D01*
X184224030Y-99181794D01*
X184217397Y-99165780D01*
X184198416Y-99134806D01*
X184081653Y-98944264D01*
X183912930Y-98746715D01*
X183715381Y-98577992D01*
X183493869Y-98442250D01*
X183493868Y-98442249D01*
X183493864Y-98442247D01*
X183282191Y-98354570D01*
X183253851Y-98342831D01*
X183253852Y-98342831D01*
X183113044Y-98309026D01*
X183001235Y-98282183D01*
X183001233Y-98282182D01*
X183001232Y-98282182D01*
X182840260Y-98269514D01*
X182807094Y-98266904D01*
X182807092Y-98266904D01*
X181377396Y-98266904D01*
X181377381Y-98266905D01*
X181183249Y-98282182D01*
X180930630Y-98342831D01*
X180690617Y-98442247D01*
X180469100Y-98577992D01*
X180271552Y-98746715D01*
X180102829Y-98944263D01*
X179967084Y-99165780D01*
X179867668Y-99405793D01*
X179807019Y-99658413D01*
X179791741Y-99852545D01*
X170392739Y-99852545D01*
X170377462Y-99658410D01*
X170316814Y-99405794D01*
X170224030Y-99181794D01*
X170217397Y-99165780D01*
X170198416Y-99134806D01*
X170081653Y-98944264D01*
X169912930Y-98746715D01*
X169715381Y-98577992D01*
X169493869Y-98442250D01*
X169493868Y-98442249D01*
X169493864Y-98442247D01*
X169282191Y-98354570D01*
X169253851Y-98342831D01*
X169253852Y-98342831D01*
X169113044Y-98309026D01*
X169001235Y-98282183D01*
X169001233Y-98282182D01*
X169001232Y-98282182D01*
X168840260Y-98269514D01*
X168807094Y-98266904D01*
X168807092Y-98266904D01*
X167377396Y-98266904D01*
X167377381Y-98266905D01*
X167183249Y-98282182D01*
X166930630Y-98342831D01*
X166690617Y-98442247D01*
X166469100Y-98577992D01*
X166271552Y-98746715D01*
X166102829Y-98944263D01*
X165967084Y-99165780D01*
X165867668Y-99405793D01*
X165807019Y-99658413D01*
X165791741Y-99852545D01*
X161592741Y-99852545D01*
X161592741Y-93494160D01*
X161612426Y-93427121D01*
X161665230Y-93381366D01*
X161734388Y-93371422D01*
X161784986Y-93390629D01*
X161789115Y-93393350D01*
X161969379Y-93487512D01*
X162164912Y-93543460D01*
X162164915Y-93543461D01*
X162284240Y-93554069D01*
X162284243Y-93554070D01*
X163092241Y-93554070D01*
X163092241Y-92604070D01*
X163592241Y-92604070D01*
X163592241Y-93554070D01*
X164400239Y-93554070D01*
X164400241Y-93554069D01*
X164519566Y-93543461D01*
X164519569Y-93543460D01*
X164715102Y-93487512D01*
X164895370Y-93393348D01*
X165052994Y-93264823D01*
X165181519Y-93107199D01*
X165275683Y-92926931D01*
X165331631Y-92731398D01*
X165331632Y-92731395D01*
X165342240Y-92612070D01*
X165342241Y-92612068D01*
X165342241Y-92304070D01*
X164182989Y-92304070D01*
X164204759Y-92266362D01*
X164242241Y-92126479D01*
X164242241Y-91981661D01*
X164204759Y-91841778D01*
X164182989Y-91804070D01*
X165342241Y-91804070D01*
X165342241Y-91496072D01*
X165342240Y-91496069D01*
X170842241Y-91496069D01*
X170842241Y-91804070D01*
X172001493Y-91804070D01*
X171979723Y-91841778D01*
X171942241Y-91981661D01*
X171942241Y-92126479D01*
X171979723Y-92266362D01*
X172001493Y-92304070D01*
X170842241Y-92304070D01*
X170842241Y-92612070D01*
X170852849Y-92731395D01*
X170852850Y-92731398D01*
X170908798Y-92926931D01*
X171002962Y-93107199D01*
X171131487Y-93264823D01*
X171289111Y-93393348D01*
X171469379Y-93487512D01*
X171664912Y-93543460D01*
X171664915Y-93543461D01*
X171784240Y-93554069D01*
X171784243Y-93554070D01*
X172592241Y-93554070D01*
X172592241Y-92604070D01*
X173092241Y-92604070D01*
X173092241Y-93554070D01*
X173900239Y-93554070D01*
X173900241Y-93554069D01*
X174019566Y-93543461D01*
X174019569Y-93543460D01*
X174215102Y-93487512D01*
X174395370Y-93393348D01*
X174552994Y-93264823D01*
X174681519Y-93107199D01*
X174775683Y-92926931D01*
X174831631Y-92731398D01*
X174831632Y-92731395D01*
X174842240Y-92612070D01*
X174842241Y-92612068D01*
X174842241Y-92304070D01*
X173682989Y-92304070D01*
X173704759Y-92266362D01*
X173742241Y-92126479D01*
X173742241Y-91981661D01*
X173704759Y-91841778D01*
X173682989Y-91804070D01*
X174842241Y-91804070D01*
X174842241Y-91496072D01*
X174842240Y-91496069D01*
X175342241Y-91496069D01*
X175342241Y-91804070D01*
X176501493Y-91804070D01*
X176479723Y-91841778D01*
X176442241Y-91981661D01*
X176442241Y-92126479D01*
X176479723Y-92266362D01*
X176501493Y-92304070D01*
X175342241Y-92304070D01*
X175342241Y-92612070D01*
X175352849Y-92731395D01*
X175352850Y-92731398D01*
X175408798Y-92926931D01*
X175502962Y-93107199D01*
X175631487Y-93264823D01*
X175789111Y-93393348D01*
X175969379Y-93487512D01*
X176164912Y-93543460D01*
X176164915Y-93543461D01*
X176284240Y-93554069D01*
X176284243Y-93554070D01*
X177092241Y-93554070D01*
X177092241Y-92604070D01*
X177592241Y-92604070D01*
X177592241Y-93554070D01*
X178400239Y-93554070D01*
X178400241Y-93554069D01*
X178519566Y-93543461D01*
X178519569Y-93543460D01*
X178715102Y-93487512D01*
X178895370Y-93393348D01*
X179052994Y-93264823D01*
X179181519Y-93107199D01*
X179275683Y-92926931D01*
X179331631Y-92731398D01*
X179331632Y-92731395D01*
X179342240Y-92612070D01*
X179342241Y-92612068D01*
X179342241Y-92304070D01*
X178182989Y-92304070D01*
X178204759Y-92266362D01*
X178242241Y-92126479D01*
X178242241Y-91981661D01*
X178204759Y-91841778D01*
X178182989Y-91804070D01*
X179342241Y-91804070D01*
X179342241Y-91496072D01*
X179342240Y-91496069D01*
X184842241Y-91496069D01*
X184842241Y-91804070D01*
X186001493Y-91804070D01*
X185979723Y-91841778D01*
X185942241Y-91981661D01*
X185942241Y-92126479D01*
X185979723Y-92266362D01*
X186001493Y-92304070D01*
X184842241Y-92304070D01*
X184842241Y-92612070D01*
X184852849Y-92731395D01*
X184852850Y-92731398D01*
X184908798Y-92926931D01*
X185002962Y-93107199D01*
X185131487Y-93264823D01*
X185289111Y-93393348D01*
X185469379Y-93487512D01*
X185664912Y-93543460D01*
X185664915Y-93543461D01*
X185784240Y-93554069D01*
X185784243Y-93554070D01*
X186592241Y-93554070D01*
X186592241Y-92604070D01*
X187092241Y-92604070D01*
X187092241Y-93554070D01*
X187900239Y-93554070D01*
X187900241Y-93554069D01*
X188019566Y-93543461D01*
X188019569Y-93543460D01*
X188215102Y-93487512D01*
X188395370Y-93393348D01*
X188552994Y-93264823D01*
X188681519Y-93107199D01*
X188775683Y-92926931D01*
X188831631Y-92731398D01*
X188831632Y-92731395D01*
X188842240Y-92612070D01*
X188842241Y-92612068D01*
X188842241Y-92304070D01*
X187682989Y-92304070D01*
X187704759Y-92266362D01*
X187742241Y-92126479D01*
X187742241Y-91981661D01*
X187704759Y-91841778D01*
X187682989Y-91804070D01*
X188842241Y-91804070D01*
X188842241Y-91496072D01*
X188842240Y-91496069D01*
X189342241Y-91496069D01*
X189342241Y-91804070D01*
X190501493Y-91804070D01*
X190479723Y-91841778D01*
X190442241Y-91981661D01*
X190442241Y-92126479D01*
X190479723Y-92266362D01*
X190501493Y-92304070D01*
X189342241Y-92304070D01*
X189342241Y-92612070D01*
X189352849Y-92731395D01*
X189352850Y-92731398D01*
X189408798Y-92926931D01*
X189502962Y-93107199D01*
X189631487Y-93264823D01*
X189789111Y-93393348D01*
X189969379Y-93487512D01*
X190164912Y-93543460D01*
X190164915Y-93543461D01*
X190284240Y-93554069D01*
X190284243Y-93554070D01*
X191092241Y-93554070D01*
X191092241Y-92604070D01*
X191592241Y-92604070D01*
X191592241Y-93554070D01*
X192400239Y-93554070D01*
X192400241Y-93554069D01*
X192519566Y-93543461D01*
X192519569Y-93543460D01*
X192715102Y-93487512D01*
X192895370Y-93393348D01*
X193052994Y-93264823D01*
X193181519Y-93107199D01*
X193275683Y-92926931D01*
X193331631Y-92731398D01*
X193331632Y-92731395D01*
X193342240Y-92612070D01*
X193342241Y-92612068D01*
X193342241Y-92304070D01*
X192182989Y-92304070D01*
X192204759Y-92266362D01*
X192242241Y-92126479D01*
X192242241Y-91981661D01*
X192204759Y-91841778D01*
X192182989Y-91804070D01*
X193342241Y-91804070D01*
X193342241Y-91496072D01*
X193342240Y-91496069D01*
X198842241Y-91496069D01*
X198842241Y-91804070D01*
X200001493Y-91804070D01*
X199979723Y-91841778D01*
X199942241Y-91981661D01*
X199942241Y-92126479D01*
X199979723Y-92266362D01*
X200001493Y-92304070D01*
X198842241Y-92304070D01*
X198842241Y-92612070D01*
X198852849Y-92731395D01*
X198852850Y-92731398D01*
X198908798Y-92926931D01*
X199002962Y-93107199D01*
X199131487Y-93264823D01*
X199289111Y-93393348D01*
X199469379Y-93487512D01*
X199664912Y-93543460D01*
X199664915Y-93543461D01*
X199784240Y-93554069D01*
X199784243Y-93554070D01*
X200592241Y-93554070D01*
X200592241Y-92604070D01*
X201092241Y-92604070D01*
X201092241Y-93554070D01*
X201900239Y-93554070D01*
X201900241Y-93554069D01*
X202019566Y-93543461D01*
X202019569Y-93543460D01*
X202215102Y-93487512D01*
X202395370Y-93393348D01*
X202552994Y-93264823D01*
X202681519Y-93107199D01*
X202775683Y-92926931D01*
X202831631Y-92731398D01*
X202831632Y-92731395D01*
X202842240Y-92612070D01*
X202842241Y-92612068D01*
X202842241Y-92304070D01*
X201682989Y-92304070D01*
X201704759Y-92266362D01*
X201742241Y-92126479D01*
X201742241Y-91981661D01*
X201704759Y-91841778D01*
X201682989Y-91804070D01*
X202842241Y-91804070D01*
X202842241Y-91496072D01*
X202842240Y-91496069D01*
X203342241Y-91496069D01*
X203342241Y-91804070D01*
X204501493Y-91804070D01*
X204479723Y-91841778D01*
X204442241Y-91981661D01*
X204442241Y-92126479D01*
X204479723Y-92266362D01*
X204501493Y-92304070D01*
X203342241Y-92304070D01*
X203342241Y-92612070D01*
X203352849Y-92731395D01*
X203352850Y-92731398D01*
X203408798Y-92926931D01*
X203502962Y-93107199D01*
X203631487Y-93264823D01*
X203789111Y-93393348D01*
X203969379Y-93487512D01*
X204164912Y-93543460D01*
X204164915Y-93543461D01*
X204284240Y-93554069D01*
X204284243Y-93554070D01*
X205092241Y-93554070D01*
X205092241Y-92604070D01*
X205592241Y-92604070D01*
X205592241Y-93554070D01*
X206400239Y-93554070D01*
X206400241Y-93554069D01*
X206519566Y-93543461D01*
X206519569Y-93543460D01*
X206715102Y-93487512D01*
X206895370Y-93393348D01*
X207052994Y-93264823D01*
X207181519Y-93107199D01*
X207275683Y-92926931D01*
X207331631Y-92731398D01*
X207331632Y-92731395D01*
X207342240Y-92612070D01*
X207342241Y-92612068D01*
X207342241Y-92304070D01*
X206182989Y-92304070D01*
X206204759Y-92266362D01*
X206242241Y-92126479D01*
X206242241Y-91981661D01*
X206204759Y-91841778D01*
X206182989Y-91804070D01*
X207342241Y-91804070D01*
X207342241Y-91496072D01*
X207342240Y-91496069D01*
X212842241Y-91496069D01*
X212842241Y-91804070D01*
X214001493Y-91804070D01*
X213979723Y-91841778D01*
X213942241Y-91981661D01*
X213942241Y-92126479D01*
X213979723Y-92266362D01*
X214001493Y-92304070D01*
X212842241Y-92304070D01*
X212842241Y-92612070D01*
X212852849Y-92731395D01*
X212852850Y-92731398D01*
X212908798Y-92926931D01*
X213002962Y-93107199D01*
X213131487Y-93264823D01*
X213289111Y-93393348D01*
X213469379Y-93487512D01*
X213664912Y-93543460D01*
X213664915Y-93543461D01*
X213784240Y-93554069D01*
X213784243Y-93554070D01*
X214592241Y-93554070D01*
X214592241Y-92604070D01*
X215092241Y-92604070D01*
X215092241Y-93554070D01*
X215900239Y-93554070D01*
X215900241Y-93554069D01*
X216019566Y-93543461D01*
X216019569Y-93543460D01*
X216215102Y-93487512D01*
X216395370Y-93393348D01*
X216552994Y-93264823D01*
X216681519Y-93107199D01*
X216775683Y-92926931D01*
X216831631Y-92731398D01*
X216831632Y-92731395D01*
X216842240Y-92612070D01*
X216842241Y-92612068D01*
X216842241Y-92304070D01*
X215682989Y-92304070D01*
X215704759Y-92266362D01*
X215742241Y-92126479D01*
X215742241Y-91981661D01*
X215704759Y-91841778D01*
X215682989Y-91804070D01*
X216842241Y-91804070D01*
X216842241Y-91496072D01*
X216842240Y-91496069D01*
X216831632Y-91376744D01*
X216831631Y-91376741D01*
X216775683Y-91181208D01*
X216681519Y-91000940D01*
X216552994Y-90843316D01*
X216395370Y-90714791D01*
X216215102Y-90620627D01*
X216019569Y-90564679D01*
X216019566Y-90564678D01*
X215900241Y-90554070D01*
X215092241Y-90554070D01*
X215092241Y-91504070D01*
X214592241Y-91504070D01*
X214592241Y-90554070D01*
X213784240Y-90554070D01*
X213664915Y-90564678D01*
X213664912Y-90564679D01*
X213469379Y-90620627D01*
X213289111Y-90714791D01*
X213131487Y-90843316D01*
X213002962Y-91000940D01*
X212908798Y-91181208D01*
X212852850Y-91376741D01*
X212852849Y-91376744D01*
X212842241Y-91496069D01*
X207342240Y-91496069D01*
X207331632Y-91376744D01*
X207331631Y-91376741D01*
X207275683Y-91181208D01*
X207181519Y-91000940D01*
X207052994Y-90843316D01*
X206895370Y-90714791D01*
X206715102Y-90620627D01*
X206519569Y-90564679D01*
X206519566Y-90564678D01*
X206400241Y-90554070D01*
X205592241Y-90554070D01*
X205592241Y-91504070D01*
X205092241Y-91504070D01*
X205092241Y-90554070D01*
X204284240Y-90554070D01*
X204164915Y-90564678D01*
X204164912Y-90564679D01*
X203969379Y-90620627D01*
X203789111Y-90714791D01*
X203631487Y-90843316D01*
X203502962Y-91000940D01*
X203408798Y-91181208D01*
X203352850Y-91376741D01*
X203352849Y-91376744D01*
X203342241Y-91496069D01*
X202842240Y-91496069D01*
X202831632Y-91376744D01*
X202831631Y-91376741D01*
X202775683Y-91181208D01*
X202681519Y-91000940D01*
X202552994Y-90843316D01*
X202395370Y-90714791D01*
X202215102Y-90620627D01*
X202019569Y-90564679D01*
X202019566Y-90564678D01*
X201900241Y-90554070D01*
X201092241Y-90554070D01*
X201092241Y-91504070D01*
X200592241Y-91504070D01*
X200592241Y-90554070D01*
X199784240Y-90554070D01*
X199664915Y-90564678D01*
X199664912Y-90564679D01*
X199469379Y-90620627D01*
X199289111Y-90714791D01*
X199131487Y-90843316D01*
X199002962Y-91000940D01*
X198908798Y-91181208D01*
X198852850Y-91376741D01*
X198852849Y-91376744D01*
X198842241Y-91496069D01*
X193342240Y-91496069D01*
X193331632Y-91376744D01*
X193331631Y-91376741D01*
X193275683Y-91181208D01*
X193181519Y-91000940D01*
X193052994Y-90843316D01*
X192895370Y-90714791D01*
X192715102Y-90620627D01*
X192519569Y-90564679D01*
X192519566Y-90564678D01*
X192400241Y-90554070D01*
X191592241Y-90554070D01*
X191592241Y-91504070D01*
X191092241Y-91504070D01*
X191092241Y-90554070D01*
X190284240Y-90554070D01*
X190164915Y-90564678D01*
X190164912Y-90564679D01*
X189969379Y-90620627D01*
X189789111Y-90714791D01*
X189631487Y-90843316D01*
X189502962Y-91000940D01*
X189408798Y-91181208D01*
X189352850Y-91376741D01*
X189352849Y-91376744D01*
X189342241Y-91496069D01*
X188842240Y-91496069D01*
X188831632Y-91376744D01*
X188831631Y-91376741D01*
X188775683Y-91181208D01*
X188681519Y-91000940D01*
X188552994Y-90843316D01*
X188395370Y-90714791D01*
X188215102Y-90620627D01*
X188019569Y-90564679D01*
X188019566Y-90564678D01*
X187900241Y-90554070D01*
X187092241Y-90554070D01*
X187092241Y-91504070D01*
X186592241Y-91504070D01*
X186592241Y-90554070D01*
X185784240Y-90554070D01*
X185664915Y-90564678D01*
X185664912Y-90564679D01*
X185469379Y-90620627D01*
X185289111Y-90714791D01*
X185131487Y-90843316D01*
X185002962Y-91000940D01*
X184908798Y-91181208D01*
X184852850Y-91376741D01*
X184852849Y-91376744D01*
X184842241Y-91496069D01*
X179342240Y-91496069D01*
X179331632Y-91376744D01*
X179331631Y-91376741D01*
X179275683Y-91181208D01*
X179181519Y-91000940D01*
X179052994Y-90843316D01*
X178895370Y-90714791D01*
X178715102Y-90620627D01*
X178519569Y-90564679D01*
X178519566Y-90564678D01*
X178400241Y-90554070D01*
X177592241Y-90554070D01*
X177592241Y-91504070D01*
X177092241Y-91504070D01*
X177092241Y-90554070D01*
X176284240Y-90554070D01*
X176164915Y-90564678D01*
X176164912Y-90564679D01*
X175969379Y-90620627D01*
X175789111Y-90714791D01*
X175631487Y-90843316D01*
X175502962Y-91000940D01*
X175408798Y-91181208D01*
X175352850Y-91376741D01*
X175352849Y-91376744D01*
X175342241Y-91496069D01*
X174842240Y-91496069D01*
X174831632Y-91376744D01*
X174831631Y-91376741D01*
X174775683Y-91181208D01*
X174681519Y-91000940D01*
X174552994Y-90843316D01*
X174395370Y-90714791D01*
X174215102Y-90620627D01*
X174019569Y-90564679D01*
X174019566Y-90564678D01*
X173900241Y-90554070D01*
X173092241Y-90554070D01*
X173092241Y-91504070D01*
X172592241Y-91504070D01*
X172592241Y-90554070D01*
X171784240Y-90554070D01*
X171664915Y-90564678D01*
X171664912Y-90564679D01*
X171469379Y-90620627D01*
X171289111Y-90714791D01*
X171131487Y-90843316D01*
X171002962Y-91000940D01*
X170908798Y-91181208D01*
X170852850Y-91376741D01*
X170852849Y-91376744D01*
X170842241Y-91496069D01*
X165342240Y-91496069D01*
X165331632Y-91376744D01*
X165331631Y-91376741D01*
X165275683Y-91181208D01*
X165181519Y-91000940D01*
X165052994Y-90843316D01*
X164895370Y-90714791D01*
X164715102Y-90620627D01*
X164519569Y-90564679D01*
X164519566Y-90564678D01*
X164400241Y-90554070D01*
X163592241Y-90554070D01*
X163592241Y-91504070D01*
X163092241Y-91504070D01*
X163092241Y-90554070D01*
X162284240Y-90554070D01*
X162164915Y-90564678D01*
X162164912Y-90564679D01*
X161969379Y-90620627D01*
X161789109Y-90714792D01*
X161784978Y-90717515D01*
X161718170Y-90737971D01*
X161650908Y-90719060D01*
X161604548Y-90666787D01*
X161592741Y-90613979D01*
X161592741Y-84443888D01*
X164192241Y-84443888D01*
X164192241Y-84664251D01*
X164226714Y-84881905D01*
X164294808Y-85091480D01*
X164394852Y-85287826D01*
X164441173Y-85351583D01*
X165109278Y-84683478D01*
X165126316Y-84747063D01*
X165192142Y-84861077D01*
X165285234Y-84954169D01*
X165399248Y-85019995D01*
X165462830Y-85037032D01*
X164794726Y-85705135D01*
X164794726Y-85705136D01*
X164858484Y-85751458D01*
X165054830Y-85851502D01*
X165264405Y-85919596D01*
X165482060Y-85954070D01*
X165702422Y-85954070D01*
X165920076Y-85919596D01*
X166129651Y-85851502D01*
X166326005Y-85751454D01*
X166414148Y-85687414D01*
X166479954Y-85663933D01*
X166548008Y-85679758D01*
X166585410Y-85712244D01*
X166612435Y-85747463D01*
X166658428Y-85807403D01*
X166660307Y-85809851D01*
X166836459Y-85986003D01*
X166836466Y-85986009D01*
X167034114Y-86137669D01*
X167249864Y-86262232D01*
X167249879Y-86262239D01*
X167349066Y-86303323D01*
X167480034Y-86357572D01*
X167720676Y-86422052D01*
X167967676Y-86454570D01*
X167967683Y-86454570D01*
X168216799Y-86454570D01*
X168216806Y-86454570D01*
X168463806Y-86422052D01*
X168704448Y-86357572D01*
X168885378Y-86282627D01*
X168934605Y-86262238D01*
X168934608Y-86262236D01*
X168934614Y-86262234D01*
X168957460Y-86249043D01*
X169025358Y-86232569D01*
X169091385Y-86255419D01*
X169097805Y-86260313D01*
X169138834Y-86293768D01*
X169319192Y-86387979D01*
X169319194Y-86387979D01*
X169319195Y-86387980D01*
X169338596Y-86393531D01*
X169514823Y-86443956D01*
X169634204Y-86454570D01*
X171550277Y-86454569D01*
X171669659Y-86443956D01*
X171865290Y-86387979D01*
X172045648Y-86293768D01*
X172203350Y-86165179D01*
X172331939Y-86007477D01*
X172426150Y-85827119D01*
X172482127Y-85631488D01*
X172492741Y-85512107D01*
X172492740Y-84443888D01*
X178192241Y-84443888D01*
X178192241Y-84664251D01*
X178226714Y-84881905D01*
X178294808Y-85091480D01*
X178394852Y-85287826D01*
X178441173Y-85351583D01*
X179109278Y-84683478D01*
X179126316Y-84747063D01*
X179192142Y-84861077D01*
X179285234Y-84954169D01*
X179399248Y-85019995D01*
X179462830Y-85037032D01*
X178794726Y-85705135D01*
X178794726Y-85705136D01*
X178858484Y-85751458D01*
X179054830Y-85851502D01*
X179264405Y-85919596D01*
X179482060Y-85954070D01*
X179702422Y-85954070D01*
X179920076Y-85919596D01*
X180129651Y-85851502D01*
X180326005Y-85751454D01*
X180414148Y-85687414D01*
X180479954Y-85663933D01*
X180548008Y-85679758D01*
X180585410Y-85712244D01*
X180612435Y-85747463D01*
X180658428Y-85807403D01*
X180660307Y-85809851D01*
X180836459Y-85986003D01*
X180836466Y-85986009D01*
X181034114Y-86137669D01*
X181249864Y-86262232D01*
X181249879Y-86262239D01*
X181349066Y-86303323D01*
X181480034Y-86357572D01*
X181720676Y-86422052D01*
X181967676Y-86454570D01*
X181967683Y-86454570D01*
X182216799Y-86454570D01*
X182216806Y-86454570D01*
X182463806Y-86422052D01*
X182704448Y-86357572D01*
X182885378Y-86282627D01*
X182934605Y-86262238D01*
X182934608Y-86262236D01*
X182934614Y-86262234D01*
X182957460Y-86249043D01*
X183025358Y-86232569D01*
X183091385Y-86255419D01*
X183097805Y-86260313D01*
X183138834Y-86293768D01*
X183319192Y-86387979D01*
X183319194Y-86387979D01*
X183319195Y-86387980D01*
X183338596Y-86393531D01*
X183514823Y-86443956D01*
X183634204Y-86454570D01*
X185550277Y-86454569D01*
X185669659Y-86443956D01*
X185865290Y-86387979D01*
X186045648Y-86293768D01*
X186203350Y-86165179D01*
X186331939Y-86007477D01*
X186426150Y-85827119D01*
X186482127Y-85631488D01*
X186492741Y-85512107D01*
X186492740Y-84443888D01*
X192192241Y-84443888D01*
X192192241Y-84664251D01*
X192226714Y-84881905D01*
X192294808Y-85091480D01*
X192394852Y-85287826D01*
X192441173Y-85351583D01*
X193109278Y-84683478D01*
X193126316Y-84747063D01*
X193192142Y-84861077D01*
X193285234Y-84954169D01*
X193399248Y-85019995D01*
X193462830Y-85037032D01*
X192794726Y-85705135D01*
X192794726Y-85705136D01*
X192858484Y-85751458D01*
X193054830Y-85851502D01*
X193264405Y-85919596D01*
X193482060Y-85954070D01*
X193702422Y-85954070D01*
X193920076Y-85919596D01*
X194129651Y-85851502D01*
X194326005Y-85751454D01*
X194414148Y-85687414D01*
X194479954Y-85663933D01*
X194548008Y-85679758D01*
X194585410Y-85712244D01*
X194612435Y-85747463D01*
X194658428Y-85807403D01*
X194660307Y-85809851D01*
X194836459Y-85986003D01*
X194836466Y-85986009D01*
X195034114Y-86137669D01*
X195249864Y-86262232D01*
X195249879Y-86262239D01*
X195349066Y-86303323D01*
X195480034Y-86357572D01*
X195720676Y-86422052D01*
X195967676Y-86454570D01*
X195967683Y-86454570D01*
X196216799Y-86454570D01*
X196216806Y-86454570D01*
X196463806Y-86422052D01*
X196704448Y-86357572D01*
X196885378Y-86282627D01*
X196934605Y-86262238D01*
X196934608Y-86262236D01*
X196934614Y-86262234D01*
X196957460Y-86249043D01*
X197025358Y-86232569D01*
X197091385Y-86255419D01*
X197097805Y-86260313D01*
X197138834Y-86293768D01*
X197319192Y-86387979D01*
X197319194Y-86387979D01*
X197319195Y-86387980D01*
X197338596Y-86393531D01*
X197514823Y-86443956D01*
X197634204Y-86454570D01*
X199550277Y-86454569D01*
X199669659Y-86443956D01*
X199865290Y-86387979D01*
X200045648Y-86293768D01*
X200203350Y-86165179D01*
X200331939Y-86007477D01*
X200426150Y-85827119D01*
X200482127Y-85631488D01*
X200492741Y-85512107D01*
X200492740Y-84443888D01*
X206192241Y-84443888D01*
X206192241Y-84664251D01*
X206226714Y-84881905D01*
X206294808Y-85091480D01*
X206394852Y-85287826D01*
X206441173Y-85351583D01*
X207109278Y-84683478D01*
X207126316Y-84747063D01*
X207192142Y-84861077D01*
X207285234Y-84954169D01*
X207399248Y-85019995D01*
X207462830Y-85037032D01*
X206794726Y-85705135D01*
X206794726Y-85705136D01*
X206858484Y-85751458D01*
X207054830Y-85851502D01*
X207264405Y-85919596D01*
X207482060Y-85954070D01*
X207702422Y-85954070D01*
X207920076Y-85919596D01*
X208129651Y-85851502D01*
X208326005Y-85751454D01*
X208414148Y-85687414D01*
X208479954Y-85663933D01*
X208548008Y-85679758D01*
X208585410Y-85712244D01*
X208612435Y-85747463D01*
X208658428Y-85807403D01*
X208660307Y-85809851D01*
X208836459Y-85986003D01*
X208836466Y-85986009D01*
X209034114Y-86137669D01*
X209249864Y-86262232D01*
X209249879Y-86262239D01*
X209349066Y-86303323D01*
X209480034Y-86357572D01*
X209720676Y-86422052D01*
X209967676Y-86454570D01*
X209967683Y-86454570D01*
X210216799Y-86454570D01*
X210216806Y-86454570D01*
X210463806Y-86422052D01*
X210704448Y-86357572D01*
X210885378Y-86282627D01*
X210934605Y-86262238D01*
X210934608Y-86262236D01*
X210934614Y-86262234D01*
X210957460Y-86249043D01*
X211025358Y-86232569D01*
X211091385Y-86255419D01*
X211097805Y-86260313D01*
X211138834Y-86293768D01*
X211319192Y-86387979D01*
X211319194Y-86387979D01*
X211319195Y-86387980D01*
X211338596Y-86393531D01*
X211514823Y-86443956D01*
X211634204Y-86454570D01*
X213550277Y-86454569D01*
X213669659Y-86443956D01*
X213865290Y-86387979D01*
X213933127Y-86352544D01*
X222458408Y-86352544D01*
X222458408Y-87782247D01*
X222458409Y-87782262D01*
X222473686Y-87976394D01*
X222534335Y-88229013D01*
X222633751Y-88469026D01*
X222633753Y-88469030D01*
X222633754Y-88469031D01*
X222769496Y-88690543D01*
X222938219Y-88888092D01*
X223135768Y-89056815D01*
X223357280Y-89192557D01*
X223357282Y-89192557D01*
X223357284Y-89192559D01*
X223418601Y-89217957D01*
X223597298Y-89291976D01*
X223849914Y-89352624D01*
X224044055Y-89367903D01*
X225473760Y-89367902D01*
X225667902Y-89352624D01*
X225920518Y-89291976D01*
X225960060Y-89275597D01*
X233411375Y-89275597D01*
X233411375Y-89480300D01*
X233443397Y-89682483D01*
X233506656Y-89877172D01*
X233599590Y-90059562D01*
X233719903Y-90225162D01*
X233864661Y-90369920D01*
X234019624Y-90482505D01*
X234030265Y-90490236D01*
X234146482Y-90549452D01*
X234212651Y-90583167D01*
X234212653Y-90583167D01*
X234212656Y-90583169D01*
X234317012Y-90617076D01*
X234407340Y-90646426D01*
X234508432Y-90662437D01*
X234609523Y-90678449D01*
X234609524Y-90678449D01*
X234814226Y-90678449D01*
X234814227Y-90678449D01*
X235016409Y-90646426D01*
X235211094Y-90583169D01*
X235393485Y-90490236D01*
X235515958Y-90401255D01*
X235559088Y-90369920D01*
X235559090Y-90369917D01*
X235559094Y-90369915D01*
X235703841Y-90225168D01*
X235703843Y-90225164D01*
X235703846Y-90225162D01*
X235812436Y-90075698D01*
X235824162Y-90059559D01*
X235917095Y-89877168D01*
X235980352Y-89682483D01*
X236012375Y-89480301D01*
X236012375Y-89275597D01*
X235980352Y-89073415D01*
X235974958Y-89056815D01*
X235920137Y-88888092D01*
X235917095Y-88878730D01*
X235917093Y-88878727D01*
X235917093Y-88878725D01*
X235872704Y-88791608D01*
X235824162Y-88696339D01*
X235788242Y-88646899D01*
X235703846Y-88530735D01*
X235559088Y-88385977D01*
X235393488Y-88265664D01*
X235393487Y-88265663D01*
X235393485Y-88265662D01*
X235336528Y-88236640D01*
X235211098Y-88172730D01*
X235016409Y-88109471D01*
X234825629Y-88079255D01*
X234814227Y-88077449D01*
X234609523Y-88077449D01*
X234598121Y-88079255D01*
X234407340Y-88109471D01*
X234212651Y-88172730D01*
X234030261Y-88265664D01*
X233864661Y-88385977D01*
X233719903Y-88530735D01*
X233599590Y-88696335D01*
X233506656Y-88878725D01*
X233443397Y-89073414D01*
X233411375Y-89275597D01*
X225960060Y-89275597D01*
X226160536Y-89192557D01*
X226205509Y-89164998D01*
X226205510Y-89164997D01*
X226382048Y-89056815D01*
X226579597Y-88888092D01*
X226748320Y-88690543D01*
X226884062Y-88469031D01*
X226983481Y-88229013D01*
X227044129Y-87976397D01*
X227059408Y-87782256D01*
X227059407Y-86352551D01*
X227044129Y-86158409D01*
X226983481Y-85905793D01*
X226900366Y-85705136D01*
X226884064Y-85665779D01*
X226863051Y-85631488D01*
X226748320Y-85444263D01*
X226748317Y-85444259D01*
X226746103Y-85441666D01*
X226746101Y-85441665D01*
X226703347Y-85391607D01*
X226579597Y-85246714D01*
X226382048Y-85077991D01*
X226160536Y-84942249D01*
X226160535Y-84942248D01*
X226160531Y-84942246D01*
X225964570Y-84861077D01*
X225920518Y-84842830D01*
X225920519Y-84842830D01*
X225782829Y-84809773D01*
X225667902Y-84782182D01*
X225667900Y-84782181D01*
X225667899Y-84782181D01*
X225506927Y-84769513D01*
X225473761Y-84766903D01*
X225473759Y-84766903D01*
X224044063Y-84766903D01*
X224044048Y-84766904D01*
X223849916Y-84782181D01*
X223597297Y-84842830D01*
X223357284Y-84942246D01*
X223135767Y-85077991D01*
X222938219Y-85246714D01*
X222769496Y-85444262D01*
X222633751Y-85665779D01*
X222534335Y-85905792D01*
X222473686Y-86158412D01*
X222458408Y-86352544D01*
X213933127Y-86352544D01*
X214045648Y-86293768D01*
X214045653Y-86293764D01*
X214094398Y-86254018D01*
X214094404Y-86254013D01*
X214203350Y-86165179D01*
X214225781Y-86137669D01*
X214331939Y-86007477D01*
X214426150Y-85827119D01*
X214482127Y-85631488D01*
X214492741Y-85512107D01*
X214492740Y-83596034D01*
X214482127Y-83476652D01*
X214426150Y-83281021D01*
X214331939Y-83100663D01*
X214279925Y-83036873D01*
X214203350Y-82942960D01*
X214045650Y-82814374D01*
X214045651Y-82814374D01*
X214045648Y-82814372D01*
X213865290Y-82720161D01*
X213865289Y-82720160D01*
X213865286Y-82720159D01*
X213746207Y-82686087D01*
X213669659Y-82664184D01*
X213669656Y-82664183D01*
X213669654Y-82664183D01*
X213603343Y-82658287D01*
X213550278Y-82653570D01*
X213550273Y-82653570D01*
X211634212Y-82653570D01*
X211634206Y-82653570D01*
X211634205Y-82653571D01*
X211622557Y-82654606D01*
X211514825Y-82664183D01*
X211319195Y-82720159D01*
X211138832Y-82814373D01*
X211097818Y-82847814D01*
X211033421Y-82874921D01*
X210964592Y-82862909D01*
X210957463Y-82859097D01*
X210934619Y-82845909D01*
X210934614Y-82845906D01*
X210934610Y-82845904D01*
X210934602Y-82845900D01*
X210704448Y-82750568D01*
X210463802Y-82686087D01*
X210216816Y-82653571D01*
X210216811Y-82653570D01*
X210216806Y-82653570D01*
X209967676Y-82653570D01*
X209967670Y-82653570D01*
X209967665Y-82653571D01*
X209720679Y-82686087D01*
X209480033Y-82750568D01*
X209249879Y-82845900D01*
X209249864Y-82845907D01*
X209034114Y-82970470D01*
X208836466Y-83122130D01*
X208836459Y-83122136D01*
X208660311Y-83298285D01*
X208660309Y-83298286D01*
X208585409Y-83395896D01*
X208528980Y-83437098D01*
X208459234Y-83441252D01*
X208414148Y-83420726D01*
X208326001Y-83356683D01*
X208129651Y-83256637D01*
X207920076Y-83188543D01*
X207702422Y-83154070D01*
X207482060Y-83154070D01*
X207264405Y-83188543D01*
X207054830Y-83256637D01*
X206858474Y-83356686D01*
X206794726Y-83403001D01*
X206794726Y-83403002D01*
X207462831Y-84071107D01*
X207399248Y-84088145D01*
X207285234Y-84153971D01*
X207192142Y-84247063D01*
X207126316Y-84361077D01*
X207109278Y-84424660D01*
X206441173Y-83756555D01*
X206441172Y-83756555D01*
X206394857Y-83820303D01*
X206294808Y-84016659D01*
X206226714Y-84226234D01*
X206192241Y-84443888D01*
X200492740Y-84443888D01*
X200492740Y-83596034D01*
X200482127Y-83476652D01*
X200426150Y-83281021D01*
X200331939Y-83100663D01*
X200279925Y-83036873D01*
X200203350Y-82942960D01*
X200045650Y-82814374D01*
X200045651Y-82814374D01*
X200045648Y-82814372D01*
X199865290Y-82720161D01*
X199865289Y-82720160D01*
X199865286Y-82720159D01*
X199746207Y-82686087D01*
X199669659Y-82664184D01*
X199669656Y-82664183D01*
X199669654Y-82664183D01*
X199603343Y-82658287D01*
X199550278Y-82653570D01*
X199550273Y-82653570D01*
X197634212Y-82653570D01*
X197634206Y-82653570D01*
X197634205Y-82653571D01*
X197622557Y-82654606D01*
X197514825Y-82664183D01*
X197319195Y-82720159D01*
X197138832Y-82814373D01*
X197097818Y-82847814D01*
X197033421Y-82874921D01*
X196964592Y-82862909D01*
X196957463Y-82859097D01*
X196934619Y-82845909D01*
X196934614Y-82845906D01*
X196934610Y-82845904D01*
X196934602Y-82845900D01*
X196704448Y-82750568D01*
X196463802Y-82686087D01*
X196216816Y-82653571D01*
X196216811Y-82653570D01*
X196216806Y-82653570D01*
X195967676Y-82653570D01*
X195967670Y-82653570D01*
X195967665Y-82653571D01*
X195720679Y-82686087D01*
X195480033Y-82750568D01*
X195249879Y-82845900D01*
X195249864Y-82845907D01*
X195034114Y-82970470D01*
X194836466Y-83122130D01*
X194836459Y-83122136D01*
X194660311Y-83298285D01*
X194660309Y-83298286D01*
X194585409Y-83395896D01*
X194528980Y-83437098D01*
X194459234Y-83441252D01*
X194414148Y-83420726D01*
X194326001Y-83356683D01*
X194129651Y-83256637D01*
X193920076Y-83188543D01*
X193702422Y-83154070D01*
X193482060Y-83154070D01*
X193264405Y-83188543D01*
X193054830Y-83256637D01*
X192858474Y-83356686D01*
X192794726Y-83403001D01*
X192794726Y-83403002D01*
X193462831Y-84071107D01*
X193399248Y-84088145D01*
X193285234Y-84153971D01*
X193192142Y-84247063D01*
X193126316Y-84361077D01*
X193109278Y-84424660D01*
X192441173Y-83756555D01*
X192441172Y-83756555D01*
X192394857Y-83820303D01*
X192294808Y-84016659D01*
X192226714Y-84226234D01*
X192192241Y-84443888D01*
X186492740Y-84443888D01*
X186492740Y-83596034D01*
X186482127Y-83476652D01*
X186426150Y-83281021D01*
X186331939Y-83100663D01*
X186279925Y-83036873D01*
X186203350Y-82942960D01*
X186045650Y-82814374D01*
X186045651Y-82814374D01*
X186045648Y-82814372D01*
X185865290Y-82720161D01*
X185865289Y-82720160D01*
X185865286Y-82720159D01*
X185746207Y-82686087D01*
X185669659Y-82664184D01*
X185669656Y-82664183D01*
X185669654Y-82664183D01*
X185603343Y-82658287D01*
X185550278Y-82653570D01*
X185550273Y-82653570D01*
X183634212Y-82653570D01*
X183634206Y-82653570D01*
X183634205Y-82653571D01*
X183622557Y-82654606D01*
X183514825Y-82664183D01*
X183319195Y-82720159D01*
X183138832Y-82814373D01*
X183097818Y-82847814D01*
X183033421Y-82874921D01*
X182964592Y-82862909D01*
X182957463Y-82859097D01*
X182934619Y-82845909D01*
X182934614Y-82845906D01*
X182934610Y-82845904D01*
X182934602Y-82845900D01*
X182704448Y-82750568D01*
X182463802Y-82686087D01*
X182216816Y-82653571D01*
X182216811Y-82653570D01*
X182216806Y-82653570D01*
X181967676Y-82653570D01*
X181967670Y-82653570D01*
X181967665Y-82653571D01*
X181720679Y-82686087D01*
X181480033Y-82750568D01*
X181249879Y-82845900D01*
X181249864Y-82845907D01*
X181034114Y-82970470D01*
X180836466Y-83122130D01*
X180836459Y-83122136D01*
X180660311Y-83298285D01*
X180660309Y-83298286D01*
X180585409Y-83395896D01*
X180528980Y-83437098D01*
X180459234Y-83441252D01*
X180414148Y-83420726D01*
X180326001Y-83356683D01*
X180129651Y-83256637D01*
X179920076Y-83188543D01*
X179702422Y-83154070D01*
X179482060Y-83154070D01*
X179264405Y-83188543D01*
X179054830Y-83256637D01*
X178858474Y-83356686D01*
X178794726Y-83403001D01*
X178794726Y-83403002D01*
X179462831Y-84071107D01*
X179399248Y-84088145D01*
X179285234Y-84153971D01*
X179192142Y-84247063D01*
X179126316Y-84361077D01*
X179109278Y-84424660D01*
X178441173Y-83756555D01*
X178441172Y-83756555D01*
X178394857Y-83820303D01*
X178294808Y-84016659D01*
X178226714Y-84226234D01*
X178192241Y-84443888D01*
X172492740Y-84443888D01*
X172492740Y-83596034D01*
X172482127Y-83476652D01*
X172426150Y-83281021D01*
X172331939Y-83100663D01*
X172279925Y-83036873D01*
X172203350Y-82942960D01*
X172045650Y-82814374D01*
X172045651Y-82814374D01*
X172045648Y-82814372D01*
X171865290Y-82720161D01*
X171865289Y-82720160D01*
X171865286Y-82720159D01*
X171746207Y-82686087D01*
X171669659Y-82664184D01*
X171669656Y-82664183D01*
X171669654Y-82664183D01*
X171603343Y-82658287D01*
X171550278Y-82653570D01*
X171550273Y-82653570D01*
X169634212Y-82653570D01*
X169634206Y-82653570D01*
X169634205Y-82653571D01*
X169622557Y-82654606D01*
X169514825Y-82664183D01*
X169319195Y-82720159D01*
X169138832Y-82814373D01*
X169097818Y-82847814D01*
X169033421Y-82874921D01*
X168964592Y-82862909D01*
X168957463Y-82859097D01*
X168934619Y-82845909D01*
X168934614Y-82845906D01*
X168934610Y-82845904D01*
X168934602Y-82845900D01*
X168704448Y-82750568D01*
X168463802Y-82686087D01*
X168216816Y-82653571D01*
X168216811Y-82653570D01*
X168216806Y-82653570D01*
X167967676Y-82653570D01*
X167967670Y-82653570D01*
X167967665Y-82653571D01*
X167720679Y-82686087D01*
X167480033Y-82750568D01*
X167249879Y-82845900D01*
X167249864Y-82845907D01*
X167034114Y-82970470D01*
X166836466Y-83122130D01*
X166836459Y-83122136D01*
X166660311Y-83298285D01*
X166660309Y-83298286D01*
X166585409Y-83395896D01*
X166528980Y-83437098D01*
X166459234Y-83441252D01*
X166414148Y-83420726D01*
X166326001Y-83356683D01*
X166129651Y-83256637D01*
X165920076Y-83188543D01*
X165702422Y-83154070D01*
X165482060Y-83154070D01*
X165264405Y-83188543D01*
X165054830Y-83256637D01*
X164858474Y-83356686D01*
X164794726Y-83403001D01*
X164794726Y-83403002D01*
X165462831Y-84071107D01*
X165399248Y-84088145D01*
X165285234Y-84153971D01*
X165192142Y-84247063D01*
X165126316Y-84361077D01*
X165109278Y-84424660D01*
X164441173Y-83756555D01*
X164441172Y-83756555D01*
X164394857Y-83820303D01*
X164294808Y-84016659D01*
X164226714Y-84226234D01*
X164192241Y-84443888D01*
X161592741Y-84443888D01*
X161592741Y-79178570D01*
X161612426Y-79111531D01*
X161665230Y-79065776D01*
X161716741Y-79054570D01*
X192174593Y-79054570D01*
X192241632Y-79074255D01*
G37*
%TD.AperFunction*%
%TD*%
M02*
