M48
; DRILL file {KiCad 9.0.7} date 2026-03-17T19:37:45-0500
; FORMAT={-:-/ absolute / metric / decimal}
; #@! TF.CreationDate,2026-03-17T19:37:45-05:00
; #@! TF.GenerationSoftware,Kicad,Pcbnew,9.0.7
; #@! TF.FileFunction,Plated,1,4,PTH
FMAT,2
METRIC
; #@! TA.AperFunction,Plated,PTH,ViaDrill
T1C0.300
; #@! TA.AperFunction,Plated,PTH,ComponentDrill
T2C0.600
; #@! TA.AperFunction,Plated,PTH,ComponentDrill
T3C1.000
; #@! TA.AperFunction,Plated,PTH,ComponentDrill
T4C1.100
%
G90
G05
T1
X198.817Y-113.89
X213.196Y-107.958
X221.458Y-107.356
X221.65Y-102.1
X224.751Y-107.662
X226.294Y-109.754
X226.45Y-100.813
X227.053Y-108.962
X227.639Y-101.431
X232.992Y-104.716
X234.592Y-95.054
X234.592Y-97.054
X234.712Y-89.378
X242.092Y-83.554
T3
X165.592Y-84.554
X168.092Y-84.554
X170.592Y-84.554
X174.339Y-116.975
X176.879Y-116.975
X179.419Y-116.975
X179.592Y-84.554
X181.959Y-116.975
X182.092Y-84.554
X184.499Y-116.975
X184.592Y-84.554
X187.039Y-116.975
X189.579Y-116.975
X192.119Y-116.975
X193.592Y-84.554
X194.101Y-80.355
X194.659Y-116.975
X196.092Y-84.554
X196.641Y-80.355
X197.199Y-116.975
X198.592Y-84.554
X199.181Y-80.355
X199.739Y-116.975
X201.721Y-80.355
X204.261Y-80.355
X206.801Y-80.355
X207.592Y-84.554
X210.092Y-84.554
X212.592Y-84.554
X229.576Y-102.987
X229.576Y-105.487
X229.576Y-107.987
X232.076Y-102.987
X232.076Y-105.487
X232.076Y-107.987
X239.744Y-80.355
X242.284Y-80.355
X244.824Y-80.355
X247.364Y-80.355
X249.904Y-80.355
X252.444Y-80.355
X260.003Y-80.355
X262.543Y-80.355
X265.083Y-80.355
X267.623Y-80.355
T2
X167.592Y-100.567G85X168.592Y-100.567
G05
X167.592Y-108.867G85X168.592Y-108.867
G05
X167.592Y-111.967G85X168.592Y-111.967
G05
X181.592Y-100.567G85X182.592Y-100.567
G05
X181.592Y-108.867G85X182.592Y-108.867
G05
X181.592Y-111.967G85X182.592Y-111.967
G05
X189.612Y-104.987G85X189.612Y-105.987
G05
X192.712Y-104.987G85X192.712Y-105.987
G05
X201.012Y-104.987G85X201.012Y-105.987
G05
X209.592Y-100.567G85X210.592Y-100.567
G05
X209.592Y-108.867G85X210.592Y-108.867
G05
X209.592Y-111.967G85X210.592Y-111.967
G05
X224.259Y-87.067G85X225.259Y-87.067
G05
X224.259Y-95.367G85X225.259Y-95.367
G05
X224.259Y-98.467G85X225.259Y-98.467
G05
X239.926Y-85.574G85X238.926Y-85.574
G05
X239.926Y-88.674G85X238.926Y-88.674
G05
X239.926Y-96.974G85X238.926Y-96.974
G05
X254.592Y-85.507G85X253.592Y-85.507
G05
X254.592Y-88.607G85X253.592Y-88.607
G05
X254.592Y-96.907G85X253.592Y-96.907
G05
X253.592Y-100.567G85X254.592Y-100.567
G05
X253.592Y-108.867G85X254.592Y-108.867
G05
X253.592Y-111.967G85X254.592Y-111.967
G05
X264.592Y-85.507G85X263.592Y-85.507
G05
X264.592Y-88.607G85X263.592Y-88.607
G05
X264.592Y-96.907G85X263.592Y-96.907
G05
X263.592Y-100.567G85X264.592Y-100.567
G05
X263.592Y-108.867G85X264.592Y-108.867
G05
X263.592Y-111.967G85X264.592Y-111.967
G05
T4
X163.692Y-92.054G85X162.992Y-92.054
G05
X173.192Y-92.054G85X172.492Y-92.054
G05
X177.692Y-92.054G85X176.992Y-92.054
G05
X187.192Y-92.054G85X186.492Y-92.054
G05
X191.692Y-92.054G85X190.992Y-92.054
G05
X201.192Y-92.054G85X200.492Y-92.054
G05
X205.692Y-92.054G85X204.992Y-92.054
G05
X215.192Y-92.054G85X214.492Y-92.054
G05
X239.576Y-100.387G85X239.576Y-101.087
G05
X239.576Y-109.887G85X239.576Y-110.587
G05
M30
